<svg width="64" height="64" viewBox="0 0 64 64" fill="none" xmlns="http://www.w3.org/2000/svg">
<path d="M32.904 22.045L24.328 20.334L24.33 20.321C23.812 20.165 23.447 19.694 23.447 19.139C23.447 18.45 24.008 17.889 24.697 17.889H24.731L24.756 17.895L33.861 17.68L33.971 17.696L43.472 20.004L41.23 26.167L32.904 22.045Z" fill="black"/>
<path d="M33.844 17.931C33.868 17.931 33.892 17.934 33.915 17.939L34.346 18.044L43.143 20.181L41.091 25.819L33.015 21.821L24.609 20.135V20.122C24.1 20.076 23.696 19.661 23.696 19.139C23.696 18.587 24.144 18.139 24.696 18.139C24.727 18.139 24.752 18.154 24.782 18.156V18.142L33.836 17.93C33.839 17.93 33.841 17.931 33.844 17.931ZM33.844 17.431H33.825L24.772 17.643H24.766C24.745 17.641 24.721 17.639 24.696 17.639C24.638 17.639 24.581 17.642 24.525 17.649L24.326 17.654L24.323 17.687C23.676 17.853 23.197 18.442 23.197 19.14C23.197 19.744 23.555 20.263 24.082 20.496L24.08 20.526L24.511 20.626L32.852 22.299L40.869 26.268L41.37 26.516L41.561 25.991L43.613 20.353L43.804 19.828L43.261 19.696L34.464 17.559L34.033 17.454C33.969 17.439 33.906 17.431 33.844 17.431Z" fill="white"/>
<path d="M47.612 21.414C49.6831 21.414 51.362 19.7351 51.362 17.664C51.362 15.5929 49.6831 13.914 47.612 13.914C45.5409 13.914 43.862 15.5929 43.862 17.664C43.862 19.7351 45.5409 21.414 47.612 21.414Z" fill="black"/>
<path d="M47.612 14.164C49.545 14.164 51.112 15.731 51.112 17.664C51.112 19.597 49.545 21.164 47.612 21.164C45.679 21.164 44.112 19.597 44.112 17.664C44.112 15.731 45.679 14.164 47.612 14.164ZM47.612 13.664C45.406 13.664 43.612 15.458 43.612 17.664C43.612 19.87 45.406 21.664 47.612 21.664C49.818 21.664 51.612 19.87 51.612 17.664C51.612 15.458 49.818 13.664 47.612 13.664Z" fill="white"/>
<path d="M20.319 35.852C20.221 35.852 20.126 35.842 20.033 35.826L10.002 33.928C8.922 33.748 8.129 32.828 8.129 31.72C8.129 30.48 9.139 29.47 10.379 29.47C10.421 29.47 10.463 29.474 10.505 29.48L19.774 29.363L29.135 25.806L31.35 34.067L20.569 35.833C20.487 35.847 20.403 35.854 20.32 35.854L20.319 35.852Z" fill="black"/>
<path d="M28.964 26.136L30 30L31.036 33.864L21.117 35.488L20.528 35.584C20.459 35.595 20.39 35.601 20.321 35.601C20.238 35.601 20.157 35.593 20.079 35.579L10.204 33.711V33.701C9.183 33.612 8.378 32.764 8.378 31.719C8.378 30.614 9.274 29.719 10.378 29.719C10.437 29.719 10.493 29.731 10.551 29.736V29.726L19.776 29.612L28.964 26.136ZM29.304 25.473L28.787 25.668L19.682 29.112L10.547 29.225H10.505C10.456 29.22 10.418 29.217 10.379 29.217C10.293 29.217 10.208 29.221 10.125 29.23H10.1V29.233C8.852 29.372 7.879 30.433 7.879 31.717C7.879 32.849 8.623 33.804 9.674 34.107L9.684 34.11C9.793 34.141 9.905 34.165 10.021 34.181L10.112 34.2L19.987 36.068C20.096 36.088 20.208 36.099 20.322 36.099C20.418 36.099 20.514 36.091 20.61 36.076L21.199 35.979L31.118 34.355L31.663 34.266L31.52 33.732L30.484 29.868L29.448 26.004L29.305 25.47L29.304 25.473Z" fill="white"/>
<path d="M36.844 51.045C35.934 51.045 35.108 50.483 34.765 49.637L26.247 31.958C26.17 31.811 26.101 31.681 26.048 31.542L25.958 31.309L25.967 31.301C25.821 30.857 25.749 30.43 25.749 30C25.749 28.581 26.481 27.246 27.676 26.462L27.673 26.455L27.874 26.319L39.338 19.696L39.35 19.717C39.955 19.407 40.594 19.25 41.251 19.25C43.595 19.25 45.501 21.156 45.501 23.5C45.501 24.916 44.772 26.247 43.584 27.032L43.588 27.038L43.377 27.181L34.896 32.08L38.986 48.128C39.059 48.356 39.094 48.574 39.094 48.795C39.094 50.035 38.084 51.045 36.844 51.045Z" fill="black"/>
<path d="M41.252 19.5C43.461 19.5 45.252 21.291 45.252 23.5C45.252 24.98 44.439 26.257 43.244 26.949L43.252 26.963L34.606 31.958L38.723 48.11L38.716 48.112C38.794 48.326 38.843 48.553 38.843 48.794C38.843 49.899 37.947 50.794 36.843 50.794C35.979 50.794 35.25 50.243 34.97 49.476L34.964 49.478L26.472 31.849C26.404 31.719 26.335 31.59 26.281 31.452L26.241 31.368L26.254 31.363C26.098 30.936 26 30.48 26 29.999C26 28.519 26.812 27.242 28.007 26.55L27.999 26.536L39.25 20.036L39.258 20.05C39.847 19.709 40.521 19.499 41.251 19.499M41.252 19C40.633 19 40.031 19.131 39.455 19.389L39.443 19.367L39.001 19.603L27.75 26.103L27.317 26.353L27.339 26.392C26.194 27.236 25.5 28.577 25.5 30C25.5 30.346 25.546 30.7 25.636 31.056L25.564 31.082L25.79 31.585L25.83 31.669C25.873 31.782 25.944 31.92 26.017 32.058L34.514 49.696L34.546 49.763C34.578 49.84 34.615 49.915 34.654 49.988L34.71 50.105L34.72 50.102C35.168 50.832 35.971 51.296 36.844 51.296C38.222 51.296 39.344 50.174 39.344 48.796C39.344 48.549 39.303 48.296 39.221 48.043L39.208 47.988L35.185 32.203L43.503 27.398L43.936 27.148L43.914 27.109C45.059 26.265 45.752 24.924 45.752 23.502C45.752 21.021 43.733 19.002 41.252 19.002V19Z" fill="white"/>
<path d="M48.48 39.613C48.146 39.613 47.833 39.483 47.596 39.247L40.546 33.609C40.192 33.326 39.969 32.921 39.918 32.471L38.939 23.662C38.891 23.449 38.867 23.224 38.867 22.999C38.867 21.207 40.325 19.749 42.117 19.749C43.909 19.749 45.367 21.207 45.367 22.999C45.367 23.224 45.343 23.449 45.291 23.687L44.443 31.325L49.382 37.499C49.6 37.715 49.73 38.028 49.73 38.362C49.73 39.051 49.169 39.613 48.48 39.613Z" fill="black"/>
<path d="M42.117 20C43.774 20 45.117 21.343 45.117 23C45.117 23.219 45.091 23.43 45.046 23.636L44.183 31.401L49.187 37.656C49.368 37.837 49.48 38.087 49.48 38.363C49.48 38.915 49.032 39.363 48.48 39.363C48.204 39.363 47.954 39.251 47.773 39.07L40.703 33.414C40.39 33.164 40.208 32.811 40.166 32.443L40.117 32L39.188 23.636C39.144 23.431 39.117 23.219 39.117 23C39.117 21.343 40.46 20 42.117 20ZM42.117 19.5C40.187 19.5 38.617 21.07 38.617 23C38.617 23.233 38.643 23.473 38.693 23.716L39.62 32.056L39.669 32.499C39.728 33.017 39.984 33.481 40.39 33.805L47.44 39.445C47.721 39.715 48.088 39.863 48.479 39.863C49.306 39.863 49.979 39.19 49.979 38.363C49.979 37.973 49.831 37.605 49.561 37.324L44.702 31.25L45.539 23.715C45.59 23.472 45.615 23.231 45.615 23C45.615 21.07 44.045 19.5 42.115 19.5H42.117Z" fill="white"/>
<path d="M51.5368 39.5627L51.1482 41.0115L56.4615 42.4365L56.85 40.9877L51.5368 39.5627Z" fill="black"/>
<path d="M51.714 39.87L56.544 41.164L56.285 42.13L51.455 40.836L51.714 39.87ZM51.361 39.258L51.232 39.741L50.973 40.707L50.844 41.19L51.327 41.319L56.157 42.613L56.64 42.742L56.769 42.259L57.028 41.293L57.158 40.81L56.675 40.681L51.845 39.387L51.361 39.258Z" fill="white"/>
</svg>
