<svg width="64" height="64" viewBox="0 0 64 64" fill="none" xmlns="http://www.w3.org/2000/svg">
<path d="M19.814 34.092L46.785 41.399C48.093 41.753 49 42.94 49 44.295V45H9V43.333C9 42.484 9.36 41.675 9.99 41.106L17.019 34.761C17.776 34.077 18.829 33.825 19.814 34.092Z" fill="black"/>
<path d="M13.087 16.026C15.02 16.026 16.587 14.459 16.587 12.526C16.587 10.593 15.02 9.026 13.087 9.026C11.154 9.026 9.58701 10.593 9.58701 12.526C9.58701 14.459 11.154 16.026 13.087 16.026Z" fill="black"/>
<path d="M12.207 21.152L12.194 21.147C12.35 20.72 12.448 20.264 12.448 19.783C12.448 17.574 10.657 15.783 8.448 15.783C6.72 15.783 5.262 16.885 4.702 18.419L4.689 18.414L0.241 30.631L0.254 30.636C0.099 31.063 0 31.519 0 32L2 52C2 53.105 2.895 54 4 54C5.105 54 6 53.105 6 52L7.903 32.973L12.208 21.152H12.207Z" fill="black"/>
<path d="M18.234 34.914C17.899 34.914 17.585 34.784 17.349 34.548L10.301 28.912C10.159 28.799 10.046 28.659 9.965 28.497L5.978 20.445C5.904 20.317 5.828 20.173 5.768 20.02L5.677 19.789L5.689 19.78C5.59 19.463 5.541 19.149 5.541 18.843C5.541 17.051 6.999 15.593 8.791 15.593C10.065 15.593 11.226 16.357 11.746 17.515L11.781 17.504L11.853 17.757L11.892 17.917C11.929 18.041 11.965 18.178 11.989 18.321L13.928 26.289C13.928 26.289 19.082 32.734 19.134 32.797C19.354 33.016 19.484 33.329 19.484 33.663C19.484 34.352 18.923 34.913 18.234 34.913V34.914Z" fill="black"/>
<path d="M8.791 15.844C10.087 15.844 11.181 16.67 11.6 17.821L11.61 17.817L11.649 17.978C11.687 18.104 11.721 18.23 11.743 18.363L13.699 26.404C14.991 28.019 18.94 32.957 18.941 32.958C19.122 33.139 19.234 33.389 19.234 33.665C19.234 34.217 18.786 34.665 18.234 34.665C17.958 34.665 17.708 34.553 17.527 34.372L10.458 28.717C10.342 28.625 10.252 28.511 10.19 28.386L9.992 27.986L6.203 20.334C6.128 20.203 6.057 20.071 6.002 19.928L5.973 19.87L5.983 19.866C5.866 19.545 5.792 19.204 5.792 18.843C5.792 17.186 7.135 15.843 8.792 15.843M8.791 15.344C6.861 15.344 5.291 16.914 5.291 18.844C5.291 19.078 5.318 19.317 5.371 19.557L5.286 19.588L5.524 20.092L5.553 20.15C5.593 20.258 5.665 20.404 5.769 20.584L9.543 28.208L9.741 28.608C9.84 28.805 9.976 28.973 10.146 29.108L17.195 34.746C17.476 35.016 17.844 35.164 18.234 35.164C19.061 35.164 19.734 34.491 19.734 33.664C19.734 33.273 19.586 32.905 19.316 32.625C19.169 32.441 17.908 30.865 16.618 29.251L14.159 26.177L12.229 18.244C12.212 18.127 12.173 17.979 12.128 17.832L12.097 17.699L11.965 17.157L11.866 17.193C11.263 16.07 10.082 15.344 8.791 15.344Z" fill="white"/>
<path d="M61 46H9V50H61V46Z" fill="black"/>
<path d="M51 45H59C59.5523 45 60 44.5523 60 44C60 43.4477 59.5523 43 59 43H51C50.4477 43 50 43.4477 50 44C50 44.5523 50.4477 45 51 45Z" fill="black"/>
<path d="M64 54H61V37.5C61 36.672 61.672 36 62.5 36C63.328 36 64 36.672 64 37.5V54Z" fill="black"/>
<path d="M9 54H12V50H9V54Z" fill="black"/>
</svg>
