<svg width="64" height="64" viewBox="0 0 64 64" fill="none" xmlns="http://www.w3.org/2000/svg">
<path d="M27.107 11.078C25.747 11.078 24.537 11.678 23.707 12.638L23.977 4.81799L28.377 11.268C27.977 11.138 27.547 11.078 27.107 11.078Z" fill="black"/>
<path d="M43.914 21.074C43.914 20.522 43.466 20.074 42.914 20.074C42.669 20.074 42.453 20.172 42.279 20.318L42.27 20.308L35.97 24.505L29.036 20.329L26.522 25.777L35.185 28.674L35.603 28.814C36.187 29.008 36.856 28.864 37.309 28.39L43.556 21.84L43.548 21.83C43.767 21.647 43.913 21.382 43.913 21.074H43.914Z" fill="black"/>
<path d="M32.939 37.694L32.93 37.692C32.97 37.466 33 37.237 33 37C33 36.881 32.975 36.769 32.965 36.653L32.985 36.651L31.852 23.7L31.832 23.702C31.654 21.658 29.957 20.049 27.867 20.049C25.658 20.049 23.867 21.84 23.867 24.049C23.867 24.168 23.892 24.28 23.902 24.396L23.882 24.398L24.997 37.147L23.561 56.342H23.564C23.544 56.456 23.529 56.57 23.529 56.689C23.529 57.794 24.424 58.689 25.529 58.689C26.515 58.689 27.33 57.974 27.494 57.035H27.5L32.801 38.181C32.846 38.037 32.895 37.895 32.924 37.744L32.939 37.692V37.694Z" fill="black"/>
<path d="M30.607 15.578C30.607 17.518 29.037 19.078 27.107 19.078C25.177 19.078 23.607 17.518 23.607 15.578C23.607 13.648 25.177 12.078 27.107 12.078C28.197 12.078 29.167 12.578 29.807 13.358C29.837 13.388 29.857 13.428 29.877 13.458L30.127 13.818C30.437 14.328 30.607 14.928 30.607 15.578Z" fill="black"/>
<path d="M17.698 36.303C17.009 36.303 16.448 35.742 16.448 35.053C16.448 35.001 16.457 34.957 16.466 34.92V34.863L17.041 25.829C17.083 25.173 17.474 24.583 18.061 24.289L25.965 20.348C26.135 20.229 26.364 20.115 26.637 20.015L26.918 19.868L26.93 19.922C27.211 19.843 27.485 19.805 27.76 19.805C29.552 19.805 31.01 21.263 31.01 23.055C31.01 24.314 30.261 25.467 29.123 25.995L29.136 26.032L28.877 26.112L28.608 26.178C28.501 26.208 28.417 26.232 28.328 26.246L21.045 28.055L18.859 35.517L18.84 35.513C18.654 35.983 18.208 36.303 17.698 36.303Z" fill="black"/>
<path d="M27.759 20.053C29.416 20.053 30.759 21.396 30.759 23.053C30.759 24.338 29.947 25.426 28.811 25.853L28.816 25.868L28.548 25.935C28.461 25.959 28.375 25.984 28.285 26L20.845 27.846L18.682 35.226L18.663 35.223C18.58 35.691 18.189 36.053 17.697 36.053C17.145 36.053 16.697 35.605 16.697 35.053C16.697 34.993 16.721 34.94 16.731 34.883L16.712 34.88L17.289 25.846C17.327 25.256 17.679 24.761 18.172 24.513L18.568 24.316L26.075 20.572C26.273 20.437 26.493 20.334 26.722 20.249L26.743 20.239V20.242C27.063 20.127 27.401 20.054 27.76 20.054M27.759 19.553C27.517 19.553 27.276 19.58 27.031 19.636L26.997 19.554L26.518 19.791C26.268 19.883 26.031 20 25.824 20.137L18.345 23.867L17.949 24.064C17.281 24.399 16.838 25.069 16.79 25.812L16.213 34.846L16.208 34.923C16.201 34.962 16.197 35.004 16.197 35.051C16.197 35.064 16.197 35.077 16.197 35.091L16.184 35.293L16.217 35.299C16.335 36.009 16.954 36.551 17.696 36.551C18.241 36.551 18.727 36.248 18.984 35.786L19.015 35.791L19.16 35.365L21.243 28.261L28.404 26.484C28.463 26.475 28.551 26.451 28.639 26.427L28.935 26.353L29.472 26.22L29.434 26.115C30.541 25.508 31.257 24.331 31.257 23.053C31.257 21.123 29.687 19.553 27.757 19.553H27.759Z" fill="white"/>
<path d="M38.962 50.122C37.722 50.122 36.712 49.112 36.712 47.872L36.037 41.143L29.225 41.227C29.107 41.243 29.054 41.249 28.999 41.249L28.869 41.237L28.654 41.233L28.388 41.236L28.39 41.185C26.298 40.886 24.748 39.126 24.748 36.998C24.748 34.654 26.654 32.748 28.998 32.748C29.04 32.748 29.081 32.751 29.122 32.754L29.124 32.737L29.394 32.767L29.619 32.809C29.755 32.83 29.895 32.854 30.036 32.889L39.856 34.745C41.32 35.022 42.354 36.405 42.21 37.893L41.21 47.892C41.21 49.109 40.201 50.119 38.961 50.119L38.962 50.122Z" fill="black"/>
<path d="M29 33C29.119 33 29.231 33.025 29.347 33.035L29.349 33.015L29.575 33.058C29.711 33.078 29.845 33.101 29.976 33.134L39.224 34.883L39.811 34.994C41.174 35.252 42.094 36.518 41.963 37.872L40.963 47.872C40.963 48.977 40.067 49.872 38.963 49.872C37.859 49.872 36.963 48.977 36.963 47.872L36.265 40.891L29.223 40.978C29.148 40.982 29.077 41 29.001 41C28.942 41 28.887 40.985 28.828 40.983L28.652 40.985L28.654 40.965C26.61 40.786 25.001 39.09 25.001 37C25.001 34.791 26.791 33 29 33ZM28.898 32.421L28.891 32.501C26.46 32.559 24.5 34.555 24.5 37C24.5 39.172 26.022 40.981 28.114 41.393L28.107 41.472L28.658 41.485L28.834 41.483C28.89 41.494 28.944 41.501 29.001 41.501C29.068 41.501 29.132 41.494 29.196 41.485L29.25 41.478L35.812 41.397L36.465 47.922C36.463 49.251 37.584 50.372 38.963 50.372C40.342 50.372 41.463 49.25 41.463 47.872L42.461 37.922C42.618 36.305 41.495 34.804 39.905 34.503L39.318 34.392L30.07 32.643C29.951 32.612 29.801 32.586 29.648 32.564L29.444 32.525L28.901 32.422L28.898 32.421Z" fill="white"/>
</svg>
