<svg width="64" height="64" viewBox="0 0 64 64" fill="none" xmlns="http://www.w3.org/2000/svg">
<path d="M38.001 21.4258L34.5369 23.4258L39.5369 32.086L43.001 30.086L38.001 21.4258Z" fill="black"/>
<path d="M56.133 23.05C56.133 20.841 54.342 19.05 52.133 19.05C50.043 19.05 48.347 20.659 48.168 22.703L48.148 22.701L47.015 35.652L47.035 35.654C47.025 35.77 47 35.882 47 36.001L49 56.001C49 57.106 49.895 58.001 51 58.001C52.105 58.001 53 57.106 53 56.001L54.965 36.348L54.985 36.35L56.118 23.399L56.098 23.397C56.108 23.281 56.133 23.169 56.133 23.05Z" fill="black"/>
<path d="M52.874 18.082C54.807 18.082 56.374 16.515 56.374 14.582C56.374 12.649 54.807 11.082 52.874 11.082C50.941 11.082 49.374 12.649 49.374 14.582C49.374 16.515 50.941 18.082 52.874 18.082Z" fill="black"/>
<path d="M47.149 31.72C46.908 31.72 46.673 31.676 46.45 31.59L37.793 28.206L37.799 28.189C37.381 27.982 37.115 27.568 37.115 27.093C37.115 26.404 37.676 25.843 38.365 25.843C38.446 25.843 38.519 25.858 38.582 25.874L38.662 25.88L45.847 26.976L49.231 20.784C49.306 20.599 49.417 20.398 49.547 20.21L49.687 20.009L49.697 20.014C50.312 19.252 51.241 18.804 52.221 18.804C54.013 18.804 55.471 20.262 55.471 22.054C55.471 22.64 55.313 23.208 55.011 23.712L55.04 23.733L54.777 24.039C54.684 24.161 54.576 24.29 54.453 24.406L48.595 31.068C48.23 31.482 47.703 31.719 47.15 31.719L47.149 31.72Z" fill="black"/>
<path d="M52.22 19.053C53.877 19.053 55.22 20.396 55.22 22.053C55.22 22.693 55.016 23.284 54.674 23.771L54.677 23.773L54.589 23.873C54.494 23.997 54.394 24.116 54.281 24.223L48.697 30.57L48.405 30.902C48.075 31.277 47.613 31.469 47.148 31.469C46.942 31.469 46.736 31.431 46.54 31.355L38.105 28.058L38.11 28.041C37.684 27.926 37.364 27.554 37.364 27.092C37.364 26.54 37.812 26.092 38.364 26.092C38.454 26.092 38.535 26.121 38.618 26.143L38.622 26.126L45.98 27.248L49.448 20.903C49.529 20.707 49.631 20.523 49.75 20.351L49.761 20.331L49.764 20.333C50.307 19.56 51.202 19.051 52.218 19.051M52.22 18.553C51.255 18.553 50.337 18.957 49.679 19.652L49.603 19.596L49.325 20.089C49.204 20.264 49.09 20.471 48.999 20.686L45.711 26.701L38.699 25.632L38.251 25.564L38.242 25.597C37.472 25.66 36.865 26.306 36.865 27.092C36.865 27.586 37.117 28.037 37.515 28.309L37.506 28.341L37.924 28.523L46.359 31.82C46.612 31.918 46.877 31.968 47.149 31.968C47.775 31.968 48.37 31.7 48.782 31.232L49.074 30.9L54.658 24.553C54.745 24.473 54.856 24.348 54.987 24.178L55.054 24.103L55.419 23.687L55.341 23.631C55.591 23.142 55.721 22.604 55.721 22.052C55.721 20.122 54.151 18.552 52.221 18.552L52.22 18.553Z" fill="white"/>
<path d="M17.73 27.333C19.663 27.333 21.23 25.766 21.23 23.833C21.23 21.9 19.663 20.333 17.73 20.333C15.797 20.333 14.23 21.9 14.23 23.833C14.23 25.766 15.797 27.333 17.73 27.333Z" fill="black"/>
<path d="M24.81 42.994L24.224 42.883L18.299 41.762L19.118 32.398L19.098 32.396C19.108 32.28 19.133 32.168 19.133 32.049C19.133 29.84 17.342 28.049 15.133 28.049C13.043 28.049 11.347 29.658 11.168 31.702L11.148 31.7L10.015 44.651L10.035 44.653C10.025 44.769 10 44.881 10 45C10 47.09 11.609 48.786 13.653 48.965V48.985L13.827 48.983C13.886 48.986 13.941 49 14 49C14.076 49 14.146 48.982 14.221 48.978L21.263 48.891L21.961 55.872C21.961 56.977 22.856 57.872 23.961 57.872C25.066 57.872 25.961 56.977 25.961 55.872L26.961 45.872C27.092 44.518 26.172 43.252 24.81 42.994Z" fill="black"/>
<path d="M22.358 38.462C22.017 38.462 21.719 38.295 21.456 38.148L13.952 34.044C13.767 33.969 13.565 33.858 13.377 33.728L13.167 33.613L13.183 33.581C12.42 32.966 11.971 32.037 11.971 31.056C11.971 29.264 13.429 27.806 15.221 27.806C15.791 27.806 16.346 27.956 16.84 28.243L16.862 28.2L17.209 28.501C17.329 28.593 17.458 28.701 17.573 28.823L23.621 34.143L31.93 35.81L31.928 35.823C32.445 35.98 32.809 36.45 32.809 37.005C32.809 37.694 32.248 38.255 31.559 38.255H31.524L31.499 38.249L22.359 38.465L22.358 38.462Z" fill="black"/>
<path d="M15.22 28.053C15.861 28.053 16.451 28.257 16.939 28.599L16.941 28.595L17.043 28.685C17.166 28.78 17.284 28.879 17.391 28.991L23.506 34.372L31.646 36.004V36.017C32.155 36.063 32.559 36.478 32.559 37C32.559 37.552 32.111 38 31.559 38C31.529 38 31.503 37.985 31.473 37.983V37.997L22.419 38.209C22.399 38.211 22.379 38.211 22.358 38.211C22.029 38.211 21.717 38.001 21.445 37.854C21.445 37.854 15.057 34.361 14.071 33.822C13.875 33.741 13.691 33.639 13.519 33.52L13.498 33.509L13.5 33.505C12.727 32.962 12.219 32.068 12.219 31.051C12.219 29.394 13.562 28.051 15.219 28.051M15.22 27.553C13.29 27.553 11.72 29.123 11.72 31.053C11.72 32.024 12.128 32.947 12.831 33.605L12.779 33.681L13.258 33.948C13.447 34.077 13.648 34.186 13.854 34.274L21.205 38.294L21.33 38.363C21.606 38.518 21.95 38.712 22.358 38.712C22.392 38.712 22.425 38.711 22.459 38.708L31.483 38.498H31.489C31.51 38.5 31.534 38.502 31.559 38.502C31.617 38.502 31.674 38.499 31.73 38.492L31.938 38.487L31.941 38.452C32.584 38.283 33.059 37.696 33.059 37.001C33.059 36.4 32.705 35.882 32.181 35.648L32.184 35.617L31.745 35.515L23.737 33.909L17.723 28.616C17.644 28.53 17.52 28.42 17.35 28.289L17.272 28.219L16.85 27.848L16.794 27.929C16.307 27.681 15.771 27.552 15.221 27.552L15.22 27.553Z" fill="white"/>
<path d="M37 39H22C21.448 39 21 39.448 21 40C21 40.552 21.448 41 22 41H28.5V58H30.5V41H37C37.552 41 38 40.552 38 40C38 39.448 37.552 39 37 39Z" fill="black"/>
<path d="M19 50H9C8.448 50 8 50.448 8 51C8 51.552 8.448 52 9 52V58H11V52H17V58H19V52C19.552 52 20 51.552 20 51C20 50.448 19.552 50 19 50Z" fill="black"/>
<path d="M46 15L44 13V8C44 6.343 42.657 5 41 5H38C36.343 5 35 6.343 35 8V13C35 14.657 36.343 16 38 16H41C41.899 16 42.696 15.597 43.246 14.971L43.235 15H46ZM39.744 13.212C39.642 13.324 39.51 13.38 39.345 13.38C39.168 13.38 39.033 13.328 38.937 13.224C38.84 13.12 38.792 12.972 38.792 12.78C38.792 12.604 38.843 12.46 38.944 12.348C39.046 12.236 39.178 12.18 39.344 12.18C39.52 12.18 39.656 12.232 39.751 12.336C39.848 12.44 39.896 12.588 39.896 12.78C39.896 12.956 39.845 13.1 39.744 13.212ZM41.189 9.72C41.117 9.888 41.014 10.047 40.88 10.196C40.747 10.345 40.591 10.479 40.412 10.596C40.233 10.713 40.037 10.809 39.824 10.884L39.688 11.604H39.072L38.864 10.476C39.072 10.423 39.259 10.363 39.425 10.296C39.59 10.23 39.733 10.157 39.853 10.08C39.973 10.003 40.073 9.919 40.153 9.828C40.233 9.737 40.293 9.64 40.333 9.536C40.373 9.432 40.394 9.321 40.394 9.204C40.394 9.049 40.352 8.911 40.27 8.788C40.187 8.665 40.074 8.569 39.93 8.5C39.785 8.431 39.622 8.396 39.442 8.396C39.228 8.396 39.022 8.469 38.822 8.616C38.622 8.762 38.45 8.969 38.306 9.236L37.705 8.732C37.934 8.38 38.208 8.107 38.525 7.912C38.842 7.717 39.174 7.62 39.521 7.62C39.857 7.62 40.158 7.689 40.425 7.828C40.692 7.967 40.904 8.156 41.061 8.396C41.218 8.636 41.296 8.905 41.296 9.204C41.296 9.38 41.261 9.552 41.189 9.72Z" fill="black"/>
</svg>
