<svg width="64" height="64" viewBox="0 0 64 64" fill="none" xmlns="http://www.w3.org/2000/svg">
<path d="M43.096 46.772L43.098 46.75L26.218 43.557L23.496 33.405L23.481 33.409C23.024 31.703 21.482 30.441 19.632 30.441C17.423 30.441 15.632 32.232 15.632 34.441C15.632 34.8 15.694 35.142 15.783 35.473L15.768 35.477L19.135 48.035L19.15 48.031C19.578 49.627 20.959 50.816 22.652 50.964L22.65 50.984L22.826 50.982C22.885 50.985 22.94 50.999 22.999 50.999C23.075 50.999 23.146 50.981 23.221 50.977L42.733 50.735C42.758 50.735 42.781 50.742 42.806 50.742C43.911 50.742 44.806 49.847 44.806 48.742C44.806 47.737 44.062 46.912 43.095 46.771L43.096 46.772Z" fill="black"/>
<path d="M49 19.005C49 22.865 45.87 26.005 42 26.005C39.15 26.005 36.7 24.305 35.62 21.865C36.06 21.955 36.53 22.005 37 22.005C40.87 22.005 44 18.865 44 15.005C44 13.985 43.78 13.015 43.39 12.145C46.59 12.785 49 15.615 49 19.005Z" fill="black"/>
<path d="M19.27 29.333C21.203 29.333 22.77 27.766 22.77 25.833C22.77 23.9 21.203 22.333 19.27 22.333C17.337 22.333 15.77 23.9 15.77 25.833C15.77 27.766 17.337 29.333 19.27 29.333Z" fill="black"/>
<path d="M14.712 52.114C14.023 52.114 13.462 51.5529 13.462 50.864C13.462 50.785 13.476 50.714 13.491 50.651L13.498 50.567L16.158 33.127C16.172 32.996 16.187 32.855 16.22 32.718L16.279 32.472H16.295C16.729 31.141 17.971 30.226 19.374 30.226C21.166 30.226 22.624 31.684 22.624 33.476C22.624 33.668 22.603 33.863 22.56 34.073L22.594 34.083L22.503 34.345L22.444 34.494C22.405 34.618 22.356 34.752 22.293 34.881L15.826 51.429L15.811 51.425C15.605 51.846 15.188 52.115 14.711 52.115L14.712 52.114Z" fill="black"/>
<path d="M19.374 30.476C21.031 30.476 22.374 31.819 22.374 33.476C22.374 33.745 22.327 34.002 22.26 34.25L22.271 34.253L22.212 34.403C22.171 34.53 22.125 34.653 22.068 34.772L15.677 51.124L15.66 51.119C15.545 51.545 15.173 51.865 14.711 51.865C14.159 51.865 13.711 51.417 13.711 50.865C13.711 50.775 13.74 50.694 13.762 50.611L13.745 50.606L16.404 33.166C16.418 33.034 16.433 32.903 16.464 32.776L16.475 32.7L16.486 32.703C16.829 31.424 17.985 30.477 19.372 30.477M19.374 29.976C17.968 29.976 16.712 30.828 16.168 32.099L16.076 32.074L15.982 32.624L15.971 32.7C15.944 32.805 15.924 32.958 15.909 33.113L13.253 50.529L13.186 50.971L13.218 50.98C13.278 51.753 13.926 52.363 14.714 52.363C15.21 52.363 15.663 52.109 15.935 51.708L15.966 51.716L16.146 51.304L22.537 34.952C22.589 34.848 22.643 34.704 22.691 34.556L22.74 34.434L22.943 33.916L22.848 33.89C22.868 33.748 22.877 33.611 22.877 33.475C22.877 31.545 21.307 29.975 19.377 29.975L19.374 29.976Z" fill="white"/>
</svg>
