<svg width="64" height="64" viewBox="0 0 64 64" fill="none" xmlns="http://www.w3.org/2000/svg">
<path d="M19.339 49.91C18.099 49.91 17.089 48.9 17.089 47.66C17.089 46.898 17.487 46.182 18.135 45.769L25.407 40.539L29.421 31.645L36.828 35.921L30.452 44.79C30.236 45.089 29.943 45.329 29.602 45.484L20.359 49.655C20.036 49.824 19.693 49.909 19.338 49.909L19.339 49.91Z" fill="black"/>
<path d="M29.536 32L36.464 36L30.598 44.16L30.25 44.645C30.053 44.919 29.787 45.128 29.5 45.258L20.34 49.392L20.336 49.385C20.042 49.555 19.705 49.66 19.34 49.66C18.236 49.66 17.34 48.765 17.34 47.66C17.34 46.92 17.747 46.281 18.344 45.935L18.34 45.928L25.608 40.703L29.536 32ZM29.308 31.291L29.081 31.795L25.208 40.376L18.049 45.523L17.959 45.587C17.91 45.62 17.861 45.655 17.815 45.691L17.68 45.788L17.686 45.798C17.155 46.268 16.841 46.946 16.841 47.661C16.841 49.04 17.963 50.161 19.341 50.161C19.737 50.161 20.12 50.065 20.482 49.877L20.547 49.849L29.707 45.715C30.088 45.542 30.416 45.273 30.657 44.938L31.005 44.453L36.871 36.293L37.194 35.844L36.715 35.568L29.787 31.568L29.308 31.291Z" fill="white"/>
<path d="M23.144 33.756C22.455 33.756 21.894 33.195 21.894 32.506C21.894 32.339 21.933 32.175 22.013 32.006L22.049 31.904L25.683 23.614C25.807 23.276 26.122 23.051 26.375 22.869L34.01 17.251L37.29 22.931L29.091 26.525L24.078 33.334L24.066 33.328C23.832 33.599 23.501 33.757 23.143 33.757L23.144 33.756Z" fill="black"/>
<path d="M33.933 17.618L36.934 22.813L28.929 26.322L24.009 33.005L23.995 32.997C23.822 33.295 23.513 33.505 23.143 33.505C22.591 33.505 22.143 33.057 22.143 32.505C22.143 32.322 22.205 32.16 22.291 32.013L22.277 32.005L25.911 23.715C26.033 23.386 26.38 23.179 26.642 22.983L33.932 17.617M34.087 16.884L33.637 17.215L26.347 22.581L26.23 22.666C25.949 22.867 25.6 23.118 25.443 23.541L21.82 31.804L21.64 32.215L21.672 32.233C21.653 32.323 21.644 32.413 21.644 32.505C21.644 33.332 22.317 34.005 23.144 34.005C23.505 34.005 23.844 33.873 24.11 33.639L24.135 33.653L24.413 33.302L29.253 26.726L37.136 23.271L37.648 23.047L37.368 22.563L34.367 17.368L34.087 16.884Z" fill="white"/>
<path d="M38.568 16.981C40.6391 16.981 42.318 15.3021 42.318 13.231C42.318 11.1599 40.6391 9.48099 38.568 9.48099C36.4969 9.48099 34.818 11.1599 34.818 13.231C34.818 15.3021 36.4969 16.981 38.568 16.981Z" fill="black"/>
<path d="M38.568 9.73099C40.501 9.73099 42.068 11.298 42.068 13.231C42.068 15.164 40.501 16.731 38.568 16.731C36.635 16.731 35.068 15.164 35.068 13.231C35.068 11.298 36.635 9.73099 38.568 9.73099ZM38.568 9.23099C36.362 9.23099 34.568 11.025 34.568 13.231C34.568 15.437 36.362 17.231 38.568 17.231C40.774 17.231 42.568 15.437 42.568 13.231C42.568 11.025 40.774 9.23099 38.568 9.23099Z" fill="white"/>
<path d="M43 53.56C42.234 53.56 41.516 53.159 41.104 52.506L29.659 36.598C29.572 36.487 29.481 36.369 29.402 36.24L29.173 35.922L29.214 35.899C28.906 35.295 28.75 34.657 28.75 34.002C28.75 33.841 28.763 33.683 28.783 33.527H28.777L28.815 33.262L31.116 20.232L31.131 20.234C31.576 18.318 33.277 16.952 35.26 16.952C37.604 16.952 39.51 18.858 39.51 21.202C39.51 21.372 39.496 21.539 39.474 21.702H39.479L39.446 21.94L37.409 33.484L45.007 50.309C45.169 50.627 45.251 50.964 45.251 51.311C45.251 52.551 44.241 53.561 43.001 53.561L43 53.56Z" fill="black"/>
<path d="M35.26 17.2C37.469 17.2 39.26 18.991 39.26 21.2C39.26 21.438 39.23 21.668 39.19 21.894L39.199 21.896L37.147 33.515L44.731 50.31L44.724 50.314C44.895 50.608 44.999 50.946 44.999 51.31C44.999 52.415 44.104 53.31 42.999 53.31C42.259 53.31 41.62 52.904 41.274 52.306L41.267 52.31L29.86 36.452C29.773 36.34 29.687 36.228 29.612 36.107L29.536 36.001L29.55 35.993C29.209 35.404 28.999 34.73 28.999 34C28.999 33.762 29.029 33.532 29.069 33.306L29.06 33.304L31.32 20.504L31.329 20.506C31.659 18.629 33.288 17.2 35.26 17.2ZM35.26 16.7C33.244 16.7 31.505 18.032 30.951 19.932L30.924 19.927L30.828 20.418L28.568 33.218L28.481 33.711L28.511 33.716C28.503 33.814 28.5 33.908 28.5 34.001C28.5 34.619 28.63 35.221 28.888 35.797L28.821 35.836L29.13 36.295L29.206 36.401C29.272 36.51 29.368 36.636 29.466 36.762L40.861 52.604L40.924 52.692C40.958 52.743 40.994 52.793 41.031 52.841L41.125 52.972L41.135 52.966C41.605 53.497 42.283 53.812 42.999 53.812C44.377 53.812 45.499 52.69 45.499 51.312C45.499 50.916 45.404 50.533 45.215 50.172L45.187 50.106L37.666 33.451L39.691 21.984L39.778 21.491L39.748 21.486C39.755 21.395 39.76 21.299 39.76 21.201C39.76 18.72 37.741 16.7 35.26 16.7Z" fill="white"/>
<path d="M44.784 34.825C44.62 34.825 44.457 34.787 44.289 34.708L44.184 34.67L35.894 31.036C35.148 30.733 34.901 30.002 34.781 29.477L32.421 21.421C32.35 21.252 32.288 21.04 32.245 20.817L32.197 20.559L32.208 20.556C32.193 20.444 32.185 20.33 32.185 20.214C32.185 18.422 33.643 16.964 35.435 16.964C36.931 16.964 38.217 17.981 38.579 19.414L38.616 19.408L38.652 19.864C38.673 20.029 38.685 20.12 38.685 20.214L39.163 27.891L45.613 32.639L45.607 32.651C45.878 32.885 46.036 33.216 46.036 33.574C46.036 34.263 45.475 34.824 44.786 34.824L44.784 34.825Z" fill="black"/>
<path d="M35.434 17.215C36.913 17.215 38.135 18.288 38.382 19.696H38.389L38.401 19.881C38.413 19.992 38.434 20.1 38.434 20.215C38.434 20.241 38.427 20.265 38.426 20.29L38.918 28.023L45.283 32.708L45.275 32.722C45.573 32.895 45.783 33.204 45.783 33.574C45.783 34.126 45.335 34.574 44.783 34.574C44.6 34.574 44.438 34.512 44.291 34.426L44.283 34.44L35.993 30.806C35.396 30.564 35.154 29.988 35.024 29.421C35.024 29.421 33.235 23.315 32.66 21.35C32.584 21.165 32.528 20.971 32.49 20.77C32.487 20.761 32.48 20.734 32.48 20.734H32.487C32.457 20.563 32.435 20.392 32.435 20.214C32.435 18.557 33.778 17.214 35.435 17.214M35.434 16.715C33.504 16.715 31.934 18.285 31.934 20.215C31.934 20.252 31.934 20.288 31.936 20.324L31.852 20.339L32 20.874C32.042 21.091 32.105 21.309 32.188 21.515L34.545 29.562C34.614 29.867 34.847 30.881 35.806 31.27L44.083 34.899L44.492 35.078L44.511 35.046C44.601 35.065 44.692 35.075 44.784 35.075C45.611 35.075 46.284 34.402 46.284 33.575C46.284 33.214 46.153 32.876 45.919 32.611L45.933 32.586L45.58 32.307L39.402 27.76L38.927 20.303C38.931 20.273 38.933 20.245 38.933 20.216C38.933 20.112 38.921 20.011 38.907 19.911L38.896 19.826L38.886 19.663L38.85 19.104L38.751 19.122C38.287 17.702 36.962 16.715 35.432 16.715H35.434Z" fill="white"/>
</svg>
