<svg width="64" height="64" viewBox="0 0 64 64" fill="none" xmlns="http://www.w3.org/2000/svg">
<path d="M12 53.568C10.76 53.568 9.75 52.558 9.75 51.318C9.75 50.842 9.9 50.39 10.188 50.001L10.249 49.893L15.335 42.431L16.936 32.651L25.196 34.867L21.332 45.085C21.238 45.336 21.084 45.572 20.887 45.767L13.703 52.778C13.289 53.275 12.663 53.57 12.002 53.57L12 53.568Z" fill="black"/>
<path d="M17.136 32.964L21 34L24.863 35.036L21.307 44.437L21.096 44.995C21.01 45.224 20.871 45.427 20.708 45.588L13.525 52.597C13.158 53.034 12.615 53.318 11.999 53.318C10.894 53.318 9.99899 52.423 9.99899 51.318C9.99899 50.832 10.179 50.392 10.468 50.045L10.453 50.033L15.569 42.525L17.134 32.964M16.732 32.338L16.643 32.883L15.095 42.335L10.041 49.752L9.78499 50.127L9.80099 50.14C9.60299 50.502 9.49899 50.902 9.49899 51.318C9.49899 52.697 10.621 53.818 11.999 53.818C12.733 53.818 13.428 53.49 13.908 52.918L21.057 45.945C21.281 45.725 21.455 45.458 21.564 45.171L21.775 44.613L25.331 35.212L25.526 34.695L24.992 34.552L21.129 33.516L17.265 32.48L16.732 32.338Z" fill="white"/>
<path d="M27.844 55.045C26.934 55.045 26.108 54.483 25.765 53.637L17.246 35.955C17.171 35.814 17.102 35.684 17.049 35.544L16.959 35.311L16.968 35.303C16.821 34.856 16.749 34.429 16.749 34C16.749 33.932 16.756 33.865 16.765 33.8V33.63L17.919 20.44H17.945C18.244 18.349 20.004 16.8 22.132 16.8C24.476 16.8 26.382 18.706 26.382 21.05C26.382 21.116 26.376 21.181 26.367 21.245V21.42L25.287 33.752L29.985 52.128C30.058 52.356 30.093 52.574 30.093 52.795C30.093 54.035 29.084 55.045 27.844 55.045Z" fill="black"/>
<path d="M22.133 17.049C24.342 17.049 26.133 18.84 26.133 21.049C26.133 21.168 26.108 21.28 26.098 21.396L26.118 21.398L25.039 33.73L29.724 52.11L29.717 52.112C29.795 52.326 29.844 52.553 29.844 52.794C29.844 53.899 28.949 54.794 27.844 54.794C26.98 54.794 26.251 54.243 25.971 53.476L25.965 53.478L17.472 35.846C17.404 35.717 17.336 35.589 17.283 35.453L17.242 35.368L17.255 35.363C17.099 34.936 17.001 34.48 17.001 33.999C17.001 33.88 17.026 33.768 17.036 33.652L17.016 33.65L18.149 20.699L18.169 20.701C18.347 18.657 20.044 17.048 22.134 17.048M22.133 16.549C19.961 16.549 18.153 18.071 17.74 20.163L17.713 20.161L17.65 20.657L16.517 33.608L16.473 34.107L16.501 34.109C16.51 34.42 16.555 34.737 16.636 35.055L16.563 35.081L16.791 35.585L16.832 35.67C16.874 35.782 16.945 35.92 17.018 36.058L25.514 53.695L25.546 53.762C25.578 53.839 25.615 53.914 25.654 53.987L25.71 54.104L25.72 54.101C26.168 54.831 26.971 55.295 27.844 55.295C29.222 55.295 30.344 54.173 30.344 52.795C30.344 52.548 30.303 52.295 30.221 52.042L30.208 51.987L25.544 33.689L26.616 21.441L26.66 20.942L26.632 20.94C26.574 18.509 24.578 16.549 22.133 16.549Z" fill="white"/>
<path d="M22.874 16.332C24.9451 16.332 26.624 14.653 26.624 12.582C26.624 10.5109 24.9451 8.83197 22.874 8.83197C20.8029 8.83197 19.124 10.5109 19.124 12.582C19.124 14.653 20.8029 16.332 22.874 16.332Z" fill="black"/>
<path d="M22.874 9.08197C24.807 9.08197 26.374 10.649 26.374 12.582C26.374 14.515 24.807 16.082 22.874 16.082C20.941 16.082 19.374 14.515 19.374 12.582C19.374 10.649 20.941 9.08197 22.874 9.08197ZM22.874 8.58197C20.668 8.58197 18.874 10.376 18.874 12.582C18.874 14.788 20.668 16.582 22.874 16.582C25.08 16.582 26.874 14.788 26.874 12.582C26.874 10.376 25.08 8.58197 22.874 8.58197Z" fill="white"/>
<path d="M39.5 50.83C39.776 50.83 40 51.054 40 51.33C40 51.606 39.776 51.83 39.5 51.83C39.224 51.83 39 51.606 39 51.33C39 51.054 39.224 50.83 39.5 50.83ZM39.5 48.83C38.119 48.83 37 49.949 37 51.33C37 52.711 38.119 53.83 39.5 53.83C40.881 53.83 42 52.711 42 51.33C42 49.949 40.881 48.83 39.5 48.83Z" fill="black" stroke="white" stroke-width="0.25" stroke-miterlimit="10"/>
<path d="M52.5 50.795C52.776 50.795 53 51.019 53 51.295C53 51.571 52.776 51.795 52.5 51.795C52.224 51.795 52 51.571 52 51.295C52 51.019 52.224 50.795 52.5 50.795ZM52.5 48.795C51.119 48.795 50 49.914 50 51.295C50 52.676 51.119 53.795 52.5 53.795C53.881 53.795 55 52.676 55 51.295C55 49.914 53.881 48.795 52.5 48.795Z" fill="black" stroke="white" stroke-width="0.25" stroke-miterlimit="10"/>
<path d="M32.48 32.511C32.399 32.511 32.328 32.496 32.265 32.48L32.183 32.474L23.225 31.11C22.381 30.996 21.759 30.328 21.565 29.325L19.202 21.247C19.131 21.075 19.071 20.869 19.03 20.657L18.982 20.4L18.993 20.396C18.979 20.284 18.971 20.17 18.971 20.054C18.971 18.262 20.429 16.804 22.221 16.804C23.719 16.804 25.005 17.823 25.365 19.259L25.402 19.254L25.426 19.519L25.438 19.71C25.46 19.88 25.471 19.965 25.471 20.054L25.923 27.366L33.041 30.145L33.036 30.16C33.46 30.366 33.73 30.784 33.73 31.262C33.73 31.951 33.169 32.511 32.48 32.511Z" fill="black"/>
<path d="M22.22 17.053C23.699 17.053 24.921 18.126 25.168 19.535H25.175L25.187 19.725C25.199 19.834 25.22 19.941 25.22 20.053C25.22 20.079 25.213 20.102 25.212 20.127L25.683 27.539L32.738 30.294L32.733 30.311C33.159 30.426 33.479 30.798 33.479 31.26C33.479 31.812 33.031 32.26 32.479 32.26C32.389 32.26 32.308 32.231 32.225 32.209L32.22 32.226L23.261 30.862C22.417 30.747 21.955 30.032 21.809 29.276C21.809 29.276 20.012 23.128 19.441 21.175C19.368 20.994 19.312 20.805 19.275 20.608C19.272 20.599 19.264 20.571 19.264 20.571H19.271C19.241 20.401 19.219 20.229 19.219 20.052C19.219 18.395 20.562 17.052 22.219 17.052M22.22 16.553C20.29 16.553 18.72 18.123 18.72 20.053C18.72 20.09 18.72 20.126 18.722 20.161L18.635 20.177L18.786 20.714C18.826 20.92 18.888 21.134 18.969 21.339L21.331 29.417C21.535 30.485 22.237 31.228 23.196 31.358L32.147 32.721L32.589 32.788L32.598 32.756C33.371 32.696 33.982 32.048 33.982 31.26C33.982 30.764 33.728 30.312 33.327 30.04L33.335 30.009L32.922 29.829L26.163 27.19L25.715 20.14C25.719 20.11 25.721 20.082 25.721 20.053C25.721 19.952 25.709 19.854 25.696 19.756L25.685 19.671L25.675 19.502L25.64 18.946L25.541 18.963C25.078 17.541 23.752 16.553 22.221 16.553H22.22Z" fill="white"/>
<path d="M37.75 48.08V43.981L34.076 32.077L31.996 32.07C31.662 32.07 31.349 31.938 31.113 31.701C30.878 31.465 30.749 31.15 30.75 30.816C30.752 30.128 31.313 29.57 32 29.57L35.004 29.58C35.554 29.58 36.033 29.935 36.195 30.463L37.154 33.58H54.329L51.694 43.065L40.235 43.981L40.248 45.58H52.5C53.189 45.58 53.75 46.141 53.75 46.83C53.75 47.519 53.189 48.08 52.5 48.08H37.75Z" fill="black"/>
<path d="M32.003 29.82L35.003 29.83C35.441 29.83 35.827 30.117 35.956 30.536L36.969 33.83H54L51.5 42.83L39.984 43.751C39.986 43.778 40 43.802 40 43.83V45.83H52.5C53.053 45.83 53.5 46.277 53.5 46.83C53.5 47.383 53.053 47.83 52.5 47.83H38V43.981L34.261 31.828L31.997 31.82C31.444 31.818 30.998 31.369 31 30.817C31.002 30.265 31.449 29.82 32 29.82H32.003ZM32.004 29.32H31.999C31.175 29.32 30.502 29.991 30.499 30.815C30.496 31.642 31.167 32.317 31.994 32.32L33.89 32.327L37.499 44.057V48.331H52.499C53.326 48.331 53.999 47.658 53.999 46.831C53.999 46.004 53.326 45.331 52.499 45.331H40.499V44.213L51.539 43.33L51.887 43.302L51.981 42.965L54.481 33.965L54.657 33.331H37.338L36.433 30.39C36.239 29.758 35.664 29.332 35.003 29.331L32.003 29.321L32.004 29.32Z" fill="white"/>
</svg>
