<svg width="64" height="64" viewBox="0 0 64 64" fill="none" xmlns="http://www.w3.org/2000/svg">
<path d="M19.985 34.652L18.852 21.701L18.832 21.703C18.653 19.659 16.957 18.05 14.867 18.05C12.658 18.05 10.867 19.841 10.867 22.05C10.867 22.169 10.892 22.281 10.902 22.397L10.882 22.399L12.015 35.35L19.984 34.653L19.985 34.652Z" fill="black"/>
<path d="M14.504 16.942C16.437 16.942 18.004 15.375 18.004 13.442C18.004 11.509 16.437 9.94199 14.504 9.94199C12.571 9.94199 11.004 11.509 11.004 13.442C11.004 15.375 12.571 16.942 14.504 16.942Z" fill="black"/>
<path d="M18.198 31.479C17.549 31.479 16.958 31.147 16.618 30.592L11.976 22.976C11.899 22.871 11.824 22.74 11.751 22.606L11.524 22.236L11.568 22.217C11.428 21.847 11.357 21.467 11.357 21.083C11.357 19.291 12.815 17.833 14.607 17.833C15.768 17.833 16.844 18.469 17.42 19.473L17.461 19.45L17.563 19.738C17.642 19.923 17.698 20.097 17.745 20.277L20.117 27.296L27.732 28.823L27.519 31.261L18.198 31.479Z" fill="black"/>
<path d="M14.608 18.084C15.811 18.084 16.841 18.797 17.319 19.819L17.326 19.816L17.341 19.86C17.41 20.013 17.461 20.174 17.503 20.34L19.927 27.514L27.464 29.026L27.29 31.018L18.237 31.23C18.224 31.23 18.211 31.23 18.199 31.23C17.622 31.23 17.113 30.924 16.83 30.462L16.599 30.082L12.19 22.846C12.108 22.733 12.038 22.612 11.972 22.488L11.889 22.352L11.896 22.349C11.716 21.963 11.607 21.538 11.607 21.084C11.607 19.427 12.951 18.084 14.608 18.084ZM14.608 17.584C12.678 17.584 11.108 19.154 11.108 21.084C11.108 21.426 11.16 21.764 11.263 22.096L11.181 22.135L11.463 22.613L11.546 22.749C11.594 22.84 11.679 22.993 11.787 23.141L16.173 30.343L16.404 30.723C16.791 31.354 17.462 31.73 18.2 31.73L27.303 31.518L27.75 31.508L27.789 31.062L27.963 29.07L28.002 28.624L27.563 28.536L20.309 27.081L17.977 20.181C17.933 20.003 17.871 19.82 17.798 19.657L17.589 19.191L17.55 19.205C16.912 18.209 15.802 17.586 14.608 17.586V17.584Z" fill="white"/>
<path d="M62.69 24.359L49.8 8.24902C48.66 6.82902 46.94 5.99902 45.12 5.99902H6C2.69 5.99902 0 8.68902 0 11.999V43.999C0 47.319 2.69 49.999 6 49.999H7V47.999C7 43.039 11.04 38.999 16 38.999C20.96 38.999 25 43.039 25 47.999V49.999H39V47.999C39 43.039 43.04 38.999 48 38.999C52.96 38.999 57 43.039 57 47.999V49.999H58C61.31 49.999 64 47.319 64 43.999V28.109C64 26.739 63.54 25.419 62.69 24.359ZM29 27.999H2V11.999C2 9.79902 3.79 7.99902 6 7.99902H29V27.999ZM31 27.999V7.99902H45.12C46.34 7.99902 47.48 8.54902 48.24 9.49902L61.12 25.609C61.67 26.289 61.98 27.129 62 27.999H31Z" fill="black"/>
<path d="M48 55.001C51.866 55.001 55 51.867 55 48.001C55 44.135 51.866 41.001 48 41.001C44.134 41.001 41 44.135 41 48.001C41 51.867 44.134 55.001 48 55.001Z" fill="white"/>
<path d="M48 42.001C51.308 42.001 54 44.693 54 48.001C54 51.309 51.308 54.001 48 54.001C44.692 54.001 42 51.309 42 48.001C42 44.693 44.692 42.001 48 42.001ZM48 40.001C43.582 40.001 40 43.583 40 48.001C40 52.419 43.582 56.001 48 56.001C52.418 56.001 56 52.419 56 48.001C56 43.583 52.418 40.001 48 40.001Z" fill="black"/>
<path d="M16 54.999C12.805 54.999 10.017 52.84 9.218 49.749C9.074 49.173 9 48.582 9 47.999C9 44.14 12.141 40.999 16 40.999C19.859 40.999 23 44.14 23 47.999C23 48.582 22.926 49.173 22.78 49.756C21.984 52.84 19.196 54.999 16 54.999Z" fill="white"/>
<path d="M16 41.999C19.308 41.999 22 44.691 22 47.999C22 48.499 21.936 49.009 21.813 49.499C21.129 52.148 18.739 53.999 16 53.999C13.261 53.999 10.87 52.149 10.19 49.513C10.064 49.009 10 48.499 10 47.999C10 44.691 12.692 41.999 16 41.999ZM16 39.999C11.58 39.999 8 43.579 8 47.999C8 48.689 8.09 49.359 8.25 49.999C9.14 53.449 12.27 55.999 16 55.999C19.73 55.999 22.86 53.449 23.75 49.999C23.91 49.359 24 48.689 24 47.999C24 43.579 20.42 39.999 16 39.999Z" fill="black"/>
<path d="M57 23.001L55 29.001" stroke="black" stroke-width="2" stroke-miterlimit="10" stroke-linecap="round"/>
<path d="M44.985 34.652L43.852 21.701L43.832 21.703C43.653 19.659 41.957 18.05 39.867 18.05C37.658 18.05 35.867 19.841 35.867 22.05C35.867 22.169 35.892 22.281 35.902 22.397L35.882 22.399L37.015 35.35L44.984 34.653L44.985 34.652Z" fill="black"/>
<path d="M39.503 17.191C41.5741 17.191 43.253 15.512 43.253 13.441C43.253 11.3699 41.5741 9.69098 39.503 9.69098C37.4319 9.69098 35.753 11.3699 35.753 13.441C35.753 15.512 37.4319 17.191 39.503 17.191Z" fill="black"/>
<path d="M39.504 9.94199C41.437 9.94199 43.004 11.509 43.004 13.442C43.004 15.375 41.437 16.942 39.504 16.942C37.571 16.942 36.004 15.375 36.004 13.442C36.004 11.509 37.571 9.94199 39.504 9.94199ZM39.504 9.44199C37.298 9.44199 35.504 11.236 35.504 13.442C35.504 15.648 37.298 17.442 39.504 17.442C41.71 17.442 43.504 15.648 43.504 13.442C43.504 11.236 41.71 9.44199 39.504 9.44199Z" fill="white"/>
<path d="M46.835 28.506C46.578 28.506 46.324 28.442 46.1 28.318L38.338 24.074C38.155 23.999 37.954 23.889 37.765 23.758L37.497 23.624L37.533 23.58C36.792 22.964 36.357 22.049 36.357 21.084C36.357 19.292 37.815 17.834 39.607 17.834C40.193 17.834 40.761 17.992 41.266 18.294L41.289 18.263L41.599 18.534C41.716 18.624 41.843 18.73 41.958 18.85L47.928 24.102L56.007 25C56.668 25 57.229 25.561 57.229 26.248C57.229 26.935 56.668 27.498 55.979 27.498L47.006 28.496C46.948 28.503 46.892 28.506 46.835 28.506Z" fill="black"/>
<path d="M39.608 18.084C40.249 18.084 40.839 18.288 41.327 18.631L41.329 18.627L41.433 18.719C41.555 18.813 41.672 18.911 41.778 19.022L47.823 24.342L55.98 25.248C56.532 25.248 56.98 25.696 56.98 26.248C56.98 26.8 56.532 27.248 55.98 27.248L46.98 28.248C46.932 28.253 46.884 28.256 46.836 28.256C46.615 28.256 46.404 28.199 46.219 28.098L45.832 27.886L38.458 23.854C38.262 23.773 38.079 23.671 37.907 23.553L37.886 23.542L37.888 23.538C37.115 22.995 36.607 22.101 36.607 21.084C36.607 19.427 37.95 18.084 39.607 18.084M39.608 17.584C37.678 17.584 36.108 19.154 36.108 21.084C36.108 22.056 36.517 22.98 37.222 23.638L37.171 23.715L37.648 23.98C37.821 24.099 38.027 24.214 38.242 24.305L45.593 28.325L45.98 28.537C46.242 28.681 46.538 28.756 46.837 28.756C46.903 28.756 46.969 28.752 47.036 28.745L56.011 27.748C56.824 27.732 57.48 27.065 57.48 26.248C57.48 25.431 56.824 24.765 56.011 24.748L48.035 23.862L42.109 18.647C42.001 18.531 41.853 18.411 41.74 18.323L41.66 18.251L41.231 17.873L41.175 17.957C40.689 17.711 40.156 17.583 39.609 17.583L39.608 17.584Z" fill="white"/>
</svg>
