<svg width="64" height="64" viewBox="0 0 64 64" fill="none" xmlns="http://www.w3.org/2000/svg">
<path d="M26 42.25C28.3472 42.25 30.25 40.3472 30.25 38C30.25 35.6528 28.3472 33.75 26 33.75C23.6528 33.75 21.75 35.6528 21.75 38C21.75 40.3472 23.6528 42.25 26 42.25Z" fill="black"/>
<path d="M26 34C28.209 34 30 35.791 30 38C30 40.209 28.209 42 26 42C23.791 42 22 40.209 22 38C22 35.791 23.791 34 26 34ZM26 33.5C23.519 33.5 21.5 35.519 21.5 38C21.5 40.481 23.519 42.5 26 42.5C28.481 42.5 30.5 40.481 30.5 38C30.5 35.519 28.481 33.5 26 33.5Z" fill="white"/>
<path d="M26 20.25C28.0711 20.25 29.75 18.5711 29.75 16.5C29.75 14.4289 28.0711 12.75 26 12.75C23.9289 12.75 22.25 14.4289 22.25 16.5C22.25 18.5711 23.9289 20.25 26 20.25Z" fill="black"/>
<path d="M26 13C27.933 13 29.5 14.567 29.5 16.5C29.5 18.433 27.933 20 26 20C24.067 20 22.5 18.433 22.5 16.5C22.5 14.567 24.067 13 26 13ZM26 12.5C23.794 12.5 22 14.294 22 16.5C22 18.706 23.794 20.5 26 20.5C28.206 20.5 30 18.706 30 16.5C30 14.294 28.206 12.5 26 12.5Z" fill="white"/>
<path d="M9 42.25C8.311 42.25 7.75 41.689 7.75 41C7.75 40.311 8.311 39.75 9 39.75H17C17.689 39.75 18.25 40.311 18.25 41C18.25 41.689 17.689 42.25 17 42.25H9Z" fill="black"/>
<path d="M17 40C17.552 40 18 40.448 18 41C18 41.552 17.552 42 17 42H9C8.448 42 8 41.552 8 41C8 40.448 8.448 40 9 40H17ZM17 39.5H9C8.173 39.5 7.5 40.173 7.5 41C7.5 41.827 8.173 42.5 9 42.5H17C17.827 42.5 18.5 41.827 18.5 41C18.5 40.173 17.827 39.5 17 39.5Z" fill="white"/>
<path d="M26 42.25C23.823 42.25 21.964 40.546 21.767 38.371L20.569 24.676H20.581C20.578 24.635 20.575 24.594 20.575 24.552C20.575 22.208 22.481 20.302 24.825 20.302C26.953 20.302 28.713 21.851 29.012 23.943H29.019L29.059 24.182L29.897 33.75H51.001C55.55 33.75 59.251 37.451 59.251 42V42.25H26Z" fill="black"/>
<path d="M24.823 20.551C26.913 20.551 28.61 22.16 28.788 24.204L28.808 24.202L29.665 33.999H51C55.418 33.999 59 37.581 59 41.999H26C23.914 41.999 22.2 40.385 22.015 38.348L20.838 24.899L20.858 24.897C20.848 24.781 20.823 24.669 20.823 24.55C20.823 22.341 22.614 20.55 24.823 20.55M24.823 20.051C22.378 20.051 20.382 22.011 20.324 24.442H20.316L20.34 24.943L21.517 38.392C21.726 40.696 23.695 42.5 26 42.5H59.5V42C59.5 37.313 55.687 33.5 51 33.5H30.124L29.307 24.159L29.264 23.661L29.218 23.665C28.806 21.573 26.997 20.051 24.825 20.051H24.823Z" fill="white"/>
<path d="M30.94 31.756C30.634 31.756 30.339 31.667 30.086 31.498L22.615 26.527C22.507 26.465 22.389 26.387 22.279 26.302L21.953 26.086L21.986 26.045C21.355 25.433 20.999 24.602 20.999 23.732C20.999 21.94 22.457 20.482 24.249 20.482C24.927 20.482 25.572 20.694 26.129 21.096L26.153 21.067L26.357 21.26L26.436 21.343C26.528 21.426 26.624 21.529 26.715 21.636L32.273 27.457L40.461 29.1V29.111C40.985 29.262 41.357 29.737 41.357 30.298C41.357 30.987 40.796 31.548 40.107 31.548H40.071L40.047 31.542L30.939 31.756H30.94Z" fill="black"/>
<path d="M24.25 20.732C24.984 20.732 25.648 21.006 26.169 21.444L26.178 21.434L26.257 21.517C26.354 21.605 26.442 21.7 26.526 21.799L32.148 27.687L40.196 29.301V29.315C40.705 29.361 41.109 29.776 41.109 30.298C41.109 30.85 40.661 31.298 40.109 31.298C40.078 31.298 40.053 31.283 40.023 31.281V31.295L30.969 31.507C30.959 31.507 30.948 31.507 30.938 31.507C30.675 31.507 30.43 31.428 30.225 31.291L29.857 31.046L22.754 26.32C22.641 26.255 22.534 26.184 22.431 26.105L22.321 26.032L22.33 26.022C21.674 25.472 21.249 24.657 21.249 23.734C21.249 22.077 22.592 20.734 24.249 20.734M24.25 20.232C22.32 20.232 20.75 21.802 20.75 23.732C20.75 24.591 21.072 25.414 21.648 26.054L21.587 26.126L22.045 26.447L22.155 26.52C22.248 26.592 22.373 26.675 22.504 26.751L29.58 31.461L29.948 31.706C30.242 31.902 30.584 32.005 30.938 32.005L40.033 31.793H40.039C40.06 31.795 40.084 31.797 40.109 31.797C40.167 31.797 40.224 31.794 40.28 31.787L40.48 31.782L40.483 31.749C41.13 31.583 41.609 30.994 41.609 30.296C41.609 29.695 41.254 29.177 40.73 28.943L40.733 28.912L40.294 28.81L32.401 27.227L26.888 21.452C26.809 21.358 26.706 21.247 26.593 21.144L26.54 21.086L26.156 20.685L26.088 20.765C25.533 20.414 24.906 20.232 24.25 20.232Z" fill="white"/>
<path d="M55.75 51.25V47.25H7.25V51.25H3.75V34.5C3.75 33.535 4.535 32.75 5.5 32.75C6.465 32.75 7.25 33.535 7.25 34.5V42.75H59.25V51.25H55.75Z" fill="black"/>
<path d="M5.5 33C6.328 33 7 33.672 7 34.5V43H59V51H56V47H7V51H4V34.5C4 33.672 4.671 33 5.5 33ZM5.5 32.5C4.397 32.5 3.5 33.397 3.5 34.5V51.5H7.5V47.5H55.5V51.5H59.5V42.5H7.5V34.5C7.5 33.397 6.603 32.5 5.5 32.5Z" fill="white"/>
</svg>
