<svg width="64" height="64" viewBox="0 0 64 64" fill="none" xmlns="http://www.w3.org/2000/svg">
<path d="M21.874 16.303C23.9451 16.303 25.624 14.624 25.624 12.553C25.624 10.4819 23.9451 8.80298 21.874 8.80298C19.8029 8.80298 18.124 10.4819 18.124 12.553C18.124 14.624 19.8029 16.303 21.874 16.303Z" fill="black"/>
<path d="M21.874 9.052C23.807 9.052 25.374 10.619 25.374 12.552C25.374 14.485 23.807 16.052 21.874 16.052C19.941 16.052 18.374 14.485 18.374 12.552C18.374 10.619 19.941 9.052 21.874 9.052ZM21.874 8.552C19.668 8.552 17.874 10.346 17.874 12.552C17.874 14.758 19.668 16.552 21.874 16.552C24.08 16.552 25.874 14.758 25.874 12.552C25.874 10.346 24.08 8.552 21.874 8.552Z" fill="white"/>
<path d="M11.001 53.539C9.761 53.539 8.751 52.529 8.751 51.289C8.751 50.813 8.901 50.36 9.188 49.972L9.249 49.864L14.335 42.402L15.936 32.622L24.198 34.838L20.332 45.056C20.238 45.307 20.084 45.543 19.887 45.738L12.703 52.748C12.288 53.245 11.663 53.541 11.003 53.541L11.001 53.539Z" fill="black"/>
<path d="M16.136 32.935L20 33.971L23.863 35.007L20.307 44.408L20.096 44.966C20.01 45.195 19.871 45.398 19.708 45.559L12.525 52.568C12.158 53.005 11.615 53.289 10.999 53.289C9.894 53.289 8.999 52.394 8.999 51.289C8.999 50.803 9.179 50.363 9.468 50.016L9.453 50.004L14.569 42.496L16.134 32.935M15.732 32.309L15.643 32.854L14.095 42.306L9.041 49.723L8.785 50.098L8.801 50.111C8.603 50.473 8.499 50.873 8.499 51.289C8.499 52.668 9.621 53.789 10.999 53.789C11.733 53.789 12.428 53.461 12.908 52.889L20.057 45.916C20.281 45.696 20.455 45.429 20.564 45.142L20.775 44.584L24.331 35.183L24.526 34.666L23.992 34.523L20.129 33.487L16.265 32.451L15.732 32.309Z" fill="white"/>
<path d="M26.844 55.016C25.933 55.016 25.107 54.453 24.764 53.607L16.246 35.926C16.175 35.79 16.103 35.656 16.049 35.514L15.959 35.281L15.968 35.273C15.822 34.829 15.75 34.401 15.75 33.971C15.75 33.905 15.756 33.839 15.765 33.775V33.601L16.92 20.399L16.948 20.401C17.25 18.314 19.007 16.77 21.133 16.77C23.477 16.77 25.383 18.676 25.383 21.02C25.383 21.086 25.376 21.151 25.368 21.215L25.366 21.39L24.287 33.723L28.982 52.088C29.057 52.319 29.093 52.542 29.093 52.766C29.093 54.006 28.084 55.016 26.844 55.016Z" fill="black"/>
<path d="M21.133 17.02C23.342 17.02 25.133 18.811 25.133 21.02C25.133 21.139 25.108 21.251 25.098 21.367L25.118 21.369L24.039 33.701L28.724 52.081L28.717 52.083C28.795 52.297 28.844 52.524 28.844 52.765C28.844 53.87 27.949 54.765 26.844 54.765C25.98 54.765 25.251 54.214 24.971 53.447L24.965 53.449L16.472 35.817C16.404 35.688 16.336 35.56 16.283 35.424L16.242 35.339L16.255 35.334C16.099 34.907 16.001 34.451 16.001 33.97C16.001 33.851 16.026 33.739 16.036 33.623L16.016 33.621L17.149 20.67L17.169 20.672C17.347 18.628 19.044 17.019 21.134 17.019M21.133 16.52C18.961 16.52 17.153 18.042 16.74 20.134L16.713 20.132L16.65 20.628L15.517 33.579L15.473 34.078L15.501 34.08C15.51 34.391 15.555 34.708 15.636 35.026L15.563 35.052L15.791 35.556L15.832 35.641C15.874 35.753 15.945 35.891 16.018 36.029L24.514 53.666L24.546 53.733C24.578 53.81 24.615 53.885 24.654 53.958L24.71 54.075L24.72 54.072C25.168 54.802 25.971 55.266 26.844 55.266C28.222 55.266 29.344 54.144 29.344 52.766C29.344 52.519 29.303 52.266 29.221 52.013L29.208 51.958L24.544 33.66L25.616 21.412L25.66 20.913L25.632 20.911C25.574 18.48 23.578 16.52 21.133 16.52Z" fill="white"/>
<path d="M31.48 32.481C31.4 32.481 31.328 32.466 31.265 32.45L31.183 32.444L22.225 31.08C21.381 30.966 20.759 30.298 20.565 29.295L18.201 21.215C18.131 21.042 18.071 20.838 18.03 20.627L17.981 20.37L17.993 20.366C17.979 20.254 17.971 20.139 17.971 20.023C17.971 18.231 19.429 16.773 21.221 16.773C22.719 16.773 24.005 17.793 24.365 19.229L24.402 19.224L24.426 19.489L24.438 19.68C24.46 19.848 24.471 19.934 24.471 20.023L24.923 27.335L32.044 30.115L32.039 30.13C32.461 30.338 32.73 30.754 32.73 31.231C32.73 31.92 32.169 32.481 31.48 32.481Z" fill="black"/>
<path d="M21.22 17.024C22.699 17.024 23.921 18.097 24.168 19.506H24.175L24.187 19.696C24.199 19.805 24.22 19.912 24.22 20.024C24.22 20.05 24.213 20.073 24.212 20.098L24.683 27.51L31.738 30.265L31.733 30.282C32.159 30.397 32.479 30.769 32.479 31.231C32.479 31.783 32.031 32.231 31.479 32.231C31.389 32.231 31.308 32.202 31.225 32.18L31.22 32.197L22.261 30.833C21.417 30.718 20.955 30.003 20.808 29.247C20.808 29.247 19.01 23.096 18.439 21.145C18.366 20.964 18.311 20.776 18.274 20.58C18.271 20.571 18.263 20.543 18.263 20.543H18.27C18.24 20.373 18.218 20.201 18.218 20.024C18.218 18.367 19.561 17.024 21.218 17.024M21.22 16.524C19.29 16.524 17.72 18.094 17.72 20.024C17.72 20.061 17.72 20.097 17.722 20.132L17.635 20.148L17.786 20.685C17.828 20.899 17.892 21.121 17.978 21.333L20.33 29.388C20.535 30.456 21.236 31.199 22.195 31.329L31.146 32.692L31.588 32.759L31.597 32.727C32.37 32.667 32.98 32.019 32.98 31.232C32.98 30.736 32.726 30.283 32.325 30.011L32.333 29.98L31.92 29.8L25.161 27.161L24.713 20.111C24.717 20.081 24.719 20.053 24.719 20.024C24.719 19.923 24.707 19.825 24.694 19.727L24.683 19.642L24.673 19.473L24.638 18.917L24.539 18.934C24.076 17.512 22.751 16.524 21.22 16.524Z" fill="white"/>
<path d="M53.589 51.91C52.607 51.91 51.737 51.262 51.447 50.324L50.383 47.515L45.538 43.797C45.538 43.797 41.035 44.246 41.033 44.246C38.873 44.246 37.117 42.703 36.814 40.619H36.807L36.765 40.369L35.611 27.174L35.623 27.172C35.619 27.132 35.616 27.091 35.616 27.049C35.616 24.705 37.522 22.799 39.866 22.799C41.996 22.799 43.755 24.348 44.053 26.44H44.06L44.1 26.679L44.929 36.141C44.929 36.141 51.027 36.75 51.028 36.75C52.641 36.75 53.923 37.751 54.145 39.185L55.784 49.195C55.822 49.362 55.84 49.511 55.84 49.66C55.84 50.9 54.829 51.91 53.589 51.91Z" fill="black"/>
<path d="M39.867 23.049C41.957 23.049 43.654 24.658 43.832 26.702L43.852 26.7L44.698 36.369L51 36.999C51.008 36.999 51.016 36.999 51.024 36.999C52.421 36.999 53.681 37.819 53.898 39.222L55.522 49.141L55.514 49.143C55.558 49.309 55.59 49.479 55.59 49.659C55.59 50.764 54.694 51.659 53.59 51.659C52.665 51.659 51.894 51.028 51.666 50.175L51.659 50.177L50.593 47.359L45.613 43.538L41.017 43.998C41.012 43.998 41.007 44 41.001 44C38.911 44 37.215 42.391 37.036 40.347L37.016 40.349L35.883 27.398L35.903 27.396C35.893 27.28 35.868 27.168 35.868 27.049C35.868 24.84 37.658 23.049 39.867 23.049ZM39.867 22.549C37.422 22.549 35.426 24.509 35.368 26.94H35.36L35.368 27.098C35.368 27.109 35.368 27.12 35.369 27.13L35.384 27.441L36.517 40.392L36.56 40.89L36.606 40.886C37.018 42.978 38.827 44.5 40.999 44.5H41.037L41.083 44.493V44.491L45.464 44.055L50.174 47.669L51.189 50.354L51.221 50.438C51.244 50.509 51.271 50.579 51.3 50.647L51.349 50.776L51.359 50.773C51.775 51.608 52.633 52.158 53.589 52.158C54.967 52.158 56.089 51.037 56.089 49.658C56.089 49.485 56.068 49.312 56.023 49.12L56.014 49.06L54.39 39.141C54.15 37.587 52.765 36.498 51.023 36.498L45.158 35.912L44.348 26.656L44.305 26.158L44.259 26.162C43.847 24.07 42.038 22.548 39.866 22.548L39.867 22.549Z" fill="white"/>
<path d="M39.127 22.332C41.1981 22.332 42.877 20.6531 42.877 18.582C42.877 16.5109 41.1981 14.832 39.127 14.832C37.0559 14.832 35.377 16.5109 35.377 18.582C35.377 20.6531 37.0559 22.332 39.127 22.332Z" fill="black"/>
<path d="M39.126 15.082C41.059 15.082 42.626 16.649 42.626 18.582C42.626 20.515 41.059 22.082 39.126 22.082C37.193 22.082 35.626 20.515 35.626 18.582C35.626 16.649 37.193 15.082 39.126 15.082ZM39.126 14.582C36.92 14.582 35.126 16.376 35.126 18.582C35.126 20.788 36.92 22.582 39.126 22.582C41.332 22.582 43.126 20.788 43.126 18.582C43.126 16.376 41.332 14.582 39.126 14.582Z" fill="white"/>
<path d="M41 55.25C35.348 55.25 30.75 50.652 30.75 45C30.75 42.808 31.441 40.713 32.75 38.936V31.75H31C30.311 31.75 29.75 31.189 29.75 30.5C29.75 29.811 30.311 29.25 31 29.25H34C34.689 29.25 35.25 29.811 35.25 30.5V36.527C36.957 35.362 38.935 34.75 41 34.75C46.652 34.75 51.25 39.348 51.25 45C51.25 50.652 46.652 55.25 41 55.25ZM41 38.25C37.278 38.25 34.25 41.278 34.25 45C34.25 48.722 37.278 51.75 41 51.75C44.722 51.75 47.75 48.722 47.75 45C47.75 41.278 44.722 38.25 41 38.25Z" fill="black"/>
<path d="M34 29.5C34.553 29.5 35 29.947 35 30.5V37.014C36.673 35.755 38.746 35 41 35C46.523 35 51 39.477 51 45C51 50.523 46.523 55 41 55C35.477 55 31 50.523 31 45C31 42.754 31.75 40.688 33 39.019V31.5H31C30.447 31.5 30 31.053 30 30.5C30 29.947 30.447 29.5 31 29.5H34ZM41 52C44.86 52 48 48.86 48 45C48 41.14 44.86 38 41 38C37.14 38 34 41.14 34 45C34 48.86 37.14 52 41 52ZM34 29H31C30.173 29 29.5 29.673 29.5 30.5C29.5 31.327 30.173 32 31 32H32.5V38.854C31.191 40.659 30.5 42.78 30.5 45C30.5 50.79 35.21 55.5 41 55.5C46.79 55.5 51.5 50.79 51.5 45C51.5 39.21 46.79 34.5 41 34.5C39.039 34.5 37.156 35.039 35.5 36.066V30.5C35.5 29.673 34.827 29 34 29ZM41 51.5C37.416 51.5 34.5 48.584 34.5 45C34.5 41.416 37.416 38.5 41 38.5C44.584 38.5 47.5 41.416 47.5 45C47.5 48.584 44.584 51.5 41 51.5Z" fill="white"/>
<path d="M49.9 40.502C49.736 40.502 49.573 40.464 49.405 40.385L49.3 40.347L41.01 36.714C40.595 36.532 40.275 36.199 40.108 35.777L36.853 27.438C36.798 27.328 36.749 27.194 36.704 27.056L36.55 26.66L36.596 26.647C36.552 26.436 36.532 26.243 36.532 26.052C36.532 24.26 37.99 22.802 39.782 22.802C41.16 22.802 42.382 23.683 42.836 24.974L42.873 24.964L42.927 25.237C42.967 25.428 42.984 25.57 42.999 25.713L44.185 33.499L50.725 38.311L50.719 38.323C50.993 38.558 51.153 38.891 51.153 39.251C51.153 39.94 50.592 40.501 49.903 40.501L49.9 40.502Z" fill="black"/>
<path d="M39.78 23.053C41.168 23.053 42.324 24 42.667 25.28L42.678 25.277L42.689 25.353C42.72 25.479 42.734 25.61 42.748 25.742L43.951 33.64L50.4 38.386L50.392 38.4C50.69 38.573 50.9 38.883 50.9 39.252C50.9 39.804 50.452 40.252 49.9 40.252C49.717 40.252 49.556 40.19 49.408 40.104L49.4 40.118L41.11 36.485C40.743 36.324 40.476 36.031 40.34 35.686L40.178 35.271L37.084 27.348C37.027 27.23 36.982 27.106 36.94 26.98L36.881 26.83L36.892 26.827C36.825 26.579 36.779 26.323 36.779 26.054C36.779 24.397 38.122 23.054 39.779 23.054M39.78 22.553C37.85 22.553 36.28 24.123 36.28 26.053C36.28 26.188 36.289 26.324 36.309 26.464L36.224 26.487L36.417 27.011L36.476 27.161C36.514 27.282 36.568 27.425 36.634 27.563L39.712 35.451L39.874 35.866C40.065 36.351 40.433 36.733 40.909 36.942L49.199 40.575L49.607 40.754L49.626 40.722C49.717 40.741 49.808 40.751 49.9 40.751C50.727 40.751 51.4 40.078 51.4 39.251C51.4 38.89 51.269 38.553 51.035 38.287L51.049 38.262L50.696 37.983L44.414 33.36L43.243 25.667C43.23 25.536 43.211 25.383 43.175 25.236L43.172 25.203L43.088 24.648L42.985 24.676C42.441 23.405 41.185 22.554 39.78 22.554V22.553Z" fill="white"/>
</svg>
