<svg width="64" height="64" viewBox="0 0 64 64" fill="none" xmlns="http://www.w3.org/2000/svg">
<path d="M49 39H50V37H51V16.556L49 13H48V37H49V39Z" fill="black"/>
<path d="M45 40V50H46V52H47V50H52V52H53V50H54V40H45Z" fill="black"/>
<path d="M34.96 38.868L33.96 48.868C33.96 49.978 33.07 50.868 31.96 50.868C30.86 50.868 29.96 49.978 29.96 48.868L29.86 47.878C30.04 47.818 30.21 47.748 30.37 47.668C30.69 47.508 30.98 47.288 31.22 47.018L31.23 47.008C31.71 46.478 32 45.778 32 44.998V40.228C32.62 39.688 33 38.888 33 37.998V36.998C33 36.648 32.94 36.308 32.83 35.998C34.19 36.258 35.1 37.528 34.96 38.868Z" fill="black"/>
<path d="M24.28 31.028L22.56 24.638C22.54 24.558 22.52 24.478 22.5 24.408C22.05 22.698 20.48 21.438 18.64 21.438C16.55 21.438 14.84 23.038 14.66 25.068C14.97 25.428 15.18 25.858 15.28 26.338C15.29 26.358 15.3 26.388 15.3 26.408L15.63 28.078L16.66 33.198C16.75 33.658 17.17 33.998 17.64 33.998H20.71C20.75 34.058 24.28 31.028 24.28 31.028Z" fill="black"/>
<path d="M18.272 20.333C20.205 20.333 21.772 18.766 21.772 16.833C21.772 14.9 20.205 13.333 18.272 13.333C16.339 13.333 14.772 14.9 14.772 16.833C14.772 18.766 16.339 20.333 18.272 20.333Z" fill="black"/>
<path d="M32 36.998V37.998C32 38.508 31.81 38.968 31.5 39.328C31.36 39.488 31.19 39.618 31 39.728C30.71 39.898 30.36 39.998 30 39.998H18C16.9 39.998 16 39.108 16 37.998V36.998C16 36.218 16.45 35.538 17.11 35.218C17.38 35.078 17.68 34.998 18 34.998H30C30.22 34.998 30.43 35.038 30.63 35.098C31.01 35.228 31.34 35.458 31.58 35.768C31.8 36.048 31.94 36.388 31.98 36.768C32 36.838 32 36.918 32 36.998Z" fill="black"/>
<path d="M21.951 34.869C21.719 34.869 21.492 34.824 21.258 34.73C21.087 34.659 20.96 34.587 20.855 34.502C20.812 34.475 20.724 34.408 20.656 34.323C20.6 34.269 20.552 34.209 20.504 34.136C20.47 34.123 20.423 34.044 20.388 33.986L17.648 29.486L15.848 26.516L15.786 26.423C15.674 26.268 15.591 26.126 15.514 25.981L15.312 25.659L15.351 25.637C15.204 25.258 15.128 24.868 15.128 24.475C15.128 22.683 16.586 21.225 18.378 21.225C19.625 21.225 20.775 21.958 21.312 23.093L21.334 23.114L21.372 23.209L21.518 23.648L21.321 23.868L21.557 23.786L21.828 24.565L22.589 26.848L23.892 30.692L31.215 32.166L31.309 32.18C31.897 32.22 32.402 32.764 32.402 33.409C32.402 33.965 32.045 34.442 31.512 34.598C31.39 34.651 31.254 34.659 31.152 34.659L30.537 34.669L24.089 34.829L22.307 34.858L21.953 34.87L21.951 34.869Z" fill="black"/>
<path d="M18.377 21.476C19.579 21.476 20.609 22.188 21.087 23.209H21.09L21.1 23.208L21.138 23.303C21.143 23.316 21.146 23.33 21.152 23.342L21.28 23.727L21.3 23.787L21.32 23.867L21.59 24.647L22.35 26.927L23.7 30.907L24.28 31.027L31.15 32.407C31.18 32.407 31.2 32.407 31.23 32.417C31.74 32.457 32.15 32.887 32.15 33.407C32.15 33.867 31.85 34.237 31.44 34.357H31.43C31.34 34.397 31.25 34.407 31.15 34.407C31.12 34.407 31.09 34.407 31.06 34.397V34.407L30.53 34.417L27.18 34.497L25.22 34.547H25.12L24.8 34.557L24.08 34.577H24.07L22.3 34.607L22.01 34.617C21.989 34.617 21.969 34.618 21.949 34.618C21.733 34.618 21.533 34.57 21.35 34.497C21.23 34.447 21.11 34.387 21.01 34.307C20.95 34.267 20.89 34.217 20.85 34.167C20.79 34.107 20.75 34.057 20.71 33.997C20.66 33.957 20.63 33.907 20.6 33.857L20.37 33.477L17.86 29.357L16.06 26.387L16.02 26.337L16.01 26.317L15.971 26.252C15.881 26.13 15.804 26 15.733 25.865L15.66 25.748L15.667 25.745C15.486 25.359 15.377 24.932 15.377 24.477C15.377 22.82 16.72 21.476 18.377 21.476ZM18.377 20.976C16.447 20.976 14.877 22.546 14.877 24.476C14.877 24.819 14.929 25.159 15.033 25.492L14.947 25.533L15.235 26.012L15.308 26.129C15.385 26.278 15.474 26.421 15.569 26.551L15.581 26.576L15.599 26.605L15.63 26.652L15.65 26.677L17.433 29.619L19.943 33.74L20.172 34.119C20.203 34.171 20.252 34.251 20.33 34.33C20.373 34.389 20.419 34.444 20.479 34.506C20.562 34.603 20.662 34.679 20.732 34.726C20.821 34.799 20.967 34.882 21.157 34.961C21.424 35.068 21.688 35.121 21.948 35.121L22.03 35.119L22.316 35.109L24.077 35.079L24.812 35.059L25.134 35.049H25.218L27.191 34.999L30.54 34.919L31.068 34.909H31.1C31.119 34.909 31.135 34.909 31.149 34.909C31.185 34.909 31.223 34.909 31.265 34.905L31.559 34.899V34.844C31.559 34.844 31.565 34.842 31.569 34.841L31.58 34.838C32.22 34.651 32.65 34.076 32.65 33.408C32.65 32.65 32.068 32.007 31.317 31.924C31.274 31.915 31.237 31.911 31.206 31.909L24.379 30.538L24.082 30.477L22.824 26.768L22.065 24.491L21.793 23.706L21.786 23.668L21.755 23.571L21.627 23.186L21.621 23.167L21.6 23.109L21.566 23.024L21.441 22.709H21.389C20.764 21.647 19.616 20.977 18.378 20.977L18.377 20.976Z" fill="white"/>
<path d="M30.81 40.888C30.55 40.958 30.28 40.998 30 40.998H18C16.35 40.998 15 39.658 15 37.998V36.998C15 35.968 15.53 35.048 16.33 34.508C16.01 34.228 15.77 33.838 15.68 33.388L14.32 26.608C14.14 25.678 13.32 24.998 12.36 24.998H12C10.9 24.998 10 25.898 10 26.998V44.998C10 46.108 10.9 46.998 12 46.998V50.998H15V46.998H26V50.998H29V46.998C29.27 46.998 29.52 46.948 29.76 46.858C30.49 46.548 31 45.838 31 44.998V40.828C30.94 40.848 30.88 40.868 30.81 40.888Z" fill="black"/>
</svg>
