<svg width="64" height="64" viewBox="0 0 64 64" fill="none" xmlns="http://www.w3.org/2000/svg">
<path d="M39.614 21.414C41.6851 21.414 43.364 19.7351 43.364 17.664C43.364 15.5929 41.6851 13.914 39.614 13.914C37.5429 13.914 35.864 15.5929 35.864 17.664C35.864 19.7351 37.5429 21.414 39.614 21.414Z" fill="black"/>
<path d="M39.614 14.164C41.547 14.164 43.114 15.731 43.114 17.664C43.114 19.597 41.547 21.164 39.614 21.164C37.681 21.164 36.114 19.597 36.114 17.664C36.114 15.731 37.681 14.164 39.614 14.164ZM39.614 13.664C37.408 13.664 35.614 15.458 35.614 17.664C35.614 19.87 37.408 21.664 39.614 21.664C41.82 21.664 43.614 19.87 43.614 17.664C43.614 15.458 41.82 13.664 39.614 13.664Z" fill="white"/>
<path d="M11.473 26.519C10.742 25.89 10.398 24.908 10.576 23.955L12.473 13.924C12.654 12.844 13.573 12.051 14.681 12.051C15.921 12.051 16.931 13.061 16.931 14.301C16.931 14.343 16.927 14.385 16.921 14.427L17.021 22.355L24.66 26.641L19.753 33.647L11.474 26.52L11.473 26.519Z" fill="black"/>
<path d="M14.682 12.3C15.786 12.3 16.682 13.195 16.682 14.3C16.682 14.359 16.67 14.415 16.664 14.473H16.674L16.773 22.502L24.296 26.723L19.706 33.275L12.088 26.718L11.635 26.329C10.944 25.734 10.664 24.836 10.82 24L12.688 14.125H12.698C12.787 13.104 13.635 12.299 14.68 12.299M14.682 11.8C13.551 11.8 12.598 12.542 12.293 13.59H12.292L12.289 13.605C12.258 13.713 12.234 13.825 12.218 13.94L12.198 14.033L10.33 23.908C10.136 24.949 10.511 26.022 11.31 26.709L11.763 27.099L19.381 33.656L19.8 34.016L20.117 33.563L24.707 27.011L25.024 26.558L24.542 26.288L17.271 22.208L17.175 14.469V14.427C17.18 14.378 17.183 14.34 17.183 14.301C17.183 14.215 17.179 14.13 17.17 14.047V14.016H17.167C17.025 12.772 15.965 11.802 14.683 11.802L14.682 11.8Z" fill="white"/>
<path d="M25.852 19.015L18.119 15.203L18.121 15.196C17.752 14.972 17.524 14.58 17.524 14.139C17.524 13.45 18.085 12.889 18.774 12.889C18.882 12.889 18.991 12.907 19.11 12.943L27.971 15.092C28.086 15.121 28.19 15.167 28.283 15.229L36.419 20.649L32.202 25.672L25.852 19.015Z" fill="black"/>
<path d="M18.774 13.139C18.894 13.139 19.006 13.168 19.113 13.207L19.116 13.199L27.913 15.336C27.998 15.357 28.076 15.391 28.145 15.437L28.515 15.684L36.048 20.702L32.19 25.297L26.033 18.841L18.433 15.079L18.436 15.071C18.052 14.931 17.775 14.571 17.775 14.139C17.775 13.587 18.222 13.139 18.774 13.139ZM18.798 12.608L18.787 12.64C18.787 12.64 18.779 12.64 18.775 12.64C17.948 12.64 17.275 13.313 17.275 14.14C17.275 14.592 17.485 15.012 17.826 15.292L17.815 15.323L18.211 15.529L25.732 19.252L31.829 25.644L32.214 26.048L32.573 25.62L36.431 21.025L36.79 20.597L36.325 20.287L28.792 15.269L28.422 15.022C28.301 14.942 28.17 14.885 28.03 14.851L19.233 12.714L19.119 12.686C19.099 12.681 19.079 12.676 19.059 12.671L18.797 12.607L18.798 12.608Z" fill="white"/>
<path d="M22.002 52.174C20.835 52.174 19.877 51.29 19.769 50.139L19.753 50.025L17.769 30.183C17.757 30.08 17.752 30.041 17.752 30C17.752 28.585 18.481 27.254 19.669 26.468L19.665 26.462L19.876 26.319L31.352 19.69L31.364 19.711C31.967 19.405 32.601 19.25 33.255 19.25C35.599 19.25 37.505 21.156 37.505 23.5C37.505 24.915 36.776 26.246 35.588 27.032L35.592 27.038L35.381 27.181L25.995 32.603L24.229 50.25H24.222C24.065 51.347 23.132 52.174 22.002 52.174Z" fill="black"/>
<path d="M33.253 19.5C35.462 19.5 37.253 21.291 37.253 23.5C37.253 24.98 36.44 26.257 35.246 26.949L35.254 26.963L25.757 32.45L24.002 50H23.994C23.953 51.068 23.08 51.924 22.002 51.924C20.924 51.924 20.051 51.069 20.01 50H20.002L18.018 30.158C18.016 30.104 18.002 30.054 18.002 30C18.002 28.52 18.815 27.243 20.009 26.551L20.001 26.537L31.252 20.037L31.26 20.051C31.849 19.71 32.523 19.5 33.253 19.5ZM33.253 19C32.634 19 32.032 19.131 31.455 19.389L31.443 19.367L31.002 19.603L19.751 26.103L19.318 26.353L19.34 26.392C18.195 27.236 17.502 28.577 17.502 30C17.502 30.054 17.508 30.105 17.515 30.157V30.172L17.52 30.209L19.504 50.051L19.549 50.501H19.574C19.833 51.612 20.821 52.425 22.001 52.425C23.181 52.425 24.169 51.612 24.428 50.501H24.445L24.498 50.051L26.227 32.756L35.502 27.398L35.935 27.148L35.913 27.109C37.058 26.265 37.752 24.923 37.752 23.501C37.752 21.02 35.733 19.001 33.252 19.001L33.253 19Z" fill="white"/>
<path d="M40.321 31.623C39.937 31.623 39.56 31.491 39.26 31.252L32.328 25.707C31.421 25.117 30.868 24.101 30.868 23C30.868 21.208 32.326 19.75 34.118 19.75C34.986 19.75 35.802 20.088 36.416 20.702C36.568 20.854 36.71 21.031 36.839 21.23L41.651 27.242C41.651 27.242 49.511 28.116 49.513 28.116C49.818 28.116 50.13 28.246 50.365 28.48C50.851 28.967 50.851 29.76 50.365 30.248C50.129 30.484 49.814 30.614 49.48 30.614L40.509 31.612C40.446 31.62 40.383 31.623 40.321 31.623Z" fill="black"/>
<path d="M34.119 20C34.947 20 35.697 20.336 36.24 20.879L36.242 20.881C36.388 21.028 36.516 21.191 36.63 21.366L41.521 27.48L49.482 28.365C49.738 28.365 49.994 28.463 50.189 28.658C50.579 29.049 50.579 29.682 50.189 30.072C49.994 30.267 49.738 30.365 49.482 30.365L40.483 31.365C40.428 31.371 40.374 31.374 40.321 31.374C39.984 31.374 39.668 31.257 39.417 31.058L39.069 30.779L32.486 25.512C31.665 24.977 31.12 24.054 31.12 23.001C31.12 21.344 32.463 20.001 34.12 20.001M34.119 19.5C32.189 19.5 30.619 21.07 30.619 23C30.619 24.185 31.214 25.28 32.212 25.93L38.756 31.168L39.104 31.447C39.45 31.722 39.881 31.873 40.32 31.873C40.392 31.873 40.465 31.869 40.538 31.861L49.512 30.864C49.901 30.856 50.266 30.701 50.542 30.425C51.127 29.84 51.127 28.889 50.542 28.304C50.266 28.028 49.901 27.873 49.511 27.865L41.781 27.006L37.02 21.054C36.915 20.888 36.77 20.707 36.616 20.549L36.594 20.526C35.933 19.865 35.054 19.5 34.119 19.5Z" fill="white"/>
</svg>
