<svg width="64" height="64" viewBox="0 0 64 64" fill="none" xmlns="http://www.w3.org/2000/svg">
<path d="M19.34 49.91C18.1 49.91 17.09 48.9 17.09 47.66C17.09 46.895 17.49 46.178 18.141 45.765L25.408 40.538L29.422 31.644L36.829 35.92L30.453 44.789C30.237 45.088 29.944 45.328 29.603 45.483L20.353 49.658C20.032 49.824 19.692 49.908 19.34 49.908V49.91Z" fill="black"/>
<path d="M29.536 32L36.464 36L30.598 44.16L30.249 44.645C30.052 44.919 29.787 45.128 29.499 45.258L20.339 49.392L20.335 49.385C20.041 49.555 19.704 49.66 19.339 49.66C18.235 49.66 17.339 48.765 17.339 47.66C17.339 46.92 17.746 46.281 18.343 45.935L18.339 45.928L25.607 40.703L29.536 32ZM29.308 31.291L29.081 31.795L25.208 40.376L18.048 45.523L17.956 45.589C17.908 45.621 17.862 45.654 17.817 45.689L17.671 45.794L17.677 45.805C17.152 46.275 16.84 46.949 16.84 47.661C16.84 49.04 17.962 50.161 19.34 50.161C19.606 50.161 19.866 50.118 20.118 50.032L20.123 50.03C20.244 49.989 20.363 49.937 20.48 49.876L20.544 49.848L29.704 45.714C30.085 45.541 30.413 45.272 30.654 44.937L31.002 44.452L36.868 36.292L37.191 35.843L36.712 35.567L29.784 31.567L29.305 31.291H29.308Z" fill="white"/>
<path d="M23.144 33.756C22.455 33.756 21.894 33.195 21.894 32.506C21.894 32.339 21.933 32.175 22.013 32.006L22.049 31.904L25.683 23.614C25.807 23.276 26.122 23.051 26.375 22.869L34.01 17.251L37.29 22.931L29.091 26.525L24.078 33.334L24.066 33.328C23.832 33.599 23.501 33.757 23.143 33.757L23.144 33.756Z" fill="black"/>
<path d="M33.933 17.618L36.934 22.813L28.929 26.322L24.01 33.005L23.996 32.997C23.823 33.295 23.514 33.505 23.144 33.505C22.592 33.505 22.144 33.057 22.144 32.505C22.144 32.322 22.206 32.16 22.292 32.013L22.278 32.005L25.912 23.715C26.034 23.386 26.381 23.179 26.643 22.983L33.933 17.618ZM34.086 16.884L33.636 17.215L26.346 22.581L26.229 22.666C25.948 22.867 25.599 23.118 25.442 23.541L21.818 31.804L21.637 32.218L21.67 32.237C21.651 32.326 21.642 32.415 21.642 32.506C21.642 33.333 22.315 34.006 23.142 34.006C23.504 34.006 23.844 33.873 24.11 33.638L24.134 33.652L24.411 33.303L29.251 26.728L37.134 23.273L37.646 23.049L37.367 22.565L34.366 17.37L34.086 16.886V16.884Z" fill="white"/>
<path d="M38.569 16.981C40.6401 16.981 42.319 15.3021 42.319 13.231C42.319 11.1599 40.6401 9.48099 38.569 9.48099C36.4979 9.48099 34.819 11.1599 34.819 13.231C34.819 15.3021 36.4979 16.981 38.569 16.981Z" fill="black"/>
<path d="M38.568 9.73099C40.501 9.73099 42.068 11.298 42.068 13.231C42.068 15.164 40.501 16.731 38.568 16.731C36.635 16.731 35.068 15.164 35.068 13.231C35.068 11.298 36.635 9.73099 38.568 9.73099ZM38.568 9.23099C36.362 9.23099 34.568 11.025 34.568 13.231C34.568 15.437 36.362 17.231 38.568 17.231C40.774 17.231 42.568 15.437 42.568 13.231C42.568 11.025 40.774 9.23099 38.568 9.23099Z" fill="white"/>
<path d="M30 55.75C32.0711 55.75 33.75 54.0711 33.75 52C33.75 49.9289 32.0711 48.25 30 48.25C27.9289 48.25 26.25 49.9289 26.25 52C26.25 54.0711 27.9289 55.75 30 55.75Z" fill="black"/>
<path d="M30 48.5C31.933 48.5 33.5 50.067 33.5 52C33.5 53.933 31.933 55.5 30 55.5C28.067 55.5 26.5 53.933 26.5 52C26.5 50.067 28.067 48.5 30 48.5ZM30 48C27.794 48 26 49.794 26 52C26 54.206 27.794 56 30 56C32.206 56 34 54.206 34 52C34 49.794 32.206 48 30 48Z" fill="white"/>
<path d="M43 53.56C42.235 53.56 41.518 53.159 41.104 52.507L29.658 36.598C29.571 36.487 29.48 36.369 29.401 36.24L29.168 35.915L29.212 35.893C28.906 35.29 28.751 34.656 28.751 34.001C28.751 33.84 28.764 33.682 28.783 33.526H28.777L28.815 33.261L31.116 20.231L31.131 20.233C31.576 18.317 33.277 16.951 35.261 16.951C37.605 16.951 39.511 18.857 39.511 21.201C39.511 21.371 39.496 21.538 39.474 21.701H39.479L39.446 21.939L37.409 33.483L45.007 50.308C45.169 50.626 45.251 50.963 45.251 51.31C45.251 52.55 44.24 53.56 43 53.56Z" fill="black"/>
<path d="M35.26 17.2C37.469 17.2 39.26 18.991 39.26 21.2C39.26 21.438 39.23 21.668 39.19 21.894L39.199 21.896L37.147 33.515L44.731 50.31L44.724 50.314C44.894 50.608 44.999 50.946 44.999 51.31C44.999 52.415 44.103 53.31 42.999 53.31C42.259 53.31 41.62 52.904 41.274 52.306L41.267 52.31L29.86 36.452C29.773 36.34 29.688 36.228 29.612 36.107L29.536 36.001L29.55 35.993C29.209 35.404 28.999 34.73 28.999 34C28.999 33.762 29.029 33.532 29.069 33.306L29.06 33.304L31.32 20.504L31.329 20.506C31.659 18.629 33.288 17.2 35.26 17.2ZM35.26 16.7C33.244 16.7 31.504 18.033 30.951 19.934L30.925 19.929L30.829 20.417L28.569 33.217L28.482 33.707L28.512 33.712C28.505 33.804 28.5 33.9 28.5 33.999C28.5 34.618 28.631 35.221 28.89 35.798L28.824 35.836L29.13 36.291L29.206 36.397C29.273 36.507 29.368 36.633 29.466 36.758L40.862 52.6L40.927 52.691C40.96 52.74 40.994 52.787 41.03 52.833L41.122 52.962L41.131 52.957C41.601 53.491 42.281 53.808 42.999 53.808C44.377 53.808 45.499 52.686 45.499 51.308C45.499 50.913 45.404 50.53 45.215 50.168L45.186 50.101L37.665 33.446L39.69 21.979L39.777 21.484L39.747 21.479C39.754 21.389 39.758 21.294 39.758 21.197C39.758 18.716 37.739 16.697 35.258 16.697L35.26 16.7Z" fill="white"/>
<path d="M44.784 34.825C44.62 34.825 44.457 34.787 44.289 34.708L44.184 34.67L35.894 31.036C35.15 30.734 34.902 30.002 34.782 29.478L32.421 21.421C32.349 21.245 32.287 21.035 32.245 20.817L32.197 20.559L32.208 20.556C32.194 20.444 32.186 20.33 32.186 20.214C32.186 18.422 33.644 16.964 35.436 16.964C36.932 16.964 38.217 17.981 38.579 19.414L38.616 19.408L38.652 19.864C38.674 20.032 38.686 20.121 38.686 20.214L39.163 27.891L45.613 32.639L45.607 32.651C45.878 32.885 46.036 33.216 46.036 33.574C46.036 34.263 45.475 34.824 44.786 34.824L44.784 34.825Z" fill="black"/>
<path d="M35.434 17.215C36.913 17.215 38.135 18.288 38.382 19.696H38.389L38.401 19.881C38.413 19.992 38.434 20.1 38.434 20.215C38.434 20.241 38.427 20.265 38.427 20.29L38.919 28.023L45.285 32.708L45.277 32.722C45.575 32.895 45.785 33.204 45.785 33.574C45.785 34.126 45.337 34.574 44.785 34.574C44.602 34.574 44.44 34.512 44.293 34.426L44.285 34.44L35.995 30.806C35.398 30.564 35.156 29.988 35.025 29.421C35.025 29.421 33.236 23.315 32.661 21.35C32.585 21.165 32.529 20.971 32.491 20.77C32.489 20.761 32.481 20.734 32.481 20.734H32.488C32.458 20.563 32.435 20.392 32.435 20.214C32.435 18.557 33.778 17.214 35.435 17.214M35.434 16.715C33.504 16.715 31.934 18.285 31.934 20.215C31.934 20.252 31.934 20.289 31.936 20.324L31.852 20.339L31.999 20.874C32.041 21.092 32.105 21.311 32.187 21.515L34.544 29.562C34.613 29.867 34.846 30.881 35.806 31.27L44.083 34.899L44.498 35.081L44.517 35.048C44.605 35.066 44.694 35.075 44.784 35.075C45.611 35.075 46.284 34.402 46.284 33.575C46.284 33.216 46.154 32.88 45.923 32.615L45.939 32.589L45.582 32.306L39.404 27.759L38.929 20.301C38.933 20.271 38.935 20.243 38.935 20.215C38.935 20.112 38.923 20.012 38.91 19.913L38.899 19.827L38.889 19.662L38.852 19.104L38.754 19.122C38.29 17.702 36.965 16.715 35.435 16.715H35.434Z" fill="white"/>
</svg>
