<svg width="64" height="64" viewBox="0 0 64 64" fill="none" xmlns="http://www.w3.org/2000/svg">
<path d="M33 38.5C32.311 38.5 31.75 37.939 31.75 37.25V35.25H31.5C30.535 35.25 29.75 34.465 29.75 33.5C29.75 32.535 30.535 31.75 31.5 31.75H31.75V30.5H38.941L38.787 30.346L39.141 29.992L34.714 25.565L35.775 24.504L40.202 28.931L40.556 28.577L42.324 30.345L42.17 30.499H44.252V31.749H44.502C45.467 31.749 46.252 32.534 46.252 33.499C46.252 34.464 45.467 35.249 44.502 35.249H44.252V37.249C44.252 37.938 43.691 38.499 43.002 38.499H33.002L33 38.5ZM44.5 33.75C44.638 33.75 44.75 33.638 44.75 33.5C44.75 33.362 44.638 33.25 44.5 33.25H44.25V33.75H44.5ZM31.5 33.25C31.362 33.25 31.25 33.362 31.25 33.5C31.25 33.638 31.362 33.75 31.5 33.75H31.75V33.25H31.5Z" fill="black"/>
<path d="M35.774 24.858L40.201 29.285L40.555 28.931L41.969 30.345L41.565 30.749H44.001V31.999H44.501C45.33 31.999 46.001 32.671 46.001 33.499C46.001 34.327 45.33 34.999 44.501 34.999H44.001V37.249C44.001 37.801 43.553 38.249 43.001 38.249H33.001C32.449 38.249 32.001 37.801 32.001 37.249V34.999H31.501C30.673 34.999 30.001 34.327 30.001 33.499C30.001 32.671 30.673 31.999 31.501 31.999H32.001V30.749H39.545L39.141 30.345L39.495 29.991L35.068 25.564L35.775 24.857M44 34H44.5C44.776 34 45 33.776 45 33.5C45 33.224 44.776 33 44.5 33H44V34ZM31.5 34H32V33H31.5C31.224 33 31 33.224 31 33.5C31 33.776 31.224 34 31.5 34ZM35.774 24.151L35.42 24.505L34.713 25.212L34.359 25.566L34.713 25.92L38.786 29.993L38.529 30.251H31.5V31.501C30.397 31.501 29.5 32.398 29.5 33.501C29.5 34.604 30.397 35.501 31.5 35.501V37.251C31.5 38.078 32.173 38.751 33 38.751H43C43.827 38.751 44.5 38.078 44.5 37.251V35.501C45.603 35.501 46.5 34.604 46.5 33.501C46.5 32.398 45.603 31.501 44.5 31.501V30.251H42.58L42.322 29.993L40.908 28.579L40.554 28.225L40.2 28.579L36.127 24.506L35.773 24.152L35.774 24.151Z" fill="white"/>
<path d="M29.75 45.25V40C29.75 39.311 30.311 38.75 31 38.75H46.25V45.25H29.75Z" fill="black"/>
<path d="M46 39V45H30V40C30 39.448 30.448 39 31 39H46ZM46.5 38.5H31C30.173 38.5 29.5 39.173 29.5 40V45.5H46.5V38.5Z" fill="white"/>
<path d="M21 58.25C19.76 58.25 18.75 57.24 18.75 56L16.751 36.024V23C16.751 20.656 18.656 18.75 21 18.75C23.344 18.75 25.25 20.656 25.25 23V36L23.249 56.023C23.249 57.24 22.24 58.25 21 58.25Z" fill="black"/>
<path d="M21 19C23.209 19 25 20.791 25 23V36L23 55.999C23 57.104 22.104 57.999 21 57.999C19.896 57.999 19 57.104 19 55.999L17 35.999V22.999C17 20.79 18.791 19 21 19ZM21 18.5C18.519 18.5 16.5 20.519 16.5 23V36L18.502 56.05C18.5 57.379 19.621 58.5 21 58.5C22.379 58.5 23.5 57.378 23.5 56L25.497 36.05L25.499 23.001C25.499 20.518 23.481 18.5 21 18.5Z" fill="white"/>
<path d="M20.998 18.248C18.931 18.248 17.248 16.565 17.248 14.498C17.248 14.115 17.303 13.753 17.411 13.421L17.467 13.248H24.53L24.586 13.422C24.693 13.757 24.748 14.118 24.748 14.498C24.748 16.565 23.065 18.248 20.998 18.248Z" fill="black"/>
<path d="M24.348 13.498C24.448 13.808 24.498 14.148 24.498 14.498C24.498 16.438 22.938 17.998 20.998 17.998C19.068 17.998 17.498 16.438 17.498 14.498C17.498 14.148 17.548 13.808 17.648 13.498H24.348ZM24.712 12.998H17.284L17.172 13.344C17.056 13.702 16.998 14.09 16.998 14.498C16.998 16.704 18.792 18.498 20.998 18.498C23.204 18.498 24.998 16.704 24.998 14.498C24.998 14.091 24.939 13.703 24.824 13.345L24.712 12.998Z" fill="white"/>
<path d="M17.248 13.248V7.64703C17.248 6.40703 18.258 5.39703 19.498 5.39703C19.692 5.39703 19.9 5.42703 20.114 5.48603L20.519 5.60803C20.659 5.64603 20.827 5.66803 20.998 5.66803C21.174 5.66803 21.332 5.64703 21.481 5.60603L21.875 5.48803C22.114 5.42603 22.313 5.39703 22.508 5.39703C23.743 5.39703 24.748 6.40703 24.748 7.64703V13.248H17.248Z" fill="black"/>
<path d="M22.507 5.64801C23.567 5.64801 24.497 6.51801 24.497 7.64801V12.998H17.497V7.64801C17.497 6.51801 18.427 5.64801 19.497 5.64801C19.677 5.64801 19.867 5.67801 20.047 5.72801L20.447 5.84801C20.627 5.89801 20.817 5.91801 20.997 5.91801C21.187 5.91801 21.367 5.89801 21.547 5.84801L21.947 5.72801C22.137 5.67801 22.317 5.64801 22.507 5.64801ZM22.507 5.14801C22.288 5.14801 22.069 5.17901 21.819 5.24501L21.403 5.37001C21.286 5.40201 21.153 5.41901 20.997 5.41901C20.847 5.41901 20.703 5.40101 20.581 5.36701L20.191 5.25001C19.95 5.18301 19.713 5.14901 19.497 5.14901C18.119 5.14901 16.997 6.27001 16.997 7.64901V13.499H24.997V7.64901C24.997 6.27001 23.88 5.14901 22.507 5.14901V5.14801Z" fill="white"/>
<path d="M28.229 29.422C27.972 29.422 27.717 29.357 27.492 29.234L19.731 24.991C19.546 24.915 19.345 24.804 19.158 24.676L18.955 24.536L18.96 24.525C18.198 23.909 17.75 22.981 17.75 22.001C17.75 20.209 19.208 18.751 21 18.751C21.587 18.751 22.155 18.909 22.659 19.211L22.68 19.182L22.989 19.446C23.109 19.54 23.237 19.646 23.352 19.768L29.321 25.019C29.321 25.019 37.402 25.917 37.403 25.917C38.063 25.917 38.623 26.477 38.623 27.165C38.623 27.853 38.062 28.415 37.373 28.415L28.4 29.413C28.342 29.42 28.286 29.422 28.229 29.422Z" fill="black"/>
<path d="M21 19C21.64 19 22.231 19.204 22.719 19.546L22.721 19.542L22.824 19.632C22.946 19.727 23.064 19.825 23.171 19.937L29.215 25.256L37.372 26.162C37.924 26.162 38.372 26.61 38.372 27.162C38.372 27.714 37.924 28.162 37.372 28.162L28.372 29.162C28.324 29.167 28.276 29.17 28.228 29.17C28.007 29.17 27.796 29.113 27.612 29.012L27.225 28.8L19.851 24.768C19.655 24.687 19.471 24.585 19.299 24.466L19.279 24.455L19.281 24.451C18.508 23.908 18 23.014 18 21.997C18 20.34 19.343 18.997 21 18.997M21 18.5C19.07 18.5 17.5 20.07 17.5 22C17.5 22.971 17.908 23.894 18.611 24.552L18.559 24.629L19.039 24.897C19.213 25.017 19.42 25.131 19.634 25.222L26.985 29.242L27.372 29.454C27.634 29.597 27.93 29.673 28.228 29.673C28.294 29.673 28.36 29.669 28.427 29.662L37.402 28.665C38.215 28.649 38.871 27.982 38.871 27.165C38.871 26.348 38.215 25.682 37.402 25.665L29.426 24.779L23.5 19.564C23.422 19.479 23.298 19.369 23.129 19.238L23.051 19.168L22.625 18.794L22.569 18.876C22.082 18.629 21.548 18.501 20.999 18.501L21 18.5Z" fill="white"/>
</svg>
