<svg width="64" height="64" viewBox="0 0 64 64" fill="none" xmlns="http://www.w3.org/2000/svg">
<path d="M30.81 35.994L30.224 35.883L24.299 34.762L25.118 25.398L25.098 25.396C25.108 25.28 25.133 25.168 25.133 25.049C25.133 22.84 23.342 21.049 21.133 21.049C19.043 21.049 17.346 22.658 17.168 24.702L17.148 24.7L16.015 37.651L16.035 37.653C16.025 37.769 16 37.881 16 38C16 40.09 17.609 41.786 19.653 41.965L19.651 41.985L19.827 41.983C19.886 41.986 19.941 42 20 42C20.076 42 20.147 41.982 20.222 41.978L27.264 41.891L27.962 48.872C27.962 49.977 28.858 50.872 29.962 50.872C31.066 50.872 31.962 49.977 31.962 48.872L32.962 38.872C33.093 37.518 32.173 36.252 30.81 35.994Z" fill="black"/>
<path d="M23.73 20.333C25.663 20.333 27.23 18.766 27.23 16.833C27.23 14.9 25.663 13.333 23.73 13.333C21.797 13.333 20.23 14.9 20.23 16.833C20.23 18.766 21.797 20.333 23.73 20.333Z" fill="black"/>
<path d="M28.53 31.496C28.248 31.496 27.968 31.425 27.718 31.289L19.952 27.043C19.77 26.969 19.568 26.859 19.378 26.728L19.167 26.612L19.184 26.581C18.42 25.965 17.971 25.036 17.971 24.055C17.971 22.263 19.429 20.805 21.221 20.805C21.792 20.805 22.346 20.955 22.84 21.241L22.861 21.198L23.209 21.5C23.329 21.592 23.458 21.7 23.573 21.822L29.376 26.926L37.353 26.417C37.386 26.41 37.418 26.406 37.454 26.406C38.143 26.406 38.704 26.967 38.704 27.656C38.704 28.192 38.351 28.658 37.845 28.824L37.699 28.882L29.012 31.428C28.856 31.474 28.694 31.497 28.532 31.497L28.53 31.496Z" fill="black"/>
<path d="M21.22 21.053C21.861 21.053 22.451 21.257 22.939 21.599L22.941 21.595L23.043 21.685C23.166 21.78 23.284 21.879 23.391 21.991L29.288 27.18L37.28 26.67L37.283 26.689C37.34 26.679 37.393 26.655 37.453 26.655C38.005 26.655 38.453 27.103 38.453 27.655C38.453 28.147 38.091 28.537 37.623 28.621L37.626 28.64L28.939 31.186C28.803 31.226 28.665 31.245 28.529 31.245C28.283 31.245 28.045 31.182 27.835 31.068L27.444 30.854L20.07 26.822C19.874 26.741 19.69 26.639 19.518 26.52L19.497 26.509L19.499 26.505C18.726 25.962 18.218 25.068 18.218 24.051C18.218 22.394 19.561 21.051 21.218 21.051M21.22 20.553C19.29 20.553 17.72 22.123 17.72 24.053C17.72 25.024 18.128 25.947 18.831 26.605L18.778 26.683L19.259 26.95C19.432 27.07 19.639 27.184 19.853 27.275L27.204 31.295L27.596 31.509C27.883 31.665 28.205 31.747 28.529 31.747C28.715 31.747 28.9 31.72 29.079 31.668L37.766 29.122L38.196 28.996L38.187 28.946C38.649 28.689 38.951 28.203 38.951 27.658C38.951 26.915 38.408 26.296 37.697 26.178L37.695 26.165L37.613 26.167C37.56 26.161 37.506 26.158 37.452 26.158C37.395 26.158 37.345 26.165 37.302 26.173H37.247L29.462 26.671L23.721 21.619C23.642 21.533 23.518 21.423 23.348 21.292L23.271 21.223L22.848 20.851L22.792 20.932C22.305 20.684 21.769 20.555 21.219 20.555L21.22 20.553Z" fill="white"/>
<path d="M43 32H28C27.448 32 27 32.448 27 33C27 33.552 27.448 34 28 34H34.5V51H36.5V34H43C43.552 34 44 33.552 44 33C44 32.448 43.552 32 43 32Z" fill="black"/>
<path d="M25 43H15C14.448 43 14 43.448 14 44C14 44.552 14.448 45 15 45V51H17V45H23V51H25V45C25.552 45 26 44.552 26 44C26 43.448 25.552 43 25 43Z" fill="black"/>
<path d="M44.847 16.998L45.137 14.978C45.207 14.988 45.277 14.998 45.347 14.998C46.167 14.998 46.847 14.328 46.847 13.498C46.847 12.668 46.167 11.998 45.347 11.998C44.517 11.998 43.847 12.668 43.847 13.498V15.998L42.077 14.228C41.787 13.938 41.397 13.798 41.017 13.798C40.627 13.798 40.247 13.938 39.957 14.228C39.367 14.818 39.367 15.768 39.957 16.358C40.247 16.648 40.627 16.798 41.017 16.798C41.397 16.798 41.787 16.648 42.077 16.358C42.127 16.308 42.177 16.258 42.217 16.198L43.847 17.418V23.998L44.697 18.058L49.497 21.658L44.847 16.998ZM45.347 12.998C45.617 12.998 45.847 13.228 45.847 13.498C45.847 13.778 45.617 13.998 45.347 13.998C45.327 13.998 45.297 13.998 45.277 13.988C45.027 13.958 44.847 13.758 44.847 13.498C44.847 13.228 45.067 12.998 45.347 12.998ZM41.407 15.588C41.397 15.608 41.387 15.628 41.367 15.648C41.237 15.778 41.087 15.798 41.017 15.798C40.937 15.798 40.787 15.778 40.657 15.648C40.537 15.518 40.517 15.368 40.517 15.298C40.517 15.218 40.537 15.068 40.657 14.938C40.787 14.808 40.937 14.798 41.017 14.798C41.087 14.798 41.237 14.808 41.367 14.938C41.547 15.118 41.567 15.398 41.407 15.588Z" fill="black"/>
<path d="M34.5 15C34.5 14 34 12 33.25 12C33.25 13.966 32.5 14 32.5 15C32.5 15.366 32.707 15.673 33 15.847V22H34V15.847C34.293 15.673 34.5 15.366 34.5 15Z" fill="black"/>
<path d="M37.5 12L37 14V22H38V14L37.5 12ZM37.352 13.005H37.648L37.872 13.9H37.128L37.352 13.005Z" fill="black"/>
</svg>
