<svg width="64" height="64" viewBox="0 0 64 64" fill="none" xmlns="http://www.w3.org/2000/svg">
<path d="M32 20.001C32 17.791 30.209 16 28 16C25.791 16 24 17.791 24 20V33L26 53C26 54.105 26.896 55 28 55C29.104 55 30 54.105 30 53L32 33V20.001Z" fill="black"/>
<path d="M37.61 15.441C37.023 16.028 36.076 16.028 35.489 15.441C35.157 15.109 35.015 14.656 35.065 14.225C35.433 14.409 35.892 14.345 36.204 14.034C36.508 13.73 36.579 13.263 36.395 12.895C36.826 12.845 37.279 12.987 37.611 13.319C38.198 13.906 38.191 14.86 37.611 15.44L37.61 15.441Z" fill="black"/>
<path d="M28 37C30.2091 37 32 35.2091 32 33C32 30.7909 30.2091 29 28 29C25.7909 29 24 30.7909 24 33C24 35.2091 25.7909 37 28 37Z" fill="black"/>
<path d="M29.874 15.082C31.807 15.082 33.374 13.515 33.374 11.582C33.374 9.64897 31.807 8.08197 29.874 8.08197C27.941 8.08197 26.374 9.64897 26.374 11.582C26.374 13.515 27.941 15.082 29.874 15.082Z" fill="black"/>
<path d="M35.9 25.8C35.465 25.8 35.036 25.677 34.658 25.445L26.892 22.045C26.774 22.002 26.647 21.945 26.521 21.881L26.151 21.717L26.173 21.674C25.289 21.07 24.749 20.068 24.749 19.001C24.749 17.209 26.207 15.751 27.999 15.751C28.479 15.751 28.947 15.86 29.393 16.077L29.412 16.043L29.648 16.202C29.831 16.322 29.946 16.412 30.06 16.505L34.767 19.97L37.005 14.243L37.02 14.248C37.228 13.826 37.644 13.557 38.121 13.557C38.81 13.557 39.371 14.118 39.371 14.807C39.371 14.911 39.347 14.999 39.326 15.072L39.334 15.105L37.969 24.057C37.806 25.084 36.955 25.801 35.901 25.801L35.9 25.8Z" fill="black"/>
<path d="M38.121 13.806C38.673 13.806 39.121 14.254 39.121 14.806C39.121 14.896 39.092 14.977 39.069 15.06L39.086 15.065L37.721 24.018C37.565 25.002 36.763 25.55 35.9 25.55C35.526 25.55 35.14 25.447 34.789 25.231C34.789 25.231 28.759 22.587 26.993 21.813C26.869 21.769 26.751 21.716 26.636 21.656C26.555 21.62 26.5 21.596 26.5 21.596L26.506 21.585C25.61 21.066 25.001 20.108 25.001 18.998C25.001 17.341 26.344 15.998 28.001 15.998C28.548 15.998 29.054 16.155 29.495 16.411L29.501 16.4L29.574 16.454C29.69 16.526 29.797 16.609 29.902 16.695L34.881 20.361L37.154 14.545L37.171 14.55C37.286 14.124 37.658 13.804 38.12 13.804M38.121 13.306C37.625 13.306 37.171 13.561 36.899 13.962L36.866 13.953L36.689 14.364L34.653 19.573L30.198 16.294C30.098 16.21 29.973 16.114 29.837 16.03L29.797 15.998L29.35 15.669L29.298 15.758C28.88 15.585 28.445 15.498 27.999 15.498C26.069 15.498 24.499 17.068 24.499 18.998C24.499 20.069 25.004 21.08 25.843 21.739L25.797 21.82L26.297 22.053L26.433 22.113C26.54 22.169 26.678 22.231 26.822 22.282L30.53 23.909C33.218 25.087 34.165 25.503 34.528 25.649L34.525 25.655C34.943 25.912 35.417 26.048 35.898 26.048C37.078 26.048 38.03 25.245 38.213 24.094L39.579 15.138L39.646 14.696L39.614 14.687C39.554 13.914 38.906 13.304 38.118 13.304L38.121 13.306Z" fill="white"/>
</svg>
