<svg width="64" height="64" viewBox="0 0 64 64" fill="none" xmlns="http://www.w3.org/2000/svg">
<path d="M26.73 20.583C28.801 20.583 30.48 18.9041 30.48 16.833C30.48 14.7619 28.801 13.083 26.73 13.083C24.6589 13.083 22.98 14.7619 22.98 16.833C22.98 18.9041 24.6589 20.583 26.73 20.583Z" fill="black"/>
<path d="M26.73 13.333C28.663 13.333 30.23 14.9 30.23 16.833C30.23 18.766 28.663 20.333 26.73 20.333C24.797 20.333 23.23 18.766 23.23 16.833C23.23 14.9 24.797 13.333 26.73 13.333ZM26.73 12.833C24.524 12.833 22.73 14.627 22.73 16.833C22.73 19.039 24.524 20.833 26.73 20.833C28.936 20.833 30.73 19.039 30.73 16.833C30.73 14.627 28.936 12.833 26.73 12.833Z" fill="white"/>
<path d="M32.963 51.122C31.723 51.122 30.713 50.112 30.713 48.872L30.038 42.143L23.225 42.227C23.107 42.243 23.055 42.249 23 42.249L22.869 42.237L22.655 42.233L22.389 42.236L22.391 42.185C20.299 41.886 18.749 40.126 18.749 37.998C18.749 37.93 18.756 37.863 18.765 37.798V37.628L19.919 24.438H19.945C20.244 22.347 22.004 20.798 24.132 20.798C26.476 20.798 28.382 22.704 28.382 25.048C28.382 25.114 28.376 25.179 28.367 25.243V25.418L27.566 34.557L33.856 35.746C35.32 36.023 36.354 37.406 36.21 38.894L35.21 48.894C35.21 50.11 34.201 51.12 32.961 51.12L32.963 51.122Z" fill="black"/>
<path d="M24.133 21.049C26.342 21.049 28.133 22.84 28.133 25.049C28.133 25.168 28.108 25.28 28.098 25.396L28.118 25.398L27.299 34.762L33.224 35.883L33.811 35.994C35.174 36.252 36.094 37.518 35.963 38.872L34.963 48.872C34.963 49.977 34.067 50.872 32.963 50.872C31.859 50.872 30.963 49.977 30.963 48.872L30.265 41.891L23.223 41.978C23.148 41.982 23.077 42 23.002 42C22.943 42 22.887 41.985 22.829 41.983L22.653 41.985L22.655 41.965C20.611 41.786 19.002 40.09 19.002 38C19.002 37.881 19.027 37.769 19.037 37.653L19.017 37.651L20.15 24.7L20.17 24.702C20.348 22.658 22.045 21.049 24.135 21.049M24.133 20.549C21.961 20.549 20.152 22.071 19.74 24.163L19.713 24.161L19.65 24.657L18.517 37.608L18.473 38.107L18.501 38.109C18.551 40.232 20.057 41.988 22.114 42.393L22.107 42.472L22.658 42.485L22.834 42.483C22.89 42.494 22.944 42.501 23.001 42.501C23.067 42.501 23.131 42.494 23.196 42.485L23.25 42.478L29.813 42.397L30.466 48.922C30.464 50.251 31.585 51.373 32.964 51.373C34.343 51.373 35.464 50.251 35.464 48.873L36.462 38.923C36.618 37.306 35.495 35.805 33.905 35.504L33.318 35.393L27.838 34.357L28.618 25.444L28.662 24.945L28.634 24.943C28.576 22.512 26.58 20.552 24.135 20.552L24.133 20.549Z" fill="white"/>
<path d="M37.25 51.25V34.25H31C30.311 34.25 29.75 33.689 29.75 33C29.75 32.311 30.311 31.75 31 31.75H46C46.689 31.75 47.25 32.311 47.25 33C47.25 33.689 46.689 34.25 46 34.25H39.75V51.25H37.25Z" fill="black"/>
<path d="M46 32C46.552 32 47 32.448 47 33C47 33.552 46.552 34 46 34H39.5V51H37.5V34H31C30.448 34 30 33.552 30 33C30 32.448 30.448 32 31 32H46ZM46 31.5H31C30.173 31.5 29.5 32.173 29.5 33C29.5 33.827 30.173 34.5 31 34.5H37V51.5H40V34.5H46C46.827 34.5 47.5 33.827 47.5 33C47.5 32.173 46.827 31.5 46 31.5Z" fill="white"/>
<path d="M25.75 51.25V45.25H20.25V51.25H17.75V45.225C17.18 45.109 16.75 44.604 16.75 44C16.75 43.311 17.311 42.75 18 42.75H28C28.689 42.75 29.25 43.311 29.25 44C29.25 44.604 28.82 45.108 28.25 45.225V51.25H25.75Z" fill="black"/>
<path d="M28 43C28.552 43 29 43.448 29 44C29 44.552 28.552 45 28 45V51H26V45H20V51H18V45C17.448 45 17 44.552 17 44C17 43.448 17.448 43 18 43H28ZM28 42.5H18C17.173 42.5 16.5 43.173 16.5 44C16.5 44.652 16.918 45.208 17.5 45.414V51.5H20.5V45.5H25.5V51.5H28.5V45.414C29.082 45.208 29.5 44.652 29.5 44C29.5 43.173 28.827 42.5 28 42.5Z" fill="white"/>
<path d="M35.472 31.25C35.124 31.25 34.777 31.168 34.466 31.013L33.749 30.655V29.751H40.249V30.655L39.534 31.013C39.222 31.168 38.874 31.25 38.527 31.25H35.472Z" fill="black"/>
<path d="M40 30V30.5L39.422 30.789C39.144 30.928 38.838 31 38.528 31H35.472C35.162 31 34.855 30.928 34.578 30.789L34 30.5V30H40ZM40.5 29.5H33.5V30.809L33.776 30.947L34.354 31.236C34.699 31.409 35.086 31.5 35.472 31.5H38.528C38.914 31.5 39.301 31.409 39.646 31.236L40.224 30.947L40.5 30.809V29.5Z" fill="white"/>
<path d="M42 31.25C41.311 31.25 40.75 30.689 40.75 30V27.75H43.25V30C43.25 30.689 42.689 31.25 42 31.25Z" fill="black"/>
<path d="M43 28V30C43 30.552 42.552 31 42 31C41.448 31 41 30.552 41 30V28H43ZM43.5 27.5H40.5V30C40.5 30.827 41.173 31.5 42 31.5C42.827 31.5 43.5 30.827 43.5 30V27.5Z" fill="white"/>
<path d="M30.897 22.065C30.208 22.065 29.647 21.504 29.647 20.815V20.065H32.147V20.315H36.646V21.815H31.627C31.407 21.979 31.156 22.065 30.897 22.065Z" fill="black"/>
<path d="M31.897 20.315V20.565H36.397V21.565H31.541C31.366 21.715 31.146 21.815 30.897 21.815C30.345 21.815 29.897 21.367 29.897 20.815V20.315H31.897ZM32.397 19.815H29.397V20.815C29.397 21.642 30.07 22.315 30.897 22.315C31.185 22.315 31.461 22.229 31.707 22.065H36.896V20.065H32.396L32.397 19.815Z" fill="white"/>
<path d="M31.698 31.539C31.475 31.539 31.254 31.502 31.041 31.431C30.899 31.397 30.704 31.285 30.531 31.188C30.459 31.146 22.952 27.043 22.952 27.043C22.767 26.968 22.565 26.857 22.377 26.727L22.167 26.612L22.183 26.58C21.42 25.965 20.971 25.036 20.971 24.055C20.971 22.263 22.429 20.805 24.221 20.805C24.792 20.805 25.346 20.955 25.84 21.241L25.861 21.198L26.211 21.502C26.33 21.593 26.458 21.7 26.572 21.821L31.069 25.777L34.396 20.318L34.401 20.32C34.633 20.005 34.997 19.817 35.396 19.817C36.085 19.817 36.646 20.378 36.646 21.067C36.646 21.222 36.615 21.374 36.551 21.529L33.642 30.144C33.36 30.979 32.579 31.54 31.698 31.54V31.539Z" fill="black"/>
<path d="M35.397 20.065C35.949 20.065 36.397 20.513 36.397 21.065C36.397 21.216 36.358 21.356 36.298 21.485L36.304 21.488L33.406 30.063C33.152 30.815 32.45 31.289 31.698 31.289C31.507 31.289 31.312 31.258 31.121 31.194C30.929 31.147 30.623 30.942 30.446 30.856C30.446 30.856 24.058 27.363 23.072 26.824C22.876 26.743 22.692 26.641 22.52 26.522L22.5 26.511L22.502 26.507C21.729 25.964 21.221 25.07 21.221 24.053C21.221 22.396 22.564 21.053 24.221 21.053C24.862 21.053 25.452 21.257 25.94 21.599L25.942 21.595L26.046 21.686C26.168 21.78 26.286 21.879 26.392 21.99L31.129 26.159L34.492 20.641L34.498 20.644C34.658 20.304 34.998 20.064 35.399 20.064M35.397 19.565C34.994 19.565 34.613 19.732 34.335 20.014L34.304 19.999L34.168 20.216C34.143 20.252 34.12 20.289 34.098 20.327L34.063 20.382L31.01 25.391L26.72 21.616C26.642 21.531 26.517 21.421 26.349 21.291L26.27 21.22L25.844 20.845L25.788 20.928C25.301 20.681 24.767 20.553 24.218 20.553C22.288 20.553 20.718 22.123 20.718 24.053C20.718 25.023 21.125 25.944 21.826 26.602L21.773 26.679L22.255 26.947C22.445 27.076 22.646 27.186 22.852 27.274L30.203 31.293C30.275 31.329 30.337 31.364 30.404 31.403C30.591 31.51 30.803 31.63 30.999 31.679C31.197 31.748 31.445 31.789 31.695 31.789C32.683 31.789 33.56 31.16 33.876 30.223L36.774 21.648L36.795 21.584C36.81 21.545 36.823 21.506 36.835 21.467L36.916 21.227L36.886 21.213C36.891 21.164 36.894 21.114 36.894 21.065C36.894 20.238 36.221 19.565 35.394 19.565H35.397Z" fill="white"/>
</svg>
