<svg width="64" height="64" viewBox="0 0 64 64" fill="none" xmlns="http://www.w3.org/2000/svg">
<path d="M20.745 36.879L21.92 23.44H21.946C22.245 21.349 24.005 19.8 26.133 19.8C28.477 19.8 30.383 21.706 30.383 24.05C30.383 24.116 30.377 24.181 30.368 24.245V24.42L29.213 37.619L20.745 36.879Z" fill="black"/>
<path d="M26.133 20.049C28.342 20.049 30.133 21.84 30.133 24.049C30.133 24.168 30.108 24.28 30.098 24.396L30.118 24.398L28.985 37.349L21.016 36.652L22.149 23.701L22.169 23.703C22.347 21.659 24.044 20.05 26.134 20.05M26.133 19.549C23.961 19.549 22.153 21.071 21.74 23.163L21.713 23.161L21.65 23.657L20.517 36.608L20.473 37.106L20.971 37.15L28.94 37.847L29.438 37.891L29.481 37.393L30.614 24.442L30.658 23.943L30.63 23.941C30.572 21.51 28.576 19.55 26.131 19.55L26.133 19.549Z" fill="white"/>
<path d="M28.73 19.583C30.8011 19.583 32.48 17.9041 32.48 15.833C32.48 13.7619 30.8011 12.083 28.73 12.083C26.6589 12.083 24.98 13.7619 24.98 15.833C24.98 17.9041 26.6589 19.583 28.73 19.583Z" fill="black"/>
<path d="M28.73 12.333C30.663 12.333 32.23 13.9 32.23 15.833C32.23 17.766 30.663 19.333 28.73 19.333C26.797 19.333 25.23 17.766 25.23 15.833C25.23 13.9 26.797 12.333 28.73 12.333ZM28.73 11.833C26.524 11.833 24.73 13.627 24.73 15.833C24.73 18.039 26.524 19.833 28.73 19.833C30.936 19.833 32.73 18.039 32.73 15.833C32.73 13.627 30.936 11.833 28.73 11.833Z" fill="white"/>
<path d="M25.405 26.239L26.544 19.78L35.459 22.393L44.197 22.592C44.815 22.666 45.297 23.195 45.297 23.833C45.297 24.438 44.862 24.942 44.27 25.049L44.183 25.07L35.281 26.856L35.197 26.862L25.406 26.238L25.405 26.239Z" fill="black"/>
<path d="M26.741 20.099L35.389 22.634L43.96 22.835V22.852C43.991 22.849 44.017 22.835 44.047 22.835C44.599 22.835 45.047 23.283 45.047 23.835C45.047 24.357 44.643 24.772 44.133 24.818V24.828L35.255 26.609C35.234 26.613 35.214 26.615 35.194 26.615C35.188 26.615 35.182 26.615 35.176 26.615L34.734 26.587L25.7 26.01L26.741 20.101M26.345 19.462L26.248 20.012L25.207 25.921L25.11 26.471L25.668 26.507L34.702 27.084L35.144 27.112C35.156 27.112 35.167 27.112 35.178 27.112C35.259 27.112 35.307 27.107 35.354 27.097L44.232 25.317L44.676 25.228L44.672 25.186C45.194 24.951 45.547 24.434 45.547 23.834C45.547 23.137 45.069 22.549 44.423 22.382L44.421 22.362L44.292 22.354C44.212 22.341 44.13 22.334 44.047 22.334H43.974H43.971L35.466 22.135L26.882 19.619L26.346 19.462H26.345Z" fill="white"/>
<path d="M17.872 43.25C15.669 43.25 13.597 42.392 12.039 40.834L4.58899 33.384C4.22499 33.02 4.11899 32.498 4.31599 32.025C4.51199 31.553 4.96199 31.249 5.46099 31.249C5.53199 31.249 5.60499 31.255 5.67899 31.267L11.989 32.319C13.708 32.606 15.464 32.752 17.209 32.752H45.912C47.657 32.752 49.413 32.606 51.132 32.319L57.442 31.267C57.516 31.255 57.588 31.249 57.66 31.249C58.159 31.249 58.608 31.554 58.805 32.025C59.001 32.499 58.897 33.019 58.533 33.384L51.082 40.834C49.524 42.392 47.452 43.25 45.249 43.25H17.876H17.872Z" fill="black"/>
<path d="M5.45899 31.498C5.51599 31.498 5.57499 31.503 5.63599 31.513L11.946 32.565C13.685 32.855 15.444 33 17.207 33H45.91C47.673 33 49.432 32.854 51.171 32.565L57.481 31.513C57.542 31.503 57.601 31.498 57.658 31.498C58.511 31.498 58.997 32.562 58.352 33.206L50.902 40.656C49.402 42.156 47.367 42.999 45.245 42.999H17.872C15.75 42.999 13.716 42.156 12.215 40.656L4.76499 33.206C4.11999 32.561 4.60499 31.498 5.45899 31.498ZM57.657 30.998C57.573 30.998 57.486 31.005 57.398 31.02L51.088 32.072C49.381 32.356 47.639 32.501 45.909 32.501H17.206C15.476 32.501 13.734 32.357 12.028 32.072L5.71799 31.02C5.62899 31.005 5.54299 30.998 5.45899 30.998C4.85799 30.998 4.31799 31.363 4.08399 31.929C3.84799 32.498 3.97399 33.123 4.41099 33.56L11.861 41.01C13.466 42.615 15.601 43.5 17.871 43.5H45.244C47.515 43.5 49.649 42.616 51.254 41.01L58.704 33.56C59.141 33.123 59.266 32.498 59.031 31.929C58.797 31.364 58.257 30.998 57.656 30.998H57.657Z" fill="white"/>
<path d="M31.859 49.292C31.466 49.292 31.078 49.188 30.736 48.991L29.004 47.991C27.93 47.371 27.561 45.992 28.18 44.917L29.285 43.004C29.554 42.539 29.872 42.095 30.23 41.685L32.539 39.056C32.776 38.785 33.119 38.631 33.478 38.631C33.697 38.631 33.913 38.689 34.103 38.798L34.475 39.013L46.223 18.666L45.851 18.45C45.336 18.154 45.101 17.53 45.292 16.968L46.414 13.655C46.589 13.138 46.814 12.641 47.084 12.176L48.187 10.263C48.588 9.56902 49.336 9.13702 50.138 9.13702C50.531 9.13702 50.919 9.24102 51.261 9.43902L52.993 10.439C54.067 11.059 54.436 12.438 53.817 13.513L52.712 15.426C52.442 15.893 52.124 16.336 51.768 16.744L49.458 19.373C49.22 19.644 48.877 19.799 48.518 19.799C48.299 19.799 48.083 19.741 47.894 19.632L47.521 19.416L35.774 39.763L36.147 39.978C36.662 40.275 36.896 40.899 36.705 41.462L35.583 44.775C35.409 45.288 35.185 45.785 34.915 46.254L33.811 48.167C33.41 48.861 32.663 49.292 31.86 49.292H31.859Z" fill="black"/>
<path d="M50.139 9.38702C50.478 9.38702 50.822 9.47302 51.137 9.65502L52.869 10.655C53.826 11.207 54.153 12.431 53.601 13.387L52.496 15.3C52.233 15.755 51.926 16.184 51.579 16.579L49.27 19.208C49.074 19.431 48.798 19.548 48.518 19.548C48.347 19.548 48.175 19.504 48.018 19.414L47.429 19.074L35.431 39.854L36.021 40.194C36.434 40.432 36.621 40.929 36.468 41.381L35.345 44.695C35.177 45.193 34.959 45.673 34.696 46.128L33.591 48.041C33.221 48.683 32.548 49.041 31.857 49.041C31.518 49.041 31.174 48.955 30.859 48.773L29.127 47.773C28.17 47.221 27.843 45.998 28.395 45.041L29.5 43.128C29.763 42.673 30.07 42.244 30.417 41.849L32.725 39.22C32.921 38.997 33.197 38.88 33.477 38.88C33.648 38.88 33.82 38.924 33.977 39.014L34.886 39.539L34.566 39.354L46.564 18.574L45.975 18.234C45.562 17.996 45.375 17.499 45.528 17.047L46.651 13.733C46.819 13.235 47.037 12.755 47.3 12.3L48.404 10.387C48.775 9.74502 49.448 9.38702 50.139 9.38702ZM50.139 8.88702C49.248 8.88702 48.417 9.36602 47.972 10.137L46.867 12.051C46.588 12.534 46.356 13.047 46.178 13.574L45.055 16.887C44.826 17.562 45.108 18.311 45.726 18.667L45.882 18.757L34.384 38.671L34.228 38.581C34 38.45 33.741 38.38 33.478 38.38C33.046 38.38 32.635 38.566 32.35 38.89L30.042 41.519C29.674 41.938 29.347 42.395 29.068 42.877L27.963 44.791C27.629 45.369 27.541 46.043 27.713 46.688C27.886 47.333 28.3 47.872 28.878 48.206L30.61 49.206C30.99 49.425 31.422 49.541 31.858 49.541C32.75 49.541 33.58 49.062 34.025 48.291L35.13 46.378C35.409 45.894 35.641 45.382 35.819 44.855L36.942 41.542C37.171 40.867 36.889 40.118 36.271 39.762L36.115 39.672L47.613 19.758L47.769 19.848C47.997 19.979 48.256 20.049 48.519 20.049C48.951 20.049 49.362 19.863 49.647 19.539L51.956 16.91C52.324 16.491 52.652 16.034 52.93 15.551L54.035 13.638C54.724 12.444 54.314 10.912 53.12 10.223L51.388 9.22302C51.008 9.00402 50.576 8.88802 50.14 8.88802L50.139 8.88702Z" fill="white"/>
<path d="M32.998 31.108C32.663 31.108 32.338 31.01 32.058 30.824L24.585 25.846C24.477 25.784 24.361 25.708 24.25 25.622L23.898 25.389L23.939 25.348C23.32 24.737 22.97 23.914 22.97 23.053C22.97 21.261 24.428 19.803 26.22 19.803C26.899 19.803 27.543 20.015 28.101 20.418L28.125 20.389L28.329 20.582L28.408 20.665C28.5 20.746 28.595 20.849 28.685 20.956L34.088 26.622L42.032 26.807L42.074 26.802C42.763 26.802 43.324 27.363 43.324 28.052C43.324 28.648 42.905 29.145 42.327 29.263L42.21 29.294L33.332 31.074C33.22 31.096 33.106 31.107 32.996 31.107L32.998 31.108Z" fill="black"/>
<path d="M26.22 20.053C26.955 20.053 27.619 20.327 28.14 20.766L28.149 20.756L28.228 20.839C28.324 20.926 28.411 21.021 28.496 21.12L33.98 26.87L41.989 27.057V27.07C42.02 27.067 42.046 27.053 42.076 27.053C42.628 27.053 43.076 27.501 43.076 28.053C43.076 28.575 42.672 28.99 42.162 29.036V29.05L33.285 30.831C33.188 30.85 33.092 30.86 32.997 30.86C32.706 30.86 32.429 30.772 32.195 30.618L31.824 30.371L24.723 25.641C24.611 25.576 24.504 25.506 24.402 25.427L24.291 25.353L24.3 25.343C23.645 24.793 23.22 23.978 23.22 23.056C23.22 21.399 24.563 20.056 26.22 20.056M26.22 19.553C24.29 19.553 22.72 21.123 22.72 23.053C22.72 23.912 23.042 24.735 23.617 25.374L23.557 25.445L24.013 25.766L24.124 25.84C24.217 25.912 24.341 25.994 24.471 26.07L31.545 30.784L31.916 31.031C32.238 31.244 32.611 31.357 32.995 31.357C33.124 31.357 33.254 31.344 33.381 31.319L42.26 29.538L42.7 29.45L42.696 29.405C43.22 29.171 43.575 28.652 43.575 28.052C43.575 27.354 43.096 26.766 42.449 26.599L42.447 26.58L42.33 26.574C42.247 26.56 42.162 26.552 42.075 26.552H42.004L41.989 26.556L34.198 26.374L28.857 20.774C28.778 20.68 28.676 20.57 28.564 20.468L28.511 20.41L28.126 20.006L28.058 20.087C27.503 19.736 26.876 19.553 26.22 19.553Z" fill="white"/>
</svg>
