<svg width="64" height="64" viewBox="0 0 64 64" fill="none" xmlns="http://www.w3.org/2000/svg">
<path d="M20.365 42.67L19.912 42.281L14.696 37.792L18.206 28.153L18.193 28.148C18.349 27.721 18.447 27.265 18.447 26.784C18.447 24.575 16.656 22.784 14.447 22.784C12.719 22.784 11.26 23.886 10.701 25.42L10.688 25.415L6.23899 37.632L6.25199 37.637C6.09599 38.064 5.99799 38.52 5.99799 39.001C5.99799 40.356 6.67599 41.549 7.70599 42.273L7.70299 42.278L7.73099 42.294C7.87599 42.394 8.03399 42.472 8.19199 42.553L9.57799 43.331L8.05299 43.619L8.05499 43.641C7.08899 43.782 6.34399 44.606 6.34399 45.612C6.34399 46.717 7.23999 47.612 8.34399 47.612C8.36899 47.612 8.39199 47.606 8.41699 47.605C8.74799 47.609 18.45 47.729 18.45 47.729C21.055 47.82 22.405 44.357 20.362 42.673L20.365 42.67Z" fill="black"/>
<path d="M19.087 23.026C21.02 23.026 22.587 21.459 22.587 19.526C22.587 17.593 21.02 16.026 19.087 16.026C17.154 16.026 15.587 17.593 15.587 19.526C15.587 21.459 17.154 23.026 19.087 23.026Z" fill="black"/>
<path d="M24.234 41.914C23.899 41.914 23.585 41.784 23.349 41.548L16.338 35.942C16.11 35.806 15.646 34.938 12.942 29.395C12.597 28.688 12.296 28.068 12.082 27.634C11.971 27.475 11.861 27.26 11.765 27.007L11.59 26.745L11.67 26.715C11.584 26.421 11.541 26.128 11.541 25.844C11.541 24.052 12.999 22.594 14.791 22.594C16.068 22.594 17.229 23.36 17.749 24.522L17.858 24.486L17.853 24.759L17.892 24.92C17.929 25.043 17.965 25.18 17.989 25.322L19.927 33.29L25.136 39.801C25.354 40.017 25.484 40.33 25.484 40.664C25.484 41.353 24.923 41.914 24.234 41.914Z" fill="black"/>
<path d="M14.791 22.844C16.087 22.844 17.181 23.67 17.6 24.821L17.61 24.817L17.649 24.978C17.687 25.104 17.721 25.23 17.742 25.362L19.698 33.403L24.941 39.957C25.122 40.138 25.234 40.388 25.234 40.664C25.234 41.216 24.786 41.664 24.234 41.664C23.958 41.664 23.708 41.552 23.527 41.371L16.457 35.715H16.454C16.265 35.715 13.314 29.56 12.306 27.522C12.179 27.335 12.08 27.129 11.998 26.915C11.991 26.903 11.976 26.874 11.972 26.868L11.982 26.864C11.865 26.543 11.791 26.202 11.791 25.841C11.791 24.184 13.134 22.841 14.791 22.841M14.791 22.344C12.861 22.344 11.291 23.914 11.291 25.844C11.291 26.07 11.316 26.3 11.365 26.531L11.178 26.588L11.543 27.13C11.639 27.375 11.747 27.587 11.871 27.775C12.083 28.203 12.376 28.806 12.71 29.491C15.399 35.005 15.896 35.999 16.232 36.178L23.194 41.747C23.475 42.017 23.843 42.165 24.233 42.165C25.06 42.165 25.733 41.492 25.733 40.665C25.733 40.275 25.585 39.907 25.315 39.626L20.157 33.178L18.228 25.244C18.211 25.128 18.172 24.98 18.127 24.833L18.095 24.698L17.962 24.152L17.863 24.189C17.26 23.068 16.08 22.343 14.79 22.343L14.791 22.344Z" fill="white"/>
<path d="M44.995 39.995L57.016 27.974C57.794 28.752 57.794 30.025 57.016 30.802L47.824 39.994C47.039 40.779 45.773 40.772 44.996 39.994L44.995 39.995Z" fill="black"/>
<path d="M44.497 43.998C44.677 43.998 44.837 44.028 44.997 44.088V45.008C44.997 45.818 44.517 46.518 43.817 46.828C43.327 46.588 42.997 46.088 42.997 45.498C42.997 44.668 43.667 43.998 44.497 43.998Z" fill="black"/>
<path d="M45.997 45.498C45.997 46.328 45.327 46.998 44.497 46.998C44.257 46.998 44.017 46.938 43.817 46.828C43.327 46.588 42.997 46.088 42.997 45.498C42.997 44.668 43.667 43.998 44.497 43.998C44.677 43.998 44.837 44.028 44.997 44.088C45.577 44.288 45.997 44.848 45.997 45.498Z" fill="black"/>
<path d="M27.997 39.998V45H25.846C25.672 44.706 25.365 44.5 24.999 44.5C24.447 44.5 23.999 44.948 23.999 45.5C23.999 46.052 24.447 46.5 24.999 46.5C25.365 46.5 25.671 46.294 25.846 46H28.272C28.619 46.598 29.259 47.008 29.997 47.008H42.507C42.187 46.588 41.997 46.068 41.997 45.498C41.997 44.118 43.117 42.998 44.497 42.998C44.667 42.998 44.837 43.018 44.997 43.048V39.998H27.997Z" fill="black"/>
</svg>
