<svg width="64" height="64" viewBox="0 0 64 64" fill="none" xmlns="http://www.w3.org/2000/svg">
<path d="M44.957 38.868L43.957 48.868C43.957 49.978 43.067 50.868 41.957 50.868C40.857 50.868 39.957 49.978 39.957 48.868L39.857 47.878C40.037 47.818 40.207 47.748 40.367 47.668C40.687 47.508 40.977 47.288 41.217 47.018L41.227 47.008C41.707 46.478 41.997 45.778 41.997 44.998V40.228C42.617 39.688 42.997 38.888 42.997 37.998V36.998C42.997 36.648 42.937 36.308 42.827 35.998C44.187 36.258 45.097 37.528 44.957 38.868Z" fill="black"/>
<path d="M34.277 31.028L32.557 24.638C32.537 24.558 32.517 24.478 32.497 24.408C32.047 22.698 30.477 21.438 28.637 21.438C26.547 21.438 24.837 23.038 24.657 25.068C24.967 25.428 25.177 25.858 25.277 26.338C25.287 26.358 25.297 26.388 25.297 26.408L25.627 28.078L26.657 33.198C26.747 33.658 27.167 33.998 27.637 33.998H30.707C30.747 34.058 34.277 31.028 34.277 31.028Z" fill="black"/>
<path d="M28.27 20.333C30.203 20.333 31.77 18.766 31.77 16.833C31.77 14.9 30.203 13.333 28.27 13.333C26.337 13.333 24.77 14.9 24.77 16.833C24.77 18.766 26.337 20.333 28.27 20.333Z" fill="black"/>
<path d="M41.997 36.998V37.998C41.997 38.508 41.807 38.968 41.497 39.328C41.357 39.488 41.187 39.618 40.997 39.728C40.707 39.898 40.357 39.998 39.997 39.998H27.997C26.897 39.998 25.997 39.108 25.997 37.998V36.998C25.997 36.218 26.447 35.538 27.107 35.218C27.377 35.078 27.677 34.998 27.997 34.998H39.997C40.217 34.998 40.427 35.038 40.627 35.098C41.007 35.228 41.337 35.458 41.577 35.768C41.797 36.048 41.937 36.388 41.977 36.768C41.997 36.838 41.997 36.918 41.997 36.998Z" fill="black"/>
<path d="M31.948 34.869C31.716 34.869 31.489 34.824 31.255 34.73C31.084 34.659 30.957 34.587 30.852 34.502C30.809 34.475 30.721 34.408 30.653 34.323C30.598 34.268 30.549 34.209 30.502 34.136C30.467 34.122 30.419 34.042 30.384 33.984L27.645 29.486L25.845 26.516L25.783 26.423C25.671 26.268 25.588 26.126 25.511 25.981L25.311 25.658L25.349 25.637C25.201 25.26 25.126 24.87 25.126 24.475C25.126 22.683 26.584 21.225 28.376 21.225C29.622 21.225 30.772 21.958 31.309 23.093L31.331 23.114L31.369 23.209L31.515 23.647L31.319 23.867L31.555 23.785L31.825 24.564L32.586 26.847L33.889 30.691L41.213 32.165L41.306 32.179C41.894 32.219 42.4 32.763 42.4 33.408C42.4 33.964 42.042 34.441 41.509 34.597C41.387 34.65 41.251 34.658 41.15 34.658L40.534 34.668L34.087 34.828L32.304 34.857L31.95 34.869H31.948Z" fill="black"/>
<path d="M28.374 21.476C29.576 21.476 30.606 22.188 31.084 23.209H31.087L31.097 23.208L31.135 23.303C31.14 23.316 31.143 23.33 31.149 23.342L31.277 23.727L31.297 23.787L31.317 23.867L31.587 24.647L32.347 26.927L33.697 30.907L34.277 31.027L41.147 32.407C41.177 32.407 41.197 32.407 41.227 32.417C41.737 32.457 42.147 32.887 42.147 33.407C42.147 33.867 41.847 34.237 41.437 34.357H41.427C41.337 34.397 41.247 34.407 41.147 34.407C41.117 34.407 41.087 34.407 41.057 34.397V34.407L40.527 34.417L37.177 34.497L35.217 34.547H35.117L34.797 34.557L34.077 34.577H34.067L32.297 34.607L32.007 34.617C31.986 34.617 31.966 34.618 31.946 34.618C31.73 34.618 31.53 34.57 31.347 34.497C31.227 34.447 31.107 34.387 31.007 34.307C30.947 34.267 30.887 34.217 30.847 34.167C30.787 34.107 30.747 34.057 30.707 33.997C30.657 33.957 30.627 33.907 30.597 33.857L30.367 33.477L27.857 29.357L26.057 26.387L26.017 26.337L26.007 26.317L25.968 26.252C25.878 26.13 25.801 26 25.73 25.865L25.657 25.748L25.664 25.745C25.483 25.359 25.374 24.932 25.374 24.477C25.374 22.82 26.717 21.476 28.374 21.476ZM28.374 20.976C26.444 20.976 24.874 22.546 24.874 24.476C24.874 24.819 24.926 25.159 25.03 25.492L24.944 25.533L25.232 26.012L25.305 26.129C25.382 26.278 25.471 26.421 25.566 26.551L25.578 26.576L25.596 26.605L25.627 26.652L25.647 26.677L27.43 29.619L29.94 33.74L30.169 34.119C30.2 34.171 30.249 34.251 30.327 34.33C30.37 34.389 30.416 34.444 30.476 34.506C30.559 34.603 30.659 34.679 30.729 34.726C30.818 34.799 30.964 34.882 31.154 34.961C31.421 35.068 31.685 35.121 31.945 35.121L32.027 35.119L32.313 35.109L34.074 35.079L34.809 35.059L35.131 35.049H35.215L37.188 34.999L40.537 34.919L41.065 34.909H41.097C41.116 34.909 41.132 34.909 41.146 34.909C41.182 34.909 41.22 34.909 41.262 34.905L41.556 34.899V34.844C41.556 34.844 41.562 34.842 41.566 34.841L41.577 34.838C42.217 34.651 42.647 34.076 42.647 33.408C42.647 32.65 42.065 32.007 41.314 31.924C41.271 31.915 41.234 31.911 41.203 31.909L34.376 30.538L34.079 30.477L32.821 26.768L32.062 24.491L31.79 23.706L31.783 23.668L31.752 23.571L31.624 23.186L31.618 23.167L31.597 23.109L31.563 23.024L31.438 22.709H31.386C30.761 21.647 29.613 20.977 28.375 20.977L28.374 20.976Z" fill="white"/>
<path d="M40.807 40.888C40.547 40.958 40.277 40.998 39.997 40.998H27.997C26.347 40.998 24.997 39.658 24.997 37.998V36.998C24.997 35.968 25.527 35.048 26.327 34.508C26.007 34.228 25.767 33.838 25.677 33.388L24.317 26.608C24.137 25.678 23.317 24.998 22.357 24.998H21.997C20.897 24.998 19.997 25.898 19.997 26.998V44.998C19.997 46.108 20.897 46.998 21.997 46.998V50.998H24.997V46.998H35.997V50.998H38.997V46.998C39.267 46.998 39.517 46.948 39.757 46.858C40.487 46.548 40.997 45.838 40.997 44.998V40.828C40.937 40.848 40.877 40.868 40.807 40.888Z" fill="black"/>
</svg>
