<svg width="64" height="64" viewBox="0 0 64 64" fill="none" xmlns="http://www.w3.org/2000/svg">
<path d="M21.75 8.75H20.25V11.25H21.75V8.75Z" fill="black"/>
<path d="M21.5 9V11H20.5V9H21.5ZM22 8.5H20V11.5H22V8.5Z" fill="white"/>
<path d="M23.75 8.75H22.25V10.25H23.75V8.75Z" fill="black"/>
<path d="M23.5 9V10H22.5V9H23.5ZM24 8.5H22V10.5H24V8.5Z" fill="white"/>
<path d="M25.75 8.75H24.25V11.25H25.75V8.75Z" fill="black"/>
<path d="M25.5 9V11H24.5V9H25.5ZM26 8.5H24V11.5H26V8.5Z" fill="white"/>
<path d="M27.75 8.75H26.25V10.25H27.75V8.75Z" fill="black"/>
<path d="M27.5 9V10H26.5V9H27.5ZM28 8.5H26V10.5H28V8.5Z" fill="white"/>
<path d="M29.75 8.75H28.25V11.25H29.75V8.75Z" fill="black"/>
<path d="M29.5 9V11H28.5V9H29.5ZM30 8.5H28V11.5H30V8.5Z" fill="white"/>
<path d="M31.75 8.75H30.25V10.25H31.75V8.75Z" fill="black"/>
<path d="M31.5 9V10H30.5V9H31.5ZM32 8.5H30V10.5H32V8.5Z" fill="white"/>
<path d="M23.75 10.75H22.25V13.25H23.75V10.75Z" fill="black"/>
<path d="M23.5 11V13H22.5V11H23.5ZM24 10.5H22V13.5H24V10.5Z" fill="white"/>
<path d="M25.75 11.75H24.25V14.25H25.75V11.75Z" fill="black"/>
<path d="M25.5 12V14H24.5V12H25.5ZM26 11.5H24V14.5H26V11.5Z" fill="white"/>
<path d="M21.75 11.75H20.25V14.25H21.75V11.75Z" fill="black"/>
<path d="M21.5 12V14H20.5V12H21.5ZM22 11.5H20V14.5H22V11.5Z" fill="white"/>
<path d="M27.75 10.75H26.25V13.25H27.75V10.75Z" fill="black"/>
<path d="M27.5 11V13H26.5V11H27.5ZM28 10.5H26V13.5H28V10.5Z" fill="white"/>
<path d="M29.75 11.75H28.25V14.25H29.75V11.75Z" fill="black"/>
<path d="M29.5 12V14H28.5V12H29.5ZM30 11.5H28V14.5H30V11.5Z" fill="white"/>
<path d="M31.75 10.75H30.25V13.25H31.75V10.75Z" fill="black"/>
<path d="M31.5 11V13H30.5V11H31.5ZM32 10.5H30V13.5H32V10.5Z" fill="white"/>
<path d="M31.75 13.75H30.25V16.25H31.75V13.75Z" fill="black"/>
<path d="M31.5 14V16H30.5V14H31.5ZM32 13.5H30V16.5H32V13.5Z" fill="white"/>
<path d="M23.75 13.75H22.25V16.25H23.75V13.75Z" fill="black"/>
<path d="M23.5 14V16H22.5V14H23.5ZM24 13.5H22V16.5H24V13.5Z" fill="white"/>
<path d="M27.75 13.75H26.25V16.25H27.75V13.75Z" fill="black"/>
<path d="M27.5 14V16H26.5V14H27.5ZM28 13.5H26V16.5H28V13.5Z" fill="white"/>
<path d="M21.75 14.75H20.25V17.25H21.75V14.75Z" fill="black"/>
<path d="M21.5 15V17H20.5V15H21.5ZM22 14.5H20V17.5H22V14.5Z" fill="white"/>
<path d="M21.75 17.75H20.25V20.25H21.75V17.75Z" fill="black"/>
<path d="M21.5 18V20H20.5V18H21.5ZM22 17.5H20V20.5H22V17.5Z" fill="white"/>
<path d="M21.75 20.75H20.25V23.25H21.75V20.75Z" fill="black"/>
<path d="M21.5 21V23H20.5V21H21.5ZM22 20.5H20V23.5H22V20.5Z" fill="white"/>
<path d="M21.75 23.75H20.25V26.25H21.75V23.75Z" fill="black"/>
<path d="M21.5 24V26H20.5V24H21.5ZM22 23.5H20V26.5H22V23.5Z" fill="white"/>
<path d="M21.75 26.75H20.25V29.25H21.75V26.75Z" fill="black"/>
<path d="M21.5 27V29H20.5V27H21.5ZM22 26.5H20V29.5H22V26.5Z" fill="white"/>
<path d="M21.75 29.75H20.25V32.25H21.75V29.75Z" fill="black"/>
<path d="M21.5 30V32H20.5V30H21.5ZM22 29.5H20V32.5H22V29.5Z" fill="white"/>
<path d="M21.75 32.75H20.25V35.25H21.75V32.75Z" fill="black"/>
<path d="M21.5 33V35H20.5V33H21.5ZM22 32.5H20V35.5H22V32.5Z" fill="white"/>
<path d="M21.75 35.75H20.25V38.25H21.75V35.75Z" fill="black"/>
<path d="M21.5 36V38H20.5V36H21.5ZM22 35.5H20V38.5H22V35.5Z" fill="white"/>
<path d="M21.75 38.75H20.25V41.25H21.75V38.75Z" fill="black"/>
<path d="M21.5 39V41H20.5V39H21.5ZM22 38.5H20V41.5H22V38.5Z" fill="white"/>
<path d="M21.75 41.75H20.25V44.25H21.75V41.75Z" fill="black"/>
<path d="M21.5 42V44H20.5V42H21.5ZM22 41.5H20V44.5H22V41.5Z" fill="white"/>
<path d="M21.75 44.75H20.25V47.25H21.75V44.75Z" fill="black"/>
<path d="M21.5 45V47H20.5V45H21.5ZM22 44.5H20V47.5H22V44.5Z" fill="white"/>
<path d="M21.75 47.75H20.25V50.25H21.75V47.75Z" fill="black"/>
<path d="M21.5 48V50H20.5V48H21.5ZM22 47.5H20V50.5H22V47.5Z" fill="white"/>
<path d="M21.75 50.75H20.25V53.25H21.75V50.75Z" fill="black"/>
<path d="M21.5 51V53H20.5V51H21.5ZM22 50.5H20V53.5H22V50.5Z" fill="white"/>
<path d="M21.75 53.75H20.25V56.25H21.75V53.75Z" fill="black"/>
<path d="M21.5 54V56H20.5V54H21.5ZM22 53.5H20V56.5H22V53.5Z" fill="white"/>
<path d="M21.75 56.75H20.25V59.25H21.75V56.75Z" fill="black"/>
<path d="M21.5 57V59H20.5V57H21.5ZM22 56.5H20V59.5H22V56.5Z" fill="white"/>
<path d="M23.75 16.75H22.25V19.25H23.75V16.75Z" fill="black"/>
<path d="M23.5 17V19H22.5V17H23.5ZM24 16.5H22V19.5H24V16.5Z" fill="white"/>
<path d="M23.75 19.75H22.25V22.25H23.75V19.75Z" fill="black"/>
<path d="M23.5 20V22H22.5V20H23.5ZM24 19.5H22V22.5H24V19.5Z" fill="white"/>
<path d="M23.75 22.75H22.25V25.25H23.75V22.75Z" fill="black"/>
<path d="M23.5 23V25H22.5V23H23.5ZM24 22.5H22V25.5H24V22.5Z" fill="white"/>
<path d="M23.75 25.75H22.25V28.25H23.75V25.75Z" fill="black"/>
<path d="M23.5 26V28H22.5V26H23.5ZM24 25.5H22V28.5H24V25.5Z" fill="white"/>
<path d="M23.75 28.75H22.25V31.25H23.75V28.75Z" fill="black"/>
<path d="M23.5 29V31H22.5V29H23.5ZM24 28.5H22V31.5H24V28.5Z" fill="white"/>
<path d="M23.75 31.75H22.25V34.25H23.75V31.75Z" fill="black"/>
<path d="M23.5 32V34H22.5V32H23.5ZM24 31.5H22V34.5H24V31.5Z" fill="white"/>
<path d="M23.75 34.75H22.25V37.25H23.75V34.75Z" fill="black"/>
<path d="M23.5 35V37H22.5V35H23.5ZM24 34.5H22V37.5H24V34.5Z" fill="white"/>
<path d="M23.75 37.75H22.25V40.25H23.75V37.75Z" fill="black"/>
<path d="M23.5 38V40H22.5V38H23.5ZM24 37.5H22V40.5H24V37.5Z" fill="white"/>
<path d="M23.75 40.75H22.25V43.25H23.75V40.75Z" fill="black"/>
<path d="M23.5 41V43H22.5V41H23.5ZM24 40.5H22V43.5H24V40.5Z" fill="white"/>
<path d="M23.75 43.75H22.25V46.25H23.75V43.75Z" fill="black"/>
<path d="M23.5 44V46H22.5V44H23.5ZM24 43.5H22V46.5H24V43.5Z" fill="white"/>
<path d="M23.75 46.75H22.25V49.25H23.75V46.75Z" fill="black"/>
<path d="M23.5 47V49H22.5V47H23.5ZM24 46.5H22V49.5H24V46.5Z" fill="white"/>
<path d="M23.75 49.75H22.25V52.25H23.75V49.75Z" fill="black"/>
<path d="M23.5 50V52H22.5V50H23.5ZM24 49.5H22V52.5H24V49.5Z" fill="white"/>
<path d="M23.75 52.75H22.25V55.25H23.75V52.75Z" fill="black"/>
<path d="M23.5 53V55H22.5V53H23.5ZM24 52.5H22V55.5H24V52.5Z" fill="white"/>
<path d="M23.75 55.75H22.25V58.25H23.75V55.75Z" fill="black"/>
<path d="M23.5 56V58H22.5V56H23.5ZM24 55.5H22V58.5H24V55.5Z" fill="white"/>
<path d="M27.75 19.75H26.25V22.25H27.75V19.75Z" fill="black"/>
<path d="M27.5 20V22H26.5V20H27.5ZM28 19.5H26V22.5H28V19.5Z" fill="white"/>
<path d="M25.75 20.75H24.25V23.25H25.75V20.75Z" fill="black"/>
<path d="M25.5 21V23H24.5V21H25.5ZM26 20.5H24V23.5H26V20.5Z" fill="white"/>
<path d="M27.75 22.75H26.25V25.25H27.75V22.75Z" fill="black"/>
<path d="M27.5 23V25H26.5V23H27.5ZM28 22.5H26V25.5H28V22.5Z" fill="white"/>
<path d="M25.75 23.75H24.25V26.25H25.75V23.75Z" fill="black"/>
<path d="M25.5 24V26H24.5V24H25.5ZM26 23.5H24V26.5H26V23.5Z" fill="white"/>
<path d="M25.75 26.75H24.25V29.25H25.75V26.75Z" fill="black"/>
<path d="M25.5 27V29H24.5V27H25.5ZM26 26.5H24V29.5H26V26.5Z" fill="white"/>
<path d="M25.75 29.75H24.25V32.25H25.75V29.75Z" fill="black"/>
<path d="M25.5 30V32H24.5V30H25.5ZM26 29.5H24V32.5H26V29.5Z" fill="white"/>
<path d="M25.75 32.75H24.25V35.25H25.75V32.75Z" fill="black"/>
<path d="M25.5 33V35H24.5V33H25.5ZM26 32.5H24V35.5H26V32.5Z" fill="white"/>
<path d="M25.75 35.75H24.25V38.25H25.75V35.75Z" fill="black"/>
<path d="M25.5 36V38H24.5V36H25.5ZM26 35.5H24V38.5H26V35.5Z" fill="white"/>
<path d="M25.75 38.75H24.25V41.25H25.75V38.75Z" fill="black"/>
<path d="M25.5 39V41H24.5V39H25.5ZM26 38.5H24V41.5H26V38.5Z" fill="white"/>
<path d="M25.75 41.75H24.25V44.25H25.75V41.75Z" fill="black"/>
<path d="M25.5 42V44H24.5V42H25.5ZM26 41.5H24V44.5H26V41.5Z" fill="white"/>
<path d="M25.75 44.75H24.25V47.25H25.75V44.75Z" fill="black"/>
<path d="M25.5 45V47H24.5V45H25.5ZM26 44.5H24V47.5H26V44.5Z" fill="white"/>
<path d="M25.75 47.75H24.25V50.25H25.75V47.75Z" fill="black"/>
<path d="M25.5 48V50H24.5V48H25.5ZM26 47.5H24V50.5H26V47.5Z" fill="white"/>
<path d="M25.75 50.75H24.25V53.25H25.75V50.75Z" fill="black"/>
<path d="M25.5 51V53H24.5V51H25.5ZM26 50.5H24V53.5H26V50.5Z" fill="white"/>
<path d="M25.75 53.75H24.25V56.25H25.75V53.75Z" fill="black"/>
<path d="M25.5 54V56H24.5V54H25.5ZM26 53.5H24V56.5H26V53.5Z" fill="white"/>
<path d="M25.75 56.75H24.25V59.25H25.75V56.75Z" fill="black"/>
<path d="M25.5 57V59H24.5V57H25.5ZM26 56.5H24V59.5H26V56.5Z" fill="white"/>
<path d="M27.75 25.75H26.25V28.25H27.75V25.75Z" fill="black"/>
<path d="M27.5 26V28H26.5V26H27.5ZM28 25.5H26V28.5H28V25.5Z" fill="white"/>
<path d="M27.75 28.75H26.25V31.25H27.75V28.75Z" fill="black"/>
<path d="M27.5 29V31H26.5V29H27.5ZM28 28.5H26V31.5H28V28.5Z" fill="white"/>
<path d="M27.75 31.75H26.25V34.25H27.75V31.75Z" fill="black"/>
<path d="M27.5 32V34H26.5V32H27.5ZM28 31.5H26V34.5H28V31.5Z" fill="white"/>
<path d="M27.75 34.75H26.25V37.25H27.75V34.75Z" fill="black"/>
<path d="M27.5 35V37H26.5V35H27.5ZM28 34.5H26V37.5H28V34.5Z" fill="white"/>
<path d="M27.75 37.75H26.25V40.25H27.75V37.75Z" fill="black"/>
<path d="M27.5 38V40H26.5V38H27.5ZM28 37.5H26V40.5H28V37.5Z" fill="white"/>
<path d="M27.75 40.75H26.25V43.25H27.75V40.75Z" fill="black"/>
<path d="M27.5 41V43H26.5V41H27.5ZM28 40.5H26V43.5H28V40.5Z" fill="white"/>
<path d="M27.75 43.75H26.25V46.25H27.75V43.75Z" fill="black"/>
<path d="M27.5 44V46H26.5V44H27.5ZM28 43.5H26V46.5H28V43.5Z" fill="white"/>
<path d="M27.75 46.75H26.25V49.25H27.75V46.75Z" fill="black"/>
<path d="M27.5 47V49H26.5V47H27.5ZM28 46.5H26V49.5H28V46.5Z" fill="white"/>
<path d="M27.75 49.75H26.25V52.25H27.75V49.75Z" fill="black"/>
<path d="M27.5 50V52H26.5V50H27.5ZM28 49.5H26V52.5H28V49.5Z" fill="white"/>
<path d="M27.75 52.75H26.25V55.25H27.75V52.75Z" fill="black"/>
<path d="M27.5 53V55H26.5V53H27.5ZM28 52.5H26V55.5H28V52.5Z" fill="white"/>
<path d="M27.75 55.75H26.25V58.25H27.75V55.75Z" fill="black"/>
<path d="M27.5 56V58H26.5V56H27.5ZM28 55.5H26V58.5H28V55.5Z" fill="white"/>
<path d="M31.75 19.75H30.25V22.25H31.75V19.75Z" fill="black"/>
<path d="M31.5 20V22H30.5V20H31.5ZM32 19.5H30V22.5H32V19.5Z" fill="white"/>
<path d="M29.75 20.75H28.25V23.25H29.75V20.75Z" fill="black"/>
<path d="M29.5 21V23H28.5V21H29.5ZM30 20.5H28V23.5H30V20.5Z" fill="white"/>
<path d="M31.75 22.75H30.25V25.25H31.75V22.75Z" fill="black"/>
<path d="M31.5 23V25H30.5V23H31.5ZM32 22.5H30V25.5H32V22.5Z" fill="white"/>
<path d="M29.75 23.75H28.25V26.25H29.75V23.75Z" fill="black"/>
<path d="M29.5 24V26H28.5V24H29.5ZM30 23.5H28V26.5H30V23.5Z" fill="white"/>
<path d="M29.75 26.75H28.25V29.25H29.75V26.75Z" fill="black"/>
<path d="M29.5 27V29H28.5V27H29.5ZM30 26.5H28V29.5H30V26.5Z" fill="white"/>
<path d="M29.75 29.75H28.25V32.25H29.75V29.75Z" fill="black"/>
<path d="M29.5 30V32H28.5V30H29.5ZM30 29.5H28V32.5H30V29.5Z" fill="white"/>
<path d="M29.75 32.75H28.25V35.25H29.75V32.75Z" fill="black"/>
<path d="M29.5 33V35H28.5V33H29.5ZM30 32.5H28V35.5H30V32.5Z" fill="white"/>
<path d="M29.75 35.75H28.25V38.25H29.75V35.75Z" fill="black"/>
<path d="M29.5 36V38H28.5V36H29.5ZM30 35.5H28V38.5H30V35.5Z" fill="white"/>
<path d="M29.75 38.75H28.25V41.25H29.75V38.75Z" fill="black"/>
<path d="M29.5 39V41H28.5V39H29.5ZM30 38.5H28V41.5H30V38.5Z" fill="white"/>
<path d="M29.75 41.75H28.25V44.25H29.75V41.75Z" fill="black"/>
<path d="M29.5 42V44H28.5V42H29.5ZM30 41.5H28V44.5H30V41.5Z" fill="white"/>
<path d="M29.75 44.75H28.25V47.25H29.75V44.75Z" fill="black"/>
<path d="M29.5 45V47H28.5V45H29.5ZM30 44.5H28V47.5H30V44.5Z" fill="white"/>
<path d="M29.75 47.75H28.25V50.25H29.75V47.75Z" fill="black"/>
<path d="M29.5 48V50H28.5V48H29.5ZM30 47.5H28V50.5H30V47.5Z" fill="white"/>
<path d="M29.75 50.75H28.25V53.25H29.75V50.75Z" fill="black"/>
<path d="M29.5 51V53H28.5V51H29.5ZM30 50.5H28V53.5H30V50.5Z" fill="white"/>
<path d="M29.75 53.75H28.25V56.25H29.75V53.75Z" fill="black"/>
<path d="M29.5 54V56H28.5V54H29.5ZM30 53.5H28V56.5H30V53.5Z" fill="white"/>
<path d="M29.75 56.75H28.25V59.25H29.75V56.75Z" fill="black"/>
<path d="M29.5 57V59H28.5V57H29.5ZM30 56.5H28V59.5H30V56.5Z" fill="white"/>
<path d="M31.75 25.75H30.25V28.25H31.75V25.75Z" fill="black"/>
<path d="M31.5 26V28H30.5V26H31.5ZM32 25.5H30V28.5H32V25.5Z" fill="white"/>
<path d="M31.75 28.75H30.25V31.25H31.75V28.75Z" fill="black"/>
<path d="M31.5 29V31H30.5V29H31.5ZM32 28.5H30V31.5H32V28.5Z" fill="white"/>
<path d="M31.75 31.75H30.25V34.25H31.75V31.75Z" fill="black"/>
<path d="M31.5 32V34H30.5V32H31.5ZM32 31.5H30V34.5H32V31.5Z" fill="white"/>
<path d="M31.75 34.75H30.25V37.25H31.75V34.75Z" fill="black"/>
<path d="M31.5 35V37H30.5V35H31.5ZM32 34.5H30V37.5H32V34.5Z" fill="white"/>
<path d="M31.75 37.75H30.25V40.25H31.75V37.75Z" fill="black"/>
<path d="M31.5 38V40H30.5V38H31.5ZM32 37.5H30V40.5H32V37.5Z" fill="white"/>
<path d="M31.75 40.75H30.25V43.25H31.75V40.75Z" fill="black"/>
<path d="M31.5 41V43H30.5V41H31.5ZM32 40.5H30V43.5H32V40.5Z" fill="white"/>
<path d="M31.75 43.75H30.25V46.25H31.75V43.75Z" fill="black"/>
<path d="M31.5 44V46H30.5V44H31.5ZM32 43.5H30V46.5H32V43.5Z" fill="white"/>
<path d="M31.75 46.75H30.25V49.25H31.75V46.75Z" fill="black"/>
<path d="M31.5 47V49H30.5V47H31.5ZM32 46.5H30V49.5H32V46.5Z" fill="white"/>
<path d="M31.75 49.75H30.25V52.25H31.75V49.75Z" fill="black"/>
<path d="M31.5 50V52H30.5V50H31.5ZM32 49.5H30V52.5H32V49.5Z" fill="white"/>
<path d="M31.75 52.75H30.25V55.25H31.75V52.75Z" fill="black"/>
<path d="M31.5 53V55H30.5V53H31.5ZM32 52.5H30V55.5H32V52.5Z" fill="white"/>
<path d="M31.75 55.75H30.25V58.25H31.75V55.75Z" fill="black"/>
<path d="M31.5 56V58H30.5V56H31.5ZM32 55.5H30V58.5H32V55.5Z" fill="white"/>
<path d="M31.75 16.75H30.25V19.25H31.75V16.75Z" fill="black"/>
<path d="M31.5 17V19H30.5V17H31.5ZM32 16.5H30V19.5H32V16.5Z" fill="white"/>
<path d="M25.75 14.75H24.25V17.25H25.75V14.75Z" fill="black"/>
<path d="M25.5 15V17H24.5V15H25.5ZM26 14.5H24V17.5H26V14.5Z" fill="white"/>
<path d="M25.75 17.75H24.25V20.25H25.75V17.75Z" fill="black"/>
<path d="M25.5 18V20H24.5V18H25.5ZM26 17.5H24V20.5H26V17.5Z" fill="white"/>
<path d="M27.75 16.75H26.25V19.25H27.75V16.75Z" fill="black"/>
<path d="M27.5 17V19H26.5V17H27.5ZM28 16.5H26V19.5H28V16.5Z" fill="white"/>
<path d="M29.75 14.75H28.25V17.25H29.75V14.75Z" fill="black"/>
<path d="M29.5 15V17H28.5V15H29.5ZM30 14.5H28V17.5H30V14.5Z" fill="white"/>
<path d="M29.75 17.75H28.25V20.25H29.75V17.75Z" fill="black"/>
<path d="M29.5 18V20H28.5V18H29.5ZM30 17.5H28V20.5H30V17.5Z" fill="white"/>
<path d="M34.229 30.422C33.972 30.422 33.717 30.357 33.492 30.234L24.914 25.543L28.677 20.172L35.322 26.019L43.624 26.942V26.991C44.14 27.151 44.495 27.616 44.495 28.166C44.495 28.716 44.14 29.18 43.624 29.34V29.363L43.401 29.414L34.401 30.414C34.343 30.421 34.287 30.424 34.23 30.424L34.229 30.422Z" fill="black"/>
<path d="M28.721 20.543L35.215 26.258L43.372 27.164V27.19C43.861 27.256 44.244 27.657 44.244 28.164C44.244 28.671 43.861 29.073 43.372 29.138V29.164L34.372 30.164C34.324 30.169 34.276 30.172 34.228 30.172C34.007 30.172 33.796 30.115 33.612 30.014L33.225 29.802L25.279 25.457L28.721 20.543ZM28.632 19.798L28.312 20.256L24.87 25.17L24.549 25.628L25.039 25.896L32.985 30.241L33.372 30.453C33.634 30.596 33.93 30.672 34.228 30.672C34.294 30.672 34.36 30.668 34.427 30.661L43.427 29.661L43.872 29.612V29.511C44.396 29.275 44.744 28.762 44.744 28.164C44.744 27.566 44.396 27.053 43.872 26.817V26.742L43.427 26.667L35.426 25.778L29.051 20.167L28.632 19.798Z" fill="white"/>
<path d="M27 41.25C29.3472 41.25 31.25 39.3472 31.25 37C31.25 34.6528 29.3472 32.75 27 32.75C24.6528 32.75 22.75 34.6528 22.75 37C22.75 39.3472 24.6528 41.25 27 41.25Z" fill="black"/>
<path d="M27 33C29.209 33 31 34.791 31 37C31 39.209 29.209 41 27 41C24.791 41 23 39.209 23 37C23 34.791 24.791 33 27 33ZM27 32.5C24.519 32.5 22.5 34.519 22.5 37C22.5 39.481 24.519 41.5 27 41.5C29.481 41.5 31.5 39.481 31.5 37C31.5 34.519 29.481 32.5 27 32.5Z" fill="white"/>
<path d="M42.25 57.25V9C42.25 7.208 40.792 5.75 39 5.75H26.75V6.75H31.5C31.913 6.75 32.25 7.087 32.25 7.5C32.25 7.913 31.913 8.25 31.5 8.25H20.5C20.087 8.25 19.75 7.913 19.75 7.5C19.75 7.087 20.087 6.75 20.5 6.75H25.25V4.25H39C41.619 4.25 43.75 6.381 43.75 9V57.25H42.25Z" fill="black"/>
<path d="M39 4.5C41.481 4.5 43.5 6.519 43.5 9V57H42.5V9C42.5 7.07 40.93 5.5 39 5.5H26.5V7H31.5C31.776 7 32 7.224 32 7.5C32 7.776 31.776 8 31.5 8H20.5C20.224 8 20 7.776 20 7.5C20 7.224 20.224 7 20.5 7H25.5V4.5H39ZM39 4H25V6.5H20.5C19.948 6.5 19.5 6.949 19.5 7.5C19.5 8.051 19.948 8.5 20.5 8.5H31.5C32.052 8.5 32.5 8.051 32.5 7.5C32.5 6.949 32.052 6.5 31.5 6.5H27V6H39C40.654 6 42 7.346 42 9V57.5H44V9C44 6.243 41.757 4 39 4Z" fill="white"/>
<path d="M25.126 19.332C27.1971 19.332 28.876 17.653 28.876 15.582C28.876 13.5109 27.1971 11.832 25.126 11.832C23.0549 11.832 21.376 13.5109 21.376 15.582C21.376 17.653 23.0549 19.332 25.126 19.332Z" fill="black"/>
<path d="M25.126 12.082C27.056 12.082 28.626 13.652 28.626 15.582C28.626 17.512 27.056 19.082 25.126 19.082C23.196 19.082 21.626 17.512 21.626 15.582C21.626 13.652 23.196 12.082 25.126 12.082ZM25.126 11.582C22.92 11.582 21.126 13.376 21.126 15.582C21.126 17.788 22.92 19.582 25.126 19.582C27.332 19.582 29.126 17.788 29.126 15.582C29.126 13.376 27.332 11.582 25.126 11.582Z" fill="white"/>
<path d="M27 59.25C25.76 59.25 24.75 58.24 24.75 57L22.751 37.024V24C22.751 21.656 24.656 19.75 27 19.75C29.344 19.75 31.25 21.656 31.25 24V37L29.249 57.024C29.249 58.24 28.24 59.25 27 59.25Z" fill="black"/>
<path d="M27 20C29.209 20 31 21.791 31 24V36.999L29 56.999C29 58.104 28.104 58.999 27 58.999C25.896 58.999 25 58.104 25 56.999L23 36.999V23.999C23 21.79 24.791 20 27 20ZM27 19.5C24.519 19.5 22.5 21.519 22.5 24V37L24.502 57.05C24.5 58.379 25.621 59.5 27 59.5C28.379 59.5 29.5 58.378 29.5 57L31.497 37.05L31.499 24.001C31.499 22.799 31.031 21.669 30.181 20.819C29.331 19.969 28.201 19.501 26.999 19.501L27 19.5Z" fill="white"/>
<path d="M27 26.25C25.208 26.25 23.75 24.792 23.75 23C23.75 21.732 24.506 20.578 25.654 20.054L25.639 20.016L25.914 19.938L26.074 19.899C26.198 19.862 26.336 19.826 26.478 19.802L32.333 18.379L29.772 12.54L29.78 12.535C29.728 12.4 29.703 12.267 29.703 12.134C29.703 11.445 30.264 10.884 30.953 10.884C31.312 10.884 31.645 11.042 31.88 11.318L31.883 11.316L32.021 11.486L37.386 18.775C37.711 19.216 37.845 19.758 37.763 20.3C37.68 20.843 37.392 21.321 36.951 21.645C36.842 21.742 36.638 21.838 36.457 21.923C36.382 21.959 28.599 25.815 28.599 25.815C28.471 25.889 28.328 25.964 28.176 26.024L27.946 26.113L27.937 26.102C27.618 26.202 27.31 26.25 27 26.25Z" fill="black"/>
<path d="M30.955 11.134C31.325 11.134 31.634 11.344 31.807 11.642L31.821 11.634L37.187 18.923C37.777 19.725 37.606 20.853 36.804 21.443C36.656 21.573 36.311 21.707 36.139 21.803C36.139 21.803 30.189 24.748 28.488 25.591C28.358 25.666 28.227 25.735 28.086 25.79C28.06 25.803 28.027 25.819 28.027 25.819L28.023 25.809C27.703 25.926 27.362 26 27.001 26C25.344 26 24.001 24.657 24.001 23C24.001 21.704 24.828 20.61 25.979 20.191L25.975 20.181L26.136 20.142C26.262 20.104 26.388 20.07 26.52 20.049L32.684 18.552L30.09 12.635L30.104 12.627C30.019 12.48 29.956 12.318 29.956 12.135C29.956 11.583 30.404 11.135 30.956 11.135M30.955 10.634C30.128 10.634 29.455 11.307 29.455 12.134C29.455 12.219 29.463 12.303 29.48 12.387L29.458 12.399L29.632 12.836L31.987 18.207L26.403 19.563C26.287 19.58 26.139 19.619 25.992 19.664L25.858 19.696L25.31 19.829L25.347 19.929C24.226 20.532 23.502 21.712 23.502 23.001C23.502 24.931 25.072 26.501 27.002 26.501C27.237 26.501 27.476 26.474 27.718 26.42L27.749 26.505L28.25 26.268L28.308 26.239C28.454 26.184 28.618 26.094 28.739 26.025C30.406 25.201 36.318 22.274 36.362 22.253C36.433 22.214 36.498 22.184 36.568 22.151C36.763 22.059 36.983 21.954 37.135 21.821C38.124 21.095 38.343 19.651 37.591 18.629L32.225 11.34L31.959 10.979L31.92 11.002C31.654 10.769 31.316 10.637 30.956 10.637L30.955 10.634Z" fill="white"/>
</svg>
