<svg width="64" height="64" viewBox="0 0 64 64" fill="none" xmlns="http://www.w3.org/2000/svg">
<path d="M28 55.25C26.76 55.25 25.75 54.24 25.75 53L23.809 33.62L23.767 33.37L22.613 20.174H22.625C22.621 20.133 22.618 20.092 22.618 20.05C22.618 17.706 24.524 15.8 26.868 15.8C28.997 15.8 30.757 17.349 31.055 19.441H31.062L31.102 19.68L32.257 32.877H32.245C32.249 32.918 32.251 33.008 32.251 33.008L30.25 53.025C30.25 54.241 29.241 55.251 28.001 55.251L28 55.25Z" fill="black"/>
<path d="M26.867 16.05C28.957 16.05 30.653 17.659 30.832 19.703L30.852 19.701L31.985 32.652L31.965 32.654C31.975 32.77 32 32.882 32 33.001C32 33.028 31.992 33.053 31.992 33.08L30 53.001C30 54.106 29.104 55.001 28 55.001C26.896 55.001 26 54.106 26 53.001L24.035 33.348L24.016 33.35L22.883 20.399L22.903 20.397C22.893 20.281 22.868 20.169 22.868 20.05C22.868 17.841 24.658 16.05 26.867 16.05ZM26.867 15.55C24.422 15.55 22.426 17.51 22.368 19.941H22.36L22.384 20.442L23.517 33.393L23.56 33.892L23.586 33.89L25.502 53.051C25.5 54.38 26.621 55.501 28 55.501C29.379 55.501 30.5 54.379 30.5 53.001L32.49 33.13C32.49 33.123 32.492 33.117 32.492 33.111H32.507L32.499 32.953C32.499 32.942 32.499 32.931 32.498 32.92L32.483 32.61L31.35 19.659L31.307 19.161L31.261 19.165C30.848 17.073 29.04 15.551 26.868 15.551L26.867 15.55Z" fill="white"/>
<path d="M26.105 15.332C28.1761 15.332 29.855 13.653 29.855 11.582C29.855 9.5109 28.1761 7.83197 26.105 7.83197C24.0339 7.83197 22.355 9.5109 22.355 11.582C22.355 13.653 24.0339 15.332 26.105 15.332Z" fill="black"/>
<path d="M26.106 8.08197C28.039 8.08197 29.606 9.64897 29.606 11.582C29.606 13.515 28.039 15.082 26.106 15.082C24.173 15.082 22.606 13.515 22.606 11.582C22.606 9.64897 24.173 8.08197 26.106 8.08197ZM26.106 7.58197C23.9 7.58197 22.106 9.37597 22.106 11.582C22.106 13.788 23.9 15.582 26.106 15.582C28.312 15.582 30.106 13.788 30.106 11.582C30.106 9.37597 28.312 7.58197 26.106 7.58197Z" fill="white"/>
<path d="M37.229 13.07H31.729V14.57H37.229V13.07Z" fill="black"/>
<path d="M36.979 13.32V14.32H31.979V13.32H36.979ZM37.479 12.82H31.479V14.82H37.479V12.82Z" fill="white"/>
<path d="M31.979 15.07C32.6694 15.07 33.229 14.5104 33.229 13.82C33.229 13.1297 32.6694 12.57 31.979 12.57C31.2886 12.57 30.729 13.1297 30.729 13.82C30.729 14.5104 31.2886 15.07 31.979 15.07Z" fill="black"/>
<path d="M31.979 12.82C32.531 12.82 32.979 13.268 32.979 13.82C32.979 14.372 32.531 14.82 31.979 14.82C31.427 14.82 30.979 14.372 30.979 13.82C30.979 13.268 31.427 12.82 31.979 12.82ZM31.979 12.32C31.152 12.32 30.479 12.993 30.479 13.82C30.479 14.647 31.152 15.32 31.979 15.32C32.806 15.32 33.479 14.647 33.479 13.82C33.479 12.993 32.806 12.32 31.979 12.32Z" fill="white"/>
<path d="M35.19 25.166C34.752 25.166 31.859 24.188 28.125 22.912C27.325 22.639 26.623 22.398 26.138 22.236C24.629 21.961 23.51 20.619 23.51 19.053C23.51 17.261 24.968 15.803 26.76 15.803C27.15 15.803 27.536 15.876 27.912 16.022L27.928 15.991L28.166 16.115L28.491 16.311L28.457 16.582L28.586 16.368L33.456 19.301L34.61 13.541H34.622C34.774 13.015 35.248 12.643 35.809 12.643C36.498 12.643 37.059 13.204 37.059 13.893V13.929L37.051 13.961L37.055 13.975L37.267 23.028C37.281 23.584 37.077 24.112 36.692 24.514C36.331 24.893 35.85 25.118 35.331 25.154L35.326 25.159L35.191 25.167L35.19 25.166Z" fill="black"/>
<path d="M35.808 12.893C36.36 12.893 36.808 13.341 36.808 13.893C36.808 13.924 36.793 13.949 36.791 13.979L36.805 13.98L37.017 23.033C37.041 24.045 36.24 24.885 35.227 24.908C35.221 24.913 35.209 24.916 35.19 24.916C34.631 24.916 28.348 22.712 26.216 21.999C24.819 21.743 23.759 20.525 23.759 19.054C23.759 17.397 25.102 16.054 26.759 16.054C27.215 16.054 27.643 16.164 28.03 16.346C28.031 16.343 28.037 16.331 28.037 16.331L28.362 16.527C28.393 16.547 28.426 16.563 28.456 16.584L33.63 19.7L34.812 13.807H34.825C34.871 13.298 35.286 12.894 35.808 12.894M35.808 12.393C35.207 12.393 34.688 12.748 34.454 13.273L34.423 13.27L34.322 13.707L33.28 18.903L28.715 16.153C28.715 16.153 28.681 16.131 28.65 16.114L28.295 15.901L27.815 15.612L27.771 15.709C27.439 15.606 27.101 15.554 26.759 15.554C24.829 15.554 23.259 17.124 23.259 19.054C23.259 20.729 24.447 22.165 26.09 22.484C26.567 22.644 27.241 22.874 28.008 23.137C32.617 24.713 34.748 25.416 35.19 25.416H35.386L35.409 25.398C35.967 25.345 36.481 25.096 36.872 24.686C37.302 24.235 37.531 23.644 37.516 23.021L37.304 13.968V13.961C37.306 13.94 37.308 13.917 37.308 13.892C37.308 13.835 37.305 13.778 37.298 13.722L37.293 13.521L37.26 13.518C37.094 12.871 36.505 12.391 35.807 12.391L35.808 12.393Z" fill="white"/>
</svg>
