<svg width="64" height="64" viewBox="0 0 64 64" fill="none" xmlns="http://www.w3.org/2000/svg">
<path d="M13.582 29.876C15.6531 29.876 17.332 28.197 17.332 26.126C17.332 24.0549 15.6531 22.376 13.582 22.376C11.5109 22.376 9.832 24.0549 9.832 26.126C9.832 28.197 11.5109 29.876 13.582 29.876Z" fill="black"/>
<path d="M13.582 22.626C15.515 22.626 17.082 24.193 17.082 26.126C17.082 28.059 15.515 29.626 13.582 29.626C11.649 29.626 10.082 28.059 10.082 26.126C10.082 24.193 11.649 22.626 13.582 22.626ZM13.582 22.126C11.376 22.126 9.582 23.92 9.582 26.126C9.582 28.332 11.376 30.126 13.582 30.126C15.788 30.126 17.582 28.332 17.582 26.126C17.582 23.92 15.788 22.126 13.582 22.126Z" fill="white"/>
<path d="M9 32.25C8.311 32.25 7.75 31.689 7.75 31C7.75 30.311 8.311 29.75 9 29.75H17C17.689 29.75 18.25 30.311 18.25 31C18.25 31.689 17.689 32.25 17 32.25H9Z" fill="black"/>
<path d="M17 30C17.552 30 18 30.448 18 31C18 31.552 17.552 32 17 32H9C8.448 32 8 31.552 8 31C8 30.448 8.448 30 9 30H17ZM17 29.5H9C8.173 29.5 7.5 30.173 7.5 31C7.5 31.827 8.173 32.5 9 32.5H17C17.827 32.5 18.5 31.827 18.5 31C18.5 30.173 17.827 29.5 17 29.5Z" fill="white"/>
<path d="M22 32.25C19.656 32.25 17.75 30.344 17.75 28C17.75 25.656 19.656 23.75 22 23.75H51C55.549 23.75 59.25 27.451 59.25 32V32.25H22Z" fill="black"/>
<path d="M51 24C55.418 24 59 27.582 59 32H22C19.791 32 18 30.209 18 28C18 25.791 19.791 24 22 24H51ZM51 23.5H22C19.519 23.5 17.5 25.519 17.5 28C17.5 30.481 19.519 32.5 22 32.5H59.5V32C59.5 27.313 55.687 23.5 51 23.5Z" fill="white"/>
<path d="M21.028 31.25H21C19.208 31.25 17.75 29.792 17.75 28C17.75 26.397 18.897 25.069 20.459 24.811L20.454 24.77L20.744 24.762L20.865 24.765C20.923 24.755 20.961 24.75 21 24.75C21.059 24.75 21.115 24.757 21.172 24.765L29.757 24.973L38.244 22.906C38.305 22.895 38.362 22.89 38.421 22.89C39.11 22.89 39.671 23.451 39.671 24.14C39.671 24.632 39.387 25.065 38.939 25.269L30.731 29.334L30.623 29.366L21.83 31.13C21.716 31.161 21.583 31.188 21.448 31.207L21.032 31.288L21.028 31.25Z" fill="black"/>
<path d="M38.421 23.139C38.973 23.139 39.421 23.587 39.421 24.139C39.421 24.571 39.144 24.931 38.76 25.071L38.763 25.079L30.65 29.095C30.626 29.107 30.6 29.116 30.575 29.121L30.14 29.208L21.78 30.885C21.659 30.918 21.537 30.942 21.411 30.959L21.261 30.989V30.974C21.173 30.982 21.089 31 21 31C19.343 31 18 29.657 18 28C18 26.432 19.207 25.16 20.74 25.026V25.011L20.859 25.014C20.907 25.012 20.952 25 21 25C21.077 25 21.15 25.017 21.226 25.023L29.75 25.222L38.078 23.199L38.081 23.207C38.188 23.168 38.3 23.139 38.42 23.139M38.401 22.616L38.229 22.654C38.156 22.665 38.091 22.681 38.032 22.698L37.96 22.714L29.696 24.721L21.238 24.523L21.204 24.517C21.137 24.508 21.069 24.5 21 24.5C20.949 24.5 20.9 24.505 20.852 24.512H20.75L20.194 24.498L20.203 24.605C18.632 24.965 17.5 26.347 17.5 27.999C17.5 29.862 18.964 31.39 20.802 31.493L20.809 31.573L21.36 31.478L21.51 31.448C21.627 31.433 21.77 31.405 21.911 31.366L30.239 29.697L30.673 29.61C30.744 29.595 30.81 29.573 30.872 29.542L38.985 25.526L39.385 25.328L39.371 25.289C39.712 25.01 39.921 24.59 39.921 24.138C39.921 23.311 39.248 22.638 38.421 22.638C38.417 22.638 38.413 22.638 38.41 22.638L38.401 22.614V22.616Z" fill="white"/>
<path d="M55.75 41.25V37.25H7.25V41.25H3.75V24.5C3.75 23.535 4.535 22.75 5.5 22.75C6.465 22.75 7.25 23.535 7.25 24.5V32.75H59.25V41.25H55.75Z" fill="black"/>
<path d="M5.5 23C6.328 23 7 23.672 7 24.5V33H59V41H56V37H7V41H4V24.5C4 23.672 4.671 23 5.5 23ZM5.5 22.5C4.397 22.5 3.5 23.397 3.5 24.5V41.5H7.5V37.5H55.5V41.5H59.5V32.5H7.5V24.5C7.5 23.397 6.603 22.5 5.5 22.5Z" fill="white"/>
</svg>
