<svg width="64" height="64" viewBox="0 0 64 64" fill="none" xmlns="http://www.w3.org/2000/svg">
<path d="M32.947 35.798C33.037 35.838 33.127 35.878 33.227 35.918C33.067 36.048 32.907 36.148 32.737 36.248C32.257 36.028 31.807 35.798 31.307 35.598C30.487 35.258 29.517 34.998 27.997 34.998C27.827 34.998 27.657 34.998 27.497 35.008C24.517 35.128 23.827 36.348 21.567 36.818H21.557C21.017 36.928 20.377 36.998 19.597 36.998C19.127 36.998 18.707 36.968 18.337 36.928C16.337 36.688 15.487 35.908 14.017 35.418C14.007 35.278 13.997 35.138 13.997 34.998C13.997 34.958 13.997 34.928 14.007 34.888C14.067 34.908 14.117 34.928 14.177 34.948C14.717 35.128 15.177 35.338 15.617 35.548C16.417 35.928 17.177 36.288 18.397 36.428C19.537 36.548 20.577 36.508 21.457 36.328L21.557 36.318C22.327 36.148 22.937 35.858 23.587 35.548C24.577 35.078 25.607 34.588 27.477 34.508C27.637 34.498 27.817 34.498 27.998 34.498C28.618 34.498 29.148 34.538 29.608 34.608C30.438 34.738 31.038 34.948 31.498 35.138C31.788 35.258 32.068 35.388 32.348 35.518C32.408 35.548 32.458 35.568 32.518 35.598L32.948 35.798H32.947Z" fill="black"/>
<path d="M41.317 34.048C40.877 34.398 40.347 34.628 39.777 34.718C39.127 35.028 38.517 35.288 37.617 35.418L35.567 35.468C34.667 35.388 34.077 35.188 33.577 34.978C33.507 34.948 33.437 34.918 33.367 34.888L32.947 34.688C32.597 34.518 32.237 34.358 31.877 34.208C30.917 33.818 29.957 33.598 28.837 33.528C28.567 33.508 28.287 33.498 27.997 33.498C27.797 33.498 27.597 33.498 27.437 33.508C25.357 33.588 24.187 34.148 23.157 34.648C22.577 34.918 22.067 35.168 21.397 35.318L21.257 35.348C20.477 35.508 19.527 35.548 18.517 35.438C17.457 35.308 16.807 35.008 16.047 34.648C15.577 34.428 15.087 34.198 14.507 33.998C14.387 33.958 14.277 33.918 14.157 33.888C14.577 32.428 15.797 31.328 17.307 31.058L26.157 29.498L29.977 28.828C30.027 28.818 30.067 28.818 30.107 28.808C30.327 28.768 30.557 28.748 30.797 28.748C31.407 28.748 31.977 28.878 32.487 29.128C32.497 29.128 32.497 29.138 32.507 29.138C32.917 29.328 33.287 29.588 33.597 29.888L35.837 30.338L40.927 31.368L41.267 31.428L42.637 31.968L47.187 33.738C46.527 33.588 45.757 33.498 44.797 33.498C43.537 33.498 42.467 33.658 41.447 34.008L41.327 34.048H41.317Z" fill="black"/>
<path d="M49.447 35.658L49.317 36.148C49.027 36.018 48.747 35.878 48.457 35.748C47.567 35.348 46.547 34.998 44.797 34.998C43.407 34.998 42.477 35.218 41.707 35.508H41.687L40.757 35.368C40.997 35.248 41.247 35.138 41.507 35.038L41.617 35.008C42.587 34.658 43.567 34.498 44.797 34.498C46.567 34.498 47.637 34.838 48.547 35.248H48.557C48.777 35.348 48.977 35.438 49.187 35.538L49.447 35.658Z" fill="black"/>
<path d="M39.208 35.018C37.141 35.018 35.458 33.335 35.458 31.268C35.458 30.914 35.505 30.578 35.599 30.267C36.036 28.651 37.521 27.518 39.208 27.518C41.275 27.518 42.958 29.201 42.958 31.268C42.958 31.539 42.934 31.785 42.882 32.021C42.705 32.904 42.207 33.697 41.48 34.248L41.413 34.299H41.404C40.945 34.645 40.398 34.874 39.817 34.966C39.615 34.998 39.412 35.019 39.209 35.019L39.208 35.018Z" fill="black"/>
<path d="M39.208 27.768C41.138 27.768 42.708 29.338 42.708 31.268C42.708 31.508 42.688 31.738 42.638 31.968C42.468 32.818 41.988 33.548 41.328 34.048H41.318C40.878 34.398 40.348 34.628 39.778 34.718C39.588 34.748 39.398 34.768 39.208 34.768C37.268 34.768 35.708 33.208 35.708 31.268C35.708 30.948 35.748 30.638 35.838 30.338C36.238 28.858 37.588 27.768 39.208 27.768ZM39.208 27.268C37.407 27.268 35.823 28.477 35.355 30.208C35.259 30.529 35.208 30.89 35.208 31.268C35.208 33.474 37.002 35.268 39.208 35.268C39.405 35.268 39.617 35.25 39.856 35.212C40.45 35.118 41.009 34.89 41.485 34.548L41.629 34.447C42.406 33.858 42.939 33.013 43.128 32.066C43.181 31.823 43.208 31.559 43.208 31.268C43.208 29.062 41.414 27.268 39.208 27.268Z" fill="white"/>
<path d="M50.377 36.048C50.237 36.418 49.867 36.688 49.447 36.688C49.387 36.688 49.327 36.678 49.277 36.668H49.267C49.097 36.638 48.937 36.568 48.817 36.458H48.807C48.597 36.288 48.467 36.028 48.457 35.748C48.447 35.728 48.447 35.708 48.447 35.688C48.447 35.528 48.487 35.378 48.547 35.248H48.557C48.777 35.348 48.977 35.438 49.187 35.538L49.447 35.658L49.527 35.698C49.797 35.828 50.077 35.948 50.377 36.048Z" fill="#FF0000"/>
<path d="M31.788 35.817C30.878 35.817 30.038 35.447 29.423 34.776L28.942 34.25L29.647 34.36C30.535 34.499 31.154 34.725 31.593 34.906C31.887 35.028 32.171 35.159 32.453 35.291L33.182 35.63L32.389 35.764C32.196 35.797 31.991 35.818 31.787 35.818L31.788 35.817Z" fill="black"/>
<path d="M29.607 34.608C30.437 34.738 31.037 34.948 31.497 35.138C31.787 35.258 32.067 35.388 32.347 35.518C32.167 35.548 31.977 35.568 31.787 35.568C30.917 35.568 30.147 35.198 29.607 34.608ZM28.275 33.893L29.238 34.945C29.9 35.669 30.805 36.067 31.787 36.067C31.987 36.067 32.203 36.048 32.429 36.01L34.023 35.744L32.557 35.063C32.271 34.93 31.985 34.797 31.688 34.675C31.272 34.503 30.613 34.258 29.684 34.113L28.275 33.892V33.893Z" fill="white"/>
<path d="M33.268 35.117L32.839 34.913C32.492 34.744 32.137 34.587 31.781 34.438C30.838 34.054 29.896 33.844 28.821 33.776L28.697 33.769L24.781 27.884L16.877 27.701V27.68C16.231 27.581 15.787 27.071 15.787 26.457C15.787 25.857 16.218 25.354 16.807 25.244L16.898 25.222L25.779 23.442C25.896 23.415 26.021 23.401 26.145 23.401C26.695 23.401 27.21 23.672 27.722 24.228C27.722 24.228 30.66 27.029 32.588 28.877L32.608 28.887L33.891 30.117C33.984 30.189 34.083 30.289 34.183 30.399C34.219 30.434 34.258 30.472 34.287 30.526C34.769 31.1 35.038 31.819 35.038 32.566C35.038 33.597 34.56 34.548 33.728 35.175L33.614 35.262L33.268 35.117Z" fill="black"/>
<path d="M26.145 23.651C26.702 23.651 27.166 23.992 27.538 24.397C27.538 24.397 30.558 27.277 32.488 29.127C32.498 29.127 32.498 29.137 32.508 29.137C33.008 29.617 33.438 30.027 33.718 30.297C33.818 30.377 33.908 30.467 33.998 30.567C34.038 30.607 34.058 30.627 34.068 30.647C34.508 31.177 34.788 31.837 34.788 32.567C34.788 33.557 34.308 34.427 33.578 34.977C33.508 34.947 33.438 34.917 33.368 34.887L32.948 34.687C32.598 34.517 32.238 34.357 31.878 34.207C30.918 33.817 29.958 33.597 28.838 33.527L26.158 29.497L24.918 27.637L17.128 27.457V27.447C17.098 27.447 17.068 27.457 17.038 27.457C16.488 27.457 16.038 27.017 16.038 26.457C16.038 25.937 16.438 25.527 16.948 25.477V25.467L25.828 23.687C25.937 23.662 26.043 23.651 26.145 23.651ZM26.145 23.151C26.003 23.151 25.858 23.167 25.716 23.2L16.849 24.977L16.447 25.058V25.094C15.906 25.323 15.537 25.849 15.537 26.457C15.537 27.142 15.998 27.721 16.627 27.9V27.936L16.849 27.946C16.911 27.954 16.974 27.958 17.037 27.958H17.088H17.115L24.645 28.132L25.74 29.775L28.42 33.805L28.558 34.012L28.806 34.027C29.852 34.092 30.768 34.297 31.689 34.671C32.057 34.825 32.408 34.982 32.729 35.138L33.152 35.34L33.379 35.438L33.646 35.553L33.878 35.378C34.774 34.703 35.288 33.679 35.288 32.569C35.288 31.773 35.007 31.009 34.474 30.356C34.436 30.3 34.393 30.257 34.351 30.216C34.248 30.101 34.14 29.997 34.029 29.909L33.472 29.372L32.853 28.779L32.737 28.667L32.704 28.635H32.693C30.76 26.783 27.882 24.038 27.882 24.038C27.352 23.459 26.759 23.153 26.144 23.153L26.145 23.151Z" fill="white"/>
<path d="M53.197 36.498V37.498C51.317 37.498 50.217 37.108 49.277 36.668H49.267C49.207 36.648 49.157 36.618 49.107 36.598L48.817 36.458H48.807L48.767 36.438C47.737 35.958 46.767 35.498 44.797 35.498C43.337 35.498 42.477 35.758 41.887 35.978L41.777 36.008C41.437 36.138 41.127 36.298 40.807 36.448C39.727 36.958 38.597 37.498 36.397 37.498C34.557 37.498 33.447 37.118 32.537 36.708L32.087 36.498C31.777 36.348 31.457 36.198 31.117 36.058C30.447 35.778 29.547 35.498 27.997 35.498C27.847 35.508 27.677 35.498 27.527 35.508C25.847 35.578 24.957 35.998 24.017 36.448C23.347 36.768 22.647 37.108 21.667 37.308L21.567 37.318C20.727 37.498 19.547 37.558 18.287 37.428C16.897 37.258 16.027 36.848 15.197 36.458C14.757 36.248 14.347 36.058 13.857 35.888C13.087 35.628 12.237 35.498 11.197 35.498V34.498C12.287 34.498 13.177 34.618 14.007 34.888C14.067 34.908 14.117 34.928 14.177 34.948C14.717 35.128 15.177 35.338 15.617 35.548C16.417 35.928 17.177 36.288 18.397 36.428C19.537 36.548 20.577 36.508 21.457 36.328L21.557 36.318C22.327 36.148 22.937 35.858 23.587 35.548C24.577 35.078 25.607 34.588 27.477 34.508C27.637 34.498 27.817 34.498 27.998 34.498C28.618 34.498 29.148 34.538 29.608 34.608C30.438 34.738 31.038 34.948 31.498 35.138C31.788 35.258 32.068 35.388 32.348 35.518C32.408 35.548 32.458 35.568 32.518 35.598L32.948 35.798C33.038 35.838 33.128 35.878 33.228 35.918C33.948 36.218 34.868 36.498 36.398 36.498C38.378 36.498 39.348 36.038 40.378 35.538C40.508 35.478 40.628 35.418 40.758 35.368C40.998 35.248 41.248 35.138 41.508 35.038L41.618 35.008C42.588 34.658 43.568 34.498 44.798 34.498C46.568 34.498 47.638 34.838 48.548 35.248H48.558C48.778 35.348 48.978 35.438 49.188 35.538L49.448 35.658L49.528 35.698C49.798 35.828 50.078 35.948 50.378 36.048C51.088 36.308 51.938 36.498 53.198 36.498H53.197Z" fill="black"/>
</svg>
