<svg width="64" height="64" viewBox="0 0 64 64" fill="none" xmlns="http://www.w3.org/2000/svg">
<path d="M25.67 37.368C24.981 37.368 24.42 36.807 24.42 36.118C24.42 36.035 24.435 35.962 24.451 35.896L24.458 35.814L25.884 26.855C25.89 26.704 26.005 26.504 26.108 26.33C26.142 26.27 30.679 17.968 30.679 17.968L36.05 21.73L29.967 28.645L26.782 36.688L26.766 36.684C26.558 37.102 26.143 37.369 25.669 37.369L25.67 37.368Z" fill="black"/>
<path d="M30.763 18.333L35.678 21.774L29.779 28.479L26.634 36.383L26.617 36.378C26.5 36.801 26.13 37.118 25.67 37.118C25.118 37.118 24.67 36.67 24.67 36.118C24.67 36.026 24.699 35.942 24.722 35.858L24.705 35.853L26.131 26.894C26.139 26.722 26.353 26.428 26.421 26.277L30.763 18.333ZM30.592 17.602L30.324 18.092L25.982 26.037C25.949 26.106 25.921 26.152 25.891 26.203C25.78 26.394 25.655 26.609 25.633 26.835L24.21 35.775L24.139 36.218L24.172 36.227C24.228 37.004 24.878 37.618 25.668 37.618C26.169 37.618 26.616 37.371 26.887 36.97L26.915 36.978L27.097 36.568L30.21 28.744L36.052 22.104L36.421 21.685L35.963 21.365L31.048 17.924L30.59 17.604L30.592 17.602Z" fill="white"/>
<path d="M23 53.568C21.76 53.568 20.75 52.558 20.75 51.318C20.75 50.842 20.9 50.39 21.188 50.001L21.249 49.893L26.335 42.431L27.936 32.651L36.196 34.867L32.332 45.085C32.238 45.336 32.084 45.572 31.887 45.767L24.703 52.778C24.288 53.275 23.662 53.57 23.002 53.57L23 53.568Z" fill="black"/>
<path d="M28.136 32.964L32 34L35.863 35.036L32.307 44.437L32.096 44.995C32.01 45.224 31.871 45.427 31.708 45.588L24.525 52.597C24.158 53.034 23.615 53.318 22.999 53.318C21.894 53.318 20.999 52.423 20.999 51.318C20.999 50.832 21.179 50.392 21.468 50.045L21.453 50.033L26.569 42.525L28.134 32.964M27.732 32.338L27.643 32.883L26.095 42.335L21.041 49.752L20.785 50.127L20.801 50.14C20.603 50.502 20.499 50.902 20.499 51.318C20.499 52.697 21.621 53.818 22.999 53.818C23.733 53.818 24.428 53.49 24.908 52.918L32.057 45.945C32.281 45.725 32.455 45.458 32.564 45.171L32.775 44.613L36.331 35.212L36.526 34.695L35.992 34.552L32.129 33.516L28.265 32.48L27.732 32.338Z" fill="white"/>
<path d="M38.844 55.045C37.934 55.045 37.108 54.483 36.765 53.637L28.246 35.955C28.172 35.814 28.102 35.684 28.049 35.543L27.953 35.293L27.963 35.285C27.819 34.845 27.749 34.423 27.749 34C27.749 33.932 27.756 33.865 27.765 33.8V33.63L28.919 20.44H28.945C29.244 18.349 31.004 16.8 33.132 16.8C35.476 16.8 37.382 18.706 37.382 21.05C37.382 21.116 37.376 21.181 37.367 21.245V21.42L36.287 33.752L40.985 52.128C41.058 52.356 41.093 52.574 41.093 52.795C41.093 54.035 40.083 55.045 38.843 55.045H38.844Z" fill="black"/>
<path d="M33.133 17.049C35.342 17.049 37.133 18.84 37.133 21.049C37.133 21.168 37.108 21.28 37.098 21.396L37.118 21.398L36.039 33.73L40.724 52.11L40.717 52.112C40.795 52.326 40.844 52.553 40.844 52.794C40.844 53.899 39.949 54.794 38.844 54.794C37.98 54.794 37.251 54.243 36.971 53.476L36.965 53.478L28.472 35.846C28.404 35.717 28.336 35.589 28.283 35.453L28.242 35.368L28.255 35.363C28.099 34.936 28.001 34.48 28.001 33.999C28.001 33.88 28.026 33.768 28.036 33.652L28.016 33.65L29.149 20.699L29.169 20.701C29.347 18.657 31.044 17.048 33.134 17.048M33.133 16.549C30.961 16.549 29.153 18.071 28.74 20.163L28.713 20.161L28.65 20.657L27.517 33.608L27.473 34.107L27.501 34.109C27.51 34.42 27.555 34.737 27.636 35.055L27.563 35.081L27.791 35.585L27.832 35.67C27.874 35.782 27.945 35.92 28.018 36.058L36.514 53.695L36.546 53.762C36.578 53.839 36.615 53.914 36.654 53.987L36.71 54.104L36.72 54.101C37.168 54.831 37.971 55.295 38.844 55.295C40.222 55.295 41.344 54.173 41.344 52.795C41.344 52.548 41.303 52.295 41.221 52.042L41.208 51.987L36.544 33.689L37.616 21.441L37.66 20.942L37.632 20.94C37.574 18.509 35.578 16.549 33.133 16.549Z" fill="white"/>
<path d="M33.874 16.082C35.807 16.082 37.374 14.515 37.374 12.582C37.374 10.649 35.807 9.082 33.874 9.082C31.941 9.082 30.374 10.649 30.374 12.582C30.374 14.515 31.941 16.082 33.874 16.082Z" fill="black"/>
<path d="M41.332 36.89C41.008 36.89 40.706 36.763 40.471 36.529L40.394 36.464L33.847 30.214L33.869 30.191C33.588 29.913 33.088 28.693 31.085 23.469C30.777 22.666 30.51 21.969 30.33 21.508C30.252 21.361 30.182 21.184 30.125 20.998L29.933 20.71L30.039 20.67C29.992 20.451 29.971 20.252 29.971 20.055C29.971 18.263 31.429 16.805 33.221 16.805C34.599 16.805 35.823 17.688 36.277 18.98L36.383 18.949L36.365 19.241C36.405 19.431 36.422 19.572 36.437 19.714L37.689 27.922L42.425 35.04L42.418 35.046C42.525 35.232 42.581 35.434 42.581 35.642C42.581 36.331 42.02 36.892 41.331 36.892L41.332 36.89Z" fill="black"/>
<path d="M33.22 17.053C34.607 17.053 35.764 18 36.106 19.279L36.117 19.276L36.129 19.353C36.159 19.478 36.174 19.608 36.188 19.738L37.449 28.011L42.097 34.996L42.087 35.004C42.233 35.178 42.331 35.394 42.331 35.638C42.331 36.19 41.883 36.638 41.331 36.638C41.023 36.638 40.758 36.491 40.575 36.272L40.565 36.28L34.018 30.03H34.016C33.827 30.03 31.354 23.436 30.561 21.413C30.48 21.256 30.415 21.093 30.363 20.922C30.348 20.886 30.328 20.839 30.321 20.827L30.332 20.824C30.266 20.576 30.218 20.319 30.218 20.05C30.218 18.393 31.561 17.05 33.218 17.05M33.22 16.553C31.29 16.553 29.72 18.123 29.72 20.053C29.72 20.193 29.73 20.334 29.751 20.481L29.584 20.532L29.889 21.081C29.944 21.265 30.018 21.45 30.104 21.621C30.284 22.081 30.548 22.769 30.851 23.559C32.996 29.152 33.427 30.26 33.761 30.479L40.219 36.645L40.541 36.952L40.573 36.925C40.802 37.064 41.063 37.14 41.331 37.14C42.158 37.14 42.831 36.467 42.831 35.64C42.831 35.46 42.797 35.283 42.73 35.116L42.75 35.099L42.513 34.721L37.926 27.828L36.682 19.664C36.669 19.534 36.65 19.383 36.615 19.237L36.611 19.2L36.525 18.646L36.423 18.674C35.878 17.404 34.623 16.554 33.218 16.554L33.22 16.553Z" fill="white"/>
</svg>
