<?xml version="1.0" encoding="UTF-8"?>
<svg id="template-leg" xmlns="http://www.w3.org/2000/svg" viewBox="0 0 64 64">
  <defs>
    <style>
      .cls-1 {
        fill: #652dd8;
      }

      .cls-2 {
        fill: #fff;
      }

      .cls-3 {
        stroke-linecap: round;
        stroke-linejoin: round;
      }

      .cls-3, .cls-4 {
        fill: none;
        stroke: #471c9b;
        stroke-width: .01px;
      }

      .cls-4 {
        stroke-miterlimit: 10;
      }
    </style>
  </defs>
  <g id="person">
    <g id="back-leg_knee">
      <polyline class="cls-2" points="32 33 27 41.66 18.34 46.66"/>
      <path d="M35.464,35l-5.866,8.16-.348.485c-.197.274-.463.483-.75.613l-9.16,4.134-2-3.464,8.16-5.866-1.098,1.098,4.134-9.16,6.928,4h0Z"/>
    </g>
    <circle id="back-foot" cx="18.34" cy="46.66" r="2"/>
    <g id="back-arm_elbow">
      <path class="cls-1" d="M35.934,21.813l-8.29,3.634.731-.731-5.366,7.29-1.732-1,3.634-8.29c.122-.329.469-.536.732-.732,0,0,7.29-5.366,7.29-5.366l3.001,5.195h0Z"/>
    </g>
    <circle id="back-hand" class="cls-1" cx="22.144" cy="31.505" r="1"/>
    <circle id="bottom-body" cx="32" cy="33" r="4"/>
    <g id="body">
      <line class="cls-2" x1="34.26" y1="20.2" x2="32" y2="33"/>
      <polygon points="38.199 20.895 35.939 33.695 28.061 32.305 30.321 19.505 38.199 20.895 38.199 20.895"/>
    </g>
    <circle id="top-body" cx="34.26" cy="20.2" r="4"/>
    <g id="front-leg">
      <line class="cls-2" x1="32" y1="33" x2="42" y2="50.31"/>
      <polygon points="35.031 31.249 43.732 49.31 40.268 51.31 28.969 34.751 35.031 31.249 35.031 31.249"/>
    </g>
    <circle id="front-foot" cx="42" cy="50.31" r="2"/>
    <g id="front-arm_elbow">
      <path class="cls-1" d="M37.388,18.695l.575,9.033-.969-1.385,7.29,5.366-1,1.732-8.29-3.634c-.597-.242-.839-.818-.969-1.385,0,0-2.545-8.686-2.545-8.686l5.909-1.04h0Z"/>
    </g>
    <circle id="front-hand" class="cls-1" cx="43.784" cy="32.575" r="1"/>
    <circle id="shoulder" class="cls-1" cx="34.434" cy="19.215" r="3"/>
    <circle id="head" cx="37.569" cy="12.231" r="3.5"/>
  </g>
  <g id="guides">
    <g id="leg">
      <circle class="cls-3" cx="32" cy="33" r="10"/>
      <g>
        <polyline class="cls-4" points="42 33 32 33 22 33"/>
        <polyline class="cls-4" points="41.962 32.128 32 33 22.038 33.872"/>
        <polyline class="cls-4" points="41.962 33.872 32 33 22.038 32.128"/>
        <polyline class="cls-4" points="41.845 31.265 32 33 22.155 34.735"/>
        <polyline class="cls-4" points="41.845 34.735 32 33 22.155 31.265"/>
        <polyline class="cls-4" points="32 23 32 33 32 43"/>
        <polyline class="cls-4" points="31.128 23.038 32 33 32.872 42.962"/>
        <polyline class="cls-4" points="32.872 23.038 32 33 31.128 42.962"/>
        <polyline class="cls-4" points="29.41 23.34 32 33 34.59 42.66"/>
        <polyline class="cls-4" points="28.578 23.602 32 33 35.422 42.398"/>
        <polyline class="cls-4" points="35.422 23.602 32 33 28.578 42.398"/>
        <polyline class="cls-4" points="34.59 23.34 32 33 29.41 42.66"/>
        <polyline class="cls-4" points="27 24.345 32 33 37 41.655"/>
        <polyline class="cls-4" points="30.265 23.155 32 33 33.735 42.845"/>
        <polyline class="cls-4" points="27 24.345 32 33 37 41.655"/>
        <polyline class="cls-4" points="27.773 23.942 32 33 36.227 42.058"/>
        <polyline class="cls-4" points="36.227 23.942 32 33 27.773 42.058"/>
        <polyline class="cls-4" points="37 24.345 32 33 27 41.655"/>
        <polyline class="cls-4" points="23.345 28 32 33 40.655 38"/>
        <polyline class="cls-4" points="24.93 25.93 32 33 39.07 40.07"/>
        <polyline class="cls-4" points="22.34 30.41 32 33 41.66 35.59"/>
        <polyline class="cls-4" points="41.394 36.418 32 33 22.606 29.582"/>
        <polyline class="cls-4" points="22.937 28.772 32 33 41.063 37.228"/>
        <polyline class="cls-4" points="24.345 26.573 32 33 39.655 39.427"/>
        <polyline class="cls-4" points="26.265 24.81 32 33 37.735 41.19"/>
        <polyline class="cls-4" points="25.577 25.341 32 33 38.423 40.659"/>
        <polyline class="cls-4" points="26.265 41.19 32 33 37.735 24.81"/>
        <polyline class="cls-4" points="25.577 40.659 32 33 38.423 25.341"/>
        <polyline class="cls-4" points="23.808 27.262 32 33 40.192 38.738"/>
        <polyline class="cls-4" points="24.345 39.427 32 33 39.655 26.573"/>
        <polyline class="cls-4" points="23.808 38.738 32 33 40.192 27.262"/>
        <polyline class="cls-4" points="41.394 29.582 32 33 22.606 36.418"/>
        <polyline class="cls-4" points="22.937 37.228 32 33 41.063 28.772"/>
        <polyline class="cls-4" points="33.735 23.155 32 33 30.265 42.845"/>
        <polyline class="cls-4" points="40.655 28 32 33 23.345 38"/>
        <polyline class="cls-4" points="39.07 25.93 32 33 24.93 40.07"/>
        <polyline class="cls-4" points="41.66 30.41 32 33 22.34 35.59"/>
      </g>
    </g>
    <g id="knee">
      <circle class="cls-3" cx="26.994" cy="41.655" r="10"/>
      <g>
        <polyline class="cls-4" points="36.994 41.655 26.994 41.655 16.994 41.655"/>
        <polyline class="cls-4" points="36.956 40.783 26.994 41.655 17.032 42.527"/>
        <polyline class="cls-4" points="36.956 42.527 26.994 41.655 17.032 40.783"/>
        <polyline class="cls-4" points="36.839 39.92 26.994 41.655 17.149 43.39"/>
        <polyline class="cls-4" points="36.839 43.39 26.994 41.655 17.149 39.92"/>
        <polyline class="cls-4" points="26.994 31.655 26.994 41.655 26.994 51.655"/>
        <polyline class="cls-4" points="26.122 31.693 26.994 41.655 27.865 51.617"/>
        <polyline class="cls-4" points="27.865 31.693 26.994 41.655 26.122 51.617"/>
        <polyline class="cls-4" points="24.404 31.995 26.994 41.655 29.584 51.315"/>
        <polyline class="cls-4" points="23.572 32.257 26.994 41.655 30.416 51.053"/>
        <polyline class="cls-4" points="30.416 32.257 26.994 41.655 23.572 51.053"/>
        <polyline class="cls-4" points="29.584 31.995 26.994 41.655 24.404 51.315"/>
        <polyline class="cls-4" points="21.994 33 26.994 41.655 31.994 50.31"/>
        <polyline class="cls-4" points="25.259 31.81 26.994 41.655 28.729 51.5"/>
        <polyline class="cls-4" points="21.994 33 26.994 41.655 31.994 50.31"/>
        <polyline class="cls-4" points="22.767 32.597 26.994 41.655 31.22 50.713"/>
        <polyline class="cls-4" points="31.22 32.597 26.994 41.655 22.767 50.713"/>
        <polyline class="cls-4" points="31.994 33 26.994 41.655 21.994 50.31"/>
        <polyline class="cls-4" points="18.339 36.655 26.994 41.655 35.649 46.655"/>
        <polyline class="cls-4" points="19.924 34.585 26.994 41.655 34.064 48.725"/>
        <polyline class="cls-4" points="17.334 39.065 26.994 41.655 36.654 44.245"/>
        <polyline class="cls-4" points="36.388 45.073 26.994 41.655 17.6 38.237"/>
        <polyline class="cls-4" points="17.93 37.427 26.994 41.655 36.057 45.883"/>
        <polyline class="cls-4" points="19.339 35.228 26.994 41.655 34.649 48.082"/>
        <polyline class="cls-4" points="21.259 33.465 26.994 41.655 32.729 49.845"/>
        <polyline class="cls-4" points="20.571 33.996 26.994 41.655 33.417 49.314"/>
        <polyline class="cls-4" points="21.259 49.845 26.994 41.655 32.729 33.465"/>
        <polyline class="cls-4" points="20.571 49.314 26.994 41.655 33.417 33.996"/>
        <polyline class="cls-4" points="18.802 35.917 26.994 41.655 35.185 47.393"/>
        <polyline class="cls-4" points="19.339 48.082 26.994 41.655 34.649 35.228"/>
        <polyline class="cls-4" points="18.802 47.393 26.994 41.655 35.185 35.917"/>
        <polyline class="cls-4" points="36.388 38.237 26.994 41.655 17.6 45.073"/>
        <polyline class="cls-4" points="17.93 45.883 26.994 41.655 36.057 37.427"/>
        <polyline class="cls-4" points="28.729 31.81 26.994 41.655 25.259 51.5"/>
        <polyline class="cls-4" points="35.649 36.655 26.994 41.655 18.339 46.655"/>
        <polyline class="cls-4" points="34.064 34.585 26.994 41.655 19.924 48.725"/>
        <polyline class="cls-4" points="36.654 39.065 26.994 41.655 17.334 44.245"/>
      </g>
    </g>
  </g>
</svg>