<?xml version="1.0" encoding="UTF-8"?>
<svg id="template-full" xmlns="http://www.w3.org/2000/svg" viewBox="0 0 64 64">
  <defs>
    <style>
      .cls-1 {
        fill: #652dd8;
      }

      .cls-2 {
        fill: #fff;
      }

      .cls-3 {
        stroke: #471c9b;
        stroke-width: .025px;
      }

      .cls-3, .cls-4 {
        fill: none;
        stroke-miterlimit: 10;
      }

      .cls-4 {
        stroke: #cdbaf2;
        stroke-width: .01px;
      }
    </style>
  </defs>
  <g id="grid">
    <g id="horizontal">
      <line class="cls-4" x1="0" y1="64" x2="64" y2="64"/>
      <line class="cls-4" x1="0" y1="63" x2="64" y2="63"/>
      <line class="cls-4" x1="0" y1="62" x2="64" y2="62"/>
      <line class="cls-4" x1="0" y1="61" x2="64" y2="61"/>
      <line class="cls-4" x1="0" y1="60" x2="64" y2="60"/>
      <line class="cls-4" x1="0" y1="59" x2="64" y2="59"/>
      <line class="cls-4" x1="0" y1="58" x2="64" y2="58"/>
      <line class="cls-4" x1="0" y1="57" x2="64" y2="57"/>
      <line class="cls-4" x1="0" y1="56" x2="64" y2="56"/>
      <line class="cls-4" x1="0" y1="55" x2="64" y2="55"/>
      <line class="cls-4" x1="0" y1="54" x2="64" y2="54"/>
      <line class="cls-4" x1="0" y1="53" x2="64" y2="53"/>
      <line class="cls-4" x1="0" y1="52" x2="64" y2="52"/>
      <line class="cls-4" x1="0" y1="51" x2="64" y2="51"/>
      <line class="cls-4" x1="0" y1="50" x2="64" y2="50"/>
      <line class="cls-4" x1="0" y1="49" x2="64" y2="49"/>
      <line class="cls-4" x1="0" y1="48" x2="64" y2="48"/>
      <line class="cls-4" x1="0" y1="47" x2="64" y2="47"/>
      <line class="cls-4" x1="0" y1="46" x2="64" y2="46"/>
      <line class="cls-4" x1="0" y1="45" x2="64" y2="45"/>
      <line class="cls-4" x1="0" y1="44" x2="64" y2="44"/>
      <line class="cls-4" x1="0" y1="43" x2="64" y2="43"/>
      <line class="cls-4" x1="0" y1="42" x2="64" y2="42"/>
      <line class="cls-4" x1="0" y1="41" x2="64" y2="41"/>
      <line class="cls-4" x1="0" y1="40" x2="64" y2="40"/>
      <line class="cls-4" x1="0" y1="39" x2="64" y2="39"/>
      <line class="cls-4" x1="0" y1="38" x2="64" y2="38"/>
      <line class="cls-4" x1="0" y1="37" x2="64" y2="37"/>
      <line class="cls-4" x1="0" y1="36" x2="64" y2="36"/>
      <line class="cls-4" x1="0" y1="35" x2="64" y2="35"/>
      <line class="cls-4" x1="0" y1="34" x2="64" y2="34"/>
      <line class="cls-4" x1="0" y1="33" x2="64" y2="33"/>
      <line class="cls-4" x1="0" y1="32" x2="64" y2="32"/>
      <line class="cls-4" x1="0" y1="31" x2="64" y2="31"/>
      <line class="cls-4" x1="0" y1="30" x2="64" y2="30"/>
      <line class="cls-4" x1="0" y1="29" x2="64" y2="29"/>
      <line class="cls-4" x1="0" y1="28" x2="64" y2="28"/>
      <line class="cls-4" x1="0" y1="27" x2="64" y2="27"/>
      <line class="cls-4" x1="0" y1="26" x2="64" y2="26"/>
      <line class="cls-4" x1="0" y1="25" x2="64" y2="25"/>
      <line class="cls-4" x1="0" y1="24" x2="64" y2="24"/>
      <line class="cls-4" x1="0" y1="23" x2="64" y2="23"/>
      <line class="cls-4" x1="0" y1="22" x2="64" y2="22"/>
      <line class="cls-4" x1="0" y1="21" x2="64" y2="21"/>
      <line class="cls-4" x1="0" y1="20" x2="64" y2="20"/>
      <line class="cls-4" x1="0" y1="19" x2="64" y2="19"/>
      <line class="cls-4" x1="0" y1="18" x2="64" y2="18"/>
      <line class="cls-4" x1="0" y1="17" x2="64" y2="17"/>
      <line class="cls-4" x1="0" y1="16" x2="64" y2="16"/>
      <line class="cls-4" x1="0" y1="15" x2="64" y2="15"/>
      <line class="cls-4" x1="0" y1="14" x2="64" y2="14"/>
      <line class="cls-4" x1="0" y1="13" x2="64" y2="13"/>
      <line class="cls-4" x1="0" y1="12" x2="64" y2="12"/>
      <line class="cls-4" x1="0" y1="11" x2="64" y2="11"/>
      <line class="cls-4" x1="0" y1="10" x2="64" y2="10"/>
      <line class="cls-4" x1="0" y1="9" x2="64" y2="9"/>
      <line class="cls-4" x1="0" y1="8" x2="64" y2="8"/>
      <line class="cls-4" x1="0" y1="7" x2="64" y2="7"/>
      <line class="cls-4" x1="0" y1="6" x2="64" y2="6"/>
      <line class="cls-4" x1="0" y1="5" x2="64" y2="5"/>
      <line class="cls-4" x1="0" y1="4" x2="64" y2="4"/>
      <line class="cls-4" x1="0" y1="3" x2="64" y2="3"/>
      <line class="cls-4" x1="0" y1="2" x2="64" y2="2"/>
      <line class="cls-4" x1="0" y1="1" x2="64" y2="1"/>
      <line class="cls-4" x1="0" x2="64"/>
    </g>
    <g id="vertical">
      <line class="cls-4" x1="64" x2="64" y2="64"/>
      <line class="cls-4" x1="63" x2="63" y2="64"/>
      <line class="cls-4" x1="62" x2="62" y2="64"/>
      <line class="cls-4" x1="61" x2="61" y2="64"/>
      <line class="cls-4" x1="60" x2="60" y2="64"/>
      <line class="cls-4" x1="59" x2="59" y2="64"/>
      <line class="cls-4" x1="58" x2="58" y2="64"/>
      <line class="cls-4" x1="57" x2="57" y2="64"/>
      <line class="cls-4" x1="56" x2="56" y2="64"/>
      <line class="cls-4" x1="55" x2="55" y2="64"/>
      <line class="cls-4" x1="54" x2="54" y2="64"/>
      <line class="cls-4" x1="53" x2="53" y2="64"/>
      <line class="cls-4" x1="52" x2="52" y2="64"/>
      <line class="cls-4" x1="51" x2="51" y2="64"/>
      <line class="cls-4" x1="50" x2="50" y2="64"/>
      <line class="cls-4" x1="49" x2="49" y2="64"/>
      <line class="cls-4" x1="48" x2="48" y2="64"/>
      <line class="cls-4" x1="47" x2="47" y2="64"/>
      <line class="cls-4" x1="46" x2="46" y2="64"/>
      <line class="cls-4" x1="45" x2="45" y2="64"/>
      <line class="cls-4" x1="44" x2="44" y2="64"/>
      <line class="cls-4" x1="43" x2="43" y2="64"/>
      <line class="cls-4" x1="42" x2="42" y2="64"/>
      <line class="cls-4" x1="41" x2="41" y2="64"/>
      <line class="cls-4" x1="40" x2="40" y2="64"/>
      <line class="cls-4" x1="39" x2="39" y2="64"/>
      <line class="cls-4" x1="38" x2="38" y2="64"/>
      <line class="cls-4" x1="37" x2="37" y2="64"/>
      <line class="cls-4" x1="36" x2="36" y2="64"/>
      <line class="cls-4" x1="35" x2="35" y2="64"/>
      <line class="cls-4" x1="34" x2="34" y2="64"/>
      <line class="cls-4" x1="33" x2="33" y2="64"/>
      <line class="cls-4" x1="32" x2="32" y2="64"/>
      <line class="cls-4" x1="31" x2="31" y2="64"/>
      <line class="cls-4" x1="30" x2="30" y2="64"/>
      <line class="cls-4" x1="29" x2="29" y2="64"/>
      <line class="cls-4" x1="28" x2="28" y2="64"/>
      <line class="cls-4" x1="27" x2="27" y2="64"/>
      <line class="cls-4" x1="26" x2="26" y2="64"/>
      <line class="cls-4" x1="25" x2="25" y2="64"/>
      <line class="cls-4" x1="24" x2="24" y2="64"/>
      <line class="cls-4" x1="23" x2="23" y2="64"/>
      <line class="cls-4" x1="22" x2="22" y2="64"/>
      <line class="cls-4" x1="21" x2="21" y2="64"/>
      <line class="cls-4" x1="20" x2="20" y2="64"/>
      <line class="cls-4" x1="19" x2="19" y2="64"/>
      <line class="cls-4" x1="18" x2="18" y2="64"/>
      <line class="cls-4" x1="17" x2="17" y2="64"/>
      <line class="cls-4" x1="16" x2="16" y2="64"/>
      <line class="cls-4" x1="15" x2="15" y2="64"/>
      <line class="cls-4" x1="14" x2="14" y2="64"/>
      <line class="cls-4" x1="13" x2="13" y2="64"/>
      <line class="cls-4" x1="12" x2="12" y2="64"/>
      <line class="cls-4" x1="11" x2="11" y2="64"/>
      <line class="cls-4" x1="10" x2="10" y2="64"/>
      <line class="cls-4" x1="9" x2="9" y2="64"/>
      <line class="cls-4" x1="8" x2="8" y2="64"/>
      <line class="cls-4" x1="7" x2="7" y2="64"/>
      <line class="cls-4" x1="6" x2="6" y2="64"/>
      <line class="cls-4" x1="5" x2="5" y2="64"/>
      <line class="cls-4" x1="4" x2="4" y2="64"/>
      <line class="cls-4" x1="3" x2="3" y2="64"/>
      <line class="cls-4" x1="2" x2="2" y2="64"/>
      <line class="cls-4" x1="1" x2="1" y2="64"/>
      <line class="cls-4" x1="0" x2="0" y2="64"/>
    </g>
  </g>
  <g id="person">
    <g id="back-leg_knee">
      <polyline class="cls-2" points="32 33 27 41.66 18.34 46.66"/>
      <path d="M35.464,35l-5.866,8.16-.349.485c-.197.274-.463.483-.75.613l-9.16,4.134-2-3.464,8.16-5.866-1.098,1.098,4.134-9.16,6.928,4h0Z"/>
    </g>
    <circle id="back-foot" cx="18.34" cy="46.66" r="2"/>
    <g id="back-arm_elbow">
      <path class="cls-1" d="M35.934,21.813l-8.29,3.634.731-.731-5.366,7.29-1.732-1,3.634-8.29c.122-.329.469-.536.732-.732,0,0,7.29-5.366,7.29-5.366l3.001,5.195h0Z"/>
    </g>
    <circle id="back-hand" class="cls-1" cx="22.144" cy="31.505" r="1"/>
    <circle id="bottom-body" cx="32" cy="33" r="4"/>
    <g id="body">
      <line class="cls-2" x1="34.26" y1="20.2" x2="32" y2="33"/>
      <polygon points="38.199 20.895 35.939 33.695 28.061 32.305 30.321 19.505 38.199 20.895 38.199 20.895"/>
    </g>
    <circle id="top-body" cx="34.26" cy="20.2" r="4"/>
    <g id="front-leg">
      <line class="cls-2" x1="32" y1="33" x2="42" y2="50.31"/>
      <polygon points="35.031 31.249 43.732 49.31 40.268 51.31 28.969 34.751 35.031 31.249 35.031 31.249"/>
    </g>
    <circle id="front-foot" cx="42" cy="50.31" r="2"/>
    <g id="front-arm_elbow">
      <path class="cls-1" d="M37.388,18.695l.575,9.033-.969-1.385,7.29,5.366-1,1.732-8.29-3.634c-.597-.242-.839-.818-.969-1.385,0,0-2.545-8.686-2.545-8.686l5.909-1.04h0Z"/>
    </g>
    <circle id="front-hand" class="cls-1" cx="43.784" cy="32.575" r="1"/>
    <circle id="shoulder" class="cls-1" cx="34.434" cy="19.215" r="3"/>
    <circle id="head" cx="37.569" cy="12.231" r="3.5"/>
  </g>
  <g id="guides">
    <g id="leg">
      <circle class="cls-3" cx="32" cy="33" r="10"/>
      <g>
        <polyline class="cls-3" points="42 33 32 33 22 33"/>
        <polyline class="cls-3" points="41.962 32.128 32 33 22.038 33.872"/>
        <polyline class="cls-3" points="41.962 33.872 32 33 22.038 32.128"/>
        <polyline class="cls-3" points="41.845 31.265 32 33 22.155 34.735"/>
        <polyline class="cls-3" points="41.845 34.735 32 33 22.155 31.265"/>
        <polyline class="cls-3" points="32 23 32 33 32 43"/>
        <polyline class="cls-3" points="31.128 23.038 32 33 32.872 42.962"/>
        <polyline class="cls-3" points="32.872 23.038 32 33 31.128 42.962"/>
        <polyline class="cls-3" points="29.41 23.34 32 33 34.59 42.66"/>
        <polyline class="cls-3" points="28.578 23.602 32 33 35.422 42.398"/>
        <polyline class="cls-3" points="35.422 23.602 32 33 28.578 42.398"/>
        <polyline class="cls-3" points="34.59 23.34 32 33 29.41 42.66"/>
        <polyline class="cls-3" points="27 24.345 32 33 37 41.655"/>
        <polyline class="cls-3" points="30.265 23.155 32 33 33.735 42.845"/>
        <polyline class="cls-3" points="27 24.345 32 33 37 41.655"/>
        <polyline class="cls-3" points="27.773 23.942 32 33 36.227 42.058"/>
        <polyline class="cls-3" points="36.227 23.942 32 33 27.773 42.058"/>
        <polyline class="cls-3" points="37 24.345 32 33 27 41.655"/>
        <polyline class="cls-3" points="23.345 28 32 33 40.655 38"/>
        <polyline class="cls-3" points="24.93 25.93 32 33 39.07 40.07"/>
        <polyline class="cls-3" points="22.34 30.41 32 33 41.66 35.59"/>
        <polyline class="cls-3" points="41.394 36.418 32 33 22.606 29.582"/>
        <polyline class="cls-3" points="22.937 28.772 32 33 41.063 37.228"/>
        <polyline class="cls-3" points="24.345 26.573 32 33 39.655 39.427"/>
        <polyline class="cls-3" points="26.265 24.81 32 33 37.735 41.19"/>
        <polyline class="cls-3" points="25.577 25.341 32 33 38.423 40.659"/>
        <polyline class="cls-3" points="26.265 41.19 32 33 37.735 24.81"/>
        <polyline class="cls-3" points="25.577 40.659 32 33 38.423 25.341"/>
        <polyline class="cls-3" points="23.808 27.262 32 33 40.192 38.738"/>
        <polyline class="cls-3" points="24.345 39.427 32 33 39.655 26.573"/>
        <polyline class="cls-3" points="23.808 38.738 32 33 40.192 27.262"/>
        <polyline class="cls-3" points="41.394 29.582 32 33 22.606 36.418"/>
        <polyline class="cls-3" points="22.937 37.228 32 33 41.063 28.772"/>
        <polyline class="cls-3" points="33.735 23.155 32 33 30.265 42.845"/>
        <polyline class="cls-3" points="40.655 28 32 33 23.345 38"/>
        <polyline class="cls-3" points="39.07 25.93 32 33 24.93 40.07"/>
        <polyline class="cls-3" points="41.66 30.41 32 33 22.34 35.59"/>
      </g>
    </g>
    <g id="arm">
      <circle class="cls-3" cx="34.434" cy="19.215" r="9"/>
      <g>
        <polyline class="cls-3" points="43.434 19.215 34.434 19.215 25.434 19.215"/>
        <polyline class="cls-3" points="43.4 18.431 34.434 19.215 25.468 20"/>
        <polyline class="cls-3" points="43.4 20 34.434 19.215 25.468 18.431"/>
        <polyline class="cls-3" points="43.294 17.654 34.434 19.215 25.573 20.777"/>
        <polyline class="cls-3" points="43.294 20.777 34.434 19.215 25.573 17.654"/>
        <polyline class="cls-3" points="34.434 10.215 34.434 19.215 34.434 28.215"/>
        <polyline class="cls-3" points="33.649 10.25 34.434 19.215 35.218 28.181"/>
        <polyline class="cls-3" points="35.218 10.25 34.434 19.215 33.649 28.181"/>
        <polyline class="cls-3" points="32.103 10.521 34.434 19.215 36.765 27.909"/>
        <polyline class="cls-3" points="31.354 10.758 34.434 19.215 37.514 27.673"/>
        <polyline class="cls-3" points="37.514 10.758 34.434 19.215 31.354 27.673"/>
        <polyline class="cls-3" points="36.765 10.521 34.434 19.215 32.103 27.909"/>
        <polyline class="cls-3" points="29.934 11.426 34.434 19.215 38.934 27.005"/>
        <polyline class="cls-3" points="32.872 10.355 34.434 19.215 35.995 28.076"/>
        <polyline class="cls-3" points="29.934 11.426 34.434 19.215 38.934 27.005"/>
        <polyline class="cls-3" points="30.63 11.063 34.434 19.215 38.238 27.367"/>
        <polyline class="cls-3" points="38.238 11.063 34.434 19.215 30.63 27.367"/>
        <polyline class="cls-3" points="38.934 11.426 34.434 19.215 29.934 27.005"/>
        <polyline class="cls-3" points="26.644 14.715 34.434 19.215 42.223 23.715"/>
        <polyline class="cls-3" points="28.071 12.852 34.434 19.215 40.797 25.578"/>
        <polyline class="cls-3" points="25.74 16.884 34.434 19.215 43.128 21.546"/>
        <polyline class="cls-3" points="42.889 22.292 34.434 19.215 25.979 16.139"/>
        <polyline class="cls-3" points="26.277 15.41 34.434 19.215 42.591 23.021"/>
        <polyline class="cls-3" points="27.544 13.431 34.434 19.215 41.324 25"/>
        <polyline class="cls-3" points="29.272 11.844 34.434 19.215 39.595 26.587"/>
        <polyline class="cls-3" points="28.653 12.323 34.434 19.215 40.214 26.108"/>
        <polyline class="cls-3" points="29.272 26.587 34.434 19.215 39.595 11.844"/>
        <polyline class="cls-3" points="28.653 26.108 34.434 19.215 40.214 12.323"/>
        <polyline class="cls-3" points="27.061 14.051 34.434 19.215 41.806 24.379"/>
        <polyline class="cls-3" points="27.544 25 34.434 19.215 41.324 13.431"/>
        <polyline class="cls-3" points="27.061 24.379 34.434 19.215 41.806 14.051"/>
        <polyline class="cls-3" points="42.889 16.139 34.434 19.215 25.979 22.292"/>
        <polyline class="cls-3" points="26.277 23.021 34.434 19.215 42.591 15.41"/>
        <polyline class="cls-3" points="35.995 10.355 34.434 19.215 32.872 28.076"/>
        <polyline class="cls-3" points="42.223 14.715 34.434 19.215 26.644 23.715"/>
        <polyline class="cls-3" points="40.797 12.852 34.434 19.215 28.071 25.578"/>
        <polyline class="cls-3" points="43.128 16.884 34.434 19.215 25.74 21.546"/>
      </g>
    </g>
    <g id="elbow">
      <circle class="cls-3" cx="35.994" cy="28.075" r="9"/>
      <g>
        <polyline class="cls-3" points="44.994 28.075 35.994 28.075 26.994 28.075"/>
        <polyline class="cls-3" points="44.96 27.291 35.994 28.075 27.028 28.86"/>
        <polyline class="cls-3" points="44.96 28.86 35.994 28.075 27.028 27.291"/>
        <polyline class="cls-3" points="44.854 26.514 35.994 28.075 27.133 29.637"/>
        <polyline class="cls-3" points="44.854 29.637 35.994 28.075 27.133 26.514"/>
        <polyline class="cls-3" points="35.994 19.075 35.994 28.075 35.994 37.075"/>
        <polyline class="cls-3" points="35.209 19.11 35.994 28.075 36.778 37.041"/>
        <polyline class="cls-3" points="36.778 19.11 35.994 28.075 35.209 37.041"/>
        <polyline class="cls-3" points="33.663 19.381 35.994 28.075 38.325 36.769"/>
        <polyline class="cls-3" points="32.914 19.618 35.994 28.075 39.074 36.533"/>
        <polyline class="cls-3" points="39.074 19.618 35.994 28.075 32.914 36.533"/>
        <polyline class="cls-3" points="38.325 19.381 35.994 28.075 33.663 36.769"/>
        <polyline class="cls-3" points="31.494 20.286 35.994 28.075 40.494 35.865"/>
        <polyline class="cls-3" points="34.432 19.215 35.994 28.075 37.555 36.936"/>
        <polyline class="cls-3" points="31.494 20.286 35.994 28.075 40.494 35.865"/>
        <polyline class="cls-3" points="32.19 19.923 35.994 28.075 39.798 36.227"/>
        <polyline class="cls-3" points="39.798 19.923 35.994 28.075 32.19 36.227"/>
        <polyline class="cls-3" points="40.494 20.286 35.994 28.075 31.494 35.865"/>
        <polyline class="cls-3" points="28.204 23.575 35.994 28.075 43.783 32.575"/>
        <polyline class="cls-3" points="29.631 21.712 35.994 28.075 42.357 34.438"/>
        <polyline class="cls-3" points="27.3 25.744 35.994 28.075 44.688 30.406"/>
        <polyline class="cls-3" points="44.449 31.152 35.994 28.075 27.539 24.999"/>
        <polyline class="cls-3" points="27.837 24.27 35.994 28.075 44.151 31.881"/>
        <polyline class="cls-3" points="29.104 22.291 35.994 28.075 42.884 33.86"/>
        <polyline class="cls-3" points="30.832 20.704 35.994 28.075 41.155 35.447"/>
        <polyline class="cls-3" points="30.213 21.183 35.994 28.075 41.774 34.968"/>
        <polyline class="cls-3" points="30.832 35.447 35.994 28.075 41.155 20.704"/>
        <polyline class="cls-3" points="30.213 34.968 35.994 28.075 41.774 21.183"/>
        <polyline class="cls-3" points="28.621 22.911 35.994 28.075 43.366 33.239"/>
        <polyline class="cls-3" points="29.104 33.86 35.994 28.075 42.884 22.291"/>
        <polyline class="cls-3" points="28.621 33.239 35.994 28.075 43.366 22.911"/>
        <polyline class="cls-3" points="44.449 24.999 35.994 28.075 27.539 31.152"/>
        <polyline class="cls-3" points="27.837 31.881 35.994 28.075 44.151 24.27"/>
        <polyline class="cls-3" points="37.555 19.215 35.994 28.075 34.432 36.936"/>
        <polyline class="cls-3" points="43.783 23.575 35.994 28.075 28.204 32.575"/>
        <polyline class="cls-3" points="42.357 21.712 35.994 28.075 29.631 34.438"/>
        <polyline class="cls-3" points="44.688 25.744 35.994 28.075 27.3 30.406"/>
      </g>
    </g>
    <g id="knee">
      <circle class="cls-3" cx="26.994" cy="41.655" r="10"/>
      <g>
        <polyline class="cls-3" points="36.994 41.655 26.994 41.655 16.994 41.655"/>
        <polyline class="cls-3" points="36.956 40.783 26.994 41.655 17.032 42.527"/>
        <polyline class="cls-3" points="36.956 42.527 26.994 41.655 17.032 40.783"/>
        <polyline class="cls-3" points="36.839 39.92 26.994 41.655 17.149 43.39"/>
        <polyline class="cls-3" points="36.839 43.39 26.994 41.655 17.149 39.92"/>
        <polyline class="cls-3" points="26.994 31.655 26.994 41.655 26.994 51.655"/>
        <polyline class="cls-3" points="26.122 31.693 26.994 41.655 27.865 51.617"/>
        <polyline class="cls-3" points="27.865 31.693 26.994 41.655 26.122 51.617"/>
        <polyline class="cls-3" points="24.404 31.995 26.994 41.655 29.584 51.315"/>
        <polyline class="cls-3" points="23.572 32.257 26.994 41.655 30.416 51.053"/>
        <polyline class="cls-3" points="30.416 32.257 26.994 41.655 23.572 51.053"/>
        <polyline class="cls-3" points="29.584 31.995 26.994 41.655 24.404 51.315"/>
        <polyline class="cls-3" points="21.994 33 26.994 41.655 31.994 50.31"/>
        <polyline class="cls-3" points="25.259 31.81 26.994 41.655 28.729 51.5"/>
        <polyline class="cls-3" points="21.994 33 26.994 41.655 31.994 50.31"/>
        <polyline class="cls-3" points="22.767 32.597 26.994 41.655 31.22 50.713"/>
        <polyline class="cls-3" points="31.22 32.597 26.994 41.655 22.767 50.713"/>
        <polyline class="cls-3" points="31.994 33 26.994 41.655 21.994 50.31"/>
        <polyline class="cls-3" points="18.339 36.655 26.994 41.655 35.649 46.655"/>
        <polyline class="cls-3" points="19.924 34.585 26.994 41.655 34.064 48.725"/>
        <polyline class="cls-3" points="17.334 39.065 26.994 41.655 36.654 44.245"/>
        <polyline class="cls-3" points="36.388 45.073 26.994 41.655 17.6 38.237"/>
        <polyline class="cls-3" points="17.93 37.427 26.994 41.655 36.057 45.883"/>
        <polyline class="cls-3" points="19.339 35.228 26.994 41.655 34.649 48.082"/>
        <polyline class="cls-3" points="21.259 33.465 26.994 41.655 32.729 49.845"/>
        <polyline class="cls-3" points="20.571 33.996 26.994 41.655 33.417 49.314"/>
        <polyline class="cls-3" points="21.259 49.845 26.994 41.655 32.729 33.465"/>
        <polyline class="cls-3" points="20.571 49.314 26.994 41.655 33.417 33.996"/>
        <polyline class="cls-3" points="18.802 35.917 26.994 41.655 35.185 47.393"/>
        <polyline class="cls-3" points="19.339 48.082 26.994 41.655 34.649 35.228"/>
        <polyline class="cls-3" points="18.802 47.393 26.994 41.655 35.185 35.917"/>
        <polyline class="cls-3" points="36.388 38.237 26.994 41.655 17.6 45.073"/>
        <polyline class="cls-3" points="17.93 45.883 26.994 41.655 36.057 37.427"/>
        <polyline class="cls-3" points="28.729 31.81 26.994 41.655 25.259 51.5"/>
        <polyline class="cls-3" points="35.649 36.655 26.994 41.655 18.339 46.655"/>
        <polyline class="cls-3" points="34.064 34.585 26.994 41.655 19.924 48.725"/>
        <polyline class="cls-3" points="36.654 39.065 26.994 41.655 17.334 44.245"/>
      </g>
    </g>
    <g id="shoulder-2" data-name="shoulder">
      <circle class="cls-3" cx="32" cy="33" r="14"/>
      <g>
        <polyline class="cls-3" points="46 33 32 33 18 33"/>
        <polyline class="cls-3" points="45.947 31.78 32 33 18.053 34.22"/>
        <polyline class="cls-3" points="45.947 34.22 32 33 18.053 31.78"/>
        <polyline class="cls-3" points="45.783 30.571 32 33 18.217 35.429"/>
        <polyline class="cls-3" points="45.783 35.429 32 33 18.217 30.571"/>
        <polyline class="cls-3" points="32 19 32 33 32 47"/>
        <polyline class="cls-3" points="30.78 19.053 32 33 33.22 46.947"/>
        <polyline class="cls-3" points="33.22 19.053 32 33 30.78 46.947"/>
        <polyline class="cls-3" points="28.374 19.476 32 33 35.626 46.524"/>
        <polyline class="cls-3" points="27.209 19.843 32 33 36.791 46.157"/>
        <polyline class="cls-3" points="36.791 19.843 32 33 27.209 46.157"/>
        <polyline class="cls-3" points="35.626 19.476 32 33 28.374 46.524"/>
        <polyline class="cls-3" points="25 20.883 32 33 39 45.117"/>
        <polyline class="cls-3" points="29.571 19.217 32 33 34.429 46.783"/>
        <polyline class="cls-3" points="25 20.883 32 33 39 45.117"/>
        <polyline class="cls-3" points="26.083 20.319 32 33 37.917 45.681"/>
        <polyline class="cls-3" points="37.917 20.319 32 33 26.083 45.681"/>
        <polyline class="cls-3" points="39 20.883 32 33 25 45.117"/>
        <polyline class="cls-3" points="19.883 26 32 33 44.117 40"/>
        <polyline class="cls-3" points="22.102 23.102 32 33 41.898 42.898"/>
        <polyline class="cls-3" points="18.476 29.374 32 33 45.524 36.626"/>
        <polyline class="cls-3" points="45.152 37.785 32 33 18.848 28.215"/>
        <polyline class="cls-3" points="19.311 27.081 32 33 44.689 38.919"/>
        <polyline class="cls-3" points="21.283 24.002 32 33 42.717 41.998"/>
        <polyline class="cls-3" points="23.971 21.534 32 33 40.029 44.466"/>
        <polyline class="cls-3" points="23.008 22.278 32 33 40.992 43.722"/>
        <polyline class="cls-3" points="23.971 44.466 32 33 40.029 21.534"/>
        <polyline class="cls-3" points="23.008 43.722 32 33 40.992 22.278"/>
        <polyline class="cls-3" points="20.532 24.967 32 33 43.468 41.033"/>
        <polyline class="cls-3" points="21.283 41.998 32 33 42.717 24.002"/>
        <polyline class="cls-3" points="20.532 41.033 32 33 43.468 24.967"/>
        <polyline class="cls-3" points="45.152 28.215 32 33 18.848 37.785"/>
        <polyline class="cls-3" points="19.311 38.919 32 33 44.689 27.081"/>
        <polyline class="cls-3" points="34.429 19.217 32 33 29.571 46.783"/>
        <polyline class="cls-3" points="44.117 26 32 33 19.883 40"/>
        <polyline class="cls-3" points="41.898 23.102 32 33 22.102 42.898"/>
        <polyline class="cls-3" points="45.524 29.374 32 33 18.476 36.626"/>
      </g>
    </g>
    <g id="top-body-2" data-name="top-body">
      <circle class="cls-3" cx="32" cy="33" r="13"/>
      <g>
        <polyline class="cls-3" points="45 33 32 33 19 33"/>
        <polyline class="cls-3" points="44.951 31.867 32 33 19.049 34.133"/>
        <polyline class="cls-3" points="44.951 34.133 32 33 19.049 31.867"/>
        <polyline class="cls-3" points="44.798 30.744 32 33 19.202 35.255"/>
        <polyline class="cls-3" points="44.798 35.255 32 33 19.202 30.744"/>
        <polyline class="cls-3" points="32 20 32 33 32 46"/>
        <polyline class="cls-3" points="30.867 20.049 32 33 33.133 45.951"/>
        <polyline class="cls-3" points="33.133 20.049 32 33 30.867 45.951"/>
        <polyline class="cls-3" points="28.633 20.442 32 33 35.367 45.558"/>
        <polyline class="cls-3" points="27.551 20.783 32 33 36.449 45.217"/>
        <polyline class="cls-3" points="36.449 20.783 32 33 27.551 45.217"/>
        <polyline class="cls-3" points="35.367 20.442 32 33 28.633 45.558"/>
        <polyline class="cls-3" points="25.5 21.749 32 33 38.5 44.251"/>
        <polyline class="cls-3" points="29.745 20.202 32 33 34.255 45.798"/>
        <polyline class="cls-3" points="25.5 21.749 32 33 38.5 44.251"/>
        <polyline class="cls-3" points="26.505 21.225 32 33 37.495 44.775"/>
        <polyline class="cls-3" points="37.495 21.225 32 33 26.505 44.775"/>
        <polyline class="cls-3" points="38.5 21.749 32 33 25.5 44.251"/>
        <polyline class="cls-3" points="20.749 26.5 32 33 43.251 39.5"/>
        <polyline class="cls-3" points="22.809 23.809 32 33 41.191 42.191"/>
        <polyline class="cls-3" points="19.442 29.633 32 33 44.558 36.367"/>
        <polyline class="cls-3" points="44.212 37.444 32 33 19.788 28.556"/>
        <polyline class="cls-3" points="20.217 27.503 32 33 43.783 38.497"/>
        <polyline class="cls-3" points="22.048 24.645 32 33 41.952 41.355"/>
        <polyline class="cls-3" points="24.545 22.353 32 33 39.455 43.647"/>
        <polyline class="cls-3" points="23.65 23.044 32 33 40.35 42.956"/>
        <polyline class="cls-3" points="24.545 43.647 32 33 39.455 22.353"/>
        <polyline class="cls-3" points="23.65 42.956 32 33 40.35 23.044"/>
        <polyline class="cls-3" points="21.351 25.541 32 33 42.649 40.459"/>
        <polyline class="cls-3" points="22.048 41.355 32 33 41.952 24.645"/>
        <polyline class="cls-3" points="21.351 40.459 32 33 42.649 25.541"/>
        <polyline class="cls-3" points="44.212 28.556 32 33 19.788 37.444"/>
        <polyline class="cls-3" points="20.217 38.497 32 33 43.783 27.503"/>
        <polyline class="cls-3" points="34.255 20.202 32 33 29.745 45.798"/>
        <polyline class="cls-3" points="43.251 26.5 32 33 20.749 39.5"/>
        <polyline class="cls-3" points="41.191 23.809 32 33 22.809 42.191"/>
        <polyline class="cls-3" points="44.558 29.633 32 33 19.442 36.367"/>
      </g>
    </g>
    <g id="head-2" data-name="head">
      <circle class="cls-3" cx="32" cy="33" r="21.5"/>
      <g>
        <polyline class="cls-3" points="53.5 33 32 33 10.5 33"/>
        <polyline class="cls-3" points="53.418 31.126 32 33 10.582 34.874"/>
        <polyline class="cls-3" points="53.418 34.874 32 33 10.582 31.126"/>
        <polyline class="cls-3" points="53.167 29.27 32 33 10.833 36.73"/>
        <polyline class="cls-3" points="53.167 36.73 32 33 10.833 29.27"/>
        <polyline class="cls-3" points="32 11.5 32 33 32 54.5"/>
        <polyline class="cls-3" points="30.126 11.582 32 33 33.874 54.418"/>
        <polyline class="cls-3" points="33.874 11.582 32 33 30.126 54.418"/>
        <polyline class="cls-3" points="26.431 12.231 32 33 37.568 53.769"/>
        <polyline class="cls-3" points="24.643 12.795 32 33 39.357 53.205"/>
        <polyline class="cls-3" points="39.357 12.795 32 33 24.643 53.205"/>
        <polyline class="cls-3" points="37.568 12.231 32 33 26.431 53.769"/>
        <polyline class="cls-3" points="21.25 14.392 32 33 42.75 51.608"/>
        <polyline class="cls-3" points="28.27 11.833 32 33 35.73 54.167"/>
        <polyline class="cls-3" points="21.25 14.392 32 33 42.75 51.608"/>
        <polyline class="cls-3" points="22.913 13.526 32 33 41.087 52.474"/>
        <polyline class="cls-3" points="41.087 13.526 32 33 22.913 52.474"/>
        <polyline class="cls-3" points="42.75 14.392 32 33 21.25 51.608"/>
        <polyline class="cls-3" points="13.392 22.25 32 33 50.608 43.75"/>
        <polyline class="cls-3" points="16.8 17.799 32 33 47.2 48.2"/>
        <polyline class="cls-3" points="11.231 27.431 32 33 52.769 38.568"/>
        <polyline class="cls-3" points="52.197 40.349 32 33 11.803 25.651"/>
        <polyline class="cls-3" points="12.513 23.91 32 33 51.487 42.09"/>
        <polyline class="cls-3" points="15.541 19.182 32 33 48.459 46.818"/>
        <polyline class="cls-3" points="19.67 15.391 32 33 44.33 50.609"/>
        <polyline class="cls-3" points="18.191 16.534 32 33 45.809 49.466"/>
        <polyline class="cls-3" points="19.67 50.609 32 33 44.33 15.391"/>
        <polyline class="cls-3" points="18.191 49.466 32 33 45.809 16.534"/>
        <polyline class="cls-3" points="14.388 20.664 32 33 49.612 45.336"/>
        <polyline class="cls-3" points="15.541 46.818 32 33 48.459 19.182"/>
        <polyline class="cls-3" points="14.388 45.336 32 33 49.612 20.664"/>
        <polyline class="cls-3" points="52.197 25.651 32 33 11.803 40.349"/>
        <polyline class="cls-3" points="12.513 42.09 32 33 51.487 23.91"/>
        <polyline class="cls-3" points="35.73 11.833 32 33 28.27 54.167"/>
        <polyline class="cls-3" points="50.608 22.25 32 33 13.392 43.75"/>
        <polyline class="cls-3" points="47.2 17.799 32 33 16.8 48.2"/>
        <polyline class="cls-3" points="52.769 27.431 32 33 11.231 38.568"/>
      </g>
    </g>
  </g>
</svg>