<?xml version="1.0" encoding="UTF-8"?>
<svg id="template-body" xmlns="http://www.w3.org/2000/svg" viewBox="0 0 64 64">
  <defs>
    <style>
      .cls-1 {
        fill: #652dd8;
      }

      .cls-2 {
        fill: #fff;
      }

      .cls-3 {
        stroke-linecap: round;
        stroke-linejoin: round;
      }

      .cls-3, .cls-4 {
        fill: none;
        stroke: #471c9b;
        stroke-width: .01px;
      }

      .cls-4 {
        stroke-miterlimit: 10;
      }
    </style>
  </defs>
  <g id="person">
    <g id="back-leg_knee">
      <polyline class="cls-2" points="32 33 27 41.66 18.34 46.66"/>
      <path d="M35.464,35l-5.866,8.16-.349.485c-.197.274-.463.483-.75.613l-9.16,4.134-2-3.464,8.16-5.866-1.098,1.098,4.134-9.16,6.928,4h0Z"/>
    </g>
    <circle id="back-foot" cx="18.34" cy="46.66" r="2"/>
    <g id="back-arm_elbow">
      <path class="cls-1" d="M35.934,21.813l-8.29,3.634.731-.731-5.366,7.29-1.732-1,3.634-8.29c.122-.329.469-.536.732-.732,0,0,7.29-5.366,7.29-5.366l3.001,5.195h0Z"/>
    </g>
    <circle id="back-hand" class="cls-1" cx="22.144" cy="31.505" r="1"/>
    <circle id="bottom-body" cx="32" cy="33" r="4"/>
    <g id="body">
      <line class="cls-2" x1="34.26" y1="20.2" x2="32" y2="33"/>
      <polygon points="38.199 20.895 35.939 33.695 28.061 32.305 30.321 19.505 38.199 20.895 38.199 20.895"/>
    </g>
    <circle id="top-body" cx="34.26" cy="20.2" r="4"/>
    <g id="front-leg">
      <line class="cls-2" x1="32" y1="33" x2="42" y2="50.31"/>
      <polygon points="35.031 31.249 43.732 49.31 40.268 51.31 28.969 34.751 35.031 31.249 35.031 31.249"/>
    </g>
    <circle id="front-foot" cx="42" cy="50.31" r="2"/>
    <g id="front-arm_elbow">
      <path class="cls-1" d="M37.388,18.695l.575,9.033-.969-1.385,7.29,5.366-1,1.732-8.29-3.634c-.597-.242-.839-.818-.969-1.385,0,0-2.545-8.686-2.545-8.686l5.909-1.04h0Z"/>
    </g>
    <circle id="front-hand" class="cls-1" cx="43.784" cy="32.575" r="1"/>
    <circle id="shoulder" class="cls-1" cx="34.434" cy="19.215" r="3"/>
    <circle id="head" cx="37.569" cy="12.231" r="3.5"/>
  </g>
  <g id="guides">
    <g id="shoulder-2" data-name="shoulder">
      <circle class="cls-3" cx="32" cy="33" r="14"/>
      <g>
        <polyline class="cls-4" points="46 33 32 33 18 33"/>
        <polyline class="cls-4" points="45.947 31.78 32 33 18.053 34.22"/>
        <polyline class="cls-4" points="45.947 34.22 32 33 18.053 31.78"/>
        <polyline class="cls-4" points="45.783 30.571 32 33 18.217 35.429"/>
        <polyline class="cls-4" points="45.783 35.429 32 33 18.217 30.571"/>
        <polyline class="cls-4" points="32 19 32 33 32 47"/>
        <polyline class="cls-4" points="30.78 19.053 32 33 33.22 46.947"/>
        <polyline class="cls-4" points="33.22 19.053 32 33 30.78 46.947"/>
        <polyline class="cls-4" points="28.374 19.476 32 33 35.626 46.524"/>
        <polyline class="cls-4" points="27.209 19.843 32 33 36.791 46.157"/>
        <polyline class="cls-4" points="36.791 19.843 32 33 27.209 46.157"/>
        <polyline class="cls-4" points="35.626 19.476 32 33 28.374 46.524"/>
        <polyline class="cls-4" points="25 20.883 32 33 39 45.117"/>
        <polyline class="cls-4" points="29.571 19.217 32 33 34.429 46.783"/>
        <polyline class="cls-4" points="25 20.883 32 33 39 45.117"/>
        <polyline class="cls-4" points="26.083 20.319 32 33 37.917 45.681"/>
        <polyline class="cls-4" points="37.917 20.319 32 33 26.083 45.681"/>
        <polyline class="cls-4" points="39 20.883 32 33 25 45.117"/>
        <polyline class="cls-4" points="19.883 26 32 33 44.117 40"/>
        <polyline class="cls-4" points="22.102 23.102 32 33 41.898 42.898"/>
        <polyline class="cls-4" points="18.476 29.374 32 33 45.524 36.626"/>
        <polyline class="cls-4" points="45.152 37.785 32 33 18.848 28.215"/>
        <polyline class="cls-4" points="19.311 27.081 32 33 44.689 38.919"/>
        <polyline class="cls-4" points="21.283 24.002 32 33 42.717 41.998"/>
        <polyline class="cls-4" points="23.971 21.534 32 33 40.029 44.466"/>
        <polyline class="cls-4" points="23.008 22.278 32 33 40.992 43.722"/>
        <polyline class="cls-4" points="23.971 44.466 32 33 40.029 21.534"/>
        <polyline class="cls-4" points="23.008 43.722 32 33 40.992 22.278"/>
        <polyline class="cls-4" points="20.532 24.967 32 33 43.468 41.033"/>
        <polyline class="cls-4" points="21.283 41.998 32 33 42.717 24.002"/>
        <polyline class="cls-4" points="20.532 41.033 32 33 43.468 24.967"/>
        <polyline class="cls-4" points="45.152 28.215 32 33 18.848 37.785"/>
        <polyline class="cls-4" points="19.311 38.919 32 33 44.689 27.081"/>
        <polyline class="cls-4" points="34.429 19.217 32 33 29.571 46.783"/>
        <polyline class="cls-4" points="44.117 26 32 33 19.883 40"/>
        <polyline class="cls-4" points="41.898 23.102 32 33 22.102 42.898"/>
        <polyline class="cls-4" points="45.524 29.374 32 33 18.476 36.626"/>
      </g>
    </g>
    <g id="top-body-2" data-name="top-body">
      <circle class="cls-3" cx="32" cy="33" r="13"/>
      <g>
        <polyline class="cls-4" points="45 33 32 33 19 33"/>
        <polyline class="cls-4" points="44.951 31.867 32 33 19.049 34.133"/>
        <polyline class="cls-4" points="44.951 34.133 32 33 19.049 31.867"/>
        <polyline class="cls-4" points="44.798 30.744 32 33 19.202 35.255"/>
        <polyline class="cls-4" points="44.798 35.255 32 33 19.202 30.744"/>
        <polyline class="cls-4" points="32 20 32 33 32 46"/>
        <polyline class="cls-4" points="30.867 20.049 32 33 33.133 45.951"/>
        <polyline class="cls-4" points="33.133 20.049 32 33 30.867 45.951"/>
        <polyline class="cls-4" points="28.633 20.442 32 33 35.367 45.558"/>
        <polyline class="cls-4" points="27.551 20.783 32 33 36.449 45.217"/>
        <polyline class="cls-4" points="36.449 20.783 32 33 27.551 45.217"/>
        <polyline class="cls-4" points="35.367 20.442 32 33 28.633 45.558"/>
        <polyline class="cls-4" points="25.5 21.749 32 33 38.5 44.251"/>
        <polyline class="cls-4" points="29.745 20.202 32 33 34.255 45.798"/>
        <polyline class="cls-4" points="25.5 21.749 32 33 38.5 44.251"/>
        <polyline class="cls-4" points="26.505 21.225 32 33 37.495 44.775"/>
        <polyline class="cls-4" points="37.495 21.225 32 33 26.505 44.775"/>
        <polyline class="cls-4" points="38.5 21.749 32 33 25.5 44.251"/>
        <polyline class="cls-4" points="20.749 26.5 32 33 43.251 39.5"/>
        <polyline class="cls-4" points="22.809 23.809 32 33 41.191 42.191"/>
        <polyline class="cls-4" points="19.442 29.633 32 33 44.558 36.367"/>
        <polyline class="cls-4" points="44.212 37.444 32 33 19.788 28.556"/>
        <polyline class="cls-4" points="20.217 27.503 32 33 43.783 38.497"/>
        <polyline class="cls-4" points="22.048 24.645 32 33 41.952 41.355"/>
        <polyline class="cls-4" points="24.545 22.353 32 33 39.455 43.647"/>
        <polyline class="cls-4" points="23.65 23.044 32 33 40.35 42.956"/>
        <polyline class="cls-4" points="24.545 43.647 32 33 39.455 22.353"/>
        <polyline class="cls-4" points="23.65 42.956 32 33 40.35 23.044"/>
        <polyline class="cls-4" points="21.351 25.541 32 33 42.649 40.459"/>
        <polyline class="cls-4" points="22.048 41.355 32 33 41.952 24.645"/>
        <polyline class="cls-4" points="21.351 40.459 32 33 42.649 25.541"/>
        <polyline class="cls-4" points="44.212 28.556 32 33 19.788 37.444"/>
        <polyline class="cls-4" points="20.217 38.497 32 33 43.783 27.503"/>
        <polyline class="cls-4" points="34.255 20.202 32 33 29.745 45.798"/>
        <polyline class="cls-4" points="43.251 26.5 32 33 20.749 39.5"/>
        <polyline class="cls-4" points="41.191 23.809 32 33 22.809 42.191"/>
        <polyline class="cls-4" points="44.558 29.633 32 33 19.442 36.367"/>
      </g>
    </g>
    <g id="head-2" data-name="head">
      <circle class="cls-3" cx="32" cy="33" r="21.5"/>
      <g>
        <polyline class="cls-4" points="53.5 33 32 33 10.5 33"/>
        <polyline class="cls-4" points="53.418 31.126 32 33 10.582 34.874"/>
        <polyline class="cls-4" points="53.418 34.874 32 33 10.582 31.126"/>
        <polyline class="cls-4" points="53.167 29.27 32 33 10.833 36.73"/>
        <polyline class="cls-4" points="53.167 36.73 32 33 10.833 29.27"/>
        <polyline class="cls-4" points="32 11.5 32 33 32 54.5"/>
        <polyline class="cls-4" points="30.126 11.582 32 33 33.874 54.418"/>
        <polyline class="cls-4" points="33.874 11.582 32 33 30.126 54.418"/>
        <polyline class="cls-4" points="26.431 12.231 32 33 37.568 53.769"/>
        <polyline class="cls-4" points="24.643 12.795 32 33 39.357 53.205"/>
        <polyline class="cls-4" points="39.357 12.795 32 33 24.643 53.205"/>
        <polyline class="cls-4" points="37.568 12.231 32 33 26.431 53.769"/>
        <polyline class="cls-4" points="21.25 14.392 32 33 42.75 51.608"/>
        <polyline class="cls-4" points="28.27 11.833 32 33 35.73 54.167"/>
        <polyline class="cls-4" points="21.25 14.392 32 33 42.75 51.608"/>
        <polyline class="cls-4" points="22.913 13.526 32 33 41.087 52.474"/>
        <polyline class="cls-4" points="41.087 13.526 32 33 22.913 52.474"/>
        <polyline class="cls-4" points="42.75 14.392 32 33 21.25 51.608"/>
        <polyline class="cls-4" points="13.392 22.25 32 33 50.608 43.75"/>
        <polyline class="cls-4" points="16.8 17.799 32 33 47.2 48.2"/>
        <polyline class="cls-4" points="11.231 27.431 32 33 52.769 38.568"/>
        <polyline class="cls-4" points="52.197 40.349 32 33 11.803 25.651"/>
        <polyline class="cls-4" points="12.513 23.91 32 33 51.487 42.09"/>
        <polyline class="cls-4" points="15.541 19.182 32 33 48.459 46.818"/>
        <polyline class="cls-4" points="19.67 15.391 32 33 44.33 50.609"/>
        <polyline class="cls-4" points="18.191 16.534 32 33 45.809 49.466"/>
        <polyline class="cls-4" points="19.67 50.609 32 33 44.33 15.391"/>
        <polyline class="cls-4" points="18.191 49.466 32 33 45.809 16.534"/>
        <polyline class="cls-4" points="14.388 20.664 32 33 49.612 45.336"/>
        <polyline class="cls-4" points="15.541 46.818 32 33 48.459 19.182"/>
        <polyline class="cls-4" points="14.388 45.336 32 33 49.612 20.664"/>
        <polyline class="cls-4" points="52.197 25.651 32 33 11.803 40.349"/>
        <polyline class="cls-4" points="12.513 42.09 32 33 51.487 23.91"/>
        <polyline class="cls-4" points="35.73 11.833 32 33 28.27 54.167"/>
        <polyline class="cls-4" points="50.608 22.25 32 33 13.392 43.75"/>
        <polyline class="cls-4" points="47.2 17.799 32 33 16.8 48.2"/>
        <polyline class="cls-4" points="52.769 27.431 32 33 11.231 38.568"/>
      </g>
    </g>
  </g>
</svg>