<?xml version="1.0" encoding="UTF-8"?>
<svg id="template-arms" xmlns="http://www.w3.org/2000/svg" viewBox="0 0 64 64">
  <defs>
    <style>
      .cls-1 {
        fill: #652dd8;
      }

      .cls-2 {
        fill: #fff;
      }

      .cls-3 {
        stroke-linecap: round;
        stroke-linejoin: round;
      }

      .cls-3, .cls-4 {
        fill: none;
        stroke: #471c9b;
        stroke-width: .01px;
      }

      .cls-4 {
        stroke-miterlimit: 10;
      }
    </style>
  </defs>
  <g id="person">
    <g id="back-leg_knee">
      <polyline class="cls-2" points="32 33 27 41.66 18.34 46.66"/>
      <path d="M35.464,35l-5.866,8.16-.349.485c-.197.274-.463.483-.75.613l-9.16,4.134-2-3.464,8.16-5.866-1.098,1.098,4.134-9.16,6.928,4h0Z"/>
    </g>
    <circle id="back-foot" cx="18.34" cy="46.66" r="2"/>
    <g id="back-arm_elbow">
      <path class="cls-1" d="M35.934,21.813l-8.29,3.634.731-.731-5.366,7.29-1.732-1,3.634-8.29c.122-.329.469-.536.732-.732,0,0,7.29-5.366,7.29-5.366l3.001,5.195h0Z"/>
    </g>
    <circle id="back-hand" class="cls-1" cx="22.144" cy="31.505" r="1"/>
    <circle id="bottom-body" cx="32" cy="33" r="4"/>
    <g id="body">
      <line class="cls-2" x1="34.26" y1="20.2" x2="32" y2="33"/>
      <polygon points="38.199 20.895 35.939 33.695 28.061 32.305 30.321 19.505 38.199 20.895 38.199 20.895"/>
    </g>
    <circle id="top-body" cx="34.26" cy="20.2" r="4"/>
    <g id="front-leg">
      <line class="cls-2" x1="32" y1="33" x2="42" y2="50.31"/>
      <polygon points="35.031 31.249 43.732 49.31 40.268 51.31 28.969 34.751 35.031 31.249 35.031 31.249"/>
    </g>
    <circle id="front-foot" cx="42" cy="50.31" r="2"/>
    <g id="front-arm_elbow">
      <path class="cls-1" d="M37.388,18.695l.575,9.033-.969-1.385,7.29,5.366-1,1.732-8.29-3.634c-.597-.242-.839-.818-.969-1.385,0,0-2.545-8.686-2.545-8.686l5.909-1.04h0Z"/>
    </g>
    <circle id="front-hand" class="cls-1" cx="43.784" cy="32.575" r="1"/>
    <circle id="shoulder" class="cls-1" cx="34.434" cy="19.215" r="3"/>
    <circle id="head" cx="37.569" cy="12.231" r="3.5"/>
  </g>
  <g id="guides">
    <g id="arm">
      <circle class="cls-3" cx="34.434" cy="19.215" r="9"/>
      <g>
        <polyline class="cls-4" points="43.434 19.215 34.434 19.215 25.434 19.215"/>
        <polyline class="cls-4" points="43.4 18.431 34.434 19.215 25.468 20"/>
        <polyline class="cls-4" points="43.4 20 34.434 19.215 25.468 18.431"/>
        <polyline class="cls-4" points="43.294 17.654 34.434 19.215 25.573 20.777"/>
        <polyline class="cls-4" points="43.294 20.777 34.434 19.215 25.573 17.654"/>
        <polyline class="cls-4" points="34.434 10.215 34.434 19.215 34.434 28.215"/>
        <polyline class="cls-4" points="33.649 10.25 34.434 19.215 35.218 28.181"/>
        <polyline class="cls-4" points="35.218 10.25 34.434 19.215 33.649 28.181"/>
        <polyline class="cls-4" points="32.103 10.521 34.434 19.215 36.765 27.909"/>
        <polyline class="cls-4" points="31.354 10.758 34.434 19.215 37.514 27.673"/>
        <polyline class="cls-4" points="37.514 10.758 34.434 19.215 31.354 27.673"/>
        <polyline class="cls-4" points="36.765 10.521 34.434 19.215 32.103 27.909"/>
        <polyline class="cls-4" points="29.934 11.426 34.434 19.215 38.934 27.005"/>
        <polyline class="cls-4" points="32.872 10.355 34.434 19.215 35.995 28.076"/>
        <polyline class="cls-4" points="29.934 11.426 34.434 19.215 38.934 27.005"/>
        <polyline class="cls-4" points="30.63 11.063 34.434 19.215 38.238 27.367"/>
        <polyline class="cls-4" points="38.238 11.063 34.434 19.215 30.63 27.367"/>
        <polyline class="cls-4" points="38.934 11.426 34.434 19.215 29.934 27.005"/>
        <polyline class="cls-4" points="26.644 14.715 34.434 19.215 42.223 23.715"/>
        <polyline class="cls-4" points="28.071 12.852 34.434 19.215 40.797 25.578"/>
        <polyline class="cls-4" points="25.74 16.884 34.434 19.215 43.128 21.546"/>
        <polyline class="cls-4" points="42.889 22.292 34.434 19.215 25.979 16.139"/>
        <polyline class="cls-4" points="26.277 15.41 34.434 19.215 42.591 23.021"/>
        <polyline class="cls-4" points="27.544 13.431 34.434 19.215 41.324 25"/>
        <polyline class="cls-4" points="29.272 11.844 34.434 19.215 39.595 26.587"/>
        <polyline class="cls-4" points="28.653 12.323 34.434 19.215 40.214 26.108"/>
        <polyline class="cls-4" points="29.272 26.587 34.434 19.215 39.595 11.844"/>
        <polyline class="cls-4" points="28.653 26.108 34.434 19.215 40.214 12.323"/>
        <polyline class="cls-4" points="27.061 14.051 34.434 19.215 41.806 24.379"/>
        <polyline class="cls-4" points="27.544 25 34.434 19.215 41.324 13.431"/>
        <polyline class="cls-4" points="27.061 24.379 34.434 19.215 41.806 14.051"/>
        <polyline class="cls-4" points="42.889 16.139 34.434 19.215 25.979 22.292"/>
        <polyline class="cls-4" points="26.277 23.021 34.434 19.215 42.591 15.41"/>
        <polyline class="cls-4" points="35.995 10.355 34.434 19.215 32.872 28.076"/>
        <polyline class="cls-4" points="42.223 14.715 34.434 19.215 26.644 23.715"/>
        <polyline class="cls-4" points="40.797 12.852 34.434 19.215 28.071 25.578"/>
        <polyline class="cls-4" points="43.128 16.884 34.434 19.215 25.74 21.546"/>
      </g>
    </g>
    <g id="elbow">
      <circle class="cls-3" cx="35.994" cy="28.075" r="9"/>
      <g>
        <polyline class="cls-4" points="44.994 28.075 35.994 28.075 26.994 28.075"/>
        <polyline class="cls-4" points="44.96 27.291 35.994 28.075 27.028 28.86"/>
        <polyline class="cls-4" points="44.96 28.86 35.994 28.075 27.028 27.291"/>
        <polyline class="cls-4" points="44.854 26.514 35.994 28.075 27.133 29.637"/>
        <polyline class="cls-4" points="44.854 29.637 35.994 28.075 27.133 26.514"/>
        <polyline class="cls-4" points="35.994 19.075 35.994 28.075 35.994 37.075"/>
        <polyline class="cls-4" points="35.209 19.11 35.994 28.075 36.778 37.041"/>
        <polyline class="cls-4" points="36.778 19.11 35.994 28.075 35.209 37.041"/>
        <polyline class="cls-4" points="33.663 19.381 35.994 28.075 38.325 36.769"/>
        <polyline class="cls-4" points="32.914 19.618 35.994 28.075 39.074 36.533"/>
        <polyline class="cls-4" points="39.074 19.618 35.994 28.075 32.914 36.533"/>
        <polyline class="cls-4" points="38.325 19.381 35.994 28.075 33.663 36.769"/>
        <polyline class="cls-4" points="31.494 20.286 35.994 28.075 40.494 35.865"/>
        <polyline class="cls-4" points="34.432 19.215 35.994 28.075 37.555 36.936"/>
        <polyline class="cls-4" points="31.494 20.286 35.994 28.075 40.494 35.865"/>
        <polyline class="cls-4" points="32.19 19.923 35.994 28.075 39.798 36.227"/>
        <polyline class="cls-4" points="39.798 19.923 35.994 28.075 32.19 36.227"/>
        <polyline class="cls-4" points="40.494 20.286 35.994 28.075 31.494 35.865"/>
        <polyline class="cls-4" points="28.204 23.575 35.994 28.075 43.783 32.575"/>
        <polyline class="cls-4" points="29.631 21.712 35.994 28.075 42.357 34.438"/>
        <polyline class="cls-4" points="27.3 25.744 35.994 28.075 44.688 30.406"/>
        <polyline class="cls-4" points="44.449 31.152 35.994 28.075 27.539 24.999"/>
        <polyline class="cls-4" points="27.837 24.27 35.994 28.075 44.151 31.881"/>
        <polyline class="cls-4" points="29.104 22.291 35.994 28.075 42.884 33.86"/>
        <polyline class="cls-4" points="30.832 20.704 35.994 28.075 41.155 35.447"/>
        <polyline class="cls-4" points="30.213 21.183 35.994 28.075 41.774 34.968"/>
        <polyline class="cls-4" points="30.832 35.447 35.994 28.075 41.155 20.704"/>
        <polyline class="cls-4" points="30.213 34.968 35.994 28.075 41.774 21.183"/>
        <polyline class="cls-4" points="28.621 22.911 35.994 28.075 43.366 33.239"/>
        <polyline class="cls-4" points="29.104 33.86 35.994 28.075 42.884 22.291"/>
        <polyline class="cls-4" points="28.621 33.239 35.994 28.075 43.366 22.911"/>
        <polyline class="cls-4" points="44.449 24.999 35.994 28.075 27.539 31.152"/>
        <polyline class="cls-4" points="27.837 31.881 35.994 28.075 44.151 24.27"/>
        <polyline class="cls-4" points="37.555 19.215 35.994 28.075 34.432 36.936"/>
        <polyline class="cls-4" points="43.783 23.575 35.994 28.075 28.204 32.575"/>
        <polyline class="cls-4" points="42.357 21.712 35.994 28.075 29.631 34.438"/>
        <polyline class="cls-4" points="44.688 25.744 35.994 28.075 27.3 30.406"/>
      </g>
    </g>
  </g>
</svg>