<?xml version="1.0" encoding="UTF-8"?>
<svg id="template-grid" xmlns="http://www.w3.org/2000/svg" viewBox="0 0 64 64">
  <defs>
    <style>
      .cls-1 {
        fill: #652dd8;
      }

      .cls-2 {
        fill: #fff;
      }

      .cls-3 {
        fill: none;
        stroke: #cdbaf2;
        stroke-miterlimit: 10;
        stroke-width: .01px;
      }
    </style>
  </defs>
  <g id="grid">
    <g id="horizontal">
      <line class="cls-3" x1="0" y1="64" x2="64" y2="64"/>
      <line class="cls-3" x1="0" y1="63" x2="64" y2="63"/>
      <line class="cls-3" x1="0" y1="62" x2="64" y2="62"/>
      <line class="cls-3" x1="0" y1="61" x2="64" y2="61"/>
      <line class="cls-3" x1="0" y1="60" x2="64" y2="60"/>
      <line class="cls-3" x1="0" y1="59" x2="64" y2="59"/>
      <line class="cls-3" x1="0" y1="58" x2="64" y2="58"/>
      <line class="cls-3" x1="0" y1="57" x2="64" y2="57"/>
      <line class="cls-3" x1="0" y1="56" x2="64" y2="56"/>
      <line class="cls-3" x1="0" y1="55" x2="64" y2="55"/>
      <line class="cls-3" x1="0" y1="54" x2="64" y2="54"/>
      <line class="cls-3" x1="0" y1="53" x2="64" y2="53"/>
      <line class="cls-3" x1="0" y1="52" x2="64" y2="52"/>
      <line class="cls-3" x1="0" y1="51" x2="64" y2="51"/>
      <line class="cls-3" x1="0" y1="50" x2="64" y2="50"/>
      <line class="cls-3" x1="0" y1="49" x2="64" y2="49"/>
      <line class="cls-3" x1="0" y1="48" x2="64" y2="48"/>
      <line class="cls-3" x1="0" y1="47" x2="64" y2="47"/>
      <line class="cls-3" x1="0" y1="46" x2="64" y2="46"/>
      <line class="cls-3" x1="0" y1="45" x2="64" y2="45"/>
      <line class="cls-3" x1="0" y1="44" x2="64" y2="44"/>
      <line class="cls-3" x1="0" y1="43" x2="64" y2="43"/>
      <line class="cls-3" x1="0" y1="42" x2="64" y2="42"/>
      <line class="cls-3" x1="0" y1="41" x2="64" y2="41"/>
      <line class="cls-3" x1="0" y1="40" x2="64" y2="40"/>
      <line class="cls-3" x1="0" y1="39" x2="64" y2="39"/>
      <line class="cls-3" x1="0" y1="38" x2="64" y2="38"/>
      <line class="cls-3" x1="0" y1="37" x2="64" y2="37"/>
      <line class="cls-3" x1="0" y1="36" x2="64" y2="36"/>
      <line class="cls-3" x1="0" y1="35" x2="64" y2="35"/>
      <line class="cls-3" x1="0" y1="34" x2="64" y2="34"/>
      <line class="cls-3" x1="0" y1="33" x2="64" y2="33"/>
      <line class="cls-3" x1="0" y1="32" x2="64" y2="32"/>
      <line class="cls-3" x1="0" y1="31" x2="64" y2="31"/>
      <line class="cls-3" x1="0" y1="30" x2="64" y2="30"/>
      <line class="cls-3" x1="0" y1="29" x2="64" y2="29"/>
      <line class="cls-3" x1="0" y1="28" x2="64" y2="28"/>
      <line class="cls-3" x1="0" y1="27" x2="64" y2="27"/>
      <line class="cls-3" x1="0" y1="26" x2="64" y2="26"/>
      <line class="cls-3" x1="0" y1="25" x2="64" y2="25"/>
      <line class="cls-3" x1="0" y1="24" x2="64" y2="24"/>
      <line class="cls-3" x1="0" y1="23" x2="64" y2="23"/>
      <line class="cls-3" x1="0" y1="22" x2="64" y2="22"/>
      <line class="cls-3" x1="0" y1="21" x2="64" y2="21"/>
      <line class="cls-3" x1="0" y1="20" x2="64" y2="20"/>
      <line class="cls-3" x1="0" y1="19" x2="64" y2="19"/>
      <line class="cls-3" x1="0" y1="18" x2="64" y2="18"/>
      <line class="cls-3" x1="0" y1="17" x2="64" y2="17"/>
      <line class="cls-3" x1="0" y1="16" x2="64" y2="16"/>
      <line class="cls-3" x1="0" y1="15" x2="64" y2="15"/>
      <line class="cls-3" x1="0" y1="14" x2="64" y2="14"/>
      <line class="cls-3" x1="0" y1="13" x2="64" y2="13"/>
      <line class="cls-3" x1="0" y1="12" x2="64" y2="12"/>
      <line class="cls-3" x1="0" y1="11" x2="64" y2="11"/>
      <line class="cls-3" x1="0" y1="10" x2="64" y2="10"/>
      <line class="cls-3" x1="0" y1="9" x2="64" y2="9"/>
      <line class="cls-3" x1="0" y1="8" x2="64" y2="8"/>
      <line class="cls-3" x1="0" y1="7" x2="64" y2="7"/>
      <line class="cls-3" x1="0" y1="6" x2="64" y2="6"/>
      <line class="cls-3" x1="0" y1="5" x2="64" y2="5"/>
      <line class="cls-3" x1="0" y1="4" x2="64" y2="4"/>
      <line class="cls-3" x1="0" y1="3" x2="64" y2="3"/>
      <line class="cls-3" x1="0" y1="2" x2="64" y2="2"/>
      <line class="cls-3" x1="0" y1="1" x2="64" y2="1"/>
      <line class="cls-3" x1="0" x2="64"/>
    </g>
    <g id="vertical">
      <line class="cls-3" x1="64" x2="64" y2="64"/>
      <line class="cls-3" x1="63" x2="63" y2="64"/>
      <line class="cls-3" x1="62" x2="62" y2="64"/>
      <line class="cls-3" x1="61" x2="61" y2="64"/>
      <line class="cls-3" x1="60" x2="60" y2="64"/>
      <line class="cls-3" x1="59" x2="59" y2="64"/>
      <line class="cls-3" x1="58" x2="58" y2="64"/>
      <line class="cls-3" x1="57" x2="57" y2="64"/>
      <line class="cls-3" x1="56" x2="56" y2="64"/>
      <line class="cls-3" x1="55" x2="55" y2="64"/>
      <line class="cls-3" x1="54" x2="54" y2="64"/>
      <line class="cls-3" x1="53" x2="53" y2="64"/>
      <line class="cls-3" x1="52" x2="52" y2="64"/>
      <line class="cls-3" x1="51" x2="51" y2="64"/>
      <line class="cls-3" x1="50" x2="50" y2="64"/>
      <line class="cls-3" x1="49" x2="49" y2="64"/>
      <line class="cls-3" x1="48" x2="48" y2="64"/>
      <line class="cls-3" x1="47" x2="47" y2="64"/>
      <line class="cls-3" x1="46" x2="46" y2="64"/>
      <line class="cls-3" x1="45" x2="45" y2="64"/>
      <line class="cls-3" x1="44" x2="44" y2="64"/>
      <line class="cls-3" x1="43" x2="43" y2="64"/>
      <line class="cls-3" x1="42" x2="42" y2="64"/>
      <line class="cls-3" x1="41" x2="41" y2="64"/>
      <line class="cls-3" x1="40" x2="40" y2="64"/>
      <line class="cls-3" x1="39" x2="39" y2="64"/>
      <line class="cls-3" x1="38" x2="38" y2="64"/>
      <line class="cls-3" x1="37" x2="37" y2="64"/>
      <line class="cls-3" x1="36" x2="36" y2="64"/>
      <line class="cls-3" x1="35" x2="35" y2="64"/>
      <line class="cls-3" x1="34" x2="34" y2="64"/>
      <line class="cls-3" x1="33" x2="33" y2="64"/>
      <line class="cls-3" x1="32" x2="32" y2="64"/>
      <line class="cls-3" x1="31" x2="31" y2="64"/>
      <line class="cls-3" x1="30" x2="30" y2="64"/>
      <line class="cls-3" x1="29" x2="29" y2="64"/>
      <line class="cls-3" x1="28" x2="28" y2="64"/>
      <line class="cls-3" x1="27" x2="27" y2="64"/>
      <line class="cls-3" x1="26" x2="26" y2="64"/>
      <line class="cls-3" x1="25" x2="25" y2="64"/>
      <line class="cls-3" x1="24" x2="24" y2="64"/>
      <line class="cls-3" x1="23" x2="23" y2="64"/>
      <line class="cls-3" x1="22" x2="22" y2="64"/>
      <line class="cls-3" x1="21" x2="21" y2="64"/>
      <line class="cls-3" x1="20" x2="20" y2="64"/>
      <line class="cls-3" x1="19" x2="19" y2="64"/>
      <line class="cls-3" x1="18" x2="18" y2="64"/>
      <line class="cls-3" x1="17" x2="17" y2="64"/>
      <line class="cls-3" x1="16" x2="16" y2="64"/>
      <line class="cls-3" x1="15" x2="15" y2="64"/>
      <line class="cls-3" x1="14" x2="14" y2="64"/>
      <line class="cls-3" x1="13" x2="13" y2="64"/>
      <line class="cls-3" x1="12" x2="12" y2="64"/>
      <line class="cls-3" x1="11" x2="11" y2="64"/>
      <line class="cls-3" x1="10" x2="10" y2="64"/>
      <line class="cls-3" x1="9" x2="9" y2="64"/>
      <line class="cls-3" x1="8" x2="8" y2="64"/>
      <line class="cls-3" x1="7" x2="7" y2="64"/>
      <line class="cls-3" x1="6" x2="6" y2="64"/>
      <line class="cls-3" x1="5" x2="5" y2="64"/>
      <line class="cls-3" x1="4" x2="4" y2="64"/>
      <line class="cls-3" x1="3" x2="3" y2="64"/>
      <line class="cls-3" x1="2" x2="2" y2="64"/>
      <line class="cls-3" x1="1" x2="1" y2="64"/>
      <line class="cls-3" x1="0" x2="0" y2="64"/>
    </g>
  </g>
  <g id="person">
    <g id="back-leg_knee">
      <polyline class="cls-2" points="32 33 27 41.66 18.34 46.66"/>
      <path d="M35.464,35l-5.866,8.16-.349.485c-.197.274-.463.483-.75.613l-9.16,4.134-2-3.464,8.16-5.866-1.098,1.098,4.134-9.16,6.928,4h0Z"/>
    </g>
    <circle id="back-foot" cx="18.34" cy="46.66" r="2"/>
    <g id="back-arm_elbow">
      <path class="cls-1" d="M35.934,21.813l-8.29,3.634.731-.731-5.366,7.29-1.732-1,3.634-8.29c.122-.329.469-.536.732-.732,0,0,7.29-5.366,7.29-5.366l3.001,5.195h0Z"/>
    </g>
    <circle id="back-hand" class="cls-1" cx="22.144" cy="31.505" r="1"/>
    <circle id="bottom-body" cx="32" cy="33" r="4"/>
    <g id="body">
      <line class="cls-2" x1="34.26" y1="20.2" x2="32" y2="33"/>
      <polygon points="38.199 20.895 35.939 33.695 28.061 32.305 30.321 19.505 38.199 20.895 38.199 20.895"/>
    </g>
    <circle id="top-body" cx="34.26" cy="20.2" r="4"/>
    <g id="front-leg">
      <line class="cls-2" x1="32" y1="33" x2="42" y2="50.31"/>
      <polygon points="35.031 31.249 43.732 49.31 40.268 51.31 28.969 34.751 35.031 31.249 35.031 31.249"/>
    </g>
    <circle id="front-foot" cx="42" cy="50.31" r="2"/>
    <g id="front-arm_elbow">
      <path class="cls-1" d="M37.388,18.695l.575,9.033-.969-1.385,7.29,5.366-1,1.732-8.29-3.634c-.597-.242-.839-.818-.969-1.385,0,0-2.545-8.686-2.545-8.686l5.909-1.04h0Z"/>
    </g>
    <circle id="front-hand" class="cls-1" cx="43.784" cy="32.575" r="1"/>
    <circle id="shoulder" class="cls-1" cx="34.434" cy="19.215" r="3"/>
    <circle id="head" cx="37.569" cy="12.231" r="3.5"/>
  </g>
</svg>