<svg xmlns="http://www.w3.org/2000/svg" width="0" height="0"><defs><symbol id="ballsports" fill="none" viewBox="0 0 64 64"><path fill="#000" d="M19.34 49.91c-1.24 0-2.25-1.01-2.25-2.25 0-.765.4-1.482 1.051-1.895l7.267-5.227 4.014-8.894 7.407 4.276-6.376 8.869a2.14 2.14 0 0 1-.85.694l-9.25 4.175q-.483.25-1.013.25z"/><path fill="#fff" d="m29.536 32 6.928 4-5.866 8.16-.349.485a1.9 1.9 0 0 1-.75.613l-9.16 4.134-.004-.007a2 2 0 0 1-.996.275 1.993 1.993 0 0 1-.996-3.725l-.004-.007 7.268-5.225zm-.228-.709-.227.504-3.873 8.581-7.16 5.147-.092.066a2 2 0 0 0-.139.1l-.146.105.006.011a2.5 2.5 0 0 0-.837 1.856c0 1.379 1.122 2.5 2.5 2.5q.4 0 .778-.129l.005-.002a2.5 2.5 0 0 0 .357-.154l.064-.028 9.16-4.134c.381-.173.709-.442.95-.777l.348-.485 5.866-8.16.323-.449-.479-.276-6.928-4-.479-.276z"/><path fill="#000" d="M23.144 33.756c-.689 0-1.25-.561-1.25-1.25q0-.249.119-.5l.036-.102 3.634-8.29c.124-.338.439-.563.692-.745l7.635-5.618 3.28 5.68-8.199 3.594-5.013 6.809-.012-.006a1.22 1.22 0 0 1-.923.429z"/><path fill="#fff" d="m33.933 17.618 3.001 5.195-8.005 3.509-4.919 6.683-.014-.008a.99.99 0 0 1-.852.508 1 1 0 0 1-1-1c0-.183.062-.345.148-.492l-.014-.008 3.634-8.29c.122-.329.469-.536.731-.732zm.153-.734-.45.331-7.29 5.366-.117.085c-.281.201-.63.452-.787.875l-3.624 8.263-.181.414.033.019a1.3 1.3 0 0 0-.028.269c0 .827.673 1.5 1.5 1.5.362 0 .702-.133.968-.368l.024.014.277-.349 4.84-6.575 7.883-3.455.512-.224-.279-.484-3.001-5.195-.28-.484z"/><path fill="#000" d="M38.569 16.981a3.75 3.75 0 1 0 0-7.5 3.75 3.75 0 0 0 0 7.5"/><path fill="#fff" d="M38.568 9.731a3.5 3.5 0 1 1 0 7 3.5 3.5 0 0 1 0-7m0-.5c-2.206 0-4 1.794-4 4s1.794 4 4 4 4-1.794 4-4-1.794-4-4-4"/><path fill="#000" d="M30 55.75a3.75 3.75 0 1 0 0-7.5 3.75 3.75 0 0 0 0 7.5"/><path fill="#fff" d="M30 48.5a3.5 3.5 0 1 1 0 7 3.5 3.5 0 0 1 0-7m0-.5c-2.206 0-4 1.794-4 4s1.794 4 4 4 4-1.794 4-4-1.794-4-4-4"/><path fill="#000" d="M43 53.56a2.26 2.26 0 0 1-1.896-1.053L29.658 36.598a4 4 0 0 1-.257-.358l-.233-.325.044-.022a4.14 4.14 0 0 1-.461-1.892q.002-.241.032-.475h-.006l.038-.265 2.301-13.03.015.002a4.235 4.235 0 0 1 4.13-3.282 4.254 4.254 0 0 1 4.25 4.25c0 .17-.015.337-.037.5h.005l-.033.238-2.037 11.544 7.598 16.825c.162.318.244.655.244 1.002 0 1.24-1.011 2.25-2.251 2.25"/><path fill="#fff" d="M35.26 17.2a4 4 0 0 1 4 4c0 .238-.03.468-.07.694l.009.002-2.052 11.619 7.584 16.795-.007.004c.17.294.275.632.275.996a2 2 0 0 1-2 2 1.99 1.99 0 0 1-1.725-1.004l-.007.004L29.86 36.452a4 4 0 0 1-.248-.345l-.076-.106.014-.008A3.96 3.96 0 0 1 28.999 34c0-.238.03-.468.07-.694l-.009-.002 2.26-12.8.009.002A3.994 3.994 0 0 1 35.26 17.2m0-.5a4.48 4.48 0 0 0-4.309 3.234l-.026-.005-.096.488-2.26 12.8-.087.49.03.005a4 4 0 0 0-.012.287c0 .619.131 1.222.39 1.799l-.066.038.306.455.076.106c.067.11.162.236.26.361L40.862 52.6l.065.091q.05.073.103.142l.092.129.009-.005c.47.534 1.15.851 1.868.851 1.378 0 2.5-1.122 2.5-2.5a2.44 2.44 0 0 0-.284-1.14l-.029-.067-7.521-16.655 2.025-11.467.087-.495-.03-.005q.01-.136.011-.282c0-2.481-2.019-4.5-4.5-4.5z"/><path fill="#000" d="M44.784 34.825q-.244 0-.495-.117l-.105-.038-8.29-3.634c-.744-.302-.992-1.034-1.112-1.558l-2.361-8.057a3.3 3.3 0 0 1-.176-.604l-.048-.258.011-.003a3 3 0 0 1-.022-.342 3.254 3.254 0 0 1 3.25-3.25 3.24 3.24 0 0 1 3.143 2.45l.037-.006.036.456c.022.168.034.257.034.35l.477 7.677 6.45 4.748-.006.012c.271.234.429.565.429.923 0 .689-.561 1.25-1.25 1.25z"/><path fill="#fff" d="M35.434 17.215a2.996 2.996 0 0 1 2.948 2.481h.007l.012.185c.012.111.033.219.033.334 0 .026-.007.05-.007.075l.492 7.733 6.366 4.685-.008.014a.99.99 0 0 1 .508.852 1 1 0 0 1-1 1 .97.97 0 0 1-.492-.148l-.008.014-8.29-3.634c-.597-.242-.839-.818-.97-1.385l-2.364-8.071a3 3 0 0 1-.17-.58l-.01-.036h.007a3 3 0 0 1-.053-.52 3 3 0 0 1 3-3m-.001-.499c-1.93 0-3.5 1.57-3.5 3.5q0 .056.002.109l-.084.015.147.535c.042.218.106.437.188.641l2.357 8.047c.069.305.302 1.319 1.262 1.708l8.277 3.629.415.182.019-.033q.132.027.267.027c.827 0 1.5-.673 1.5-1.5 0-.359-.13-.695-.361-.96l.016-.026-.357-.283-6.178-4.547-.475-7.458.006-.086c0-.103-.012-.203-.025-.302l-.011-.086-.01-.165-.037-.558-.098.018a3.49 3.49 0 0 0-3.319-2.407z"/></symbol><symbol id="cooking" fill="none" viewBox="0 0 64 64"><path fill="#000" d="M33 38.5c-.689 0-1.25-.561-1.25-1.25v-2h-.25c-.965 0-1.75-.785-1.75-1.75s.785-1.75 1.75-1.75h.25V30.5h7.191l-.154-.154.354-.354-4.427-4.427 1.061-1.061 4.427 4.427.354-.354 1.768 1.768-.154.154h2.082v1.25h.25c.965 0 1.75.785 1.75 1.75s-.785 1.75-1.75 1.75h-.25v2c0 .689-.561 1.25-1.25 1.25h-10zm11.5-4.75a.25.25 0 0 0 0-.5h-.25v.5zm-13-.5a.25.25 0 0 0 0 .5h.25v-.5z"/><path fill="#fff" d="m35.774 24.858 4.427 4.427.354-.354 1.414 1.414-.404.404h2.436v1.25h.5a1.5 1.5 0 1 1 0 3h-.5v2.25a1 1 0 0 1-1 1h-10a1 1 0 0 1-1-1v-2.25h-.5a1.5 1.5 0 0 1 0-3h.5v-1.25h7.544l-.404-.404.354-.354-4.427-4.427zM44 34h.5a.5.5 0 0 0 0-1H44zm-12.5 0h.5v-1h-.5a.5.5 0 0 0 0 1m4.274-9.849-.354.354-.707.707-.354.354.354.354 4.073 4.073-.257.258H31.5v1.25c-1.103 0-2 .897-2 2s.897 2 2 2v1.75c0 .827.673 1.5 1.5 1.5h10c.827 0 1.5-.673 1.5-1.5v-1.75c1.103 0 2-.897 2-2s-.897-2-2-2v-1.25h-1.92l-.258-.258-1.414-1.414-.354-.354-.354.354-4.073-4.073-.354-.354z"/><path fill="#000" d="M29.75 45.25V40c0-.689.561-1.25 1.25-1.25h15.25v6.5z"/><path fill="#fff" d="M46 39v6H30v-5a1 1 0 0 1 1-1zm.5-.5H31c-.827 0-1.5.673-1.5 1.5v5.5h17z"/><path fill="#000" d="M21 58.25c-1.24 0-2.25-1.01-2.25-2.25l-1.999-19.976V23A4.253 4.253 0 0 1 21 18.75 4.254 4.254 0 0 1 25.25 23v13l-2.001 20.023c0 1.217-1.009 2.227-2.249 2.227"/><path fill="#fff" d="M21 19a4 4 0 0 1 4 4v13l-2 19.999a2 2 0 0 1-4 0l-2-20v-13A4 4 0 0 1 21 19m0-.5a4.505 4.505 0 0 0-4.5 4.5v13l2.002 20.05C18.5 57.379 19.621 58.5 21 58.5s2.5-1.122 2.5-2.5l1.997-19.95.002-13.049A4.504 4.504 0 0 0 21 18.5"/><path fill="#000" d="M20.998 18.248a3.755 3.755 0 0 1-3.75-3.75c0-.383.055-.745.163-1.077l.056-.173h7.063l.056.174q.161.504.162 1.076a3.755 3.755 0 0 1-3.75 3.75"/><path fill="#fff" d="M24.348 13.498a3.49 3.49 0 0 1-3.35 4.5c-1.93 0-3.5-1.56-3.5-3.5 0-.35.05-.69.15-1zm.364-.5h-7.428l-.112.346a3.7 3.7 0 0 0-.174 1.154c0 2.206 1.794 4 4 4s4-1.794 4-4c0-.407-.059-.795-.174-1.153z"/><path fill="#000" d="M17.248 13.248V7.647c0-1.24 1.01-2.25 2.25-2.25q.293 0 .616.089l.405.122c.14.038.308.06.479.06.176 0 .334-.021.483-.062l.394-.118c.239-.062.438-.091.633-.091 1.235 0 2.24 1.01 2.24 2.25v5.601z"/><path fill="#fff" d="M22.507 5.648c1.06 0 1.99.87 1.99 2v5.35h-7v-5.35c0-1.13.93-2 2-2 .18 0 .37.03.55.08l.4.12c.18.05.37.07.55.07.19 0 .37-.02.55-.07l.4-.12c.19-.05.37-.08.56-.08m0-.5c-.219 0-.438.031-.688.097l-.416.125a1.5 1.5 0 0 1-.406.049c-.15 0-.294-.018-.416-.052l-.39-.117a2.6 2.6 0 0 0-.694-.101 2.503 2.503 0 0 0-2.5 2.5v5.85h8v-5.85c0-1.379-1.117-2.5-2.49-2.5z"/><path fill="#000" d="M28.229 29.422c-.257 0-.512-.065-.737-.188l-7.761-4.243a3.2 3.2 0 0 1-.573-.315l-.203-.14.005-.011a3.25 3.25 0 0 1-1.21-2.524 3.254 3.254 0 0 1 3.25-3.25c.587 0 1.155.158 1.659.46l.021-.029.309.264c.12.094.248.2.363.322l5.969 5.251 8.082.898c.66 0 1.22.56 1.22 1.248s-.561 1.25-1.25 1.25l-8.973.998a1.4 1.4 0 0 1-.171.009"/><path fill="#fff" d="M21 19c.64 0 1.231.204 1.719.546l.002-.004.103.09c.122.095.24.193.347.305l6.044 5.319 8.157.906a1 1 0 0 1 0 2l-9 1a1.3 1.3 0 0 1-.76-.15l-.387-.212-7.374-4.032a3 3 0 0 1-.552-.302l-.02-.011.002-.004A3 3 0 0 1 18 21.997a3 3 0 0 1 3-3m0-.497c-1.93 0-3.5 1.57-3.5 3.5a3.5 3.5 0 0 0 1.111 2.552l-.052.077.48.268c.174.12.381.234.595.325l7.351 4.02.387.212a1.8 1.8 0 0 0 1.055.208l8.975-.997a1.501 1.501 0 0 0 0-3l-7.976-.886-5.926-5.215a3 3 0 0 0-.371-.326l-.078-.07-.426-.374-.056.082a3.46 3.46 0 0 0-1.57-.375z"/></symbol><symbol id="craft" fill="none" viewBox="0 0 64 64"><path fill="#000" d="m30.81 35.994-.586-.111-5.925-1.121.819-9.364-.02-.002c.01-.116.035-.228.035-.347a4 4 0 0 0-4-4c-2.09 0-3.787 1.609-3.965 3.653l-.02-.002-1.133 12.951.02.002c-.01.116-.035.228-.035.347 0 2.09 1.609 3.786 3.653 3.965l-.002.02.176-.002c.059.003.114.017.173.017.076 0 .147-.018.222-.022l7.042-.087.698 6.981a2 2 0 0 0 4 0l1-10a2.67 2.67 0 0 0-2.152-2.878m-7.08-15.661a3.5 3.5 0 1 0 0-7 3.5 3.5 0 0 0 0 7"/><path fill="#000" d="M28.53 31.496c-.282 0-.562-.071-.812-.207l-7.766-4.246a3 3 0 0 1-.574-.315l-.211-.116.017-.031a3.25 3.25 0 0 1-1.213-2.526 3.254 3.254 0 0 1 3.25-3.25c.571 0 1.125.15 1.619.436l.021-.043.348.302c.12.092.249.2.364.322l5.803 5.104 7.977-.509a.5.5 0 0 1 .101-.011c.689 0 1.25.561 1.25 1.25 0 .536-.353 1.002-.859 1.168l-.146.058-8.687 2.546a1.7 1.7 0 0 1-.48.069z"/><path fill="#fff" d="M21.22 21.053c.641 0 1.231.204 1.719.546l.002-.004.102.09c.123.095.241.194.348.306l5.897 5.189 7.992-.51.003.019c.057-.01.11-.034.17-.034a1 1 0 0 1 1 1 .99.99 0 0 1-.83.966l.003.019-8.687 2.546a1.45 1.45 0 0 1-1.104-.118l-.391-.214-7.374-4.032a3 3 0 0 1-.552-.302l-.021-.011.002-.004a3 3 0 0 1-1.281-2.454 3 3 0 0 1 3-3m.002-.498c-1.93 0-3.5 1.57-3.5 3.5a3.5 3.5 0 0 0 1.111 2.552l-.053.078.481.267c.173.12.38.234.594.325l7.351 4.02.392.214a1.96 1.96 0 0 0 1.483.159l8.687-2.546.43-.126-.009-.05c.462-.257.764-.743.764-1.288 0-.743-.543-1.362-1.254-1.48l-.002-.013-.082.002a1 1 0 0 0-.161-.009 1 1 0 0 0-.15.015h-.055l-7.785.498-5.741-5.052a3 3 0 0 0-.373-.327l-.077-.069-.423-.372-.056.081a3.46 3.46 0 0 0-1.573-.377z"/><path fill="#000" d="M43 32H28a1 1 0 0 0 0 2h6.5v17h2V34H43a1 1 0 0 0 0-2M25 43H15a1 1 0 0 0 0 2v6h2v-6h6v6h2v-6a1 1 0 0 0 0-2m19.847-26.002.29-2.02c.07.01.14.02.21.02.82 0 1.5-.67 1.5-1.5s-.68-1.5-1.5-1.5c-.83 0-1.5.67-1.5 1.5v2.5l-1.77-1.77c-.29-.29-.68-.43-1.06-.43-.39 0-.77.14-1.06.43a1.503 1.503 0 1 0 2.26 1.97l1.63 1.22v6.58l.85-5.94 4.8 3.6zm.5-4c.27 0 .5.23.5.5 0 .28-.23.5-.5.5-.02 0-.05 0-.07-.01a.48.48 0 0 1-.43-.49c0-.27.22-.5.5-.5m-3.94 2.59a.2.2 0 0 1-.04.06c-.13.13-.28.15-.35.15-.08 0-.23-.02-.36-.15a.53.53 0 0 1-.14-.35c0-.08.02-.23.14-.36.13-.13.28-.14.36-.14.07 0 .22.01.35.14.18.18.2.46.04.65M34.5 15c0-1-.5-3-1.25-3 0 1.966-.75 2-.75 3 0 .366.207.673.5.847V22h1v-6.153a.99.99 0 0 0 .5-.847m3-3-.5 2v8h1v-8zm-.148 1.005h.296l.224.895h-.744z"/></symbol><symbol id="eating-biscuit" fill="none" viewBox="0 0 64 64"><path fill="#000" d="M32 20.001A4 4 0 1 0 24 20v13l2 20a2 2 0 0 0 4 0l2-20zm5.61-4.56a1.497 1.497 0 0 1-2.121 0 1.48 1.48 0 0 1-.424-1.216.996.996 0 0 0 1.33-1.33c.431-.05.884.092 1.216.424.587.587.58 1.541 0 2.121z"/><path fill="#000" d="M28 37a4 4 0 1 0 0-8 4 4 0 0 0 0 8m1.874-21.918a3.5 3.5 0 1 0 0-7 3.5 3.5 0 0 0 0 7"/><path fill="#000" d="M35.9 25.8c-.435 0-.864-.123-1.242-.355l-7.766-3.4a3 3 0 0 1-.371-.164l-.37-.164.022-.043a3.25 3.25 0 0 1-1.424-2.673 3.254 3.254 0 0 1 3.25-3.25c.48 0 .948.109 1.394.326l.019-.034.236.159c.183.12.298.21.412.303l4.707 3.465 2.238-5.727.015.005a1.22 1.22 0 0 1 1.101-.691c.689 0 1.25.561 1.25 1.25a1 1 0 0 1-.045.265l.008.033-1.365 8.952c-.163 1.027-1.014 1.744-2.068 1.744z"/><path fill="#fff" d="M38.121 13.806a1 1 0 0 1 1 1c0 .09-.029.171-.052.254l.017.005-1.365 8.953c-.156.984-.958 1.532-1.821 1.532a2.1 2.1 0 0 1-1.111-.319l-7.796-3.418a3 3 0 0 1-.357-.157l-.136-.06.006-.011a2.99 2.99 0 0 1-1.505-2.587 3 3 0 0 1 3-3c.547 0 1.053.157 1.494.413l.006-.011.073.054q.172.11.328.241l4.979 3.666 2.273-5.816.017.005a.99.99 0 0 1 .949-.746m.001-.498c-.496 0-.95.255-1.222.656l-.033-.009-.177.411-2.036 5.209-4.455-3.279c-.1-.084-.225-.18-.361-.264l-.04-.032-.447-.329-.052.089a3.4 3.4 0 0 0-1.299-.26c-1.93 0-3.5 1.57-3.5 3.5 0 1.071.505 2.082 1.344 2.741l-.046.081.5.233.136.06c.107.056.245.118.389.169l3.708 1.627c2.688 1.178 3.635 1.594 3.998 1.74l-.003.006a2.6 2.6 0 0 0 1.373.393c1.18 0 2.132-.803 2.315-1.954l1.366-8.956.067-.442-.032-.009a1.5 1.5 0 0 0-1.496-1.383z"/></symbol><symbol id="eating" fill="none" viewBox="0 0 64 64"><path fill="#000" d="M26.73 20.583a3.75 3.75 0 1 0 0-7.5 3.75 3.75 0 0 0 0 7.5"/><path fill="#fff" d="M26.73 13.333a3.5 3.5 0 1 1 0 7 3.5 3.5 0 0 1 0-7m0-.5c-2.206 0-4 1.794-4 4s1.794 4 4 4 4-1.794 4-4-1.794-4-4-4"/><path fill="#000" d="M32.963 51.122c-1.24 0-2.25-1.01-2.25-2.25l-.675-6.729-6.813.084c-.118.016-.17.022-.225.022l-.131-.012-.214-.004-.266.003.002-.051a4.215 4.215 0 0 1-3.642-4.187q.001-.102.016-.2v-.17l1.154-13.19h.026a4.214 4.214 0 0 1 4.187-3.64 4.254 4.254 0 0 1 4.25 4.25q0 .099-.015.195v.175l-.801 9.139 6.29 1.189c1.464.277 2.498 1.66 2.354 3.148l-1 10c0 1.216-1.009 2.226-2.249 2.226z"/><path fill="#fff" d="M24.133 21.049a4 4 0 0 1 4 4c0 .119-.025.231-.035.347l.02.002-.819 9.364 5.925 1.121.587.111a2.67 2.67 0 0 1 2.152 2.878l-1 10a2 2 0 0 1-4 0l-.698-6.981-7.042.087c-.075.004-.146.022-.221.022-.059 0-.115-.015-.173-.017l-.176.002.002-.02c-2.044-.179-3.653-1.875-3.653-3.965 0-.119.025-.231.035-.347l-.02-.002L20.15 24.7l.02.002c.178-2.044 1.875-3.653 3.965-3.653m-.002-.5a4.46 4.46 0 0 0-4.393 3.614l-.027-.002-.063.496-1.133 12.951-.044.499.028.002a4.46 4.46 0 0 0 3.613 4.284l-.007.079.551.013.176-.002q.083.017.167.018.098-.001.195-.016l.054-.007 6.563-.081.653 6.525c-.002 1.329 1.119 2.451 2.498 2.451s2.5-1.122 2.5-2.5l.998-9.95c.156-1.617-.967-3.118-2.557-3.419l-.587-.111-5.48-1.036.78-8.913.044-.499-.028-.002a4.506 4.506 0 0 0-4.499-4.391z"/><path fill="#000" d="M37.25 51.25v-17H31c-.689 0-1.25-.561-1.25-1.25s.561-1.25 1.25-1.25h15c.689 0 1.25.561 1.25 1.25s-.561 1.25-1.25 1.25h-6.25v17z"/><path fill="#fff" d="M46 32a1 1 0 0 1 0 2h-6.5v17h-2V34H31a1 1 0 0 1 0-2zm0-.5H31c-.827 0-1.5.673-1.5 1.5s.673 1.5 1.5 1.5h6v17h3v-17h6c.827 0 1.5-.673 1.5-1.5s-.673-1.5-1.5-1.5"/><path fill="#000" d="M25.75 51.25v-6h-5.5v6h-2.5v-6.025c-.57-.116-1-.621-1-1.225 0-.689.561-1.25 1.25-1.25h10c.689 0 1.25.561 1.25 1.25 0 .604-.43 1.108-1 1.225v6.025z"/><path fill="#fff" d="M28 43a1 1 0 0 1 0 2v6h-2v-6h-6v6h-2v-6a1 1 0 0 1 0-2zm0-.5H18c-.827 0-1.5.673-1.5 1.5 0 .652.418 1.208 1 1.414V51.5h3v-6h5v6h3v-6.086c.582-.206 1-.762 1-1.414 0-.827-.673-1.5-1.5-1.5"/><path fill="#000" d="M35.472 31.25c-.348 0-.695-.082-1.006-.237l-.717-.358v-.904h6.5v.904l-.715.358c-.312.155-.66.237-1.007.237z"/><path fill="#fff" d="M40 30v.5l-.578.289a2 2 0 0 1-.894.211h-3.056c-.31 0-.617-.072-.894-.211L34 30.5V30zm.5-.5h-7v1.309l.276.138.578.289c.345.173.732.264 1.118.264h3.056c.386 0 .773-.091 1.118-.264l.578-.289.276-.138z"/><path fill="#000" d="M42 31.25c-.689 0-1.25-.561-1.25-1.25v-2.25h2.5V30c0 .689-.561 1.25-1.25 1.25"/><path fill="#fff" d="M43 28v2a1 1 0 0 1-2 0v-2zm.5-.5h-3V30c0 .827.673 1.5 1.5 1.5s1.5-.673 1.5-1.5z"/><path fill="#000" d="M30.897 22.065c-.689 0-1.25-.561-1.25-1.25v-.75h2.5v.25h4.499v1.5h-5.019c-.22.164-.471.25-.73.25"/><path fill="#fff" d="M31.897 20.315v.25h4.5v1h-4.856a1 1 0 0 1-.644.25 1 1 0 0 1-1-1v-.5zm.5-.5h-3v1c0 .827.673 1.5 1.5 1.5.288 0 .564-.086.81-.25h5.189v-2h-4.5z"/><path fill="#000" d="M31.698 31.539q-.336 0-.657-.108c-.142-.034-.337-.146-.51-.243-.072-.042-7.579-4.145-7.579-4.145a3 3 0 0 1-.575-.316l-.21-.115.016-.032a3.25 3.25 0 0 1-1.212-2.525 3.254 3.254 0 0 1 3.25-3.25c.571 0 1.125.15 1.619.436l.021-.043.35.304c.119.091.247.198.361.319l4.497 3.956 3.327-5.459.005.002a1.23 1.23 0 0 1 .995-.503c.689 0 1.25.561 1.25 1.25q0 .231-.095.462l-2.909 8.615a2.05 2.05 0 0 1-1.944 1.396z"/><path fill="#fff" d="M35.397 20.065a1 1 0 0 1 1 1 1 1 0 0 1-.099.42l.006.003-2.898 8.575a1.804 1.804 0 0 1-2.285 1.131c-.192-.047-.498-.252-.675-.338l-7.374-4.032a3 3 0 0 1-.552-.302l-.02-.011.002-.004a3 3 0 0 1-1.281-2.454 3 3 0 0 1 3-3c.641 0 1.231.204 1.719.546l.002-.004.104.091c.122.094.24.193.346.304l4.737 4.169 3.363-5.518.006.003c.16-.34.5-.58.901-.58m-.002-.499c-.403 0-.784.167-1.062.449l-.031-.015-.136.217a2 2 0 0 0-.07.111l-.035.055-3.053 5.009-4.29-3.775a3 3 0 0 0-.371-.325l-.079-.071-.426-.375-.056.083a3.46 3.46 0 0 0-1.57-.375c-1.93 0-3.5 1.57-3.5 3.5a3.5 3.5 0 0 0 1.108 2.549l-.053.077.482.268q.287.194.597.327l7.351 4.019c.072.036.134.071.201.11.187.107.399.227.595.276a2.3 2.3 0 0 0 2.877-1.456l2.898-8.575.021-.064q.022-.059.04-.117l.081-.24-.03-.014q.008-.074.008-.148c0-.827-.673-1.5-1.5-1.5z"/></symbol><symbol id="kayaking" fill="none" viewBox="0 0 64 64"><path fill="#000" d="M20.745 36.879 21.92 23.44h.026a4.214 4.214 0 0 1 4.187-3.64 4.254 4.254 0 0 1 4.25 4.25q0 .099-.015.195v.175l-1.155 13.199z"/><path fill="#fff" d="M26.133 20.049a4 4 0 0 1 4 4c0 .119-.025.231-.035.347l.02.002-1.133 12.951-7.969-.697 1.133-12.951.02.002c.178-2.044 1.875-3.653 3.965-3.653m-.001-.501a4.46 4.46 0 0 0-4.393 3.614l-.027-.002-.063.496-1.133 12.951-.044.498.498.044 7.969.697.498.044.043-.498 1.133-12.951.044-.499-.028-.002a4.506 4.506 0 0 0-4.499-4.391z"/><path fill="#000" d="M28.73 19.583a3.75 3.75 0 1 0 0-7.5 3.75 3.75 0 0 0 0 7.5"/><path fill="#fff" d="M28.73 12.333a3.5 3.5 0 1 1 0 7 3.5 3.5 0 0 1 0-7m0-.5c-2.206 0-4 1.794-4 4s1.794 4 4 4 4-1.794 4-4-1.794-4-4-4"/><path fill="#000" d="m25.405 26.239 1.139-6.459 8.915 2.613 8.738.199c.618.074 1.1.603 1.1 1.241 0 .605-.435 1.109-1.027 1.216l-.087.021-8.902 1.786-.084.006z"/><path fill="#fff" d="m26.741 20.099 8.648 2.535 8.571.201v.017c.031-.003.057-.017.087-.017a1 1 0 0 1 1 1 .99.99 0 0 1-.914.983v.01l-8.878 1.781a.3.3 0 0 1-.061.006h-.018l-.442-.028-9.034-.577 1.041-5.909m-.396-.639-.097.55-1.041 5.909-.097.55.558.036 9.034.577.442.028h.034a1 1 0 0 0 .176-.015l8.878-1.78.444-.089-.004-.042c.522-.235.875-.752.875-1.352 0-.697-.478-1.285-1.124-1.452l-.002-.02-.129-.008a1.5 1.5 0 0 0-.245-.02h-.076l-8.505-.199-8.584-2.516z"/><path fill="#000" d="M17.872 43.25a8.2 8.2 0 0 1-5.833-2.416l-7.45-7.45a1.23 1.23 0 0 1-.273-1.359 1.24 1.24 0 0 1 1.363-.758l6.31 1.052a32 32 0 0 0 5.22.433h28.703a32 32 0 0 0 5.22-.433l6.31-1.052q.11-.018.218-.018c.499 0 .948.305 1.145.776a1.23 1.23 0 0 1-.272 1.359l-7.451 7.45a8.2 8.2 0 0 1-5.833 2.416z"/><path fill="#fff" d="M5.459 31.498q.085 0 .177.015l6.31 1.052c1.739.29 3.498.435 5.261.435H45.91c1.763 0 3.522-.146 5.261-.435l6.31-1.052q.092-.015.177-.015c.853 0 1.339 1.064.694 1.708l-7.45 7.45a8 8 0 0 1-5.657 2.343H17.872a8 8 0 0 1-5.657-2.343l-7.45-7.45c-.645-.645-.16-1.708.694-1.708m52.198-.5q-.126 0-.259.022l-6.31 1.052a31.7 31.7 0 0 1-5.179.429H17.206c-1.73 0-3.472-.144-5.178-.429l-6.31-1.052a1.49 1.49 0 0 0-1.634.909 1.47 1.47 0 0 0 .327 1.631l7.45 7.45a8.45 8.45 0 0 0 6.01 2.49h27.373a8.44 8.44 0 0 0 6.01-2.49l7.45-7.45a1.475 1.475 0 0 0 .327-1.631 1.49 1.49 0 0 0-1.375-.931z"/><path fill="#000" d="M31.859 49.292c-.393 0-.781-.104-1.123-.301l-1.732-1a2.255 2.255 0 0 1-.824-3.074l1.105-1.913c.269-.465.587-.909.945-1.319l2.309-2.629a1.25 1.25 0 0 1 1.564-.258l.372.215 11.748-20.347-.372-.216a1.25 1.25 0 0 1-.559-1.482l1.122-3.313c.175-.517.4-1.014.67-1.479l1.103-1.913a2.26 2.26 0 0 1 1.951-1.126c.393 0 .781.104 1.123.302l1.732 1a2.255 2.255 0 0 1 .824 3.074l-1.105 1.913c-.27.467-.588.91-.944 1.318l-2.31 2.629a1.25 1.25 0 0 1-1.564.259l-.373-.216-11.747 20.347.373.215c.515.297.749.921.558 1.484l-1.122 3.313a8.3 8.3 0 0 1-.668 1.479l-1.104 1.913a2.26 2.26 0 0 1-1.951 1.125z"/><path fill="#fff" d="M50.139 9.387c.339 0 .683.086.998.268l1.732 1a2 2 0 0 1 .732 2.732L52.496 15.3c-.263.455-.57.884-.917 1.279l-2.309 2.629a1 1 0 0 1-1.252.206l-.589-.34-11.998 20.78.59.34a1 1 0 0 1 .447 1.187l-1.123 3.314a8 8 0 0 1-.649 1.433l-1.105 1.913a2 2 0 0 1-2.732.732l-1.732-1a2 2 0 0 1-.732-2.732l1.105-1.913c.263-.455.57-.884.917-1.279l2.308-2.629a1 1 0 0 1 1.252-.206l.909.525-.32-.185 11.998-20.78-.589-.34a1 1 0 0 1-.447-1.187l1.123-3.314A8 8 0 0 1 47.3 12.3l1.104-1.913a2 2 0 0 1 1.735-1m0-.5a2.51 2.51 0 0 0-2.167 1.25l-1.105 1.914a8.5 8.5 0 0 0-.689 1.523l-1.123 3.313a1.5 1.5 0 0 0 .671 1.78l.156.09-11.498 19.914-.156-.09a1.5 1.5 0 0 0-1.878.309l-2.308 2.629a8.6 8.6 0 0 0-.974 1.358l-1.105 1.914a2.5 2.5 0 0 0-.25 1.897 2.5 2.5 0 0 0 1.165 1.518l1.732 1c.38.219.812.335 1.248.335.892 0 1.722-.479 2.167-1.25l1.105-1.913c.279-.484.511-.996.689-1.523l1.123-3.313a1.5 1.5 0 0 0-.671-1.78l-.156-.09 11.498-19.914.156.09a1.5 1.5 0 0 0 1.878-.309l2.309-2.629c.368-.419.696-.876.974-1.359l1.105-1.913a2.503 2.503 0 0 0-.915-3.415l-1.732-1a2.5 2.5 0 0 0-1.248-.335z"/><path fill="#000" d="M32.998 31.108c-.335 0-.66-.098-.94-.284l-7.473-4.978a3 3 0 0 1-.335-.224l-.352-.233.041-.041a3.22 3.22 0 0 1-.969-2.295 3.254 3.254 0 0 1 3.25-3.25c.679 0 1.323.212 1.881.615l.024-.029.204.193.079.083c.092.081.187.184.277.291l5.403 5.666 7.944.185.042-.005c.689 0 1.25.561 1.25 1.25 0 .596-.419 1.093-.997 1.211l-.117.031-8.878 1.78a2 2 0 0 1-.336.033z"/><path fill="#fff" d="M26.22 20.053c.735 0 1.399.274 1.92.713l.009-.01.079.083q.142.131.268.281l5.484 5.75 8.009.187v.013c.031-.003.057-.017.087-.017a1 1 0 0 1 1 1 .99.99 0 0 1-.914.983v.014l-8.877 1.781a1.46 1.46 0 0 1-1.09-.213l-.371-.247-7.101-4.73a3 3 0 0 1-.321-.214l-.111-.074.009-.01a2.98 2.98 0 0 1-1.08-2.287 3 3 0 0 1 3-3m0-.503c-1.93 0-3.5 1.57-3.5 3.5 0 .859.322 1.682.897 2.321l-.06.071.456.321.111.074c.093.072.217.154.347.23l7.074 4.714.371.247a1.95 1.95 0 0 0 1.465.288l8.879-1.781.44-.088-.004-.045c.524-.234.879-.753.879-1.353 0-.698-.479-1.286-1.126-1.453l-.002-.019-.117-.006a1.5 1.5 0 0 0-.255-.022h-.071l-.015.004-7.791-.182-5.341-5.6a3 3 0 0 0-.293-.306l-.053-.058-.385-.404-.068.081a3.4 3.4 0 0 0-1.838-.534"/></symbol><symbol id="kubb" fill="none" viewBox="0 0 64 64"><path fill="#000" d="m32.904 22.045-8.576-1.711.002-.013a1.23 1.23 0 0 1-.883-1.182c0-.689.561-1.25 1.25-1.25h.034l.025.006 9.105-.215.11.016 9.501 2.308-2.242 6.163z"/><path fill="#fff" d="M33.844 17.931q.036 0 .071.008l.431.105 8.797 2.137-2.052 5.638-8.076-3.998-8.406-1.686v-.013a.99.99 0 0 1-.913-.983 1 1 0 0 1 1-1c.031 0 .056.015.086.017v-.014l9.054-.212zm0-.5h-.019l-9.053.212h-.006l-.07-.004q-.087 0-.171.01l-.199.005-.003.033a1.5 1.5 0 0 0-1.126 1.453c0 .604.358 1.123.885 1.356l-.002.03.431.1 8.341 1.673 8.017 3.969.501.248.191-.525 2.052-5.638.191-.525-.543-.132-8.797-2.137-.431-.105a1 1 0 0 0-.189-.023"/><path fill="#000" d="M47.612 21.414a3.75 3.75 0 1 0 0-7.5 3.75 3.75 0 0 0 0 7.5"/><path fill="#fff" d="M47.612 14.164a3.5 3.5 0 1 1 0 7 3.5 3.5 0 0 1 0-7m0-.5c-2.206 0-4 1.794-4 4s1.794 4 4 4 4-1.794 4-4-1.794-4-4-4"/><path fill="#000" d="M20.319 35.852a2 2 0 0 1-.286-.026l-10.031-1.898a2.23 2.23 0 0 1-1.873-2.208c0-1.24 1.01-2.25 2.25-2.25q.063 0 .126.01l9.269-.117 9.361-3.557 2.215 8.261-10.781 1.766a1.5 1.5 0 0 1-.249.021z"/><path fill="#fff" d="M28.964 26.136 30 30l1.036 3.864-9.919 1.624-.589.096a1.3 1.3 0 0 1-.449-.005l-9.875-1.868v-.01a1.993 1.993 0 0 1-1.826-1.982 2 2 0 0 1 2-2c.059 0 .115.012.173.017v-.01l9.225-.114zm.34-.663-.517.195-9.105 3.444-9.135.113h-.042a1 1 0 0 0-.126-.008 2 2 0 0 0-.254.013H10.1v.003a2.503 2.503 0 0 0-2.221 2.484c0 1.132.744 2.087 1.795 2.39l.01.003q.163.047.337.071l.091.019 9.875 1.868a1.9 1.9 0 0 0 .623.008l.589-.097 9.919-1.624.545-.089-.143-.534-1.036-3.864-1.036-3.864-.143-.534z"/><path fill="#000" d="M36.844 51.045c-.91 0-1.736-.562-2.079-1.408l-8.518-17.679c-.077-.147-.146-.277-.199-.416l-.09-.233.009-.008A4.1 4.1 0 0 1 25.749 30c0-1.419.732-2.754 1.927-3.538l-.003-.007.201-.136 11.464-6.623.012.021a4.1 4.1 0 0 1 1.901-.467 4.254 4.254 0 0 1 4.25 4.25 4.25 4.25 0 0 1-1.917 3.532l.004.006-.211.143-8.481 4.899 4.09 16.048c.073.228.108.446.108.667 0 1.24-1.01 2.25-2.25 2.25"/><path fill="#fff" d="M41.252 19.5a4 4 0 0 1 4 4c0 1.48-.813 2.757-2.008 3.449l.008.014-8.646 4.995 4.117 16.152-.007.002c.078.214.127.441.127.682a1.995 1.995 0 0 1-3.873.682l-.006.002-8.492-17.629c-.068-.13-.137-.259-.191-.397l-.04-.084.013-.005A4 4 0 0 1 26 29.999c0-1.48.812-2.757 2.007-3.449l-.008-.014 11.251-6.5.008.014a3.96 3.96 0 0 1 1.993-.551m.001-.499c-.619 0-1.221.131-1.797.389l-.012-.022-.442.236-11.251 6.5-.433.25.022.039A4.5 4.5 0 0 0 25.5 30q0 .52.136 1.056l-.072.026.226.503.04.084c.043.113.114.251.187.389l8.497 17.638.032.067q.049.115.108.225l.056.117.01-.003a2.5 2.5 0 0 0 2.124 1.194c1.378 0 2.5-1.122 2.5-2.5q0-.372-.123-.753l-.013-.055-4.023-15.785 8.318-4.805.433-.25-.022-.039a4.5 4.5 0 0 0 1.838-3.607c0-2.481-2.019-4.5-4.5-4.5z"/><path fill="#000" d="M48.48 39.613c-.334 0-.647-.13-.884-.366l-7.05-5.638a1.7 1.7 0 0 1-.628-1.138l-.979-8.809a3 3 0 0 1-.072-.663 3.254 3.254 0 0 1 3.25-3.25 3.254 3.254 0 0 1 3.25 3.25c0 .225-.024.45-.076.688l-.848 7.638 4.939 6.174c.218.216.348.529.348.863 0 .689-.561 1.251-1.25 1.251"/><path fill="#fff" d="M42.117 20a3 3 0 0 1 3 3q-.002.328-.071.636l-.863 7.765 5.004 6.255a1 1 0 0 1-1.414 1.414l-7.07-5.656a1.45 1.45 0 0 1-.537-.971L40.117 32l-.929-8.364a3 3 0 0 1-.071-.636 3 3 0 0 1 3-3m0-.5c-1.93 0-3.5 1.57-3.5 3.5q0 .35.076.716l.927 8.34.049.443c.059.518.315.982.721 1.306l7.05 5.64a1.502 1.502 0 0 0 2.121-2.121l-4.859-6.074.837-7.535q.076-.366.076-.715c0-1.93-1.57-3.5-3.5-3.5z"/><path fill="#000" d="m51.537 39.563-.389 1.448 5.313 1.425.389-1.448z"/><path fill="#fff" d="m51.714 39.87 4.83 1.294-.259.966-4.83-1.294zm-.353-.612-.129.483-.259.966-.129.483.483.129 4.83 1.294.483.129.129-.483.259-.966.13-.483-.483-.129-4.83-1.294z"/></symbol><symbol id="making-bed" fill="none" viewBox="0 0 64 64"><path fill="#000" d="m19.814 34.092 26.971 7.307A3 3 0 0 1 49 44.295V45H9v-1.667c0-.849.36-1.658.99-2.227l7.029-6.345a3 3 0 0 1 2.795-.669m-6.727-18.066a3.5 3.5 0 1 0 0-7 3.5 3.5 0 0 0 0 7m-.88 5.126-.013-.005a4 4 0 0 0 .254-1.364 4 4 0 0 0-4-4 3.99 3.99 0 0 0-3.746 2.636l-.013-.005L.241 30.631l.013.005A4 4 0 0 0 0 32l2 20a2 2 0 1 0 4 0l1.903-19.027z"/><path fill="#000" d="M18.234 34.914c-.335 0-.649-.13-.885-.366l-7.048-5.636a1.2 1.2 0 0 1-.336-.415l-3.987-8.052a3 3 0 0 1-.21-.425l-.091-.231.012-.009a3.1 3.1 0 0 1-.148-.937 3.254 3.254 0 0 1 3.25-3.25c1.274 0 2.435.764 2.955 1.922l.035-.011.072.253.039.16c.037.124.073.261.097.404l1.939 7.968s5.154 6.445 5.206 6.508c.22.219.35.532.35.866 0 .689-.561 1.25-1.25 1.25z"/><path fill="#fff" d="M8.791 15.844a2.99 2.99 0 0 1 2.809 1.977l.01-.004.039.161q.059.187.094.385l1.956 8.041 5.242 6.554a1 1 0 0 1-1.414 1.414l-7.069-5.655a1 1 0 0 1-.268-.331l-.198-.4-3.789-7.652a3 3 0 0 1-.201-.406l-.029-.058.01-.004a3 3 0 0 1-.191-1.023 3 3 0 0 1 3-3m-.001-.499c-1.93 0-3.5 1.57-3.5 3.5q0 .352.08.713l-.085.031.238.504.029.058q.06.163.216.434l3.774 7.624.198.4q.15.296.405.5l7.049 5.638a1.502 1.502 0 0 0 2.121-2.121l-2.698-3.374-2.459-3.074-1.93-7.933a3 3 0 0 0-.101-.412l-.031-.133-.132-.542-.099.036a3.5 3.5 0 0 0-3.075-1.849"/><path fill="#000" d="M61 46H9v4h52zm-10-1h8a1 1 0 1 0 0-2h-8a1 1 0 1 0 0 2m13 9h-3V37.5a1.5 1.5 0 0 1 3 0zM9 54h3v-4H9z"/></symbol><symbol id="packing-luggage" fill="none" viewBox="0 0 64 64"><path fill="#000" d="m20.365 42.67-.453-.389-5.216-4.489 3.51-9.639-.013-.005a4 4 0 0 0 .254-1.364 4 4 0 0 0-4-4 3.99 3.99 0 0 0-3.746 2.636l-.013-.005-4.449 12.217.013.005a4 4 0 0 0-.254 1.364c0 1.355.678 2.548 1.708 3.272l-.003.005.028.016c.145.1.303.178.461.259l1.386.778-1.525.288.002.022a1.994 1.994 0 0 0 .289 3.971c.025 0 .048-.006.073-.007l10.033.124c2.605.091 3.955-3.372 1.912-5.056zm-1.278-19.644a3.5 3.5 0 1 0 0-7 3.5 3.5 0 0 0 0 7"/><path fill="#000" d="M24.234 41.914c-.335 0-.649-.13-.885-.366l-7.011-5.606c-.228-.136-.692-1.004-3.396-6.547-.345-.707-.646-1.327-.86-1.761a3 3 0 0 1-.317-.627l-.175-.262.08-.03a3.1 3.1 0 0 1-.129-.871 3.254 3.254 0 0 1 3.25-3.25c1.277 0 2.438.766 2.958 1.928l.109-.036-.005.273.039.161c.037.123.073.26.097.402l1.938 7.968 5.209 6.511c.218.216.348.529.348.863 0 .689-.561 1.25-1.25 1.25"/><path fill="#fff" d="M14.791 22.844a2.99 2.99 0 0 1 2.809 1.977l.01-.004.039.161c.038.126.072.252.093.384l1.956 8.041 5.243 6.554a1 1 0 0 1-1.414 1.414l-7.07-5.656h-.003c-.189 0-3.14-6.155-4.148-8.193a3 3 0 0 1-.308-.607l-.026-.047.01-.004a3 3 0 0 1-.191-1.023 3 3 0 0 1 3-3m0-.497c-1.93 0-3.5 1.57-3.5 3.5q0 .34.074.687l-.187.057.365.542c.096.245.204.457.328.645.212.428.505 1.031.839 1.716 2.689 5.514 3.186 6.508 3.522 6.687l6.962 5.569a1.502 1.502 0 0 0 2.121-2.121l-5.158-6.448-1.929-7.934a3 3 0 0 0-.101-.411l-.032-.135-.133-.546-.099.037a3.5 3.5 0 0 0-3.073-1.846z"/><path fill="#000" d="m44.995 39.995 12.021-12.021a2.005 2.005 0 0 1 0 2.828l-9.192 9.192a2 2 0 0 1-2.828 0zm-.498 4.003c.18 0 .34.03.5.09v.92c0 .81-.48 1.51-1.18 1.82-.49-.24-.82-.74-.82-1.33 0-.83.67-1.5 1.5-1.5"/><path fill="#000" d="M45.997 45.498c0 .83-.67 1.5-1.5 1.5-.24 0-.48-.06-.68-.17-.49-.24-.82-.74-.82-1.33 0-.83.67-1.5 1.5-1.5.18 0 .34.03.5.09.58.2 1 .76 1 1.41"/><path fill="#000" d="M27.997 39.998V45h-2.151a.99.99 0 0 0-.847-.5 1 1 0 0 0 0 2 .99.99 0 0 0 .847-.5h2.426a2 2 0 0 0 1.725 1.008h12.51c-.32-.42-.51-.94-.51-1.51a2.5 2.5 0 0 1 3-2.45v-3.05z"/></symbol><symbol id="partying" fill="none" viewBox="0 0 64 64"><path fill="#000" d="M27.107 11.078c-1.36 0-2.57.6-3.4 1.56l.27-7.82 4.4 6.45c-.4-.13-.83-.19-1.27-.19m16.807 9.996a1 1 0 0 0-1-1 .98.98 0 0 0-.635.244l-.009-.01-6.3 4.197-6.934-4.176-2.514 5.448 8.663 2.897.418.14c.584.194 1.253.05 1.706-.424l6.247-6.55-.008-.01a.98.98 0 0 0 .365-.756z"/><path fill="#000" d="m32.939 37.694-.009-.002c.04-.226.07-.455.07-.692 0-.119-.025-.231-.035-.347l.02-.002L31.852 23.7l-.02.002c-.178-2.044-1.875-3.653-3.965-3.653a4 4 0 0 0-4 4c0 .119.025.231.035.347l-.02.002 1.115 12.749-1.436 19.195h.003c-.02.114-.035.228-.035.347a1.996 1.996 0 0 0 3.965.346h.006l5.301-18.854c.045-.144.094-.286.123-.437l.015-.052zm-2.332-22.116c0 1.94-1.57 3.5-3.5 3.5s-3.5-1.56-3.5-3.5c0-1.93 1.57-3.5 3.5-3.5 1.09 0 2.06.5 2.7 1.28.03.03.05.07.07.1l.25.36c.31.51.48 1.11.48 1.76"/><path fill="#000" d="M17.698 36.303c-.689 0-1.25-.561-1.25-1.25 0-.052.009-.096.018-.133v-.057l.575-9.034a1.86 1.86 0 0 1 1.02-1.54l7.904-3.941c.17-.119.399-.233.672-.333l.281-.147.012.054a3 3 0 0 1 .83-.117 3.254 3.254 0 0 1 3.25 3.25 3.26 3.26 0 0 1-1.887 2.94l.013.037-.259.08-.269.066c-.107.03-.191.054-.28.068l-7.283 1.809-2.186 7.462-.019-.004c-.186.47-.632.79-1.142.79"/><path fill="#fff" d="M27.759 20.053a3 3 0 0 1 3 3 2.99 2.99 0 0 1-1.948 2.8l.005.015-.268.067c-.087.024-.173.049-.263.065l-7.44 1.846-2.163 7.38-.019-.003a.986.986 0 0 1-.966.83 1 1 0 0 1-1-1c0-.06.024-.113.034-.17l-.019-.003.577-9.034c.038-.59.39-1.085.883-1.333l.396-.197 7.507-3.744c.198-.135.418-.238.647-.323l.021-.01v.003c.32-.115.658-.188 1.017-.188m-.001-.501q-.362 0-.728.083l-.034-.082-.479.237c-.25.092-.487.209-.694.346l-7.479 3.73-.396.197a2.12 2.12 0 0 0-1.159 1.748l-.577 9.034-.005.077a1 1 0 0 0-.011.128v.04l-.013.202.033.006c.118.71.737 1.252 1.479 1.252.545 0 1.031-.303 1.288-.765l.031.005.145-.426 2.083-7.104 7.161-1.777c.059-.009.147-.033.235-.057l.296-.074.537-.133-.038-.105a3.51 3.51 0 0 0 1.823-3.062c0-1.93-1.57-3.5-3.5-3.5z"/><path fill="#000" d="M38.962 50.122c-1.24 0-2.25-1.01-2.25-2.25l-.675-6.729-6.812.084a2 2 0 0 1-.226.022l-.13-.012-.215-.004-.266.003.002-.051a4.215 4.215 0 0 1-3.642-4.187 4.254 4.254 0 0 1 4.25-4.25q.063 0 .124.006l.002-.017.27.03.225.042q.205.03.417.08l9.82 1.856c1.464.277 2.498 1.66 2.354 3.148l-1 9.999c0 1.217-1.009 2.227-2.249 2.227z"/><path fill="#fff" d="M29 33c.119 0 .231.025.347.035l.002-.02.226.043q.204.028.401.076l9.248 1.749.587.111a2.67 2.67 0 0 1 2.152 2.878l-1 10a2 2 0 0 1-4 0l-.698-6.981-7.042.087c-.075.004-.146.022-.222.022-.059 0-.114-.015-.173-.017l-.176.002.002-.02c-2.044-.179-3.653-1.875-3.653-3.965A4 4 0 0 1 29 33m-.102-.579-.007.08A4.506 4.506 0 0 0 24.5 37a4.46 4.46 0 0 0 3.614 4.393l-.007.079.551.013.176-.002q.083.017.167.018.1-.001.195-.016l.054-.007 6.562-.081.653 6.525c-.002 1.329 1.119 2.45 2.498 2.45s2.5-1.122 2.5-2.5l.998-9.95c.157-1.617-.966-3.118-2.556-3.419l-.587-.111-9.248-1.749a4 4 0 0 0-.422-.079l-.204-.039-.543-.103z"/></symbol><symbol id="quiz" fill="none" viewBox="0 0 64 64"><path fill="#000" d="m38.001 21.426-3.464 2 5 8.66 3.464-2zm18.132 1.624a4 4 0 0 0-4-4c-2.09 0-3.786 1.609-3.965 3.653l-.02-.002-1.133 12.951.02.002c-.01.116-.035.228-.035.347l2 20a2 2 0 1 0 4 0l1.965-19.653.02.002 1.133-12.951-.02-.002c.01-.116.035-.228.035-.347m-3.259-4.968a3.5 3.5 0 1 0 0-7 3.5 3.5 0 0 0 0 7"/><path fill="#000" d="M47.149 31.72q-.363 0-.699-.13l-8.657-3.384.006-.017a1.21 1.21 0 0 1-.684-1.096c0-.689.561-1.25 1.25-1.25.081 0 .154.015.217.031l.08.006 7.185 1.096 3.384-6.192c.075-.185.186-.386.316-.574l.14-.201.01.005a3.25 3.25 0 0 1 2.524-1.21 3.254 3.254 0 0 1 3.25 3.25c0 .586-.158 1.154-.46 1.658l.029.021-.263.306a3 3 0 0 1-.324.367l-5.858 6.662a1.93 1.93 0 0 1-1.445.651z"/><path fill="#fff" d="M52.22 19.053a3 3 0 0 1 3 3c0 .64-.204 1.231-.546 1.718l.003.002-.088.1a3 3 0 0 1-.308.35l-5.584 6.347-.292.332a1.67 1.67 0 0 1-1.865.453l-8.435-3.297.005-.017a.99.99 0 0 1-.746-.949 1 1 0 0 1 1-1c.09 0 .171.029.254.051l.004-.017 7.358 1.122 3.468-6.345a3 3 0 0 1 .302-.552l.011-.02.003.002a3 3 0 0 1 2.454-1.282m.002-.498c-.965 0-1.883.404-2.541 1.099l-.076-.056-.278.493a3.4 3.4 0 0 0-.326.597l-3.288 6.015-7.012-1.069-.448-.068-.009.033a1.5 1.5 0 0 0-1.377 1.495c0 .494.252.945.65 1.217l-.009.032.418.182 8.435 3.297a2.18 2.18 0 0 0 2.423-.588l.292-.332 5.584-6.347q.132-.12.329-.375l.067-.075.365-.416-.078-.056c.25-.489.38-1.027.38-1.579 0-1.93-1.57-3.5-3.5-3.5z"/><path fill="#000" d="M17.73 27.333a3.5 3.5 0 1 0 0-7 3.5 3.5 0 0 0 0 7m7.08 15.661-.586-.111-5.925-1.121.819-9.364-.02-.002c.01-.116.035-.228.035-.347a4 4 0 0 0-4-4c-2.09 0-3.786 1.609-3.965 3.653l-.02-.002-1.133 12.951.02.002c-.01.116-.035.228-.035.347 0 2.09 1.609 3.786 3.653 3.965v.02l.174-.002c.059.003.114.017.173.017.076 0 .146-.018.221-.022l7.042-.087.698 6.981a2 2 0 1 0 4 0l1-10a2.67 2.67 0 0 0-2.151-2.878"/><path fill="#000" d="M22.358 38.462c-.341 0-.639-.167-.902-.314l-7.504-4.104a3 3 0 0 1-.575-.316l-.21-.115.016-.032a3.25 3.25 0 0 1-1.212-2.525 3.254 3.254 0 0 1 3.25-3.25c.57 0 1.125.15 1.619.437l.022-.043.347.301c.12.092.249.2.364.322l6.048 5.32 8.309 1.667-.002.013c.517.157.881.627.881 1.182 0 .689-.561 1.25-1.25 1.25h-.035l-.025-.006-9.14.216z"/><path fill="#fff" d="M15.22 28.053c.641 0 1.231.204 1.719.546l.002-.004.102.09c.123.095.241.194.348.306l6.115 5.381 8.14 1.632v.013a.99.99 0 0 1 .913.983 1 1 0 0 1-1 1c-.03 0-.056-.015-.086-.017v.014l-9.054.212q-.03.002-.061.002c-.329 0-.641-.21-.913-.357l-7.374-4.032a3 3 0 0 1-.552-.302l-.021-.011.002-.004a3 3 0 0 1-1.281-2.454 3 3 0 0 1 3-3m.001-.498c-1.93 0-3.5 1.57-3.5 3.5a3.5 3.5 0 0 0 1.111 2.552l-.052.076.479.267q.285.194.596.326l7.351 4.02.125.069c.276.155.62.349 1.028.349q.05 0 .101-.004l9.024-.21h.006l.07.004q.087 0 .171-.01l.208-.005.003-.035a1.5 1.5 0 0 0 1.118-1.451c0-.601-.354-1.119-.878-1.353l.003-.031-.439-.102-8.008-1.606-6.014-5.293a3 3 0 0 0-.373-.327l-.078-.07-.422-.371-.056.081a3.46 3.46 0 0 0-1.573-.377z"/><path fill="#000" d="M37 39H22a1 1 0 0 0 0 2h6.5v17h2V41H37a1 1 0 0 0 0-2M19 50H9a1 1 0 0 0 0 2v6h2v-6h6v6h2v-6a1 1 0 0 0 0-2m27-35-2-2V8a3 3 0 0 0-3-3h-3a3 3 0 0 0-3 3v5a3 3 0 0 0 3 3h3a2.98 2.98 0 0 0 2.246-1.029l-.011.029zm-6.256-1.788a.51.51 0 0 1-.399.168q-.265 0-.408-.156-.145-.156-.145-.444a.62.62 0 0 1 .152-.432.51.51 0 0 1 .4-.168q.264 0 .407.156.145.156.145.444a.62.62 0 0 1-.152.432m1.445-3.492a1.7 1.7 0 0 1-.309.476 2.3 2.3 0 0 1-.468.4 2.7 2.7 0 0 1-.588.288l-.136.72h-.616l-.208-1.128q.312-.08.561-.18.248-.1.428-.216t.3-.252a.92.92 0 0 0 .241-.624.73.73 0 0 0-.124-.416.84.84 0 0 0-.34-.288 1.1 1.1 0 0 0-.488-.104q-.32 0-.62.22t-.516.62l-.601-.504q.344-.528.82-.82t.996-.292q.504 0 .904.208t.636.568.235.808q0 .264-.107.516"/></symbol><symbol id="resting" fill="none" viewBox="0 0 64 64"><path fill="#000" d="m43.096 46.772.002-.022-16.88-3.193-2.722-10.152-.015.004a3.99 3.99 0 0 0-3.849-2.968 4 4 0 0 0-4 4c0 .359.062.701.151 1.032l-.015.004 3.367 12.558.015-.004a3.98 3.98 0 0 0 3.502 2.933l-.002.02.176-.002c.059.003.114.017.173.017.076 0 .147-.018.222-.022l19.512-.242c.025 0 .048.007.073.007a1.994 1.994 0 0 0 .289-3.971zM49 19.005c0 3.86-3.13 7-7 7-2.85 0-5.3-1.7-6.38-4.14.44.09.91.14 1.38.14a7 7 0 0 0 6.39-9.86c3.2.64 5.61 3.47 5.61 6.86M19.27 29.333a3.5 3.5 0 1 0 0-7 3.5 3.5 0 0 0 0 7"/><path fill="#000" d="M14.712 52.114c-.689 0-1.25-.561-1.25-1.25 0-.079.014-.15.029-.213l.007-.084 2.66-17.44c.014-.131.029-.272.062-.409l.059-.246h.016a3.25 3.25 0 0 1 3.079-2.246 3.254 3.254 0 0 1 3.25 3.25c0 .192-.021.387-.064.597l.034.01-.091.262-.059.149a3 3 0 0 1-.151.387l-6.467 16.548-.015-.004c-.206.421-.623.69-1.1.69z"/><path fill="#fff" d="M19.374 30.476a3 3 0 0 1 3 3c0 .269-.047.526-.114.774l.011.003-.059.15a3 3 0 0 1-.144.369l-6.391 16.352-.017-.005a.99.99 0 0 1-.949.746 1 1 0 0 1-1-1c0-.09.029-.171.051-.254l-.017-.005 2.659-17.44c.014-.132.029-.263.06-.39l.011-.076.011.003a2.99 2.99 0 0 1 2.886-2.226m.002-.501a3.5 3.5 0 0 0-3.206 2.123l-.092-.025-.094.55-.011.076a3 3 0 0 0-.062.413l-2.656 17.416-.067.442.032.009c.06.773.708 1.383 1.496 1.383a1.48 1.48 0 0 0 1.221-.655l.031.008.18-.412 6.391-16.352c.052-.104.106-.248.154-.396l.049-.122.203-.518-.095-.026q.03-.212.029-.415c0-1.93-1.57-3.5-3.5-3.5z"/></symbol><symbol id="running" fill="none" viewBox="0 0 64 64"><path fill="#000" d="M19.339 49.91c-1.24 0-2.25-1.01-2.25-2.25 0-.762.398-1.478 1.046-1.891l7.272-5.23 4.014-8.894 7.407 4.276-6.376 8.869a2.14 2.14 0 0 1-.85.694l-9.243 4.171a2.2 2.2 0 0 1-1.021.254z"/><path fill="#fff" d="m29.536 32 6.928 4-5.866 8.16-.348.485a1.9 1.9 0 0 1-.75.613l-9.16 4.134-.004-.007a2 2 0 0 1-.996.275 1.993 1.993 0 0 1-.996-3.725l-.004-.007 7.268-5.225zm-.228-.709-.227.504-3.873 8.581-7.159 5.147-.09.064a3 3 0 0 0-.144.104l-.135.097.006.01a2.5 2.5 0 0 0-.845 1.863c0 1.379 1.122 2.5 2.5 2.5q.596-.001 1.141-.284l.065-.028 9.16-4.134c.381-.173.709-.442.95-.777l.348-.485 5.866-8.16.323-.449-.479-.276-6.928-4z"/><path fill="#000" d="M23.144 33.756c-.689 0-1.25-.561-1.25-1.25q0-.249.119-.5l.036-.102 3.634-8.29c.124-.338.439-.563.692-.745l7.635-5.618 3.28 5.68-8.199 3.594-5.013 6.809-.012-.006a1.22 1.22 0 0 1-.923.429z"/><path fill="#fff" d="m33.933 17.618 3.001 5.195-8.005 3.509-4.92 6.683-.014-.008a.99.99 0 0 1-.852.508 1 1 0 0 1-1-1c0-.183.062-.345.148-.492l-.014-.008 3.634-8.29c.122-.329.469-.536.731-.732zm.155-.733-.45.331-7.29 5.366-.117.085c-.281.201-.63.452-.787.875l-3.623 8.263-.18.411.032.018q-.028.134-.028.272c0 .827.673 1.5 1.5 1.5.361 0 .7-.132.966-.366l.025.014.278-.351 4.84-6.576 7.883-3.455.512-.224-.28-.484-3.001-5.195z"/><path fill="#000" d="M38.568 16.981a3.75 3.75 0 1 0 0-7.5 3.75 3.75 0 0 0 0 7.5"/><path fill="#fff" d="M38.568 9.731a3.5 3.5 0 1 1 0 7 3.5 3.5 0 0 1 0-7m0-.5c-2.206 0-4 1.794-4 4s1.794 4 4 4 4-1.794 4-4-1.794-4-4-4"/><path fill="#000" d="M43 53.56a2.25 2.25 0 0 1-1.896-1.054L29.659 36.598a4 4 0 0 1-.257-.358l-.229-.318.041-.023a4.14 4.14 0 0 1-.464-1.897q.002-.241.033-.475h-.006l.038-.265 2.301-13.03.015.002a4.235 4.235 0 0 1 4.129-3.282 4.254 4.254 0 0 1 4.25 4.25q-.002.255-.036.5h.005l-.033.238-2.037 11.544 7.598 16.825c.162.318.244.655.244 1.002 0 1.24-1.01 2.25-2.25 2.25z"/><path fill="#fff" d="M35.26 17.2a4 4 0 0 1 4 4c0 .238-.03.468-.07.694l.009.002-2.052 11.619 7.584 16.795-.007.004c.171.294.275.632.275.996a2 2 0 0 1-2 2 1.99 1.99 0 0 1-1.725-1.004l-.007.004L29.86 36.452a4 4 0 0 1-.248-.345l-.076-.106.014-.008A3.96 3.96 0 0 1 28.999 34c0-.238.03-.468.07-.694l-.009-.002 2.26-12.8.009.002A3.994 3.994 0 0 1 35.26 17.2m0-.5a4.484 4.484 0 0 0-4.309 3.232l-.027-.005-.096.491-2.26 12.8-.087.493.03.005a4.36 4.36 0 0 0 .377 2.081l-.067.039.309.459.076.106c.066.109.162.235.26.361l11.395 15.842.063.088q.051.077.107.149l.094.131.01-.006c.47.531 1.148.846 1.864.846 1.378 0 2.5-1.122 2.5-2.5 0-.396-.095-.779-.284-1.14l-.028-.066-7.521-16.655 2.025-11.467.087-.493-.03-.005q.011-.137.012-.285a4.506 4.506 0 0 0-4.5-4.501"/><path fill="#000" d="M44.784 34.825q-.244 0-.495-.117l-.105-.038-8.29-3.634c-.746-.303-.993-1.034-1.113-1.559l-2.36-8.056a3 3 0 0 1-.176-.604l-.048-.258.011-.003a3 3 0 0 1-.023-.342 3.254 3.254 0 0 1 3.25-3.25 3.24 3.24 0 0 1 3.144 2.45l.037-.006.036.456c.021.165.033.256.033.35l.478 7.677 6.45 4.748-.006.012c.271.234.429.565.429.923 0 .689-.561 1.25-1.25 1.25z"/><path fill="#fff" d="M35.434 17.215a2.996 2.996 0 0 1 2.948 2.481h.007l.012.185c.012.111.033.219.033.334 0 .026-.007.05-.008.075l.492 7.733 6.365 4.685-.008.014a.99.99 0 0 1 .508.852 1 1 0 0 1-1 1 .97.97 0 0 1-.492-.148l-.008.014-8.29-3.634c-.597-.242-.839-.818-.969-1.385L32.66 21.35a3 3 0 0 1-.17-.58l-.01-.036h.007a3 3 0 0 1-.052-.52 3 3 0 0 1 3-3m-.001-.499a3.504 3.504 0 0 0-3.498 3.609l-.084.015.148.535c.042.217.105.435.188.641l2.357 8.047c.069.305.302 1.319 1.261 1.708l8.277 3.629.409.179.019-.032q.135.029.273.029c.827 0 1.5-.673 1.5-1.5 0-.361-.131-.699-.365-.964l.014-.025-.353-.279-6.178-4.547-.475-7.457.006-.087c0-.104-.012-.205-.026-.305l-.011-.085-.01-.163-.036-.559-.099.018a3.49 3.49 0 0 0-3.319-2.407z"/></symbol><symbol id="seating" fill="none" viewBox="0 0 64 64"><path fill="#000" d="m44.957 38.868-1 10c0 1.11-.89 2-2 2a2 2 0 0 1-2-2l-.1-.99q.27-.09.51-.21c.32-.16.61-.38.85-.65l.01-.01c.48-.53.77-1.23.77-2.01v-4.77c.62-.54 1-1.34 1-2.23v-1a3 3 0 0 0-.17-1 2.65 2.65 0 0 1 2.13 2.87m-10.68-7.84-1.72-6.39c-.02-.08-.04-.16-.06-.23a4 4 0 0 0-3.86-2.97c-2.09 0-3.8 1.6-3.98 3.63.31.36.52.79.62 1.27.01.02.02.05.02.07l.33 1.67 1.03 5.12c.09.46.51.8.98.8h3.07c.04.06 3.57-2.97 3.57-2.97M28.27 20.333a3.5 3.5 0 1 0 0-7 3.5 3.5 0 0 0 0 7m13.727 16.665v1c0 .51-.19.97-.5 1.33-.14.16-.31.29-.5.4-.29.17-.64.27-1 .27h-12a2 2 0 0 1-2-2v-1c0-.78.45-1.46 1.11-1.78.27-.14.57-.22.89-.22h12c.22 0 .43.04.63.1.38.13.71.36.95.67.22.28.36.62.4 1 .02.07.02.15.02.23"/><path fill="#000" d="M31.948 34.869a1.8 1.8 0 0 1-.693-.139 1.6 1.6 0 0 1-.403-.228.9.9 0 0 1-.199-.179 1 1 0 0 1-.151-.187c-.035-.014-.083-.094-.118-.152l-2.739-4.498-1.8-2.97-.062-.093a4 4 0 0 1-.272-.442l-.2-.323.038-.021a3.2 3.2 0 0 1-.223-1.162 3.254 3.254 0 0 1 3.25-3.25c1.246 0 2.396.733 2.933 1.868l.022.021.038.095.146.438-.196.22.236-.082.27.779.761 2.283 1.303 3.844 7.324 1.474.093.014c.588.04 1.094.584 1.094 1.229a1.23 1.23 0 0 1-.891 1.189.9.9 0 0 1-.359.061l-.616.01-6.447.16-1.783.029-.354.012z"/><path fill="#fff" d="M28.374 21.476c1.202 0 2.232.712 2.71 1.733h.003l.01-.001.038.095q.006.02.014.039l.128.385.02.06.02.08.27.78.76 2.28 1.35 3.98.58.12 6.87 1.38c.03 0 .05 0 .08.01a1 1 0 0 1 .92.99c0 .46-.3.83-.71.95h-.01c-.09.04-.18.05-.28.05-.03 0-.06 0-.09-.01v.01l-.53.01-3.35.08-1.96.05h-.1l-.32.01-.72.02h-.01l-1.77.03-.29.01-.061.001c-.216 0-.416-.048-.599-.121-.12-.05-.24-.11-.34-.19a.7.7 0 0 1-.16-.14c-.06-.06-.1-.11-.14-.17-.05-.04-.08-.09-.11-.14l-.23-.38-2.51-4.12-1.8-2.97-.04-.05-.01-.02-.039-.065a3 3 0 0 1-.238-.387l-.073-.117.007-.003a3 3 0 0 1-.29-1.268 3 3 0 0 1 3-3.001m0-.5c-1.93 0-3.5 1.57-3.5 3.5q0 .516.156 1.016l-.086.041.288.479.073.117q.117.225.261.422l.012.025.018.029.031.047.02.025 1.783 2.942 2.51 4.121.229.379c.031.052.08.132.158.211.043.059.089.114.149.176.083.097.183.173.253.22.089.073.235.156.425.235q.4.16.791.16l.082-.002.286-.01 1.761-.03.735-.02.322-.01h.084l1.973-.05 3.349-.08.528-.01h.081q.053.001.116-.004l.294-.006v-.055l.01-.003.011-.003a1.48 1.48 0 0 0 1.07-1.43c0-.758-.582-1.401-1.333-1.484a1 1 0 0 0-.111-.015l-6.827-1.371-.297-.061-1.258-3.709-.759-2.277-.272-.785-.007-.038-.031-.097-.128-.385-.006-.019-.021-.058-.034-.085-.125-.315h-.052a3.51 3.51 0 0 0-3.011-1.732z"/><path fill="#000" d="M40.807 40.888c-.26.07-.53.11-.81.11h-12c-1.65 0-3-1.34-3-3v-1c0-1.03.53-1.95 1.33-2.49a2.02 2.02 0 0 1-.65-1.12l-1.36-6.78c-.18-.93-1-1.61-1.96-1.61h-.36c-1.1 0-2 .9-2 2v18a2 2 0 0 0 2 2v4h3v-4h11v4h3v-4c.27 0 .52-.05.76-.14.73-.31 1.24-1.02 1.24-1.86v-4.17c-.06.02-.12.04-.19.06"/></symbol><symbol id="shopping" fill="none" viewBox="0 0 64 64"><path fill="#000" d="M12 53.568c-1.24 0-2.25-1.01-2.25-2.25 0-.476.15-.928.438-1.317l.061-.108 5.086-7.462 1.601-9.78 8.26 2.216-3.864 10.218a1.9 1.9 0 0 1-.445.682l-7.184 7.011a2.22 2.22 0 0 1-1.701.792z"/><path fill="#fff" d="M17.136 32.964 21 34l3.863 1.036-3.556 9.401-.211.558a1.7 1.7 0 0 1-.388.593l-7.183 7.009c-.367.437-.91.721-1.526.721a2 2 0 0 1-2-2c0-.486.18-.926.469-1.273l-.015-.012 5.116-7.508 1.565-9.561m-.402-.626-.089.545-1.548 9.452-5.054 7.417-.256.375.016.013a2.44 2.44 0 0 0-.302 1.178c0 1.379 1.122 2.5 2.5 2.5a2.49 2.49 0 0 0 1.909-.9l7.149-6.973c.224-.22.398-.487.507-.774l.211-.558 3.556-9.401.195-.517-.534-.143-3.863-1.036-3.864-1.036z"/><path fill="#000" d="M27.844 55.045c-.91 0-1.736-.562-2.079-1.408l-8.519-17.682a4 4 0 0 1-.197-.411l-.09-.233.009-.008A4.1 4.1 0 0 1 16.749 34q.001-.102.016-.2v-.17l1.154-13.19h.026a4.214 4.214 0 0 1 4.187-3.64 4.254 4.254 0 0 1 4.25 4.25q0 .099-.015.195v.175l-1.08 12.332 4.698 18.376c.073.228.108.446.108.667 0 1.24-1.009 2.25-2.249 2.25"/><path fill="#fff" d="M22.133 17.049a4 4 0 0 1 4 4c0 .119-.025.231-.035.347l.02.002-1.079 12.332 4.685 18.38-.007.002c.078.214.127.441.127.682a1.995 1.995 0 0 1-3.873.682l-.006.002-8.493-17.632c-.068-.129-.136-.257-.189-.393l-.041-.085.013-.005a4 4 0 0 1-.254-1.364c0-.119.025-.231.035-.347l-.02-.002 1.133-12.951.02.002c.178-2.044 1.875-3.653 3.965-3.653m-.001-.499a4.46 4.46 0 0 0-4.393 3.614l-.027-.002-.063.496-1.133 12.951-.044.499.028.002q.013.468.135.946l-.073.026.228.504.041.085c.042.112.113.25.186.388l8.496 17.637.032.067q.049.116.108.225l.056.117.01-.003a2.5 2.5 0 0 0 2.124 1.194c1.378 0 2.5-1.122 2.5-2.5q0-.372-.123-.753l-.013-.055-4.664-18.298 1.072-12.248.044-.499-.028-.002a4.506 4.506 0 0 0-4.499-4.391"/><path fill="#000" d="M22.874 16.332a3.75 3.75 0 1 0 0-7.5 3.75 3.75 0 0 0 0 7.5"/><path fill="#fff" d="M22.874 9.082a3.5 3.5 0 1 1 0 7 3.5 3.5 0 0 1 0-7m0-.5c-2.206 0-4 1.794-4 4s1.794 4 4 4 4-1.794 4-4-1.794-4-4-4"/><path fill="#000" stroke="#fff" stroke-miterlimit="10" stroke-width=".25" d="M39.5 50.83a.5.5 0 1 1 0 1 .5.5 0 0 1 0-1Zm0-2a2.5 2.5 0 1 0 0 5 2.5 2.5 0 0 0 0-5Zm13 1.965a.5.5 0 1 1 0 1 .5.5 0 0 1 0-1Zm0-2a2.5 2.5 0 1 0 0 5 2.5 2.5 0 0 0 0-5Z"/><path fill="#000" d="M32.48 32.511a1 1 0 0 1-.215-.031l-.082-.006-8.958-1.364c-.844-.114-1.466-.782-1.66-1.785l-2.363-8.078a3 3 0 0 1-.172-.59l-.048-.257.011-.004a3 3 0 0 1-.022-.342 3.254 3.254 0 0 1 3.25-3.25 3.24 3.24 0 0 1 3.144 2.455l.037-.005.024.265.012.191c.022.17.033.255.033.344l.452 7.312 7.118 2.779-.005.015c.424.206.694.624.694 1.102a1.25 1.25 0 0 1-1.25 1.249"/><path fill="#fff" d="M22.22 17.053a2.996 2.996 0 0 1 2.948 2.482h.007l.012.19c.012.109.033.216.033.328 0 .026-.007.049-.008.074l.471 7.412 7.055 2.755-.005.017a.99.99 0 0 1 .746.949 1 1 0 0 1-1 1c-.09 0-.171-.029-.254-.051l-.005.017-8.959-1.364c-.844-.115-1.306-.83-1.452-1.586l-2.368-8.101a3 3 0 0 1-.166-.567l-.011-.037h.007a3 3 0 0 1-.052-.519 3 3 0 0 1 3-3m.001-.499a3.504 3.504 0 0 0-3.498 3.608l-.087.016.151.537c.04.206.102.42.183.625l2.362 8.078c.204 1.068.906 1.811 1.865 1.941l8.951 1.363.442.067.009-.032a1.503 1.503 0 0 0 1.384-1.496c0-.496-.254-.948-.655-1.22l.008-.031-.413-.18-6.759-2.639-.448-7.05.006-.087c0-.101-.012-.199-.025-.297l-.011-.085-.01-.169-.035-.556-.099.017a3.49 3.49 0 0 0-3.32-2.41z"/><path fill="#000" d="M37.75 48.08v-4.099l-3.674-11.904-2.08-.007c-.334 0-.647-.132-.883-.369A1.252 1.252 0 0 1 32 29.57l3.004.01c.55 0 1.029.355 1.191.883l.959 3.117h17.175l-2.635 9.485-11.459.916.013 1.599H52.5c.689 0 1.25.561 1.25 1.25s-.561 1.25-1.25 1.25z"/><path fill="#fff" d="m32.003 29.82 3 .01c.438 0 .824.287.953.706l1.013 3.294H54l-2.5 9-11.516.921c.002.027.016.051.016.079v2h12.5a1 1 0 1 1 0 2H38v-3.849l-3.739-12.153-2.264-.008a1 1 0 0 1 .003-2zm.001-.5h-.005c-.824 0-1.497.671-1.5 1.495a1.5 1.5 0 0 0 1.495 1.505l1.896.007 3.609 11.73v4.274h15c.827 0 1.5-.673 1.5-1.5s-.673-1.5-1.5-1.5h-12v-1.118l11.04-.883.348-.028.094-.337 2.5-9 .176-.634H37.338l-.905-2.941a1.49 1.49 0 0 0-1.43-1.059z"/></symbol><symbol id="showering" fill="none" viewBox="0 0 64 64"><path fill="#000" d="M21.75 8.75h-1.5v2.5h1.5z"/><path fill="#fff" d="M21.5 9v2h-1V9zm.5-.5h-2v3h2z"/><path fill="#000" d="M23.75 8.75h-1.5v1.5h1.5z"/><path fill="#fff" d="M23.5 9v1h-1V9zm.5-.5h-2v2h2z"/><path fill="#000" d="M25.75 8.75h-1.5v2.5h1.5z"/><path fill="#fff" d="M25.5 9v2h-1V9zm.5-.5h-2v3h2z"/><path fill="#000" d="M27.75 8.75h-1.5v1.5h1.5z"/><path fill="#fff" d="M27.5 9v1h-1V9zm.5-.5h-2v2h2z"/><path fill="#000" d="M29.75 8.75h-1.5v2.5h1.5z"/><path fill="#fff" d="M29.5 9v2h-1V9zm.5-.5h-2v3h2z"/><path fill="#000" d="M31.75 8.75h-1.5v1.5h1.5z"/><path fill="#fff" d="M31.5 9v1h-1V9zm.5-.5h-2v2h2z"/><path fill="#000" d="M23.75 10.75h-1.5v2.5h1.5z"/><path fill="#fff" d="M23.5 11v2h-1v-2zm.5-.5h-2v3h2z"/><path fill="#000" d="M25.75 11.75h-1.5v2.5h1.5z"/><path fill="#fff" d="M25.5 12v2h-1v-2zm.5-.5h-2v3h2z"/><path fill="#000" d="M21.75 11.75h-1.5v2.5h1.5z"/><path fill="#fff" d="M21.5 12v2h-1v-2zm.5-.5h-2v3h2z"/><path fill="#000" d="M27.75 10.75h-1.5v2.5h1.5z"/><path fill="#fff" d="M27.5 11v2h-1v-2zm.5-.5h-2v3h2z"/><path fill="#000" d="M29.75 11.75h-1.5v2.5h1.5z"/><path fill="#fff" d="M29.5 12v2h-1v-2zm.5-.5h-2v3h2z"/><path fill="#000" d="M31.75 10.75h-1.5v2.5h1.5z"/><path fill="#fff" d="M31.5 11v2h-1v-2zm.5-.5h-2v3h2z"/><path fill="#000" d="M31.75 13.75h-1.5v2.5h1.5z"/><path fill="#fff" d="M31.5 14v2h-1v-2zm.5-.5h-2v3h2z"/><path fill="#000" d="M23.75 13.75h-1.5v2.5h1.5z"/><path fill="#fff" d="M23.5 14v2h-1v-2zm.5-.5h-2v3h2z"/><path fill="#000" d="M27.75 13.75h-1.5v2.5h1.5z"/><path fill="#fff" d="M27.5 14v2h-1v-2zm.5-.5h-2v3h2z"/><path fill="#000" d="M21.75 14.75h-1.5v2.5h1.5z"/><path fill="#fff" d="M21.5 15v2h-1v-2zm.5-.5h-2v3h2z"/><path fill="#000" d="M21.75 17.75h-1.5v2.5h1.5z"/><path fill="#fff" d="M21.5 18v2h-1v-2zm.5-.5h-2v3h2z"/><path fill="#000" d="M21.75 20.75h-1.5v2.5h1.5z"/><path fill="#fff" d="M21.5 21v2h-1v-2zm.5-.5h-2v3h2z"/><path fill="#000" d="M21.75 23.75h-1.5v2.5h1.5z"/><path fill="#fff" d="M21.5 24v2h-1v-2zm.5-.5h-2v3h2z"/><path fill="#000" d="M21.75 26.75h-1.5v2.5h1.5z"/><path fill="#fff" d="M21.5 27v2h-1v-2zm.5-.5h-2v3h2z"/><path fill="#000" d="M21.75 29.75h-1.5v2.5h1.5z"/><path fill="#fff" d="M21.5 30v2h-1v-2zm.5-.5h-2v3h2z"/><path fill="#000" d="M21.75 32.75h-1.5v2.5h1.5z"/><path fill="#fff" d="M21.5 33v2h-1v-2zm.5-.5h-2v3h2z"/><path fill="#000" d="M21.75 35.75h-1.5v2.5h1.5z"/><path fill="#fff" d="M21.5 36v2h-1v-2zm.5-.5h-2v3h2z"/><path fill="#000" d="M21.75 38.75h-1.5v2.5h1.5z"/><path fill="#fff" d="M21.5 39v2h-1v-2zm.5-.5h-2v3h2z"/><path fill="#000" d="M21.75 41.75h-1.5v2.5h1.5z"/><path fill="#fff" d="M21.5 42v2h-1v-2zm.5-.5h-2v3h2z"/><path fill="#000" d="M21.75 44.75h-1.5v2.5h1.5z"/><path fill="#fff" d="M21.5 45v2h-1v-2zm.5-.5h-2v3h2z"/><path fill="#000" d="M21.75 47.75h-1.5v2.5h1.5z"/><path fill="#fff" d="M21.5 48v2h-1v-2zm.5-.5h-2v3h2z"/><path fill="#000" d="M21.75 50.75h-1.5v2.5h1.5z"/><path fill="#fff" d="M21.5 51v2h-1v-2zm.5-.5h-2v3h2z"/><path fill="#000" d="M21.75 53.75h-1.5v2.5h1.5z"/><path fill="#fff" d="M21.5 54v2h-1v-2zm.5-.5h-2v3h2z"/><path fill="#000" d="M21.75 56.75h-1.5v2.5h1.5z"/><path fill="#fff" d="M21.5 57v2h-1v-2zm.5-.5h-2v3h2z"/><path fill="#000" d="M23.75 16.75h-1.5v2.5h1.5z"/><path fill="#fff" d="M23.5 17v2h-1v-2zm.5-.5h-2v3h2z"/><path fill="#000" d="M23.75 19.75h-1.5v2.5h1.5z"/><path fill="#fff" d="M23.5 20v2h-1v-2zm.5-.5h-2v3h2z"/><path fill="#000" d="M23.75 22.75h-1.5v2.5h1.5z"/><path fill="#fff" d="M23.5 23v2h-1v-2zm.5-.5h-2v3h2z"/><path fill="#000" d="M23.75 25.75h-1.5v2.5h1.5z"/><path fill="#fff" d="M23.5 26v2h-1v-2zm.5-.5h-2v3h2z"/><path fill="#000" d="M23.75 28.75h-1.5v2.5h1.5z"/><path fill="#fff" d="M23.5 29v2h-1v-2zm.5-.5h-2v3h2z"/><path fill="#000" d="M23.75 31.75h-1.5v2.5h1.5z"/><path fill="#fff" d="M23.5 32v2h-1v-2zm.5-.5h-2v3h2z"/><path fill="#000" d="M23.75 34.75h-1.5v2.5h1.5z"/><path fill="#fff" d="M23.5 35v2h-1v-2zm.5-.5h-2v3h2z"/><path fill="#000" d="M23.75 37.75h-1.5v2.5h1.5z"/><path fill="#fff" d="M23.5 38v2h-1v-2zm.5-.5h-2v3h2z"/><path fill="#000" d="M23.75 40.75h-1.5v2.5h1.5z"/><path fill="#fff" d="M23.5 41v2h-1v-2zm.5-.5h-2v3h2z"/><path fill="#000" d="M23.75 43.75h-1.5v2.5h1.5z"/><path fill="#fff" d="M23.5 44v2h-1v-2zm.5-.5h-2v3h2z"/><path fill="#000" d="M23.75 46.75h-1.5v2.5h1.5z"/><path fill="#fff" d="M23.5 47v2h-1v-2zm.5-.5h-2v3h2z"/><path fill="#000" d="M23.75 49.75h-1.5v2.5h1.5z"/><path fill="#fff" d="M23.5 50v2h-1v-2zm.5-.5h-2v3h2z"/><path fill="#000" d="M23.75 52.75h-1.5v2.5h1.5z"/><path fill="#fff" d="M23.5 53v2h-1v-2zm.5-.5h-2v3h2z"/><path fill="#000" d="M23.75 55.75h-1.5v2.5h1.5z"/><path fill="#fff" d="M23.5 56v2h-1v-2zm.5-.5h-2v3h2z"/><path fill="#000" d="M27.75 19.75h-1.5v2.5h1.5z"/><path fill="#fff" d="M27.5 20v2h-1v-2zm.5-.5h-2v3h2z"/><path fill="#000" d="M25.75 20.75h-1.5v2.5h1.5z"/><path fill="#fff" d="M25.5 21v2h-1v-2zm.5-.5h-2v3h2z"/><path fill="#000" d="M27.75 22.75h-1.5v2.5h1.5z"/><path fill="#fff" d="M27.5 23v2h-1v-2zm.5-.5h-2v3h2z"/><path fill="#000" d="M25.75 23.75h-1.5v2.5h1.5z"/><path fill="#fff" d="M25.5 24v2h-1v-2zm.5-.5h-2v3h2z"/><path fill="#000" d="M25.75 26.75h-1.5v2.5h1.5z"/><path fill="#fff" d="M25.5 27v2h-1v-2zm.5-.5h-2v3h2z"/><path fill="#000" d="M25.75 29.75h-1.5v2.5h1.5z"/><path fill="#fff" d="M25.5 30v2h-1v-2zm.5-.5h-2v3h2z"/><path fill="#000" d="M25.75 32.75h-1.5v2.5h1.5z"/><path fill="#fff" d="M25.5 33v2h-1v-2zm.5-.5h-2v3h2z"/><path fill="#000" d="M25.75 35.75h-1.5v2.5h1.5z"/><path fill="#fff" d="M25.5 36v2h-1v-2zm.5-.5h-2v3h2z"/><path fill="#000" d="M25.75 38.75h-1.5v2.5h1.5z"/><path fill="#fff" d="M25.5 39v2h-1v-2zm.5-.5h-2v3h2z"/><path fill="#000" d="M25.75 41.75h-1.5v2.5h1.5z"/><path fill="#fff" d="M25.5 42v2h-1v-2zm.5-.5h-2v3h2z"/><path fill="#000" d="M25.75 44.75h-1.5v2.5h1.5z"/><path fill="#fff" d="M25.5 45v2h-1v-2zm.5-.5h-2v3h2z"/><path fill="#000" d="M25.75 47.75h-1.5v2.5h1.5z"/><path fill="#fff" d="M25.5 48v2h-1v-2zm.5-.5h-2v3h2z"/><path fill="#000" d="M25.75 50.75h-1.5v2.5h1.5z"/><path fill="#fff" d="M25.5 51v2h-1v-2zm.5-.5h-2v3h2z"/><path fill="#000" d="M25.75 53.75h-1.5v2.5h1.5z"/><path fill="#fff" d="M25.5 54v2h-1v-2zm.5-.5h-2v3h2z"/><path fill="#000" d="M25.75 56.75h-1.5v2.5h1.5z"/><path fill="#fff" d="M25.5 57v2h-1v-2zm.5-.5h-2v3h2z"/><path fill="#000" d="M27.75 25.75h-1.5v2.5h1.5z"/><path fill="#fff" d="M27.5 26v2h-1v-2zm.5-.5h-2v3h2z"/><path fill="#000" d="M27.75 28.75h-1.5v2.5h1.5z"/><path fill="#fff" d="M27.5 29v2h-1v-2zm.5-.5h-2v3h2z"/><path fill="#000" d="M27.75 31.75h-1.5v2.5h1.5z"/><path fill="#fff" d="M27.5 32v2h-1v-2zm.5-.5h-2v3h2z"/><path fill="#000" d="M27.75 34.75h-1.5v2.5h1.5z"/><path fill="#fff" d="M27.5 35v2h-1v-2zm.5-.5h-2v3h2z"/><path fill="#000" d="M27.75 37.75h-1.5v2.5h1.5z"/><path fill="#fff" d="M27.5 38v2h-1v-2zm.5-.5h-2v3h2z"/><path fill="#000" d="M27.75 40.75h-1.5v2.5h1.5z"/><path fill="#fff" d="M27.5 41v2h-1v-2zm.5-.5h-2v3h2z"/><path fill="#000" d="M27.75 43.75h-1.5v2.5h1.5z"/><path fill="#fff" d="M27.5 44v2h-1v-2zm.5-.5h-2v3h2z"/><path fill="#000" d="M27.75 46.75h-1.5v2.5h1.5z"/><path fill="#fff" d="M27.5 47v2h-1v-2zm.5-.5h-2v3h2z"/><path fill="#000" d="M27.75 49.75h-1.5v2.5h1.5z"/><path fill="#fff" d="M27.5 50v2h-1v-2zm.5-.5h-2v3h2z"/><path fill="#000" d="M27.75 52.75h-1.5v2.5h1.5z"/><path fill="#fff" d="M27.5 53v2h-1v-2zm.5-.5h-2v3h2z"/><path fill="#000" d="M27.75 55.75h-1.5v2.5h1.5z"/><path fill="#fff" d="M27.5 56v2h-1v-2zm.5-.5h-2v3h2z"/><path fill="#000" d="M31.75 19.75h-1.5v2.5h1.5z"/><path fill="#fff" d="M31.5 20v2h-1v-2zm.5-.5h-2v3h2z"/><path fill="#000" d="M29.75 20.75h-1.5v2.5h1.5z"/><path fill="#fff" d="M29.5 21v2h-1v-2zm.5-.5h-2v3h2z"/><path fill="#000" d="M31.75 22.75h-1.5v2.5h1.5z"/><path fill="#fff" d="M31.5 23v2h-1v-2zm.5-.5h-2v3h2z"/><path fill="#000" d="M29.75 23.75h-1.5v2.5h1.5z"/><path fill="#fff" d="M29.5 24v2h-1v-2zm.5-.5h-2v3h2z"/><path fill="#000" d="M29.75 26.75h-1.5v2.5h1.5z"/><path fill="#fff" d="M29.5 27v2h-1v-2zm.5-.5h-2v3h2z"/><path fill="#000" d="M29.75 29.75h-1.5v2.5h1.5z"/><path fill="#fff" d="M29.5 30v2h-1v-2zm.5-.5h-2v3h2z"/><path fill="#000" d="M29.75 32.75h-1.5v2.5h1.5z"/><path fill="#fff" d="M29.5 33v2h-1v-2zm.5-.5h-2v3h2z"/><path fill="#000" d="M29.75 35.75h-1.5v2.5h1.5z"/><path fill="#fff" d="M29.5 36v2h-1v-2zm.5-.5h-2v3h2z"/><path fill="#000" d="M29.75 38.75h-1.5v2.5h1.5z"/><path fill="#fff" d="M29.5 39v2h-1v-2zm.5-.5h-2v3h2z"/><path fill="#000" d="M29.75 41.75h-1.5v2.5h1.5z"/><path fill="#fff" d="M29.5 42v2h-1v-2zm.5-.5h-2v3h2z"/><path fill="#000" d="M29.75 44.75h-1.5v2.5h1.5z"/><path fill="#fff" d="M29.5 45v2h-1v-2zm.5-.5h-2v3h2z"/><path fill="#000" d="M29.75 47.75h-1.5v2.5h1.5z"/><path fill="#fff" d="M29.5 48v2h-1v-2zm.5-.5h-2v3h2z"/><path fill="#000" d="M29.75 50.75h-1.5v2.5h1.5z"/><path fill="#fff" d="M29.5 51v2h-1v-2zm.5-.5h-2v3h2z"/><path fill="#000" d="M29.75 53.75h-1.5v2.5h1.5z"/><path fill="#fff" d="M29.5 54v2h-1v-2zm.5-.5h-2v3h2z"/><path fill="#000" d="M29.75 56.75h-1.5v2.5h1.5z"/><path fill="#fff" d="M29.5 57v2h-1v-2zm.5-.5h-2v3h2z"/><path fill="#000" d="M31.75 25.75h-1.5v2.5h1.5z"/><path fill="#fff" d="M31.5 26v2h-1v-2zm.5-.5h-2v3h2z"/><path fill="#000" d="M31.75 28.75h-1.5v2.5h1.5z"/><path fill="#fff" d="M31.5 29v2h-1v-2zm.5-.5h-2v3h2z"/><path fill="#000" d="M31.75 31.75h-1.5v2.5h1.5z"/><path fill="#fff" d="M31.5 32v2h-1v-2zm.5-.5h-2v3h2z"/><path fill="#000" d="M31.75 34.75h-1.5v2.5h1.5z"/><path fill="#fff" d="M31.5 35v2h-1v-2zm.5-.5h-2v3h2z"/><path fill="#000" d="M31.75 37.75h-1.5v2.5h1.5z"/><path fill="#fff" d="M31.5 38v2h-1v-2zm.5-.5h-2v3h2z"/><path fill="#000" d="M31.75 40.75h-1.5v2.5h1.5z"/><path fill="#fff" d="M31.5 41v2h-1v-2zm.5-.5h-2v3h2z"/><path fill="#000" d="M31.75 43.75h-1.5v2.5h1.5z"/><path fill="#fff" d="M31.5 44v2h-1v-2zm.5-.5h-2v3h2z"/><path fill="#000" d="M31.75 46.75h-1.5v2.5h1.5z"/><path fill="#fff" d="M31.5 47v2h-1v-2zm.5-.5h-2v3h2z"/><path fill="#000" d="M31.75 49.75h-1.5v2.5h1.5z"/><path fill="#fff" d="M31.5 50v2h-1v-2zm.5-.5h-2v3h2z"/><path fill="#000" d="M31.75 52.75h-1.5v2.5h1.5z"/><path fill="#fff" d="M31.5 53v2h-1v-2zm.5-.5h-2v3h2z"/><path fill="#000" d="M31.75 55.75h-1.5v2.5h1.5z"/><path fill="#fff" d="M31.5 56v2h-1v-2zm.5-.5h-2v3h2z"/><path fill="#000" d="M31.75 16.75h-1.5v2.5h1.5z"/><path fill="#fff" d="M31.5 17v2h-1v-2zm.5-.5h-2v3h2z"/><path fill="#000" d="M25.75 14.75h-1.5v2.5h1.5z"/><path fill="#fff" d="M25.5 15v2h-1v-2zm.5-.5h-2v3h2z"/><path fill="#000" d="M25.75 17.75h-1.5v2.5h1.5z"/><path fill="#fff" d="M25.5 18v2h-1v-2zm.5-.5h-2v3h2z"/><path fill="#000" d="M27.75 16.75h-1.5v2.5h1.5z"/><path fill="#fff" d="M27.5 17v2h-1v-2zm.5-.5h-2v3h2z"/><path fill="#000" d="M29.75 14.75h-1.5v2.5h1.5z"/><path fill="#fff" d="M29.5 15v2h-1v-2zm.5-.5h-2v3h2z"/><path fill="#000" d="M29.75 17.75h-1.5v2.5h1.5z"/><path fill="#fff" d="M29.5 18v2h-1v-2zm.5-.5h-2v3h2z"/><path fill="#000" d="M34.229 30.422c-.257 0-.512-.065-.737-.188l-8.578-4.691 3.763-5.371 6.645 5.847 8.302.923v.049c.516.16.871.625.871 1.175s-.355 1.014-.871 1.174v.023l-.223.051-9 1q-.086.01-.171.01z"/><path fill="#fff" d="m28.721 20.543 6.494 5.715 8.157.906v.026a.99.99 0 0 1 .872.974.99.99 0 0 1-.872.974v.026l-9 1a1.3 1.3 0 0 1-.76-.15l-.387-.212-7.946-4.345zm-.089-.745-.32.458-3.442 4.914-.321.458.49.268 7.946 4.345.387.212a1.8 1.8 0 0 0 1.055.208l9-1 .445-.049v-.101c.524-.236.872-.749.872-1.347s-.348-1.111-.872-1.347v-.075l-.445-.075-8.001-.889-6.375-5.611z"/><path fill="#000" d="M27 41.25a4.25 4.25 0 1 0 0-8.5 4.25 4.25 0 0 0 0 8.5"/><path fill="#fff" d="M27 33a4 4 0 1 1 0 8 4 4 0 0 1 0-8m0-.5a4.505 4.505 0 0 0-4.5 4.5c0 2.481 2.019 4.5 4.5 4.5s4.5-2.019 4.5-4.5-2.019-4.5-4.5-4.5"/><path fill="#000" d="M42.25 57.25V9A3.254 3.254 0 0 0 39 5.75H26.75v1h4.75c.413 0 .75.337.75.75s-.337.75-.75.75h-11a.75.75 0 0 1-.75-.75c0-.413.337-.75.75-.75h4.75v-2.5H39A4.756 4.756 0 0 1 43.75 9v48.25z"/><path fill="#fff" d="M39 4.5c2.481 0 4.5 2.019 4.5 4.5v48h-1V9c0-1.93-1.57-3.5-3.5-3.5H26.5V7h5a.5.5 0 0 1 0 1h-11a.5.5 0 0 1 0-1h5V4.5zm0-.5H25v2.5h-4.5a1.001 1.001 0 0 0 0 2h11a1.001 1.001 0 0 0 0-2H27V6h12c1.654 0 3 1.346 3 3v48.5h2V9c0-2.757-2.243-5-5-5"/><path fill="#000" d="M25.126 19.332a3.75 3.75 0 1 0 0-7.5 3.75 3.75 0 0 0 0 7.5"/><path fill="#fff" d="M25.126 12.082c1.93 0 3.5 1.57 3.5 3.5s-1.57 3.5-3.5 3.5-3.5-1.57-3.5-3.5 1.57-3.5 3.5-3.5m0-.5c-2.206 0-4 1.794-4 4s1.794 4 4 4 4-1.794 4-4-1.794-4-4-4"/><path fill="#000" d="M27 59.25c-1.24 0-2.25-1.01-2.25-2.25l-1.999-19.976V24A4.253 4.253 0 0 1 27 19.75 4.254 4.254 0 0 1 31.25 24v13l-2.001 20.024c0 1.216-1.009 2.226-2.249 2.226"/><path fill="#fff" d="M27 20a4 4 0 0 1 4 4v12.999l-2 20a2 2 0 0 1-4 0l-2-20v-13A4 4 0 0 1 27 20m0-.5a4.505 4.505 0 0 0-4.5 4.5v13l2.002 20.05C24.5 58.379 25.621 59.5 27 59.5s2.5-1.122 2.5-2.5l1.997-19.95.002-13.049a4.47 4.47 0 0 0-1.318-3.182 4.47 4.47 0 0 0-3.182-1.318z"/><path fill="#000" d="M27 26.25A3.254 3.254 0 0 1 23.75 23c0-1.268.756-2.422 1.904-2.946l-.015-.038.275-.078.16-.039c.124-.037.262-.073.404-.097l5.855-1.423-2.561-5.839.008-.005a1.1 1.1 0 0 1-.077-.401c0-.689.561-1.25 1.25-1.25.359 0 .692.158.927.434l.003-.002.138.17 5.365 7.289c.325.441.459.983.377 1.525a2.04 2.04 0 0 1-.812 1.345c-.109.097-.313.193-.494.278-.075.036-7.858 3.892-7.858 3.892a3 3 0 0 1-.423.209l-.23.089-.009-.011c-.319.1-.627.148-.937.148"/><path fill="#fff" d="M30.955 11.134c.37 0 .679.21.852.508l.014-.008 5.366 7.289c.59.802.419 1.93-.383 2.52-.148.13-.493.264-.665.36l-7.651 3.788c-.13.075-.261.144-.402.199l-.059.029-.004-.01c-.32.117-.661.191-1.022.191a3 3 0 0 1-3-3c0-1.296.827-2.39 1.978-2.809l-.004-.01.161-.039c.126-.038.252-.072.384-.093l6.164-1.497-2.594-5.917.014-.008a1 1 0 0 1-.148-.492 1 1 0 0 1 1-1m-.001-.501c-.827 0-1.5.673-1.5 1.5q0 .127.025.253l-.022.012.174.437 2.355 5.371-5.584 1.356a3 3 0 0 0-.411.101l-.134.032-.548.133.037.1a3.5 3.5 0 0 0-1.845 3.072c0 1.93 1.57 3.5 3.5 3.5q.353 0 .716-.081l.031.085.501-.237.058-.029c.146-.055.31-.145.431-.214l7.623-3.772c.071-.039.136-.069.206-.102.195-.092.415-.197.567-.33.989-.726 1.208-2.17.456-3.192l-5.366-7.289-.266-.361-.039.023a1.46 1.46 0 0 0-.964-.365z"/></symbol><symbol id="singing" fill="none" viewBox="0 0 64 64"><path fill="#000" d="M28 55.25c-1.24 0-2.25-1.01-2.25-2.25l-1.941-19.38-.042-.25-1.154-13.196h.012a1 1 0 0 1-.007-.124 4.254 4.254 0 0 1 4.25-4.25 4.21 4.21 0 0 1 4.187 3.641h.007l.04.239 1.155 13.197h-.012c.004.041.006.131.006.131L30.25 53.025c0 1.216-1.009 2.226-2.249 2.226z"/><path fill="#fff" d="M26.867 16.05c2.09 0 3.786 1.609 3.965 3.653l.02-.002 1.133 12.951-.02.002c.01.116.035.228.035.347 0 .027-.008.052-.008.079L30 53.001a2 2 0 0 1-4 0l-1.965-19.653-.019.002-1.133-12.951.02-.002c-.01-.116-.035-.228-.035-.347a4 4 0 0 1 3.999-4m0-.5a4.506 4.506 0 0 0-4.499 4.391h-.008l.024.501 1.133 12.951.043.499.026-.002 1.916 19.161c-.002 1.329 1.119 2.45 2.498 2.45s2.5-1.122 2.5-2.5l1.99-19.871.002-.019h.015l-.008-.158-.001-.033-.015-.31-1.133-12.951-.043-.498-.046.004a4.46 4.46 0 0 0-4.393-3.614z"/><path fill="#000" d="M26.105 15.332a3.75 3.75 0 1 0 0-7.5 3.75 3.75 0 0 0 0 7.5"/><path fill="#fff" d="M26.106 8.082a3.5 3.5 0 1 1 0 7 3.5 3.5 0 0 1 0-7m0-.5c-2.206 0-4 1.794-4 4s1.794 4 4 4 4-1.794 4-4-1.794-4-4-4"/><path fill="#000" d="M37.229 13.07h-5.5v1.5h5.5z"/><path fill="#fff" d="M36.979 13.32v1h-5v-1zm.5-.5h-6v2h6z"/><path fill="#000" d="M31.979 15.07a1.25 1.25 0 1 0 0-2.5 1.25 1.25 0 0 0 0 2.5"/><path fill="#fff" d="M31.979 12.82a1 1 0 1 1 0 2 1 1 0 0 1 0-2m0-.5c-.827 0-1.5.673-1.5 1.5s.673 1.5 1.5 1.5 1.5-.673 1.5-1.5-.673-1.5-1.5-1.5"/><path fill="#000" d="M35.19 25.166c-.438 0-3.331-.978-7.065-2.254-.8-.273-1.502-.514-1.987-.676-1.509-.275-2.628-1.617-2.628-3.183a3.254 3.254 0 0 1 3.25-3.25q.586 0 1.152.219l.016-.031.238.124.325.196-.034.271.129-.214 4.87 2.933 1.154-5.76h.012a1.23 1.23 0 0 1 1.187-.898c.689 0 1.25.561 1.25 1.25v.036l-.008.032.004.014.212 9.053a2.06 2.06 0 0 1-.575 1.486 2.07 2.07 0 0 1-1.361.64l-.005.005-.135.008z"/><path fill="#fff" d="M35.808 12.893a1 1 0 0 1 1 1c0 .031-.015.056-.017.086l.014.001.212 9.053a1.83 1.83 0 0 1-1.79 1.875q-.009.008-.037.008c-.559 0-6.842-2.204-8.974-2.917a2.996 2.996 0 0 1 .543-5.945c.456 0 .884.11 1.271.292l.007-.015.325.196c.031.02.064.036.094.057L33.63 19.7l1.182-5.893h.013a.99.99 0 0 1 .983-.913m0-.501c-.601 0-1.12.355-1.354.88l-.031-.003-.101.437-1.042 5.196-4.565-2.75s-.034-.022-.065-.039l-.355-.213-.48-.289-.044.097a3.4 3.4 0 0 0-1.012-.155c-1.93 0-3.5 1.57-3.5 3.5a3.494 3.494 0 0 0 2.831 3.43c.477.16 1.151.39 1.918.653 4.609 1.576 6.74 2.279 7.182 2.279h.196l.023-.018a2.3 2.3 0 0 0 1.463-.712c.43-.451.659-1.042.644-1.665l-.212-9.053v-.007l.004-.069q0-.086-.01-.17l-.005-.201-.033-.003a1.5 1.5 0 0 0-1.453-1.127z"/></symbol><symbol id="sleeping" fill="none" viewBox="0 0 64 64"><path fill="#000" d="M13.582 29.876a3.75 3.75 0 1 0 0-7.5 3.75 3.75 0 0 0 0 7.5"/><path fill="#fff" d="M13.582 22.626a3.5 3.5 0 1 1 0 7 3.5 3.5 0 0 1 0-7m0-.5c-2.206 0-4 1.794-4 4s1.794 4 4 4 4-1.794 4-4-1.794-4-4-4"/><path fill="#000" d="M9 32.25c-.689 0-1.25-.561-1.25-1.25s.561-1.25 1.25-1.25h8c.689 0 1.25.561 1.25 1.25s-.561 1.25-1.25 1.25z"/><path fill="#fff" d="M17 30a1 1 0 0 1 0 2H9a1 1 0 0 1 0-2zm0-.5H9c-.827 0-1.5.673-1.5 1.5s.673 1.5 1.5 1.5h8c.827 0 1.5-.673 1.5-1.5s-.673-1.5-1.5-1.5"/><path fill="#000" d="M22 32.25A4.254 4.254 0 0 1 17.75 28 4.254 4.254 0 0 1 22 23.75h29c4.549 0 8.25 3.701 8.25 8.25v.25z"/><path fill="#fff" d="M51 24a8 8 0 0 1 8 8H22a4 4 0 0 1 0-8zm0-.5H22a4.505 4.505 0 0 0-4.5 4.5c0 2.481 2.019 4.5 4.5 4.5h37.5V32c0-4.687-3.813-8.5-8.5-8.5"/><path fill="#000" d="M21.028 31.25H21A3.254 3.254 0 0 1 17.75 28a3.22 3.22 0 0 1 2.709-3.189l-.005-.041.29-.008.121.003a.8.8 0 0 1 .307 0l8.585.208 8.487-2.067a1 1 0 0 1 .177-.016c.689 0 1.25.561 1.25 1.25 0 .492-.284.925-.732 1.129l-8.208 4.065-.108.032-8.793 1.764a3 3 0 0 1-.382.077l-.416.081z"/><path fill="#fff" d="M38.421 23.139a1 1 0 0 1 1 1 .99.99 0 0 1-.661.932l.003.008-8.113 4.016a.3.3 0 0 1-.075.026l-.435.087-8.36 1.677a3 3 0 0 1-.369.074l-.15.03v-.015c-.088.008-.172.026-.261.026a3 3 0 0 1-3-3 2.99 2.99 0 0 1 2.74-2.974v-.015l.119.003c.048-.002.093-.014.141-.014.077 0 .15.017.226.023l8.524.199 8.328-2.023.003.008a1 1 0 0 1 .339-.068m-.019-.523-.172.038a2 2 0 0 0-.197.044l-.072.016-8.264 2.007-8.458-.198-.034-.006a1 1 0 0 0-.352-.005h-.102l-.556-.014.009.107a3.47 3.47 0 0 0-2.703 3.394 3.504 3.504 0 0 0 3.302 3.494l.007.08.551-.095.15-.03a3 3 0 0 0 .401-.082l8.328-1.669.434-.087a.8.8 0 0 0 .199-.068l8.113-4.016.4-.198-.014-.039a1.49 1.49 0 0 0 .55-1.151c0-.827-.673-1.5-1.5-1.5h-.011l-.009-.024z"/><path fill="#000" d="M55.75 41.25v-4H7.25v4h-3.5V24.5c0-.965.785-1.75 1.75-1.75s1.75.785 1.75 1.75v8.25h52v8.5z"/><path fill="#fff" d="M5.5 23A1.5 1.5 0 0 1 7 24.5V33h52v8h-3v-4H7v4H4V24.5A1.5 1.5 0 0 1 5.5 23m0-.5c-1.103 0-2 .897-2 2v17h4v-4h48v4h4v-9h-52v-8c0-1.103-.897-2-2-2"/></symbol><symbol id="swimming" fill="none" viewBox="0 0 64 64"><path fill="#000" d="M32.947 35.798c.09.04.18.08.28.12-.16.13-.32.23-.49.33-.48-.22-.93-.45-1.43-.65-.82-.34-1.79-.6-3.31-.6-.17 0-.34 0-.5.01-2.98.12-3.67 1.34-5.93 1.81h-.01c-.54.11-1.18.18-1.96.18-.47 0-.89-.03-1.26-.07-2-.24-2.85-1.02-4.32-1.51-.01-.14-.02-.28-.02-.42 0-.04 0-.07.01-.11.06.02.11.04.17.06.54.18 1 .39 1.44.6.8.38 1.56.74 2.78.88 1.14.12 2.18.08 3.06-.1l.1-.01c.77-.17 1.38-.46 2.03-.77.99-.47 2.02-.96 3.89-1.04.16-.01.34-.01.521-.01.62 0 1.15.04 1.61.11.83.13 1.43.34 1.89.53.29.12.57.25.85.38.06.03.11.05.17.08z"/><path fill="#000" d="M41.317 34.048c-.44.35-.97.58-1.54.67-.65.31-1.26.57-2.16.7l-2.05.05c-.9-.08-1.49-.28-1.99-.49l-.21-.09-.42-.2c-.35-.17-.71-.33-1.07-.48-.96-.39-1.92-.61-3.04-.68q-.405-.03-.84-.03c-.2 0-.4 0-.56.01-2.08.08-3.25.64-4.28 1.14-.58.27-1.09.52-1.76.67l-.14.03c-.78.16-1.73.2-2.74.09-1.06-.13-1.71-.43-2.47-.79-.47-.22-.96-.45-1.54-.65-.12-.04-.23-.08-.35-.11a4.01 4.01 0 0 1 3.15-2.83l8.85-1.56 3.82-.67c.05-.01.09-.01.13-.02q.33-.06.69-.06c.61 0 1.18.13 1.69.38.01 0 .01.01.02.01.41.19.78.45 1.09.75l2.24.45 5.09 1.03.34.06 1.37.54 4.55 1.77c-.66-.15-1.43-.24-2.39-.24-1.26 0-2.33.16-3.35.51l-.12.04zm8.13 1.61-.13.49c-.29-.13-.57-.27-.86-.4-.89-.4-1.91-.75-3.66-.75-1.39 0-2.32.22-3.09.51h-.02l-.93-.14q.36-.18.75-.33l.11-.03c.97-.35 1.95-.51 3.18-.51 1.77 0 2.84.34 3.75.75h.01c.22.1.42.19.63.29z"/><path fill="#000" d="M39.208 35.018a3.755 3.755 0 0 1-3.75-3.75q0-.533.141-1.001a3.74 3.74 0 0 1 3.609-2.749 3.755 3.755 0 0 1 3.674 4.503 3.7 3.7 0 0 1-1.402 2.227l-.067.051h-.009a3.56 3.56 0 0 1-1.587.667 4 4 0 0 1-.608.053z"/><path fill="#fff" d="M39.208 27.768a3.504 3.504 0 0 1 3.43 4.2c-.17.85-.65 1.58-1.31 2.08h-.01c-.44.35-.97.58-1.54.67a3.49 3.49 0 0 1-3.94-4.38c.4-1.48 1.75-2.57 3.37-2.57m0-.5a3.99 3.99 0 0 0-3.853 2.94 3.7 3.7 0 0 0-.147 1.06c0 2.206 1.794 4 4 4 .197 0 .409-.018.648-.056a3.8 3.8 0 0 0 1.629-.664l.144-.101a3.96 3.96 0 0 0 1.579-3.179c0-2.206-1.794-4-4-4"/><path fill="red" d="M50.377 36.048c-.14.37-.51.64-.93.64a1 1 0 0 1-.17-.02h-.01a.9.9 0 0 1-.45-.21h-.01a.96.96 0 0 1-.35-.71c-.01-.02-.01-.04-.01-.06 0-.16.04-.31.1-.44h.01c.22.1.42.19.63.29l.26.12.08.04c.27.13.55.25.85.35"/><path fill="#000" d="M31.788 35.817c-.91 0-1.75-.37-2.365-1.041l-.481-.526.705.11a8.3 8.3 0 0 1 1.946.546c.294.122.578.253.86.385l.729.339-.793.134a3.6 3.6 0 0 1-.602.054z"/><path fill="#fff" d="M29.607 34.608c.83.13 1.43.34 1.89.53.29.12.57.25.85.38-.18.03-.37.05-.56.05-.87 0-1.64-.37-2.18-.96m-1.332-.715.963 1.052a3.42 3.42 0 0 0 2.549 1.122q.301 0 .642-.057l1.594-.266-1.466-.681c-.286-.133-.572-.266-.869-.388a8.5 8.5 0 0 0-2.004-.562z"/><path fill="#000" d="m33.268 35.117-.429-.204a21 21 0 0 0-1.058-.475 9.2 9.2 0 0 0-2.96-.662l-.124-.007-3.916-5.885-7.904-.183v-.021c-.646-.099-1.09-.609-1.09-1.223 0-.6.431-1.103 1.02-1.213l.091-.022 8.881-1.78c.117-.027.242-.041.366-.041.55 0 1.065.271 1.577.827 0 0 2.938 2.801 4.866 4.649l.02.01 1.283 1.23c.093.072.192.172.292.282a.5.5 0 0 1 .104.127c.482.574.751 1.293.751 2.04a3.25 3.25 0 0 1-1.31 2.609l-.114.087z"/><path fill="#fff" d="M26.145 23.651c.557 0 1.021.341 1.393.746 0 0 3.02 2.88 4.95 4.73.01 0 .01.01.02.01.5.48.93.89 1.21 1.16.1.08.19.17.28.27.04.04.06.06.07.08.44.53.72 1.19.72 1.92 0 .99-.48 1.86-1.21 2.41l-.21-.09-.42-.2c-.35-.17-.71-.33-1.07-.48-.96-.39-1.92-.61-3.04-.68l-2.68-4.03-1.24-1.86-7.79-.18v-.01c-.03 0-.06.01-.09.01-.55 0-1-.44-1-1 0-.52.4-.93.91-.98v-.01l8.88-1.78q.164-.037.317-.036m0-.5q-.214 0-.429.049l-8.867 1.777-.402.081v.036a1.48 1.48 0 0 0-.91 1.363c0 .685.461 1.264 1.09 1.443v.036l.222.01q.093.012.188.012h.078l7.53.174 1.095 1.643 2.68 4.03.138.207.248.015a8.9 8.9 0 0 1 2.883.644c.368.154.719.311 1.04.467l.423.202.227.098.267.115.232-.175a3.5 3.5 0 0 0 1.41-2.809c0-.796-.281-1.56-.814-2.213a1 1 0 0 0-.123-.14 2.6 2.6 0 0 0-.322-.307l-.557-.537-.619-.593-.116-.112-.033-.032h-.011a3724 3724 0 0 0-4.811-4.597c-.53-.579-1.123-.885-1.738-.885z"/><path fill="#000" d="M53.197 36.498v1c-1.88 0-2.98-.39-3.92-.83h-.01c-.06-.02-.11-.05-.16-.07l-.29-.14h-.01l-.04-.02c-1.03-.48-2-.94-3.97-.94-1.46 0-2.32.26-2.91.48l-.11.03c-.34.13-.65.29-.97.44-1.08.51-2.21 1.05-4.41 1.05-1.84 0-2.95-.38-3.86-.79l-.45-.21c-.31-.15-.63-.3-.97-.44-.67-.28-1.57-.56-3.12-.56-.15.01-.32 0-.47.01-1.68.07-2.57.49-3.51.94-.67.32-1.37.66-2.35.86l-.1.01c-.84.18-2.02.24-3.28.11-1.39-.17-2.26-.58-3.09-.97-.44-.21-.85-.4-1.34-.57-.77-.26-1.62-.39-2.66-.39v-1c1.09 0 1.98.12 2.81.39.06.02.11.04.17.06.54.18 1 .39 1.44.6.8.38 1.56.74 2.78.88 1.14.12 2.18.08 3.06-.1l.1-.01c.77-.17 1.38-.46 2.03-.77.99-.47 2.02-.96 3.89-1.04.16-.01.34-.01.521-.01.62 0 1.15.04 1.61.11.83.13 1.43.34 1.89.53.29.12.57.25.85.38.06.03.11.05.17.08l.43.2c.09.04.18.08.28.12.72.3 1.64.58 3.17.58 1.98 0 2.95-.46 3.98-.96.13-.06.25-.12.38-.17q.36-.18.75-.33l.11-.03c.97-.35 1.95-.51 3.18-.51 1.77 0 2.84.34 3.75.75h.01c.22.1.42.19.63.29l.26.12.08.04c.27.13.55.25.85.35.71.26 1.56.45 2.82.45z"/></symbol><symbol id="van" fill="none" viewBox="0 0 64 64"><path fill="#000" d="m19.985 34.652-1.133-12.951-.02.002c-.179-2.044-1.875-3.653-3.965-3.653a4 4 0 0 0-4 4c0 .119.025.231.035.347l-.02.002 1.133 12.951zm-5.481-17.71a3.5 3.5 0 1 0 0-7 3.5 3.5 0 0 0 0 7"/><path fill="#000" d="M18.198 31.479c-.649 0-1.24-.332-1.58-.887l-4.642-7.616a3 3 0 0 1-.225-.37l-.227-.37.044-.019a3.2 3.2 0 0 1-.211-1.134 3.254 3.254 0 0 1 3.25-3.25 3.26 3.26 0 0 1 2.813 1.64l.041-.023.102.288c.079.185.135.359.182.539l2.372 7.019 7.615 1.527-.213 2.438z"/><path fill="#fff" d="M14.608 18.084c1.203 0 2.233.713 2.711 1.735l.007-.003.015.044c.069.153.12.314.162.48l2.424 7.174 7.537 1.512-.174 1.992-9.053.212h-.038a1.6 1.6 0 0 1-1.369-.768l-.231-.38-4.409-7.236a3 3 0 0 1-.218-.358l-.083-.136.007-.003a3 3 0 0 1-.289-1.265 3 3 0 0 1 3.001-3m0-.5c-1.93 0-3.5 1.57-3.5 3.5q0 .513.155 1.012l-.082.039.282.478.083.136c.048.091.133.244.241.392l4.386 7.202.231.38A2.09 2.09 0 0 0 18.2 31.73l9.103-.212.447-.01.039-.446.174-1.992.039-.446-.439-.088-7.254-1.455-2.332-6.9a3 3 0 0 0-.179-.524l-.209-.466-.039.014a3.51 3.51 0 0 0-2.942-1.619z"/><path fill="#000" d="M62.69 24.359 49.8 8.249a6 6 0 0 0-4.68-2.25H6c-3.31 0-6 2.69-6 6v32c0 3.32 2.69 6 6 6h1v-2c0-4.96 4.04-9 9-9s9 4.04 9 9v2h14v-2c0-4.96 4.04-9 9-9s9 4.04 9 9v2h1c3.31 0 6-2.68 6-6v-15.89c0-1.37-.46-2.69-1.31-3.75M29 27.999H2v-16c0-2.2 1.79-4 4-4h23zm2 0v-20h14.12c1.22 0 2.36.55 3.12 1.5l12.88 16.11c.55.68.86 1.52.88 2.39z"/><path fill="#fff" d="M48 55.001a7 7 0 1 0 0-14 7 7 0 0 0 0 14"/><path fill="#000" d="M48 42.001c3.308 0 6 2.692 6 6s-2.692 6-6 6-6-2.692-6-6 2.692-6 6-6m0-2a8 8 0 1 0 0 16 8 8 0 0 0 0-16"/><path fill="#fff" d="M16 54.999a7 7 0 0 1-6.782-5.25A7.2 7.2 0 0 1 9 47.999c0-3.859 3.141-7 7-7s7 3.141 7 7c0 .583-.074 1.174-.22 1.757A7 7 0 0 1 16 54.999"/><path fill="#000" d="M16 41.999a6.007 6.007 0 0 1 5.813 7.5 6 6 0 0 1-5.813 4.5 6 6 0 0 1-5.81-4.486A6.007 6.007 0 0 1 16 41.999m0-2c-4.42 0-8 3.58-8 8 0 .69.09 1.36.25 2a8.006 8.006 0 0 0 15.5 0c.16-.64.25-1.31.25-2 0-4.42-3.58-8-8-8"/><path stroke="#000" stroke-linecap="round" stroke-miterlimit="10" stroke-width="2" d="m57 23.001-2 6"/><path fill="#000" d="m44.985 34.652-1.133-12.951-.02.002c-.179-2.044-1.875-3.653-3.965-3.653a4 4 0 0 0-4 4c0 .119.025.231.035.347l-.02.002 1.133 12.951zm-5.482-17.461a3.75 3.75 0 1 0 0-7.5 3.75 3.75 0 0 0 0 7.5"/><path fill="#fff" d="M39.504 9.942a3.5 3.5 0 1 1 0 7 3.5 3.5 0 0 1 0-7m0-.5c-2.206 0-4 1.794-4 4s1.794 4 4 4 4-1.794 4-4-1.794-4-4-4"/><path fill="#000" d="M46.835 28.506a1.5 1.5 0 0 1-.735-.188l-7.762-4.244a3 3 0 0 1-.573-.316l-.268-.134.036-.044a3.25 3.25 0 0 1-1.176-2.496 3.254 3.254 0 0 1 3.25-3.25c.586 0 1.154.158 1.659.46l.023-.031.31.271a3 3 0 0 1 .359.316l5.97 5.252 8.079.898c.661 0 1.222.561 1.222 1.248s-.561 1.25-1.25 1.25l-8.973.998q-.086.01-.171.01"/><path fill="#fff" d="M39.608 18.084c.641 0 1.231.204 1.719.547l.002-.004.104.092c.122.094.239.192.345.303l6.045 5.32 8.157.906a1 1 0 0 1 0 2l-9 1a1.3 1.3 0 0 1-.761-.15l-.387-.212-7.374-4.032a3 3 0 0 1-.551-.301l-.021-.011.002-.004a3 3 0 0 1-1.281-2.454 3 3 0 0 1 3-3m.001-.5c-1.93 0-3.5 1.57-3.5 3.5 0 .972.409 1.896 1.114 2.554l-.051.077.477.265c.173.119.379.234.594.325l7.351 4.02.387.212a1.8 1.8 0 0 0 1.056.208l8.975-.997a1.501 1.501 0 0 0 0-3l-7.976-.886-5.926-5.215a3 3 0 0 0-.369-.324l-.08-.072-.429-.378-.056.084a3.46 3.46 0 0 0-1.566-.374z"/></symbol><symbol id="waking-up" fill="none" viewBox="0 0 64 64"><path fill="#000" d="M26 42.25a4.25 4.25 0 1 0 0-8.5 4.25 4.25 0 0 0 0 8.5"/><path fill="#fff" d="M26 34a4 4 0 1 1 0 8 4 4 0 0 1 0-8m0-.5a4.505 4.505 0 0 0-4.5 4.5c0 2.481 2.019 4.5 4.5 4.5s4.5-2.019 4.5-4.5-2.019-4.5-4.5-4.5"/><path fill="#000" d="M26 20.25a3.75 3.75 0 1 0 0-7.5 3.75 3.75 0 0 0 0 7.5"/><path fill="#fff" d="M26 13a3.5 3.5 0 1 1 0 7 3.5 3.5 0 0 1 0-7m0-.5c-2.206 0-4 1.794-4 4s1.794 4 4 4 4-1.794 4-4-1.794-4-4-4"/><path fill="#000" d="M9 42.25c-.689 0-1.25-.561-1.25-1.25s.561-1.25 1.25-1.25h8c.689 0 1.25.561 1.25 1.25s-.561 1.25-1.25 1.25z"/><path fill="#fff" d="M17 40a1 1 0 0 1 0 2H9a1 1 0 0 1 0-2zm0-.5H9c-.827 0-1.5.673-1.5 1.5s.673 1.5 1.5 1.5h8c.827 0 1.5-.673 1.5-1.5s-.673-1.5-1.5-1.5"/><path fill="#000" d="M26 42.25c-2.177 0-4.036-1.704-4.233-3.879l-1.198-13.695h.012l-.006-.124a4.254 4.254 0 0 1 4.25-4.25 4.214 4.214 0 0 1 4.187 3.641h.007l.04.239.838 9.568h21.104c4.549 0 8.25 3.701 8.25 8.25v.25z"/><path fill="#fff" d="M24.823 20.551c2.09 0 3.787 1.609 3.965 3.653l.02-.002.857 9.797H51a8 8 0 0 1 8 8H26c-2.086 0-3.8-1.614-3.985-3.651l-1.177-13.449.02-.002c-.01-.116-.035-.228-.035-.347a4 4 0 0 1 4-4m0-.499a4.506 4.506 0 0 0-4.499 4.391h-.008l.024.501 1.177 13.449C21.726 40.696 23.695 42.5 26 42.5h33.5V42c0-4.687-3.813-8.5-8.5-8.5H30.124l-.817-9.341-.043-.498-.046.004a4.46 4.46 0 0 0-4.393-3.614z"/><path fill="#000" d="M30.94 31.756c-.306 0-.601-.089-.854-.258l-7.471-4.971a3 3 0 0 1-.336-.225l-.326-.216.033-.041a3.22 3.22 0 0 1-.987-2.313 3.254 3.254 0 0 1 3.25-3.25c.678 0 1.323.212 1.88.614l.024-.029.204.193.079.083c.092.083.188.186.279.293l5.558 5.821 8.188 1.643v.011c.524.151.896.626.896 1.187 0 .689-.561 1.25-1.25 1.25h-.036l-.024-.006z"/><path fill="#fff" d="M24.25 20.732c.734 0 1.398.274 1.919.712l.009-.01.079.083q.144.133.269.282l5.622 5.888 8.048 1.614v.014a.99.99 0 0 1 .913.983 1 1 0 0 1-1 1c-.031 0-.056-.015-.086-.017v.014l-9.054.212h-.031c-.263 0-.508-.079-.713-.216l-.368-.245-7.103-4.726a3 3 0 0 1-.323-.215l-.11-.073.009-.01a2.98 2.98 0 0 1-1.081-2.288 3 3 0 0 1 3-3m.001-.502c-1.93 0-3.5 1.57-3.5 3.5 0 .859.322 1.682.898 2.322l-.061.072.458.321.11.073c.093.072.218.155.349.231l7.076 4.71.368.245c.294.196.636.299.99.299l9.095-.212h.006l.07.004q.087 0 .171-.01l.2-.005.003-.033a1.5 1.5 0 0 0 1.126-1.453c0-.601-.355-1.119-.879-1.353l.003-.031-.439-.102-7.893-1.583-5.513-5.775a3 3 0 0 0-.295-.308l-.053-.058-.384-.401-.068.08a3.4 3.4 0 0 0-1.838-.533"/><path fill="#000" d="M55.75 51.25v-4H7.25v4h-3.5V34.5c0-.965.785-1.75 1.75-1.75s1.75.785 1.75 1.75v8.25h52v8.5z"/><path fill="#fff" d="M5.5 33A1.5 1.5 0 0 1 7 34.5V43h52v8h-3v-4H7v4H4V34.5A1.5 1.5 0 0 1 5.5 33m0-.5c-1.103 0-2 .897-2 2v17h4v-4h48v4h4v-9h-52v-8c0-1.103-.897-2-2-2"/></symbol><symbol id="walking-wheelchair" fill="none" viewBox="0 0 64 64"><path fill="#000" d="M21.874 16.303a3.75 3.75 0 1 0 0-7.5 3.75 3.75 0 0 0 0 7.5"/><path fill="#fff" d="M21.874 9.052a3.5 3.5 0 1 1 0 7 3.5 3.5 0 0 1 0-7m0-.5c-2.206 0-4 1.794-4 4s1.794 4 4 4 4-1.794 4-4-1.794-4-4-4"/><path fill="#000" d="M11.001 53.539c-1.24 0-2.25-1.01-2.25-2.25 0-.476.15-.929.437-1.317l.061-.108 5.086-7.462 1.601-9.78 8.262 2.216-3.866 10.218a1.9 1.9 0 0 1-.445.682l-7.184 7.01a2.22 2.22 0 0 1-1.7.793z"/><path fill="#fff" d="M16.136 32.935 20 33.971l3.863 1.036-3.556 9.401-.211.558a1.7 1.7 0 0 1-.388.593l-7.183 7.009c-.367.437-.91.721-1.526.721a2 2 0 0 1-2-2c0-.486.18-.926.469-1.273l-.015-.012 5.116-7.508 1.565-9.561m-.402-.626-.089.545-1.548 9.452-5.054 7.417-.256.375.016.013a2.44 2.44 0 0 0-.302 1.178c0 1.379 1.122 2.5 2.5 2.5a2.49 2.49 0 0 0 1.909-.9l7.149-6.973c.224-.22.398-.487.507-.774l.211-.558 3.556-9.401.195-.517-.534-.143-3.863-1.036-3.864-1.036z"/><path fill="#000" d="M26.844 55.016a2.26 2.26 0 0 1-2.08-1.409l-8.518-17.681c-.071-.136-.143-.27-.197-.412l-.09-.233.009-.008a4.1 4.1 0 0 1-.218-1.302q0-.1.015-.196v-.174l1.155-13.202.028.002a4.21 4.21 0 0 1 4.185-3.631 4.254 4.254 0 0 1 4.25 4.25q-.002.099-.015.195l-.002.175-1.079 12.333 4.695 18.365c.075.231.111.454.111.678 0 1.24-1.009 2.25-2.249 2.25"/><path fill="#fff" d="M21.133 17.02a4 4 0 0 1 4 4c0 .119-.025.231-.035.347l.02.002-1.079 12.332 4.685 18.38-.007.002c.078.214.127.441.127.682a1.995 1.995 0 0 1-3.873.682l-.006.002-8.493-17.632c-.068-.129-.136-.257-.189-.393l-.041-.085.013-.005a4 4 0 0 1-.254-1.364c0-.119.025-.231.035-.347l-.02-.002 1.133-12.951.02.002c.178-2.044 1.875-3.653 3.965-3.653m-.001-.499a4.46 4.46 0 0 0-4.393 3.614l-.027-.002-.063.496-1.133 12.951-.044.499.028.002q.014.468.135.946l-.073.026.228.504.041.085c.042.112.113.25.186.388l8.496 17.637.032.067q.049.115.108.225l.056.117.01-.003a2.5 2.5 0 0 0 2.124 1.194c1.378 0 2.5-1.122 2.5-2.5q0-.372-.123-.753l-.013-.055-4.664-18.298 1.072-12.248.044-.499-.028-.002a4.506 4.506 0 0 0-4.499-4.391"/><path fill="#000" d="M31.48 32.481a1 1 0 0 1-.215-.031l-.082-.006-8.958-1.364c-.844-.114-1.466-.782-1.66-1.785l-2.364-8.08a3.3 3.3 0 0 1-.171-.588l-.049-.257.012-.004a3 3 0 0 1-.022-.343 3.254 3.254 0 0 1 3.25-3.25 3.24 3.24 0 0 1 3.144 2.456l.037-.005.024.265.012.191c.022.168.033.254.033.343l.452 7.312 7.121 2.78-.005.015c.422.208.691.624.691 1.101 0 .689-.561 1.25-1.25 1.25"/><path fill="#fff" d="M21.22 17.024a2.996 2.996 0 0 1 2.948 2.482h.007l.012.19c.012.109.033.216.033.328 0 .026-.007.049-.008.074l.471 7.412 7.055 2.755-.005.017a.99.99 0 0 1 .746.949 1 1 0 0 1-1 1c-.09 0-.171-.029-.254-.051l-.005.017-8.959-1.364c-.844-.115-1.306-.83-1.453-1.586l-2.369-8.102a3 3 0 0 1-.165-.565l-.011-.037h.007a3 3 0 0 1-.052-.519 3 3 0 0 1 3-3m.002-.5a3.504 3.504 0 0 0-3.498 3.608l-.087.016.151.537c.042.214.106.436.192.648l2.352 8.055c.205 1.068.906 1.811 1.865 1.941l8.951 1.363.442.067.009-.032a1.5 1.5 0 0 0 1.383-1.495 1.48 1.48 0 0 0-.655-1.221l.008-.031-.413-.18-6.759-2.639-.448-7.05.006-.087c0-.101-.012-.199-.025-.297l-.011-.085-.01-.169-.035-.556-.099.017a3.49 3.49 0 0 0-3.319-2.41"/><path fill="#000" d="M53.589 51.91a2.25 2.25 0 0 1-2.142-1.586l-1.064-2.809-4.845-3.718-4.505.449c-2.16 0-3.916-1.543-4.219-3.627h-.007l-.042-.25-1.154-13.195.012-.002a1 1 0 0 1-.007-.123 4.254 4.254 0 0 1 4.25-4.25 4.21 4.21 0 0 1 4.187 3.641h.007l.04.239.829 9.462 6.099.609c1.613 0 2.895 1.001 3.117 2.435l1.639 10.01c.038.167.056.316.056.465 0 1.24-1.011 2.25-2.251 2.25"/><path fill="#fff" d="M39.867 23.049c2.09 0 3.787 1.609 3.965 3.653l.02-.002.846 9.669 6.302.63h.024c1.397 0 2.657.82 2.874 2.223l1.624 9.919-.008.002c.044.166.076.336.076.516a2 2 0 0 1-2 2 1.994 1.994 0 0 1-1.924-1.484l-.007.002-1.066-2.818-4.98-3.821-4.596.46-.016.002c-2.09 0-3.786-1.609-3.965-3.653l-.02.002-1.133-12.951.02-.002c-.01-.116-.035-.228-.035-.347a4 4 0 0 1 3.999-4m0-.5a4.506 4.506 0 0 0-4.499 4.391h-.008l.008.158.001.032.015.311 1.133 12.951.043.498.046-.004a4.46 4.46 0 0 0 4.393 3.614h.038l.046-.007v-.002l4.381-.436 4.71 3.614 1.015 2.685.032.084q.035.107.079.209l.049.129.01-.003a2.5 2.5 0 0 0 2.23 1.385c1.378 0 2.5-1.121 2.5-2.5 0-.173-.021-.346-.066-.538l-.009-.06-1.624-9.919c-.24-1.554-1.625-2.643-3.367-2.643l-5.865-.586-.81-9.256-.043-.498-.046.004a4.46 4.46 0 0 0-4.393-3.614z"/><path fill="#000" d="M39.127 22.332a3.75 3.75 0 1 0 0-7.5 3.75 3.75 0 0 0 0 7.5"/><path fill="#fff" d="M39.126 15.082a3.5 3.5 0 1 1 0 7 3.5 3.5 0 0 1 0-7m0-.5c-2.206 0-4 1.794-4 4s1.794 4 4 4 4-1.794 4-4-1.794-4-4-4"/><path fill="#000" d="M41 55.25c-5.652 0-10.25-4.598-10.25-10.25 0-2.192.691-4.287 2-6.064V31.75H31c-.689 0-1.25-.561-1.25-1.25s.561-1.25 1.25-1.25h3c.689 0 1.25.561 1.25 1.25v6.027A10.14 10.14 0 0 1 41 34.75c5.652 0 10.25 4.598 10.25 10.25S46.652 55.25 41 55.25m0-17A6.76 6.76 0 0 0 34.25 45 6.76 6.76 0 0 0 41 51.75 6.76 6.76 0 0 0 47.75 45 6.76 6.76 0 0 0 41 38.25"/><path fill="#fff" d="M34 29.5a1 1 0 0 1 1 1v6.514A9.94 9.94 0 0 1 41 35c5.523 0 10 4.477 10 10s-4.477 10-10 10-10-4.477-10-10c0-2.246.75-4.312 2-5.981V31.5h-2a1 1 0 1 1 0-2zM41 52c3.86 0 7-3.14 7-7s-3.14-7-7-7-7 3.14-7 7 3.14 7 7 7m-7-23h-3c-.827 0-1.5.673-1.5 1.5S30.173 32 31 32h1.5v6.854a10.4 10.4 0 0 0-2 6.146c0 5.79 4.71 10.5 10.5 10.5S51.5 50.79 51.5 45 46.79 34.5 41 34.5c-1.961 0-3.844.539-5.5 1.566V30.5c0-.827-.673-1.5-1.5-1.5m7 22.5a6.51 6.51 0 0 1-6.5-6.5c0-3.584 2.916-6.5 6.5-6.5s6.5 2.916 6.5 6.5-2.916 6.5-6.5 6.5"/><path fill="#000" d="M49.9 40.502q-.245 0-.495-.117l-.105-.038-8.29-3.633a1.7 1.7 0 0 1-.902-.937l-3.255-8.339a3 3 0 0 1-.149-.382l-.154-.396.046-.013a3 3 0 0 1-.064-.595 3.254 3.254 0 0 1 3.25-3.25c1.378 0 2.6.881 3.054 2.172l.037-.01.054.273c.04.191.057.333.072.476l1.186 7.786 6.54 4.812-.006.012c.274.235.434.568.434.928 0 .689-.561 1.25-1.25 1.25z"/><path fill="#fff" d="M39.78 23.053c1.388 0 2.544.947 2.887 2.227l.011-.003.011.076c.031.126.045.257.059.389l1.203 7.898 6.449 4.746-.008.014a.99.99 0 0 1 .508.852 1 1 0 0 1-1 1 .97.97 0 0 1-.492-.148l-.008.014-8.29-3.633a1.45 1.45 0 0 1-.77-.799l-.162-.415-3.094-7.923a3 3 0 0 1-.144-.368l-.059-.15.011-.003a3 3 0 0 1-.113-.773 3 3 0 0 1 3-3m.001-.501c-1.93 0-3.5 1.57-3.5 3.5q0 .202.029.411l-.085.023.193.524.059.15c.038.121.092.264.158.402l3.078 7.888.162.415c.191.485.559.867 1.035 1.076l8.29 3.633.408.179.019-.032q.136.029.274.029c.827 0 1.5-.673 1.5-1.5a1.45 1.45 0 0 0-.365-.964l.014-.025-.353-.279-6.282-4.623-1.171-7.693a3 3 0 0 0-.068-.431l-.003-.033-.084-.555-.103.028a3.5 3.5 0 0 0-3.205-2.122z"/></symbol><symbol id="walking" fill="none" viewBox="0 0 64 64"><path fill="#000" d="M25.67 37.368c-.689 0-1.25-.561-1.25-1.25 0-.083.015-.156.031-.222l.007-.082 1.426-8.959c.006-.151.121-.351.224-.525.034-.06 4.571-8.362 4.571-8.362l5.371 3.762-6.083 6.915-3.185 8.043-.016-.004a1.22 1.22 0 0 1-1.097.685z"/><path fill="#fff" d="m30.763 18.333 4.915 3.441-5.899 6.705-3.145 7.904-.017-.005a.986.986 0 0 1-.947.74 1 1 0 0 1-1-1c0-.092.029-.176.052-.26l-.017-.005 1.426-8.959c.008-.172.222-.466.29-.617zm-.171-.731-.268.49-4.342 7.945c-.033.069-.061.115-.091.166-.111.191-.236.406-.258.632l-1.423 8.94-.071.443.033.009a1.5 1.5 0 0 0 1.496 1.391c.501 0 .948-.247 1.219-.648l.028.008.182-.41 3.113-7.824 5.842-6.64.369-.419-.458-.32-4.915-3.441-.458-.32z"/><path fill="#000" d="M23 53.568c-1.24 0-2.25-1.01-2.25-2.25 0-.476.15-.928.438-1.317l.061-.108 5.086-7.462 1.601-9.78 8.26 2.216-3.864 10.218a1.9 1.9 0 0 1-.445.682l-7.184 7.011a2.22 2.22 0 0 1-1.701.792z"/><path fill="#fff" d="M28.136 32.964 32 34l3.863 1.036-3.556 9.401-.211.558a1.7 1.7 0 0 1-.388.593l-7.183 7.009c-.367.437-.91.721-1.526.721a2 2 0 0 1-2-2c0-.486.18-.926.469-1.273l-.015-.012 5.116-7.508 1.565-9.561m-.402-.626-.089.545-1.548 9.452-5.054 7.417-.256.375.016.013a2.44 2.44 0 0 0-.302 1.178c0 1.379 1.122 2.5 2.5 2.5a2.49 2.49 0 0 0 1.909-.9l7.149-6.973c.224-.22.398-.487.507-.774l.211-.558 3.556-9.401.195-.517-.534-.143-3.863-1.036-3.864-1.036z"/><path fill="#000" d="M38.844 55.045c-.91 0-1.736-.562-2.079-1.408l-8.519-17.682c-.074-.141-.144-.271-.197-.412l-.096-.25.01-.008A4.1 4.1 0 0 1 27.749 34q.001-.102.016-.2v-.17l1.154-13.19h.026a4.214 4.214 0 0 1 4.187-3.64 4.254 4.254 0 0 1 4.25 4.25q0 .099-.015.195v.175l-1.08 12.332 4.698 18.376c.073.228.108.446.108.667 0 1.24-1.01 2.25-2.25 2.25z"/><path fill="#fff" d="M33.133 17.049a4 4 0 0 1 4 4c0 .119-.025.231-.035.347l.02.002-1.079 12.332 4.685 18.38-.007.002c.078.214.127.441.127.682a1.995 1.995 0 0 1-3.873.682l-.006.002-8.493-17.632c-.068-.129-.136-.257-.189-.393l-.041-.085.013-.005a4 4 0 0 1-.254-1.364c0-.119.025-.231.035-.347l-.02-.002 1.133-12.951.02.002c.178-2.044 1.875-3.653 3.965-3.653m-.001-.499a4.46 4.46 0 0 0-4.393 3.614l-.027-.002-.063.496-1.133 12.951-.044.499.028.002q.013.468.135.946l-.073.026.228.504.041.085c.042.112.113.25.186.388l8.496 17.637.032.067q.049.116.108.225l.056.117.01-.003a2.5 2.5 0 0 0 2.124 1.194c1.378 0 2.5-1.122 2.5-2.5q0-.372-.123-.753l-.013-.055-4.664-18.298 1.072-12.248.044-.499-.028-.002a4.506 4.506 0 0 0-4.499-4.391"/><path fill="#000" d="M33.874 16.082a3.5 3.5 0 1 0 0-7 3.5 3.5 0 0 0 0 7m7.458 20.808c-.324 0-.626-.127-.861-.361l-.077-.065-6.547-6.25.022-.023c-.281-.278-.781-1.498-2.784-6.722-.308-.803-.575-1.5-.755-1.961a3 3 0 0 1-.205-.51l-.192-.288.106-.04a3 3 0 0 1-.068-.615 3.254 3.254 0 0 1 3.25-3.25 3.25 3.25 0 0 1 3.056 2.175l.106-.031-.018.292c.04.19.057.331.072.473l1.252 8.208 4.736 7.118-.007.006c.107.186.163.388.163.596 0 .689-.561 1.25-1.25 1.25z"/><path fill="#fff" d="M33.22 17.053c1.387 0 2.544.947 2.886 2.226l.011-.003.012.077c.03.125.045.255.059.385l1.261 8.273 4.648 6.985-.01.008c.146.174.244.39.244.634a1 1 0 0 1-1 1 .98.98 0 0 1-.756-.366l-.01.008-6.547-6.25h-.002c-.189 0-2.662-6.594-3.455-8.617a3 3 0 0 1-.198-.491l-.042-.095.011-.003a3 3 0 0 1-.114-.774 3 3 0 0 1 3-3m.002-.497c-1.93 0-3.5 1.57-3.5 3.5q0 .209.031.428l-.167.051.305.549c.055.184.129.369.215.54.18.46.444 1.148.747 1.938 2.145 5.593 2.576 6.701 2.91 6.92l6.458 6.166.322.307.032-.027c.229.139.49.215.758.215.827 0 1.5-.673 1.5-1.5q0-.272-.101-.524l.02-.017-.237-.378-4.587-6.893-1.244-8.164a3 3 0 0 0-.067-.427l-.004-.037-.086-.554-.102.028a3.5 3.5 0 0 0-3.205-2.12z"/></symbol><symbol id="watching_television" fill="none" viewBox="0 0 64 64"><path fill="#000" d="M49 39h1v-2h1V16.556L49 13h-1v24h1zm-4 1v10h1v2h1v-2h5v2h1v-2h1V40zm-10.04-1.132-1 10c0 1.11-.89 2-2 2a2 2 0 0 1-2-2l-.1-.99q.27-.09.51-.21c.32-.16.61-.38.85-.65l.01-.01c.48-.53.77-1.23.77-2.01v-4.77c.62-.54 1-1.34 1-2.23v-1a3 3 0 0 0-.17-1 2.65 2.65 0 0 1 2.13 2.87m-10.68-7.84-1.72-6.39c-.02-.08-.04-.16-.06-.23a4 4 0 0 0-3.86-2.97c-2.09 0-3.8 1.6-3.98 3.63.31.36.52.79.62 1.27.01.02.02.05.02.07l.33 1.67 1.03 5.12c.09.46.51.8.98.8h3.07c.04.06 3.57-2.97 3.57-2.97m-6.008-10.695a3.5 3.5 0 1 0 0-7 3.5 3.5 0 0 0 0 7M32 36.998v1c0 .51-.19.97-.5 1.33-.14.16-.31.29-.5.4-.29.17-.64.27-1 .27H18a2 2 0 0 1-2-2v-1c0-.78.45-1.46 1.11-1.78.27-.14.57-.22.89-.22h12c.22 0 .43.04.63.1.38.13.71.36.95.67.22.28.36.62.4 1 .02.07.02.15.02.23"/><path fill="#000" d="M21.951 34.869a1.8 1.8 0 0 1-.693-.139 1.6 1.6 0 0 1-.403-.228.9.9 0 0 1-.199-.179 1 1 0 0 1-.152-.187c-.034-.013-.081-.092-.116-.15l-2.74-4.5-1.8-2.97-.062-.093a4 4 0 0 1-.272-.442l-.202-.322.039-.022a3.2 3.2 0 0 1-.223-1.162 3.254 3.254 0 0 1 3.25-3.25c1.247 0 2.397.733 2.934 1.868l.022.021.038.095.146.439-.197.22.236-.082.271.779.761 2.283 1.303 3.844 7.323 1.474.094.014c.588.04 1.093.584 1.093 1.229 0 .556-.357 1.033-.89 1.189a.9.9 0 0 1-.36.061l-.615.01-6.448.16-1.782.029-.354.012z"/><path fill="#fff" d="M18.377 21.476c1.202 0 2.232.712 2.71 1.733h.003l.01-.001.038.095q.006.02.014.039l.128.385.02.06.02.08.27.78.76 2.28 1.35 3.98.58.12 6.87 1.38c.03 0 .05 0 .08.01a1 1 0 0 1 .92.99c0 .46-.3.83-.71.95h-.01c-.09.04-.18.05-.28.05-.03 0-.06 0-.09-.01v.01l-.53.01-3.35.08-1.96.05h-.1l-.32.01-.72.02h-.01l-1.77.03-.29.01-.061.001c-.216 0-.416-.048-.599-.121-.12-.05-.24-.11-.34-.19a.7.7 0 0 1-.16-.14c-.06-.06-.1-.11-.14-.17-.05-.04-.08-.09-.11-.14l-.23-.38-2.51-4.12-1.8-2.97-.04-.05-.01-.02-.039-.065a3 3 0 0 1-.238-.387l-.073-.117.007-.003a3 3 0 0 1-.29-1.268 3 3 0 0 1 3-3.001m0-.5c-1.93 0-3.5 1.57-3.5 3.5q0 .516.156 1.016l-.086.041.288.479.073.117q.117.225.261.422l.012.025.018.029.031.047.02.025 1.783 2.942 2.51 4.121.229.379c.031.052.08.132.158.211.043.059.089.114.149.176.083.097.183.173.253.22.089.073.235.156.425.235q.4.16.791.16l.082-.002.286-.01 1.761-.03.735-.02.322-.01h.084l1.973-.05 3.349-.08.528-.01h.081q.054.001.116-.004l.294-.006v-.055l.01-.003.011-.003a1.48 1.48 0 0 0 1.07-1.43c0-.758-.582-1.401-1.333-1.484a1 1 0 0 0-.111-.015l-6.827-1.371-.297-.061-1.258-3.709-.759-2.277-.272-.785-.007-.038-.031-.097-.128-.385-.006-.019-.021-.058-.034-.085-.125-.315h-.052a3.51 3.51 0 0 0-3.011-1.732z"/><path fill="#000" d="M30.81 40.888c-.26.07-.53.11-.81.11H18c-1.65 0-3-1.34-3-3v-1c0-1.03.53-1.95 1.33-2.49a2.02 2.02 0 0 1-.65-1.12l-1.36-6.78c-.18-.93-1-1.61-1.96-1.61H12c-1.1 0-2 .9-2 2v18a2 2 0 0 0 2 2v4h3v-4h11v4h3v-4c.27 0 .52-.05.76-.14.73-.31 1.24-1.02 1.24-1.86v-4.17c-.06.02-.12.04-.19.06"/></symbol><symbol id="yoga" fill="none" viewBox="0 0 64 64"><path fill="#000" d="M39.614 21.414a3.75 3.75 0 1 0 0-7.5 3.75 3.75 0 0 0 0 7.5"/><path fill="#fff" d="M39.614 14.164a3.5 3.5 0 1 1 0 7 3.5 3.5 0 0 1 0-7m0-.5c-2.206 0-4 1.794-4 4s1.794 4 4 4 4-1.794 4-4-1.794-4-4-4"/><path fill="#000" d="M11.473 26.519a2.73 2.73 0 0 1-.897-2.564l1.897-10.031a2.23 2.23 0 0 1 2.208-1.873c1.24 0 2.25 1.01 2.25 2.25a1 1 0 0 1-.01.126l.1 7.928 7.639 4.286-4.907 7.006-8.279-7.127z"/><path fill="#fff" d="M14.682 12.3a2 2 0 0 1 2 2c0 .059-.012.115-.018.173h.01l.099 8.029 7.523 4.221-4.59 6.552-7.618-6.557-.453-.389A2.47 2.47 0 0 1 10.82 24l1.868-9.875h.01a1.993 1.993 0 0 1 1.982-1.826m.002-.499a2.48 2.48 0 0 0-2.389 1.79h-.001l-.003.015q-.047.162-.071.335l-.02.093-1.868 9.875a2.98 2.98 0 0 0 .98 2.801l.453.39 7.618 6.557.419.36.317-.453 4.59-6.552.317-.453-.482-.27-7.271-4.08-.096-7.739v-.042c.005-.049.008-.087.008-.126a2 2 0 0 0-.013-.254v-.031h-.003a2.504 2.504 0 0 0-2.484-2.214z"/><path fill="#000" d="m25.852 19.015-7.733-3.812.002-.007a1.23 1.23 0 0 1-.597-1.057c0-.689.561-1.25 1.25-1.25.108 0 .217.018.336.054l8.861 2.149a1 1 0 0 1 .312.137l8.136 5.42-4.217 5.023z"/><path fill="#fff" d="M18.774 13.139c.12 0 .232.029.339.068l.003-.008 8.797 2.137a.7.7 0 0 1 .232.101l.37.247 7.533 5.018-3.858 4.595-6.157-6.456-7.6-3.762.003-.008a.99.99 0 0 1-.661-.932 1 1 0 0 1 .999-1m.024-.531-.011.032h-.012c-.827 0-1.5.673-1.5 1.5 0 .452.21.872.551 1.152l-.011.031.396.206 7.521 3.723 6.097 6.392.385.404.359-.428 3.858-4.595.359-.428-.465-.31-7.533-5.018-.37-.247a1.2 1.2 0 0 0-.392-.171l-8.797-2.137-.114-.028-.06-.015-.262-.064z"/><path fill="#000" d="M22.002 52.174a2.24 2.24 0 0 1-2.233-2.035l-.016-.114-1.984-19.842c-.012-.103-.017-.142-.017-.183 0-1.415.729-2.746 1.917-3.532l-.004-.006.211-.143 11.476-6.629.012.021a4.14 4.14 0 0 1 1.891-.461 4.254 4.254 0 0 1 4.25 4.25 4.26 4.26 0 0 1-1.917 3.532l.004.006-.211.143-9.386 5.422-1.766 17.647h-.007a2.24 2.24 0 0 1-2.22 1.924"/><path fill="#fff" d="M33.253 19.5a4 4 0 0 1 4 4c0 1.48-.813 2.757-2.007 3.449l.008.014-9.497 5.487L24.002 50h-.008a1.997 1.997 0 0 1-1.992 1.924A1.996 1.996 0 0 1 20.01 50h-.008l-1.984-19.842c-.002-.054-.016-.104-.016-.158 0-1.48.813-2.757 2.007-3.449l-.008-.014 11.251-6.5.008.014a3.96 3.96 0 0 1 1.993-.551m0-.5a4.4 4.4 0 0 0-1.798.389l-.012-.022-.441.236-11.251 6.5-.433.25.022.039A4.5 4.5 0 0 0 17.502 30q.001.08.013.157v.015l.005.037 1.984 19.842.045.45h.025a2.49 2.49 0 0 0 2.427 1.924c1.18 0 2.168-.813 2.427-1.924h.017l.053-.45 1.729-17.295 9.275-5.358.433-.25-.022-.039a4.5 4.5 0 0 0 1.839-3.608c0-2.481-2.019-4.5-4.5-4.5z"/><path fill="#000" d="M40.321 31.623a1.7 1.7 0 0 1-1.061-.371l-6.932-5.545A3.22 3.22 0 0 1 30.868 23a3.254 3.254 0 0 1 3.25-3.25 3.23 3.23 0 0 1 2.721 1.48l4.812 6.012 7.862.874c.305 0 .617.13.852.364.486.487.486 1.28 0 1.768a1.24 1.24 0 0 1-.885.366l-8.971.998a2 2 0 0 1-.188.011"/><path fill="#fff" d="M34.119 20a3 3 0 0 1 2.121.879l.002.002q.218.221.388.485l4.891 6.114 7.961.885a1 1 0 0 1 0 2l-8.999 1a1.45 1.45 0 0 1-1.066-.307l-.348-.279-6.583-5.267a3 3 0 0 1-1.366-2.511 3 3 0 0 1 3-3m-.001-.501c-1.93 0-3.5 1.57-3.5 3.5 0 1.185.595 2.28 1.593 2.93l6.544 5.238.348.279a1.96 1.96 0 0 0 1.434.414l8.974-.997a1.501 1.501 0 0 0-.001-2.999l-7.73-.859-4.761-5.952a3.2 3.2 0 0 0-.404-.505l-.022-.023a3.48 3.48 0 0 0-2.475-1.026"/></symbol></defs></svg>